<svg width="64" height="61" viewBox="0 0 64 61" fill="none" xmlns="http://www.w3.org/2000/svg">
<g filter="url(#filter0_d_1_710)">
<path d="M30.4464 1.58722L30.4464 1.58707L30.4594 1.58218C31.1466 1.32505 32.0785 1.32677 32.7364 1.6706C33.1059 1.85917 33.4688 2.18251 33.7357 2.49512C33.8728 2.65559 33.999 2.82998 34.0944 3.0042C34.1433 3.09368 34.1966 3.20518 34.2335 3.32972C34.4148 3.34781 34.6347 3.38168 34.8626 3.42134C35.2212 3.48372 35.6525 3.57025 36.1003 3.66824C36.9913 3.86325 37.9763 4.10993 38.6054 4.31213L38.6059 4.31228C43.4384 5.8698 47.8066 9.05875 50.6828 13.1268L51.1047 13.7229L51.6057 13.1978C51.6065 13.197 51.6072 13.1962 51.6079 13.1954C51.8853 12.8984 52.1583 12.6242 52.378 12.4208C52.4869 12.3199 52.5907 12.229 52.6796 12.1599C52.7228 12.1263 52.7741 12.0888 52.8277 12.0568C52.8543 12.0409 52.8926 12.0196 52.9387 12.0007C52.9746 11.9859 53.0672 11.9502 53.1884 11.9502C53.3743 11.9502 53.5479 12.0237 53.6397 12.0669C53.7528 12.1202 53.874 12.1925 53.9846 12.2782C54.0724 12.3413 54.2344 12.4645 54.3313 12.6999C54.414 12.9005 54.4254 13.1258 54.4224 13.3437C54.4163 13.7926 54.3324 14.5901 54.1763 16.0528C54.0344 17.3897 53.9414 18.1871 53.8447 18.677C53.7472 19.1716 53.6211 19.4996 53.3082 19.747C53.1724 19.8579 53.017 19.9491 52.858 20.006C52.7283 20.0524 52.4672 20.1228 52.2016 20.0103L52.1512 19.9889L52.1054 19.9587C52.0824 19.9435 51.999 19.8896 51.8666 19.8041C51.4386 19.5276 50.4988 18.9204 49.4292 18.219C48.3966 17.5529 47.7407 17.1139 47.3427 16.8018C47.1454 16.6471 46.9798 16.4995 46.8606 16.3494C46.735 16.1912 46.6275 15.9876 46.6275 15.7361C46.6275 15.6606 46.6338 15.5833 46.6482 15.5057L46.4734 15.3922L46.6784 15.3821C46.7067 15.2895 46.7481 15.1977 46.8061 15.1095C46.9372 14.91 47.121 14.7771 47.3141 14.6893C47.6731 14.5261 48.1505 14.481 48.6876 14.481C48.858 14.481 49.0379 14.475 49.2042 14.4652C49.1928 14.448 49.181 14.4303 49.1688 14.4122L49.1551 14.3916C46.5946 10.7037 42.6534 7.7485 38.3833 6.33114L38.3825 6.33087C37.7618 6.12388 36.737 5.85343 35.7909 5.63337C35.3202 5.52388 34.8761 5.42855 34.5193 5.36099C34.3503 5.329 34.2119 5.30548 34.1043 5.28923C34.0786 5.33469 34.0518 5.38573 34.0257 5.44027L34.0243 5.44307C33.5452 6.43034 32.5611 6.89763 31.6049 6.89763C30.65 6.89763 29.6518 6.43571 29.0869 5.49047C29.0402 5.41349 29.0091 5.36251 28.9811 5.32111C28.9732 5.30933 28.9664 5.2998 28.9607 5.29206C28.9016 5.28791 28.7871 5.29158 28.5627 5.32153C28.3174 5.35428 27.9923 5.41043 27.5358 5.48945L27.5336 5.48982C25.9193 5.7631 23.1612 6.65319 21.7394 7.35612C17.1072 9.66139 13.4753 13.4577 11.4252 18.1353C11.1858 18.6829 10.9956 19.0817 10.8253 19.3468C10.6779 19.5761 10.4119 19.9238 9.95742 19.9238C9.82616 19.9238 9.65662 19.8995 9.49394 19.7995C9.3206 19.6929 9.21152 19.5351 9.15546 19.3699C9.06006 19.0888 9.11564 18.7807 9.1776 18.5445C9.3124 18.0306 9.64945 17.2708 10.1735 16.2267C11.4101 13.7503 12.9578 11.6701 15.0678 9.65947L15.0691 9.65824C18.3581 6.54281 22.3602 4.47988 26.8373 3.60957L26.8373 3.60953L26.8437 3.60836C27.2547 3.53307 27.6789 3.46124 28.0328 3.40797C28.3629 3.35829 28.6831 3.31646 28.8587 3.31571C28.8698 3.28949 28.8829 3.25598 28.8985 3.21311C29.1385 2.49184 29.7339 1.8729 30.4464 1.58722ZM33.9886 3.3154C33.9885 3.31544 33.9897 3.31557 33.9923 3.31564L33.9886 3.3154ZM51.1222 16.1781C50.8607 16.2771 50.5604 16.3346 50.1914 16.3761L50.7003 16.7067L50.7004 16.7067L50.7054 16.71C51.1969 17.0363 51.6524 17.3247 52.0055 17.5374C52.0635 17.1286 52.132 16.5971 52.2008 16.0254C52.2269 15.7848 52.2518 15.5521 52.275 15.3332C51.9008 15.7143 51.5789 16.0052 51.1222 16.1781ZM49.8009 14.3937C49.8034 14.3929 49.8026 14.393 49.7993 14.3943L49.8009 14.3937ZM30.9911 4.78046L30.9918 4.78105C31.3887 5.08823 31.8166 4.98738 32.0978 4.67198C32.2395 4.51307 32.3171 4.32169 32.3214 4.14185C32.3255 3.97551 32.2689 3.78201 32.0724 3.58623C31.8964 3.41848 31.7481 3.35614 31.6239 3.34048C31.4972 3.3245 31.326 3.34832 31.091 3.47562L31.0901 3.47609C30.8859 3.58622 30.7429 3.81628 30.7203 4.09921C30.6978 4.38153 30.802 4.63463 30.9911 4.78046Z" stroke="#E8E8E8" stroke-width="1.2"/>
<path d="M27.9906 9.63951L27.9863 9.6404C21.9159 10.9247 17.293 15.5107 15.9936 21.5646L15.9934 21.5656C15.8297 22.3349 15.7582 23.4678 15.762 24.5769C15.7658 25.6887 15.8456 26.8377 16.007 27.644L16.0079 27.6487L16.008 27.6487C16.5282 30.1436 17.8305 32.6473 19.6819 34.7554L19.6843 34.7582C20.7392 35.9444 21.1168 36.5786 21.5377 37.7568C21.7884 38.5016 21.8508 38.9063 21.9111 41.7401C21.9263 42.6243 21.9566 43.4474 21.9929 44.0621C22.011 44.3685 22.031 44.6296 22.0521 44.8229C22.0625 44.918 22.0743 45.0075 22.0883 45.0817C22.095 45.1175 22.1048 45.1634 22.1192 45.2101C22.1264 45.2333 22.1381 45.2679 22.1562 45.3065C22.1702 45.3366 22.2085 45.4144 22.2848 45.4899L22.7067 45.0633L22.2848 45.4899C22.4909 45.6938 22.7546 45.7278 22.9505 45.7002C23.1458 45.6726 23.3179 45.5829 23.4553 45.4742L23.4632 45.4679L23.471 45.4614C23.7982 45.184 23.8454 44.7725 23.8685 44.3216C23.8942 43.8184 23.886 42.9827 23.8635 41.5701L23.8635 41.5677C23.8336 40.0744 23.8109 39.2252 23.7454 38.6145C23.6765 37.9718 23.5591 37.5849 23.364 37.0214L23.3623 37.0167L23.3623 37.0167C23.1147 36.3202 22.8845 35.7837 22.5695 35.2611C22.256 34.7409 21.871 34.2554 21.3347 33.6492L21.3333 33.6477C18.6485 30.6335 17.5934 27.7033 17.7667 23.8613L17.7668 23.8591C17.8535 21.7717 18.1778 20.5441 19.1043 18.6827L19.105 18.6815C20.7716 15.3137 23.9401 12.7593 27.6626 11.76L27.9906 9.63951ZM27.9906 9.63951C28.7949 9.47551 30.2524 9.43409 31.6541 9.47508C33.0572 9.51611 34.52 9.64314 35.3361 9.8551L35.338 9.85562C40.386 11.1849 43.7313 14.275 45.1966 19.0276L45.1973 19.0302C45.3821 19.6391 45.4957 20.0705 45.5619 20.6637C45.626 21.238 45.6447 21.957 45.6597 23.1418L45.6597 23.1426L45.6881 25.6273M27.9906 9.63951L48.5671 33.7288M45.0898 25.7844L46.7908 28.881L45.0597 23.1494L45.0898 25.7844ZM45.0898 25.7844L45.6157 25.4956L45.6881 25.6273M45.0898 25.7844L45.6898 25.7776L45.6881 25.6273M45.6881 25.6273L47.3166 28.5921L47.3173 28.5934C48.215 30.2368 48.7427 31.2463 48.9494 31.9305C49.0574 32.2882 49.1017 32.6278 49.0203 32.9596C48.9383 33.2943 48.7485 33.5363 48.5671 33.7288M48.5671 33.7288C48.5674 33.7285 48.5676 33.7283 48.5678 33.728L48.1304 33.3173L48.5671 33.7288ZM48.5671 33.7288C48.3767 33.9311 48.0743 34.0863 47.8005 34.2037C47.5008 34.3323 47.1362 34.4557 46.7426 34.5648M48.5671 33.7288L44.1158 33.5764C44.2586 33.4251 44.4337 33.316 44.6263 33.2224C44.9926 33.0445 45.5813 32.8513 46.5179 32.5522L46.5198 32.5516C46.6922 32.4972 46.8233 32.4526 46.9246 32.413C46.9514 32.4025 46.9749 32.3929 46.9955 32.384M46.7426 34.5648C46.4108 34.6596 46.0937 34.7571 45.8515 34.8387C45.7848 34.8612 45.7255 34.8819 45.6745 34.9004M46.7426 34.5648C46.7418 34.565 46.741 34.5653 46.7401 34.5655L46.58 33.9872L46.7449 34.5642C46.7441 34.5644 46.7434 34.5646 46.7426 34.5648ZM45.6745 34.9004C45.6609 34.9891 45.6466 35.1039 45.6322 35.246C45.5907 35.6565 45.5537 36.2417 45.5238 36.9586M45.6745 34.9004C45.6321 34.9158 45.5954 34.9298 45.5646 34.9421C45.5303 34.9558 45.5097 34.965 45.5 34.9697C45.4837 34.9776 45.4984 34.9721 45.5261 34.9534C45.5332 34.9486 45.5411 34.9429 45.5495 34.9364C45.5537 34.9331 45.5577 34.9298 45.5617 34.9265C45.6356 34.865 45.672 34.8023 45.6827 34.7834C45.6994 34.7539 45.7066 34.7333 45.7073 34.7313L45.7073 34.7312C45.7075 34.7307 45.7075 34.7308 45.7072 34.7315C45.7062 34.7351 45.7008 34.7539 45.6927 34.7946C45.6868 34.8245 45.6807 34.8597 45.6745 34.9004ZM45.5238 36.9586C45.5238 36.9591 45.5237 36.9595 45.5237 36.9599L44.9242 36.9349L45.5238 36.9576C45.5238 36.9579 45.5238 36.9583 45.5238 36.9586ZM45.5238 36.9586C45.4482 38.9526 45.2777 40.4119 44.9146 41.4789C44.5391 42.5827 43.9482 43.2918 43.0584 43.7374C42.6689 43.9379 42.384 44.0699 41.8404 44.1316C41.3556 44.1867 40.6391 44.1894 39.3698 44.1894H37.2905V45.7778C37.2905 46.3986 37.2968 46.8419 37.3109 47.1507C37.555 47.0762 37.8485 46.9853 38.1471 46.889L38.147 46.889L38.1542 46.8868C43.9087 45.1101 49.0858 40.3127 51.3979 34.6247L51.399 34.6222C51.6462 34.0221 51.9054 33.5169 52.1824 33.2374C52.3058 33.1129 52.5966 32.8681 52.9915 32.96C53.375 33.0492 53.5356 33.3841 53.5985 33.551C53.6762 33.7554 53.6564 33.9695 53.6389 34.0955C53.6178 34.2481 53.5765 34.4169 53.5247 34.59C53.4206 34.9385 53.2562 35.364 53.0544 35.8234C52.6497 36.7445 52.0719 37.8529 51.4547 38.8448L51.4546 38.8449C48.6565 43.3399 44.4683 46.6991 39.3052 48.5892C38.5434 48.8688 37.494 49.1618 36.5302 49.3845C35.5858 49.6028 34.6459 49.7721 34.1316 49.7721C34.1 49.7721 34.076 49.773 34.058 49.7741C34.0451 49.7979 34.0278 49.8331 34.0058 49.8845L34.0059 49.8845L34.0031 49.8908C33.7445 50.4765 33.4179 50.9517 32.9484 51.2706C32.4745 51.5925 31.9258 51.7074 31.3167 51.7074C30.9651 51.7074 30.6455 51.6967 30.3357 51.5789C30.0248 51.4606 29.779 51.2557 29.5151 51.0171M29.5151 51.0171C29.5153 51.0173 29.5155 51.0175 29.5157 51.0177L29.9168 50.5715L29.5144 51.0165C29.5146 51.0167 29.5149 51.0169 29.5151 51.0171ZM29.5151 51.0171C29.335 50.8551 29.1648 50.6835 29.0344 50.5302C28.9702 50.4546 28.906 50.3723 28.8543 50.2901C28.8286 50.2492 28.799 50.1974 28.7742 50.1384C28.7579 50.0998 28.7314 50.0302 28.7201 49.9412C28.7109 49.9367 28.7002 49.9316 28.6876 49.9261C28.4797 49.8347 28.0699 49.7363 27.2591 49.6002C23.9459 49.0489 20.4159 47.5839 17.5763 45.5997L17.5761 45.5996C15.5117 44.1559 13.0542 41.6166 11.4898 39.3516C11.376 39.4661 11.235 39.6137 11.0561 39.8028C11.0558 39.8031 11.0556 39.8033 11.0554 39.8036L10.6195 39.3913M10.6195 39.3913C9.626 40.4483 9.14432 40.6418 8.85832 40.1058M10.6195 39.3913C11.4925 38.4683 11.5828 38.4087 11.7484 38.6618L10.6195 39.3913ZM8.85832 40.1058L8.33136 40.3927C8.33082 40.3918 8.33029 40.3908 8.32976 40.3898C8.3295 40.3893 8.32924 40.3888 8.32897 40.3883L8.85832 40.1058ZM8.85832 40.1058C8.75295 39.9123 8.81316 38.9149 9.054 36.8158C9.40021 33.8681 9.49052 33.5555 9.98726 33.5406C10.2432 33.5406 15.1954 36.7562 15.346 37.0242M15.346 37.0242L15.8655 36.724C15.8657 36.7245 15.866 36.7249 15.8662 36.7253C16.0134 36.9806 16.1024 37.3149 15.9673 37.6601C15.8403 37.9846 15.5683 38.1779 15.322 38.2933C14.8673 38.5063 14.1988 38.5956 13.4103 38.6058C13.612 38.8802 13.8735 39.2125 14.1697 39.5712C14.8738 40.4236 15.7454 41.3907 16.4228 42.0391C19.3651 44.8476 22.9504 46.7158 27.0116 47.5571C27.5087 47.6576 27.8792 47.7291 28.1654 47.7721C28.4578 47.816 28.6226 47.8237 28.7209 47.8151C28.7651 47.8113 28.7839 47.8049 28.7878 47.8035C28.7879 47.8035 28.788 47.8034 28.7881 47.8034C28.799 47.7944 28.8337 47.7597 28.9188 47.616L28.9188 47.616L28.9217 47.6112C30.0241 45.7877 32.5564 45.7509 33.7153 47.5482C33.8833 47.7998 33.9362 47.8094 33.9727 47.816C33.9747 47.8164 33.9766 47.8167 33.9785 47.8171C34.1126 47.844 34.3769 47.8247 35.0579 47.6777C35.0581 47.6776 35.0583 47.6776 35.0586 47.6775L35.3379 47.6167V45.8076C35.3379 44.8086 35.3366 44.2897 35.3142 44.0083C35.1457 43.9763 34.8911 43.9317 34.6028 43.8812C34.444 43.8534 34.275 43.8239 34.1045 43.7936C32.6612 43.5504 31.1456 43.1053 30.2196 42.5993C29.1889 42.0533 28.5484 41.2482 26.62 38.3875C25.875 37.2895 25.3974 36.5362 25.1737 36.0286C25.0687 35.7901 24.9667 35.4949 25.01 35.2022C25.035 35.0337 25.1074 34.8695 25.238 34.7353C25.3602 34.6096 25.5026 34.5419 25.6215 34.5035C25.7827 34.451 25.9194 34.4793 25.9835 34.4977C26.0537 34.5178 26.1067 34.5462 26.1365 34.5637C26.1966 34.5989 26.2441 34.6388 26.2721 34.6635C26.3327 34.7169 26.3955 34.7833 26.4538 34.8486C26.5744 34.9837 26.7279 35.173 26.9014 35.3977C27.2507 35.8499 27.7053 36.4774 28.1841 37.1764L28.1858 37.179C30.2003 40.1525 30.6237 40.5886 31.3684 40.9508L31.3698 40.9515C32.7747 41.6393 35.426 42.1421 38.5955 42.2753C40.2608 42.3351 41.2208 42.2939 41.8377 42.116C42.1288 42.032 42.3246 41.922 42.4771 41.7879C42.6328 41.6509 42.772 41.4635 42.9162 41.1849L42.9161 41.1848L42.9213 41.1751C43.039 40.9576 43.1827 40.4324 43.3055 39.6182C43.4238 38.8332 43.5126 37.8544 43.5571 36.7913C43.5571 36.7911 43.5571 36.7909 43.5571 36.7907L44.1566 36.8158M15.346 37.0242C15.7072 37.6495 14.9395 38.0068 13.2537 38.0068C12.772 38.0068 12.4559 38.0663 12.4559 38.1705C12.4559 38.5278 14.6084 41.1331 16.0083 42.4729L15.346 37.0242ZM44.1566 36.8158C44.2017 35.6248 44.3071 34.4785 44.3974 34.2552M44.1566 36.8158C44.0662 38.9744 43.7953 40.8204 43.4491 41.4606L44.1566 36.8158ZM44.3974 34.2552L43.8331 34.0514C43.834 34.0488 43.835 34.0461 43.836 34.0435C43.8377 34.039 43.8394 34.0346 43.8412 34.0302L44.3974 34.2552ZM44.3974 34.2552C44.5479 33.8384 44.7888 33.7342 46.7004 33.1238C47.4079 32.9005 47.6186 32.7814 47.6487 32.5134C47.6789 32.305 47.0617 31.0247 46.008 29.1043M46.008 29.1043L45.4827 29.3942M46.008 29.1043L45.482 29.3929M46.008 29.1043L44.3071 26.0226L44.292 23.4174M45.4827 29.3942C46.0068 30.3495 46.4186 31.1388 46.6942 31.7111C46.8326 31.9987 46.9324 32.2226 46.9944 32.3813C46.9948 32.3822 46.9951 32.3831 46.9955 32.384M45.4827 29.3942C45.4825 29.3938 45.4822 29.3933 45.482 29.3929M45.4827 29.3942L45.482 29.3929M46.9955 32.384C47.0541 32.3588 47.0891 32.3401 47.109 32.3276C47.1173 32.3223 47.1204 32.3198 47.12 32.3201C47.1192 32.3208 47.1051 32.3322 47.0888 32.3566C47.0703 32.3843 47.0608 32.4105 47.0562 32.4278C47.0544 32.4347 47.0534 32.4402 47.0528 32.4438C47.0527 32.4447 47.0527 32.4456 47.0526 32.4465C47.0473 32.4966 47.051 32.5354 47.0539 32.554M46.9955 32.384C47.0262 32.4627 47.0433 32.5145 47.0514 32.5441C47.0524 32.5479 47.0533 32.5512 47.0539 32.554M47.0539 32.554C47.0561 32.5625 47.0566 32.5663 47.0564 32.5661C47.0562 32.5658 47.0551 32.5616 47.0539 32.554ZM45.482 29.3929L43.7818 26.3126L43.708 26.1789L43.7071 26.0261L43.6921 23.4233L44.292 23.4174M44.292 23.4174L43.692 23.4209L43.692 23.422M44.292 23.4174C44.2619 20.3507 44.0211 19.2639 42.8921 17.0904L43.692 23.422M43.692 23.422C43.677 21.8975 43.6092 20.9112 43.4183 20.0486C43.2294 19.1947 42.9131 18.4324 42.3597 17.3669L42.3582 17.3641C41.8516 16.3759 41.4731 15.8762 40.4865 14.9148L40.4851 14.9135C38.7904 13.2516 37.3947 12.4654 34.7591 11.7598L34.7576 11.7594C33.954 11.542 32.6131 11.4229 31.2226 11.4229C29.8337 11.4229 28.4844 11.5417 27.6639 11.7597L43.692 23.422ZM36.8862 47.9067L36.7261 47.4211C36.7243 47.3983 36.7226 47.3747 36.721 47.3501L36.8862 47.9067ZM53.0332 34.0836C53.0333 34.0829 53.0335 34.0822 53.0336 34.0814C53.0362 34.0796 53.0385 34.078 53.0404 34.0765C53.0388 34.0781 53.0369 34.0799 53.0348 34.082C53.0343 34.0826 53.0337 34.0831 53.0332 34.0836ZM11.8924 36.2945C11.4039 35.9864 10.9443 35.7029 10.5892 35.4904C10.5845 35.5361 10.5796 35.5828 10.5745 35.6305C10.531 36.0404 10.4706 36.5705 10.4027 37.1228C10.3825 37.3097 10.3637 37.4913 10.3464 37.6642C10.4295 37.5773 10.5077 37.4957 10.5785 37.4217C10.7465 37.2466 10.8728 37.1148 10.9227 37.0584L10.936 37.0434L10.9502 37.0293C11.0818 36.8991 11.2404 36.8341 11.3543 36.7976C11.4779 36.7582 11.615 36.7323 11.7555 36.714C11.9507 36.6885 12.1862 36.6736 12.4605 36.6668C12.2813 36.5474 12.0903 36.4222 11.8924 36.2945ZM25.4786 35.5637C25.4771 35.5623 25.4774 35.5627 25.4795 35.5645L25.4786 35.5637ZM35.2897 43.8277C35.2896 43.8278 35.2901 43.8296 35.2912 43.8328C35.2903 43.8293 35.2897 43.8277 35.2897 43.8277ZM35.5294 44.0518C35.5357 44.0538 35.5394 44.0546 35.5397 44.0546C35.54 44.0545 35.5368 44.0535 35.5294 44.0518ZM13.035 38.0341C13.0353 38.0348 13.0357 38.0356 13.0361 38.0366C13.0331 38.0278 13.0319 38.0265 13.035 38.0341ZM11.7752 39.0892C11.7751 39.0893 11.775 39.0894 11.7749 39.0894L11.7752 39.0892ZM31.7574 48.2649C31.7413 48.2537 31.7318 48.2488 31.7294 48.2475L31.7269 48.2466L31.7198 48.2439C31.2192 48.0527 30.8313 48.2394 30.6412 48.5101C30.4567 48.7729 30.4269 49.1534 30.7753 49.5047C31.4657 50.1742 32.4624 49.4052 32.0212 48.5754L32.0211 48.5755L32.0156 48.5645C31.9812 48.4964 31.9207 48.4138 31.8488 48.3426C31.8141 48.3083 31.7825 48.2824 31.7574 48.2649Z" stroke="#E8E8E8" stroke-width="1.2"/>
<path d="M30.8346 24.4288C30.3529 24.5925 29.6455 25.2029 29.4197 25.6942L29.1337 26.245H25.1598C23.8828 26.245 22.7397 26.2297 22.0111 26.2021L30.8346 24.4288ZM30.8346 24.4288C30.9249 24.399 30.955 22.9996 30.94 20.7368L30.8346 24.4288ZM29.6004 16.538L29.6007 16.5376C29.9015 16.1337 30.167 15.7899 30.4114 15.5502C30.6445 15.3215 30.9751 15.0682 31.4081 15.0869C31.8307 15.1052 32.1449 15.3757 32.3687 15.6158C32.6064 15.8706 32.866 16.2307 33.1632 16.6569L33.1633 16.6569L33.1702 16.6672C33.4058 17.0205 33.624 17.3574 33.7846 17.6157C33.8644 17.744 33.933 17.8579 33.9831 17.9466C34.0076 17.99 34.0321 18.0352 34.0521 18.0768C34.0618 18.0969 34.0749 18.1255 34.087 18.158C34.0871 18.1583 34.0873 18.1589 34.0876 18.1596C34.0934 18.1749 34.129 18.2679 34.129 18.3846C34.129 18.6908 33.9325 18.8843 33.8502 18.9556C33.7415 19.0496 33.6144 19.1182 33.4939 19.1659L33.4939 19.166L33.4818 19.1705C33.3022 19.2371 33.1037 19.2482 32.9014 19.184C32.7211 19.1268 32.5719 19.0204 32.4504 18.9139C32.4116 18.8799 32.3718 18.8423 32.3308 18.8012L32.3227 20.7666V20.7676V24.0596L32.449 24.1126C34.3686 24.8978 34.6093 27.2864 33.0826 28.6307L33.0826 28.6307L33.0754 28.6369C32.8408 28.8369 32.6108 29.0071 32.3178 29.1096C32.0311 29.2098 31.7353 29.227 31.4066 29.227C30.8568 29.227 30.3554 29.1295 29.9252 28.8875C29.4872 28.6411 29.1709 28.2717 28.9529 27.8123L28.9529 27.8123L28.9508 27.8079L28.8556 27.6029L25.1899 27.5894H25.1888H22.6111C22.6828 27.7062 22.7458 27.845 22.769 28.0003C22.8076 28.2579 22.7289 28.5509 22.4721 28.7447C22.2647 28.9012 22.0208 28.9292 21.8483 28.9292C21.7383 28.9292 21.6449 28.903 21.5936 28.8867C21.5336 28.8677 21.4754 28.8437 21.4233 28.8201C21.3188 28.7727 21.2035 28.7105 21.088 28.6431C20.855 28.5074 20.5822 28.3283 20.321 28.1441C20.0595 27.9599 19.7991 27.7631 19.592 27.5898C19.4892 27.5037 19.392 27.4172 19.3122 27.3367C19.2549 27.2789 19.1339 27.1548 19.0684 27.0011L19.0637 26.99L19.0595 26.9788C19.0035 26.8311 18.9866 26.6758 18.9866 26.5502C18.9866 26.4252 19.0033 26.2707 19.0587 26.1236C19.0978 26.019 19.1557 25.9387 19.1927 25.8916C19.2351 25.8376 19.2821 25.7875 19.3269 25.7434C19.4167 25.6549 19.5262 25.5624 19.6408 25.4724C19.8719 25.2909 20.162 25.09 20.4501 24.9069C20.7376 24.7241 21.0374 24.5498 21.2892 24.4253C21.4131 24.364 21.5412 24.3069 21.6584 24.2681C21.7161 24.249 21.7888 24.2284 21.8674 24.2176C21.9238 24.2099 22.0674 24.194 22.2258 24.2545C22.4073 24.3211 22.6083 24.4471 22.7308 24.6722C22.8609 24.9111 22.8489 25.1622 22.7819 25.3611C22.7509 25.453 22.7069 25.5396 22.6533 25.6208C23.3344 25.6365 24.2085 25.645 25.1598 25.645H28.7692L28.8812 25.4292C29.045 25.0814 29.3424 24.7466 29.6339 24.4891C29.8335 24.3127 30.0651 24.1417 30.3009 24.0131C30.3113 23.8648 30.3202 23.6618 30.327 23.4042C30.3437 22.7783 30.3475 21.8713 30.34 20.7425C30.34 20.7419 30.34 20.7413 30.34 20.7408L30.3162 18.8231C30.2873 18.8516 30.2586 18.8787 30.2301 18.9042C30.1378 18.9869 30.0294 19.0698 29.9072 19.1302C29.7898 19.1882 29.6051 19.2523 29.3888 19.2133L29.3888 19.2134L29.3821 19.2121C29.2035 19.1779 28.9042 19.0834 28.736 18.7801C28.5728 18.4858 28.6382 18.1816 28.701 17.9964C28.827 17.6252 29.1529 17.1403 29.6004 16.538ZM30.2784 24.2317C30.2779 24.2335 30.2778 24.2345 30.2778 24.2343C30.2778 24.2342 30.278 24.2337 30.2782 24.2326L30.2784 24.2317ZM31.7428 25.9641L31.7357 25.9606L31.7288 25.9569C31.65 25.9153 31.5467 25.8723 31.449 25.8406C31.401 25.825 31.3606 25.8142 31.3307 25.8078C31.3225 25.806 31.3161 25.8048 31.3114 25.804C31.2112 25.813 31.0728 25.8635 30.9338 25.9699C30.7855 26.0832 30.6887 26.2205 30.6511 26.331C30.5653 26.5916 30.6026 26.78 30.6743 26.913C30.752 27.0571 30.8939 27.1786 31.0747 27.2454C31.4269 27.3756 31.819 27.2776 32.0127 26.8308C32.1753 26.4336 32.0276 26.1049 31.7428 25.9641Z" stroke="#E8E8E8" stroke-width="1.2"/>
<path d="M9.01753 21.1257L9.02038 21.1249C10.1711 20.8191 11.4993 20.9417 12.6665 21.4529L12.6666 21.4528L12.6759 21.4572C12.9502 21.583 13.1963 21.716 13.3833 21.8629C13.5466 21.9912 13.8026 22.2366 13.8139 22.6096C13.8261 23.0123 13.5516 23.2652 13.3731 23.3901C13.1789 23.526 12.9263 23.635 12.6545 23.7299C11.3684 24.1836 10.6174 25.2414 10.6174 26.558C10.6174 27.8521 11.3615 28.9256 12.6056 29.3901L12.6056 29.3901L12.6079 29.391C12.8812 29.4944 13.1312 29.6099 13.3254 29.7482C13.5051 29.8762 13.7539 30.1074 13.7856 30.4694C13.8182 30.8429 13.6007 31.1125 13.4343 31.2651C13.2596 31.4255 13.0269 31.5652 12.774 31.6924C12.4398 31.8657 12.1446 31.9845 11.7652 32.0521C11.4049 32.1163 10.9887 32.1303 10.4238 32.1303C9.82916 32.1303 9.41011 32.1209 9.03476 32.0462C8.64253 31.9681 8.32664 31.8251 7.9259 31.6194C6.6877 31.0057 5.5842 29.8239 5.12055 28.5703C4.82937 27.807 4.76405 27.289 4.81193 26.2926C4.84426 25.5364 4.96657 24.8731 5.22835 24.2604C5.49103 23.6455 5.88054 23.1134 6.406 22.6015C6.79467 22.2172 7.14895 21.9217 7.56879 21.6835C7.98745 21.446 8.44353 21.2812 9.01753 21.1257ZM6.60046 28.4635C5.78763 26.8706 6.02847 25.1288 7.23267 23.7741L10.9534 30.8144C9.2868 31.055 7.41916 30.0692 6.60046 28.4635ZM10.2369 30.2427C8.11419 28.2803 8.04365 24.982 10.1857 22.9809C9.10928 23.0321 8.36384 23.4027 7.68161 24.1722L7.68112 24.1727C6.63623 25.3482 6.43769 26.8245 7.13491 28.1908L7.13499 28.191C7.74239 29.3823 9.01325 30.1614 10.2369 30.2427Z" stroke="#E8E8E8" stroke-width="1.2"/>
<path d="M52.368 22.6923L52.368 22.6924C50.2221 23.814 49.4025 26.4394 50.5333 28.5928C50.7758 29.0618 51.19 29.4939 51.6439 29.8377C52.1027 30.1854 52.6454 30.4757 53.1852 30.6333L52.368 22.6923ZM52.368 22.6923L52.3756 22.6885M52.368 22.6923L52.3756 22.6885M52.3756 22.6885C52.7481 22.5005 53.0484 22.3625 53.3988 22.2931C53.7417 22.2253 54.0979 22.2304 54.5699 22.2526C56.1042 22.3203 57.2547 22.9478 58.0452 24.1988L58.0453 24.1987M52.3756 22.6885L58.0453 24.1987M58.0453 24.1987L58.051 24.2081M58.0453 24.1987L58.051 24.2081M58.051 24.2081C58.2581 24.5494 58.4162 24.8322 58.5013 25.2072C58.5808 25.5573 58.5896 25.9602 58.5896 26.5291C58.5896 27.0976 58.5851 27.5062 58.5069 27.8496C58.42 28.2306 58.2512 28.5024 58.0325 28.8192M58.051 24.2081L58.0325 28.8192M58.0325 28.8192C56.917 30.4477 55.0305 31.172 53.1853 30.6333L58.0325 28.8192ZM52.6779 28.1899L52.678 28.19C54.3037 29.6014 56.7122 28.4904 56.7122 26.5291C56.7122 25.9891 56.5913 25.5718 56.3777 25.2417C56.164 24.9117 55.8297 24.6259 55.3324 24.3954C55.0601 24.2737 54.6047 24.1666 54.377 24.1666C53.963 24.1666 53.478 24.3286 53.0467 24.614C52.6135 24.9007 52.2995 25.2684 52.1678 25.6118C52.0236 25.9906 52.0006 26.5196 52.1099 27.0427C52.2209 27.5734 52.4442 27.987 52.6779 28.1899Z" stroke="#E8E8E8" stroke-width="1.2"/>
</g>
<defs>
<filter id="filter0_d_1_710" x="0.197739" y="0.799805" width="62.9919" height="59.5076" filterUnits="userSpaceOnUse" color-interpolation-filters="sRGB">
<feFlood flood-opacity="0" result="BackgroundImageFix"/>
<feColorMatrix in="SourceAlpha" type="matrix" values="0 0 0 0 0 0 0 0 0 0 0 0 0 0 0 0 0 0 127 0" result="hardAlpha"/>
<feOffset dy="4"/>
<feGaussianBlur stdDeviation="2"/>
<feComposite in2="hardAlpha" operator="out"/>
<feColorMatrix type="matrix" values="0 0 0 0 0 0 0 0 0 0 0 0 0 0 0 0 0 0 0.25 0"/>
<feBlend mode="normal" in2="BackgroundImageFix" result="effect1_dropShadow_1_710"/>
<feBlend mode="normal" in="SourceGraphic" in2="effect1_dropShadow_1_710" result="shape"/>
</filter>
</defs>
</svg>
