<svg width="63" height="59" viewBox="0 0 63 59" fill="none" xmlns="http://www.w3.org/2000/svg">
<g filter="url(#filter0_d_1_718)">
<mask id="path-1-inside-1_1_718" fill="white">
<path fill-rule="evenodd" clip-rule="evenodd" d="M30.0087 0.751743C29.5528 1.1551 28.8331 1.98554 28.4013 2.60244C27.7056 3.57525 27.6096 3.90742 27.5376 5.71067C27.4897 6.82584 27.3217 7.79864 27.1778 7.89355C26.8659 8.08337 27.3937 10.1002 27.8735 10.4798C28.0654 10.6222 28.2094 10.9543 28.2094 11.1679C28.2094 11.4051 28.4733 11.9271 28.8091 12.3068C29.6488 13.3033 29.6488 14.9879 28.8091 15.7709C28.1614 16.3641 26.578 16.8623 25.3305 16.8623C23.2913 16.8623 22.2357 18.5232 21.9478 22.1772C21.7799 24.4312 21.516 26.8514 21.0122 30.363C20.8682 31.2883 20.6283 32.0713 20.3644 32.3086C19.6927 32.9729 14.9905 35.7964 13.887 36.2235C12.9273 36.6032 12.8314 36.5794 11.8957 36.1049C11.368 35.8439 10.6482 35.6066 10.3124 35.6066C9.9765 35.6066 9.4487 35.3456 9.16081 35.0372C8.22518 34.1355 7.88931 34.1118 7.60142 34.9423C7.45748 35.3456 7.33753 35.9388 7.33753 36.2472C7.33753 36.7218 7.26556 36.793 6.66579 36.6506C6.30593 36.5557 5.75415 36.3896 5.41828 36.271L4.81851 36.0574L5.41828 36.6743C6.35391 37.6709 7.28955 38.0268 8.9449 38.0742C10.3603 38.0979 10.4803 38.1454 10.3364 38.5725C9.85654 40.1622 9.90452 40.7079 10.7442 41.7756C11.6558 42.962 14.6307 45.0737 17.3896 46.4973C19.0929 47.3515 20.0286 47.7074 21.8519 48.0633L22.5716 48.2294L21.9238 48.7751C21.54 49.0835 21.2521 49.4394 21.2521 49.5581C21.2521 50.1512 24.4428 50.2699 26.0742 49.7479C26.65 49.5581 27.9455 49.0598 28.9291 48.6564C31.4961 47.565 32.5277 47.6125 35.5265 48.8937C37.3498 49.6767 38.3094 49.9614 39.5329 50.0326C42.2199 50.1987 43.1555 49.653 41.7641 48.7513C41.4282 48.5378 41.1883 48.3243 41.2363 48.2768C41.2843 48.2294 41.956 48.0633 42.7477 47.9209C45.2667 47.4701 51.3123 43.9348 52.8957 41.9892C53.5914 41.1587 53.6634 40.8977 53.5914 39.9249C53.5435 39.308 53.4475 38.6437 53.3755 38.4539C53.3036 38.1929 53.4955 38.0979 54.1192 38.0742C56.3984 38.0505 56.7102 37.9556 57.8138 37.1251C58.4376 36.6506 58.9174 36.2235 58.8694 36.1761C58.8214 36.1286 58.2696 36.2472 57.6459 36.4371C56.6383 36.7455 56.5183 36.7218 56.5183 36.3896C56.5183 35.7253 55.9665 34.183 55.7266 34.183C55.6067 34.183 55.1268 34.4915 54.671 34.8948C54.2392 35.2744 53.5914 35.6066 53.2796 35.6066C52.9677 35.6066 52.3199 35.8439 51.8401 36.1049C51.2644 36.4608 50.7606 36.5794 50.2807 36.4845C49.0812 36.2472 43.2755 32.5458 42.9636 31.834C42.8916 31.6442 42.7237 30.363 42.5798 28.9868C42.4598 27.6106 42.1959 25.7599 42.004 24.882C41.8121 24.0041 41.6441 22.5093 41.6441 21.5603C41.6441 19.7096 41.1403 18.286 40.2527 17.503C39.9888 17.242 39.1011 16.981 38.1655 16.8386C37.2778 16.72 36.2942 16.5539 35.9583 16.4827C35.1427 16.2692 34.4949 15.3438 34.303 14.11C34.183 13.1847 34.207 12.9948 34.6389 12.6864C34.9028 12.4966 35.2626 11.9509 35.4066 11.4526C35.5745 10.9781 35.8384 10.4086 36.0063 10.2188C36.1743 10.029 36.4142 9.48326 36.5821 9.03244C36.798 8.36809 36.798 8.15455 36.5341 7.96473C36.2942 7.79865 36.2222 7.32411 36.3182 6.30385C36.4382 4.47688 36.0543 3.02953 35.1667 2.10418C34.7828 1.72455 34.4469 1.32119 34.399 1.22628C34.351 1.13137 33.9911 0.822929 33.5593 0.538204C32.4317 -0.244785 31.0882 -0.173607 30.0087 0.751743ZM30.3445 6.44621C32.4077 8.48672 35.4545 5.56831 33.5833 3.36171C33.0555 2.7448 32.7916 2.62617 31.9039 2.62617C31.0403 2.62617 30.7044 2.74481 30.2486 3.24307C29.3849 4.16842 29.4329 5.52086 30.3445 6.44621ZM34.207 11.2865C34.207 10.6459 34.0151 10.2425 33.5113 9.72053C32.5757 8.8189 31.4241 8.79517 30.3925 9.64935C28.8331 10.9306 29.8647 13.5406 31.9279 13.5406C33.1514 13.5406 34.207 12.4966 34.207 11.2865ZM33.5833 19.2113C34.5669 18.0724 34.279 16.4353 32.9835 15.7709C31.9519 15.2489 31.1362 15.3675 30.3445 16.1268C29.4329 17.0522 29.3849 18.4046 30.2486 19.3299C30.7044 19.8282 31.0403 19.9468 31.9039 19.9468C32.7916 19.9468 33.0555 19.8282 33.5833 19.2113ZM33.6073 25.5939C34.399 24.6685 34.375 23.6957 33.5593 22.7941C32.7436 21.9399 31.688 21.7026 30.8004 22.2009C29.9847 22.6517 29.6488 23.2449 29.6488 24.2177C29.6488 25.2142 30.0087 25.8074 30.8723 26.2582C31.832 26.7327 32.8396 26.5192 33.6073 25.5939ZM26.0502 34.2779C26.1702 33.9932 26.0502 32.0239 25.7863 29.6512C25.5224 27.3971 25.2825 25.4989 25.2345 25.4752C25.1866 25.4278 25.0906 26.1633 24.9946 27.1124C24.7307 29.6749 23.939 33.4 23.3873 34.444C23.1473 34.9423 22.6675 35.5117 22.3796 35.7253C21.6839 36.1761 19.5727 36.8879 16.8378 37.6234C15.6623 37.9319 14.6787 38.2403 14.6307 38.2878C14.4148 38.5013 22.4036 38.1691 23.0034 37.9319C23.6512 37.6946 25.6904 35.2507 26.0502 34.2779ZM40.3486 34.4677C39.8688 33.5186 39.269 30.8375 38.9092 28.0615C38.7413 26.7327 38.5493 25.5939 38.5013 25.5464C38.4534 25.4752 38.1655 27.3734 37.8776 29.7223C37.2538 34.6338 37.2059 34.4203 39.317 36.6032C40.2527 37.576 40.8524 37.9793 41.4282 38.0742C42.7957 38.2878 49.2252 38.4064 48.7214 38.2166C48.4575 38.0979 46.8261 37.5997 45.0988 37.054C41.836 36.0574 40.9004 35.5354 40.3486 34.4677ZM31.4241 32.9017C33.6313 33.3051 35.0227 30.9087 33.5833 29.2241C33.0555 28.6072 32.7916 28.4885 31.9039 28.4885C31.0403 28.4885 30.7044 28.6072 30.2486 29.1054C29.049 30.3867 29.7448 32.5696 31.4241 32.9017ZM34.1351 37.3387C34.255 36.4608 34.183 36.271 33.5353 35.6066C31.9999 34.0881 29.6488 35.0609 29.6488 37.1963C29.6488 38.003 29.7928 38.2878 30.3925 38.786C31.9039 40.0436 33.8712 39.2843 34.1351 37.3387ZM34.207 43.7687C34.207 42.8908 33.5353 41.7756 32.8636 41.5384C31.808 41.135 31.0882 41.2774 30.3445 41.9892C29.4329 42.9145 29.3849 44.267 30.2486 45.1923C30.7044 45.6906 31.0403 45.8092 31.9039 45.8092C32.7916 45.8092 33.0555 45.6906 33.5833 45.0737C33.9191 44.6703 34.207 44.0771 34.207 43.7687Z"/>
</mask>
<path fill-rule="evenodd" clip-rule="evenodd" d="M30.0087 0.751743C29.5528 1.1551 28.8331 1.98554 28.4013 2.60244C27.7056 3.57525 27.6096 3.90742 27.5376 5.71067C27.4897 6.82584 27.3217 7.79864 27.1778 7.89355C26.8659 8.08337 27.3937 10.1002 27.8735 10.4798C28.0654 10.6222 28.2094 10.9543 28.2094 11.1679C28.2094 11.4051 28.4733 11.9271 28.8091 12.3068C29.6488 13.3033 29.6488 14.9879 28.8091 15.7709C28.1614 16.3641 26.578 16.8623 25.3305 16.8623C23.2913 16.8623 22.2357 18.5232 21.9478 22.1772C21.7799 24.4312 21.516 26.8514 21.0122 30.363C20.8682 31.2883 20.6283 32.0713 20.3644 32.3086C19.6927 32.9729 14.9905 35.7964 13.887 36.2235C12.9273 36.6032 12.8314 36.5794 11.8957 36.1049C11.368 35.8439 10.6482 35.6066 10.3124 35.6066C9.9765 35.6066 9.4487 35.3456 9.16081 35.0372C8.22518 34.1355 7.88931 34.1118 7.60142 34.9423C7.45748 35.3456 7.33753 35.9388 7.33753 36.2472C7.33753 36.7218 7.26556 36.793 6.66579 36.6506C6.30593 36.5557 5.75415 36.3896 5.41828 36.271L4.81851 36.0574L5.41828 36.6743C6.35391 37.6709 7.28955 38.0268 8.9449 38.0742C10.3603 38.0979 10.4803 38.1454 10.3364 38.5725C9.85654 40.1622 9.90452 40.7079 10.7442 41.7756C11.6558 42.962 14.6307 45.0737 17.3896 46.4973C19.0929 47.3515 20.0286 47.7074 21.8519 48.0633L22.5716 48.2294L21.9238 48.7751C21.54 49.0835 21.2521 49.4394 21.2521 49.5581C21.2521 50.1512 24.4428 50.2699 26.0742 49.7479C26.65 49.5581 27.9455 49.0598 28.9291 48.6564C31.4961 47.565 32.5277 47.6125 35.5265 48.8937C37.3498 49.6767 38.3094 49.9614 39.5329 50.0326C42.2199 50.1987 43.1555 49.653 41.7641 48.7513C41.4282 48.5378 41.1883 48.3243 41.2363 48.2768C41.2843 48.2294 41.956 48.0633 42.7477 47.9209C45.2667 47.4701 51.3123 43.9348 52.8957 41.9892C53.5914 41.1587 53.6634 40.8977 53.5914 39.9249C53.5435 39.308 53.4475 38.6437 53.3755 38.4539C53.3036 38.1929 53.4955 38.0979 54.1192 38.0742C56.3984 38.0505 56.7102 37.9556 57.8138 37.1251C58.4376 36.6506 58.9174 36.2235 58.8694 36.1761C58.8214 36.1286 58.2696 36.2472 57.6459 36.4371C56.6383 36.7455 56.5183 36.7218 56.5183 36.3896C56.5183 35.7253 55.9665 34.183 55.7266 34.183C55.6067 34.183 55.1268 34.4915 54.671 34.8948C54.2392 35.2744 53.5914 35.6066 53.2796 35.6066C52.9677 35.6066 52.3199 35.8439 51.8401 36.1049C51.2644 36.4608 50.7606 36.5794 50.2807 36.4845C49.0812 36.2472 43.2755 32.5458 42.9636 31.834C42.8916 31.6442 42.7237 30.363 42.5798 28.9868C42.4598 27.6106 42.1959 25.7599 42.004 24.882C41.8121 24.0041 41.6441 22.5093 41.6441 21.5603C41.6441 19.7096 41.1403 18.286 40.2527 17.503C39.9888 17.242 39.1011 16.981 38.1655 16.8386C37.2778 16.72 36.2942 16.5539 35.9583 16.4827C35.1427 16.2692 34.4949 15.3438 34.303 14.11C34.183 13.1847 34.207 12.9948 34.6389 12.6864C34.9028 12.4966 35.2626 11.9509 35.4066 11.4526C35.5745 10.9781 35.8384 10.4086 36.0063 10.2188C36.1743 10.029 36.4142 9.48326 36.5821 9.03244C36.798 8.36809 36.798 8.15455 36.5341 7.96473C36.2942 7.79865 36.2222 7.32411 36.3182 6.30385C36.4382 4.47688 36.0543 3.02953 35.1667 2.10418C34.7828 1.72455 34.4469 1.32119 34.399 1.22628C34.351 1.13137 33.9911 0.822929 33.5593 0.538204C32.4317 -0.244785 31.0882 -0.173607 30.0087 0.751743ZM30.3445 6.44621C32.4077 8.48672 35.4545 5.56831 33.5833 3.36171C33.0555 2.7448 32.7916 2.62617 31.9039 2.62617C31.0403 2.62617 30.7044 2.74481 30.2486 3.24307C29.3849 4.16842 29.4329 5.52086 30.3445 6.44621ZM34.207 11.2865C34.207 10.6459 34.0151 10.2425 33.5113 9.72053C32.5757 8.8189 31.4241 8.79517 30.3925 9.64935C28.8331 10.9306 29.8647 13.5406 31.9279 13.5406C33.1514 13.5406 34.207 12.4966 34.207 11.2865ZM33.5833 19.2113C34.5669 18.0724 34.279 16.4353 32.9835 15.7709C31.9519 15.2489 31.1362 15.3675 30.3445 16.1268C29.4329 17.0522 29.3849 18.4046 30.2486 19.3299C30.7044 19.8282 31.0403 19.9468 31.9039 19.9468C32.7916 19.9468 33.0555 19.8282 33.5833 19.2113ZM33.6073 25.5939C34.399 24.6685 34.375 23.6957 33.5593 22.7941C32.7436 21.9399 31.688 21.7026 30.8004 22.2009C29.9847 22.6517 29.6488 23.2449 29.6488 24.2177C29.6488 25.2142 30.0087 25.8074 30.8723 26.2582C31.832 26.7327 32.8396 26.5192 33.6073 25.5939ZM26.0502 34.2779C26.1702 33.9932 26.0502 32.0239 25.7863 29.6512C25.5224 27.3971 25.2825 25.4989 25.2345 25.4752C25.1866 25.4278 25.0906 26.1633 24.9946 27.1124C24.7307 29.6749 23.939 33.4 23.3873 34.444C23.1473 34.9423 22.6675 35.5117 22.3796 35.7253C21.6839 36.1761 19.5727 36.8879 16.8378 37.6234C15.6623 37.9319 14.6787 38.2403 14.6307 38.2878C14.4148 38.5013 22.4036 38.1691 23.0034 37.9319C23.6512 37.6946 25.6904 35.2507 26.0502 34.2779ZM40.3486 34.4677C39.8688 33.5186 39.269 30.8375 38.9092 28.0615C38.7413 26.7327 38.5493 25.5939 38.5013 25.5464C38.4534 25.4752 38.1655 27.3734 37.8776 29.7223C37.2538 34.6338 37.2059 34.4203 39.317 36.6032C40.2527 37.576 40.8524 37.9793 41.4282 38.0742C42.7957 38.2878 49.2252 38.4064 48.7214 38.2166C48.4575 38.0979 46.8261 37.5997 45.0988 37.054C41.836 36.0574 40.9004 35.5354 40.3486 34.4677ZM31.4241 32.9017C33.6313 33.3051 35.0227 30.9087 33.5833 29.2241C33.0555 28.6072 32.7916 28.4885 31.9039 28.4885C31.0403 28.4885 30.7044 28.6072 30.2486 29.1054C29.049 30.3867 29.7448 32.5696 31.4241 32.9017ZM34.1351 37.3387C34.255 36.4608 34.183 36.271 33.5353 35.6066C31.9999 34.0881 29.6488 35.0609 29.6488 37.1963C29.6488 38.003 29.7928 38.2878 30.3925 38.786C31.9039 40.0436 33.8712 39.2843 34.1351 37.3387ZM34.207 43.7687C34.207 42.8908 33.5353 41.7756 32.8636 41.5384C31.808 41.135 31.0882 41.2774 30.3445 41.9892C29.4329 42.9145 29.3849 44.267 30.2486 45.1923C30.7044 45.6906 31.0403 45.8092 31.9039 45.8092C32.7916 45.8092 33.0555 45.6906 33.5833 45.0737C33.9191 44.6703 34.207 44.0771 34.207 43.7687Z" fill="#E8E8E8"/>
<path fill-rule="evenodd" clip-rule="evenodd" d="M30.0087 0.751743C29.5528 1.1551 28.8331 1.98554 28.4013 2.60244C27.7056 3.57525 27.6096 3.90742 27.5376 5.71067C27.4897 6.82584 27.3217 7.79864 27.1778 7.89355C26.8659 8.08337 27.3937 10.1002 27.8735 10.4798C28.0654 10.6222 28.2094 10.9543 28.2094 11.1679C28.2094 11.4051 28.4733 11.9271 28.8091 12.3068C29.6488 13.3033 29.6488 14.9879 28.8091 15.7709C28.1614 16.3641 26.578 16.8623 25.3305 16.8623C23.2913 16.8623 22.2357 18.5232 21.9478 22.1772C21.7799 24.4312 21.516 26.8514 21.0122 30.363C20.8682 31.2883 20.6283 32.0713 20.3644 32.3086C19.6927 32.9729 14.9905 35.7964 13.887 36.2235C12.9273 36.6032 12.8314 36.5794 11.8957 36.1049C11.368 35.8439 10.6482 35.6066 10.3124 35.6066C9.9765 35.6066 9.4487 35.3456 9.16081 35.0372C8.22518 34.1355 7.88931 34.1118 7.60142 34.9423C7.45748 35.3456 7.33753 35.9388 7.33753 36.2472C7.33753 36.7218 7.26556 36.793 6.66579 36.6506C6.30593 36.5557 5.75415 36.3896 5.41828 36.271L4.81851 36.0574L5.41828 36.6743C6.35391 37.6709 7.28955 38.0268 8.9449 38.0742C10.3603 38.0979 10.4803 38.1454 10.3364 38.5725C9.85654 40.1622 9.90452 40.7079 10.7442 41.7756C11.6558 42.962 14.6307 45.0737 17.3896 46.4973C19.0929 47.3515 20.0286 47.7074 21.8519 48.0633L22.5716 48.2294L21.9238 48.7751C21.54 49.0835 21.2521 49.4394 21.2521 49.5581C21.2521 50.1512 24.4428 50.2699 26.0742 49.7479C26.65 49.5581 27.9455 49.0598 28.9291 48.6564C31.4961 47.565 32.5277 47.6125 35.5265 48.8937C37.3498 49.6767 38.3094 49.9614 39.5329 50.0326C42.2199 50.1987 43.1555 49.653 41.7641 48.7513C41.4282 48.5378 41.1883 48.3243 41.2363 48.2768C41.2843 48.2294 41.956 48.0633 42.7477 47.9209C45.2667 47.4701 51.3123 43.9348 52.8957 41.9892C53.5914 41.1587 53.6634 40.8977 53.5914 39.9249C53.5435 39.308 53.4475 38.6437 53.3755 38.4539C53.3036 38.1929 53.4955 38.0979 54.1192 38.0742C56.3984 38.0505 56.7102 37.9556 57.8138 37.1251C58.4376 36.6506 58.9174 36.2235 58.8694 36.1761C58.8214 36.1286 58.2696 36.2472 57.6459 36.4371C56.6383 36.7455 56.5183 36.7218 56.5183 36.3896C56.5183 35.7253 55.9665 34.183 55.7266 34.183C55.6067 34.183 55.1268 34.4915 54.671 34.8948C54.2392 35.2744 53.5914 35.6066 53.2796 35.6066C52.9677 35.6066 52.3199 35.8439 51.8401 36.1049C51.2644 36.4608 50.7606 36.5794 50.2807 36.4845C49.0812 36.2472 43.2755 32.5458 42.9636 31.834C42.8916 31.6442 42.7237 30.363 42.5798 28.9868C42.4598 27.6106 42.1959 25.7599 42.004 24.882C41.8121 24.0041 41.6441 22.5093 41.6441 21.5603C41.6441 19.7096 41.1403 18.286 40.2527 17.503C39.9888 17.242 39.1011 16.981 38.1655 16.8386C37.2778 16.72 36.2942 16.5539 35.9583 16.4827C35.1427 16.2692 34.4949 15.3438 34.303 14.11C34.183 13.1847 34.207 12.9948 34.6389 12.6864C34.9028 12.4966 35.2626 11.9509 35.4066 11.4526C35.5745 10.9781 35.8384 10.4086 36.0063 10.2188C36.1743 10.029 36.4142 9.48326 36.5821 9.03244C36.798 8.36809 36.798 8.15455 36.5341 7.96473C36.2942 7.79865 36.2222 7.32411 36.3182 6.30385C36.4382 4.47688 36.0543 3.02953 35.1667 2.10418C34.7828 1.72455 34.4469 1.32119 34.399 1.22628C34.351 1.13137 33.9911 0.822929 33.5593 0.538204C32.4317 -0.244785 31.0882 -0.173607 30.0087 0.751743ZM30.3445 6.44621C32.4077 8.48672 35.4545 5.56831 33.5833 3.36171C33.0555 2.7448 32.7916 2.62617 31.9039 2.62617C31.0403 2.62617 30.7044 2.74481 30.2486 3.24307C29.3849 4.16842 29.4329 5.52086 30.3445 6.44621ZM34.207 11.2865C34.207 10.6459 34.0151 10.2425 33.5113 9.72053C32.5757 8.8189 31.4241 8.79517 30.3925 9.64935C28.8331 10.9306 29.8647 13.5406 31.9279 13.5406C33.1514 13.5406 34.207 12.4966 34.207 11.2865ZM33.5833 19.2113C34.5669 18.0724 34.279 16.4353 32.9835 15.7709C31.9519 15.2489 31.1362 15.3675 30.3445 16.1268C29.4329 17.0522 29.3849 18.4046 30.2486 19.3299C30.7044 19.8282 31.0403 19.9468 31.9039 19.9468C32.7916 19.9468 33.0555 19.8282 33.5833 19.2113ZM33.6073 25.5939C34.399 24.6685 34.375 23.6957 33.5593 22.7941C32.7436 21.9399 31.688 21.7026 30.8004 22.2009C29.9847 22.6517 29.6488 23.2449 29.6488 24.2177C29.6488 25.2142 30.0087 25.8074 30.8723 26.2582C31.832 26.7327 32.8396 26.5192 33.6073 25.5939ZM26.0502 34.2779C26.1702 33.9932 26.0502 32.0239 25.7863 29.6512C25.5224 27.3971 25.2825 25.4989 25.2345 25.4752C25.1866 25.4278 25.0906 26.1633 24.9946 27.1124C24.7307 29.6749 23.939 33.4 23.3873 34.444C23.1473 34.9423 22.6675 35.5117 22.3796 35.7253C21.6839 36.1761 19.5727 36.8879 16.8378 37.6234C15.6623 37.9319 14.6787 38.2403 14.6307 38.2878C14.4148 38.5013 22.4036 38.1691 23.0034 37.9319C23.6512 37.6946 25.6904 35.2507 26.0502 34.2779ZM40.3486 34.4677C39.8688 33.5186 39.269 30.8375 38.9092 28.0615C38.7413 26.7327 38.5493 25.5939 38.5013 25.5464C38.4534 25.4752 38.1655 27.3734 37.8776 29.7223C37.2538 34.6338 37.2059 34.4203 39.317 36.6032C40.2527 37.576 40.8524 37.9793 41.4282 38.0742C42.7957 38.2878 49.2252 38.4064 48.7214 38.2166C48.4575 38.0979 46.8261 37.5997 45.0988 37.054C41.836 36.0574 40.9004 35.5354 40.3486 34.4677ZM31.4241 32.9017C33.6313 33.3051 35.0227 30.9087 33.5833 29.2241C33.0555 28.6072 32.7916 28.4885 31.9039 28.4885C31.0403 28.4885 30.7044 28.6072 30.2486 29.1054C29.049 30.3867 29.7448 32.5696 31.4241 32.9017ZM34.1351 37.3387C34.255 36.4608 34.183 36.271 33.5353 35.6066C31.9999 34.0881 29.6488 35.0609 29.6488 37.1963C29.6488 38.003 29.7928 38.2878 30.3925 38.786C31.9039 40.0436 33.8712 39.2843 34.1351 37.3387ZM34.207 43.7687C34.207 42.8908 33.5353 41.7756 32.8636 41.5384C31.808 41.135 31.0882 41.2774 30.3445 41.9892C29.4329 42.9145 29.3849 44.267 30.2486 45.1923C30.7044 45.6906 31.0403 45.8092 31.9039 45.8092C32.7916 45.8092 33.0555 45.6906 33.5833 45.0737C33.9191 44.6703 34.207 44.0771 34.207 43.7687Z" stroke="#E8E8E8" stroke-width="6" mask="url(#path-1-inside-1_1_718)"/>
</g>
<g filter="url(#filter1_d_1_718)">
<path d="M31.9473 4.78702L31.9473 4.78703L31.9416 4.78255C31.8939 4.74542 31.853 4.71575 31.8184 4.69217C31.7681 4.74388 31.7564 4.78054 31.753 4.79294C31.7472 4.81448 31.7485 4.83473 31.7549 4.85283C31.7614 4.87096 31.7716 4.88351 31.7836 4.89204L31.7836 4.89206C31.79 4.89659 31.8269 4.92285 31.9279 4.92285C31.9553 4.92285 31.9685 4.9192 31.9715 4.91825C31.9742 4.9154 31.9819 4.90622 31.988 4.8877C31.9961 4.86305 31.994 4.84425 31.9919 4.83678C31.9911 4.83391 31.9898 4.83055 31.9864 4.82543C31.9832 4.82067 31.973 4.80679 31.9473 4.78702Z" stroke="#E8E8E8" stroke-width="3" shape-rendering="crispEdges"/>
</g>
<g filter="url(#filter2_d_1_718)">
<path d="M31.7669 11.2603C31.7588 11.273 31.752 11.2843 31.7464 11.294C31.7467 11.2943 31.7469 11.2946 31.7472 11.295C31.7945 11.3498 31.866 11.3853 31.9466 11.3854C31.948 11.3831 31.9494 11.3806 31.9508 11.378C31.9628 11.3563 31.9743 11.3293 31.9828 11.2987C31.9841 11.2943 31.9852 11.29 31.9863 11.2856C31.9473 11.2778 31.904 11.2711 31.8576 11.2664C31.8252 11.2631 31.7948 11.2612 31.7669 11.2603Z" stroke="#E8E8E8" stroke-width="3" shape-rendering="crispEdges"/>
</g>
<g filter="url(#filter3_d_1_718)">
<path d="M31.7418 17.7848C31.758 17.8053 31.7859 17.8356 31.8313 17.8726C31.8635 17.8502 31.9001 17.8233 31.9415 17.7911L31.9415 17.7911L31.9463 17.7873C31.9734 17.7664 31.9825 17.7511 31.9848 17.7467C31.9875 17.7416 31.9873 17.7398 31.9872 17.7408C31.9872 17.7411 31.9872 17.7412 31.9872 17.7412C31.9873 17.7412 31.9872 17.7399 31.986 17.7366C31.9846 17.7331 31.9779 17.7169 31.9526 17.6918C31.9273 17.6668 31.9096 17.6589 31.9027 17.6564C31.895 17.6535 31.8889 17.6529 31.883 17.6533C31.877 17.6537 31.8665 17.6555 31.8517 17.6634C31.8378 17.6708 31.8129 17.6873 31.7833 17.7239C31.7637 17.749 31.7505 17.7694 31.7418 17.7848Z" stroke="#E8E8E8" stroke-width="3" shape-rendering="crispEdges"/>
</g>
<g filter="url(#filter4_d_1_718)">
<path d="M31.8015 24.1988L31.7796 24.2212C31.8229 24.2618 31.8652 24.2961 31.9036 24.3238C31.9131 24.3081 31.9226 24.2894 31.9313 24.2674C31.9585 24.1989 31.9604 24.1409 31.9558 24.1111C31.9549 24.1046 31.9538 24.1004 31.953 24.0981C31.9499 24.095 31.9471 24.0923 31.9444 24.0899C31.9166 24.1024 31.8672 24.1316 31.8015 24.1988ZM31.97 24.0812C31.9697 24.0812 31.9692 24.0813 31.9684 24.0814C31.9691 24.0814 31.9696 24.0813 31.9699 24.0812C31.9701 24.0812 31.9702 24.0812 31.9702 24.0812C31.9702 24.0811 31.9701 24.0811 31.97 24.0812Z" stroke="#E8E8E8" stroke-width="3" shape-rendering="crispEdges"/>
</g>
<g filter="url(#filter5_d_1_718)">
<path d="M31.947 30.6483L31.9469 30.6484L31.9412 30.6439C31.8936 30.6068 31.8528 30.5772 31.8183 30.5537C31.7868 30.588 31.7764 30.6156 31.7715 30.6336C31.7629 30.6654 31.7635 30.7034 31.7749 30.7387C31.7829 30.7636 31.7926 30.7764 31.7968 30.7812C31.798 30.7815 31.7996 30.7818 31.8016 30.7821C31.807 30.783 31.8168 30.7842 31.8316 30.7842C31.8729 30.7842 31.8973 30.7781 31.9092 30.7743C31.9214 30.7703 31.9292 30.7658 31.9348 30.7617C31.9471 30.7527 31.9619 30.7355 31.971 30.7104C31.9773 30.6928 31.9774 30.6812 31.9771 30.6768C31.9745 30.6732 31.9661 30.6631 31.947 30.6483Z" stroke="#E8E8E8" stroke-width="3" shape-rendering="crispEdges"/>
</g>
<path d="M31.8912 37.0601C31.871 37.0511 31.845 37.042 31.8124 37.036C31.8038 37.0492 31.7952 37.0632 31.7867 37.0779C31.7754 37.0975 31.765 37.1171 31.7557 37.1363C31.7926 37.1621 31.8402 37.1854 31.894 37.1996C31.9422 37.2123 31.9798 37.2139 32.0034 37.2125C32.0116 37.2002 32.0158 37.1915 32.0178 37.1861C32.0169 37.1812 32.0136 37.1695 32.0025 37.1519C31.9832 37.1214 31.9469 37.0852 31.8912 37.0601ZM32.0194 37.18C32.0192 37.18 32.0187 37.1816 32.0183 37.1847C32.0194 37.1816 32.0196 37.18 32.0194 37.18ZM32.0181 37.1882C32.0181 37.1886 32.0181 37.1889 32.0181 37.1889L32.0181 37.1882Z" stroke="#E8E8E8" stroke-width="3"/>
<path d="M31.7418 43.6471C31.758 43.6676 31.7859 43.6979 31.8313 43.7349C31.8635 43.7125 31.9001 43.6856 31.9415 43.6534L31.9415 43.6534L31.9473 43.6489C31.9729 43.6292 31.9831 43.6153 31.9863 43.6105C31.9898 43.6054 31.991 43.602 31.9918 43.5992C31.9939 43.5917 31.9961 43.5729 31.9879 43.5483C31.9818 43.5297 31.9742 43.5206 31.9715 43.5177C31.9684 43.5168 31.9552 43.5131 31.9278 43.5131C31.8923 43.5131 31.8652 43.5142 31.8453 43.5156C31.8295 43.5321 31.8082 43.5559 31.7809 43.5894C31.7626 43.613 31.7501 43.6324 31.7418 43.6471Z" stroke="#E8E8E8" stroke-width="3"/>
<defs>
<filter id="filter0_d_1_718" x="0.818512" y="0" width="62.0542" height="58.0791" filterUnits="userSpaceOnUse" color-interpolation-filters="sRGB">
<feFlood flood-opacity="0" result="BackgroundImageFix"/>
<feColorMatrix in="SourceAlpha" type="matrix" values="0 0 0 0 0 0 0 0 0 0 0 0 0 0 0 0 0 0 127 0" result="hardAlpha"/>
<feOffset dy="4"/>
<feGaussianBlur stdDeviation="2"/>
<feComposite in2="hardAlpha" operator="out"/>
<feColorMatrix type="matrix" values="0 0 0 0 0 0 0 0 0 0 0 0 0 0 0 0 0 0 0.25 0"/>
<feBlend mode="normal" in2="BackgroundImageFix" result="effect1_dropShadow_1_718"/>
<feBlend mode="normal" in="SourceGraphic" in2="effect1_dropShadow_1_718" result="shape"/>
</filter>
<filter id="filter1_d_1_718" x="26.2493" y="3.12402" width="11.2445" height="11.2988" filterUnits="userSpaceOnUse" color-interpolation-filters="sRGB">
<feFlood flood-opacity="0" result="BackgroundImageFix"/>
<feColorMatrix in="SourceAlpha" type="matrix" values="0 0 0 0 0 0 0 0 0 0 0 0 0 0 0 0 0 0 127 0" result="hardAlpha"/>
<feOffset dy="4"/>
<feGaussianBlur stdDeviation="2"/>
<feComposite in2="hardAlpha" operator="out"/>
<feColorMatrix type="matrix" values="0 0 0 0 0 0 0 0 0 0 0 0 0 0 0 0 0 0 0.25 0"/>
<feBlend mode="normal" in2="BackgroundImageFix" result="effect1_dropShadow_1_718"/>
<feBlend mode="normal" in="SourceGraphic" in2="effect1_dropShadow_1_718" result="shape"/>
</filter>
<filter id="filter2_d_1_718" x="26.2291" y="9.75977" width="11.2678" height="11.126" filterUnits="userSpaceOnUse" color-interpolation-filters="sRGB">
<feFlood flood-opacity="0" result="BackgroundImageFix"/>
<feColorMatrix in="SourceAlpha" type="matrix" values="0 0 0 0 0 0 0 0 0 0 0 0 0 0 0 0 0 0 127 0" result="hardAlpha"/>
<feOffset dy="4"/>
<feGaussianBlur stdDeviation="2"/>
<feComposite in2="hardAlpha" operator="out"/>
<feColorMatrix type="matrix" values="0 0 0 0 0 0 0 0 0 0 0 0 0 0 0 0 0 0 0.25 0"/>
<feBlend mode="normal" in2="BackgroundImageFix" result="effect1_dropShadow_1_718"/>
<feBlend mode="normal" in="SourceGraphic" in2="effect1_dropShadow_1_718" result="shape"/>
</filter>
<filter id="filter3_d_1_718" x="26.2281" y="16.1531" width="11.2591" height="11.2932" filterUnits="userSpaceOnUse" color-interpolation-filters="sRGB">
<feFlood flood-opacity="0" result="BackgroundImageFix"/>
<feColorMatrix in="SourceAlpha" type="matrix" values="0 0 0 0 0 0 0 0 0 0 0 0 0 0 0 0 0 0 127 0" result="hardAlpha"/>
<feOffset dy="4"/>
<feGaussianBlur stdDeviation="2"/>
<feComposite in2="hardAlpha" operator="out"/>
<feColorMatrix type="matrix" values="0 0 0 0 0 0 0 0 0 0 0 0 0 0 0 0 0 0 0.25 0"/>
<feBlend mode="normal" in2="BackgroundImageFix" result="effect1_dropShadow_1_718"/>
<feBlend mode="normal" in="SourceGraphic" in2="effect1_dropShadow_1_718" result="shape"/>
</filter>
<filter id="filter4_d_1_718" x="26.129" y="22.582" width="11.3287" height="11.2969" filterUnits="userSpaceOnUse" color-interpolation-filters="sRGB">
<feFlood flood-opacity="0" result="BackgroundImageFix"/>
<feColorMatrix in="SourceAlpha" type="matrix" values="0 0 0 0 0 0 0 0 0 0 0 0 0 0 0 0 0 0 127 0" result="hardAlpha"/>
<feOffset dy="4"/>
<feGaussianBlur stdDeviation="2"/>
<feComposite in2="hardAlpha" operator="out"/>
<feColorMatrix type="matrix" values="0 0 0 0 0 0 0 0 0 0 0 0 0 0 0 0 0 0 0.25 0"/>
<feBlend mode="normal" in2="BackgroundImageFix" result="effect1_dropShadow_1_718"/>
<feBlend mode="normal" in="SourceGraphic" in2="effect1_dropShadow_1_718" result="shape"/>
</filter>
<filter id="filter5_d_1_718" x="26.2656" y="28.9854" width="11.2116" height="11.2988" filterUnits="userSpaceOnUse" color-interpolation-filters="sRGB">
<feFlood flood-opacity="0" result="BackgroundImageFix"/>
<feColorMatrix in="SourceAlpha" type="matrix" values="0 0 0 0 0 0 0 0 0 0 0 0 0 0 0 0 0 0 127 0" result="hardAlpha"/>
<feOffset dy="4"/>
<feGaussianBlur stdDeviation="2"/>
<feComposite in2="hardAlpha" operator="out"/>
<feColorMatrix type="matrix" values="0 0 0 0 0 0 0 0 0 0 0 0 0 0 0 0 0 0 0.25 0"/>
<feBlend mode="normal" in2="BackgroundImageFix" result="effect1_dropShadow_1_718"/>
<feBlend mode="normal" in="SourceGraphic" in2="effect1_dropShadow_1_718" result="shape"/>
</filter>
</defs>
</svg>
