<svg width="61" height="60" viewBox="0 0 61 60" fill="none" xmlns="http://www.w3.org/2000/svg">
<g filter="url(#filter0_d_1_733)">
<mask id="path-1-inside-1_1_733" fill="white">
<path d="M30.2079 0.0718061C29.9671 0.156937 29.5943 0.463407 29.491 0.662046C29.4451 0.747176 29.3993 0.889061 29.3935 0.985542L29.3706 1.1558H32.1809L32.1579 0.985542C32.1522 0.889061 32.1063 0.747176 32.0604 0.667721C31.9457 0.446381 31.5557 0.134235 31.2976 0.0604553C31.0166 -0.0246754 30.4603 -0.019 30.2079 0.0718061Z"/>
<path d="M28.7504 1.58739C28.1826 1.88251 27.936 2.8303 28.2572 3.48297L28.3375 3.65323L28.7963 3.62485C29.0486 3.60783 29.9376 3.59648 30.7749 3.59648C31.6123 3.59648 32.5013 3.60783 32.7536 3.62485L33.2124 3.65323L33.2927 3.48297C33.6139 2.81895 33.3673 1.87684 32.788 1.58172C32.5701 1.47388 32.4611 1.46821 30.7635 1.46821C29.0773 1.47388 28.9569 1.47956 28.7504 1.58739Z"/>
<path d="M28.94 3.91378C25.4759 4.2089 22.1092 5.3156 19.1384 7.1374C13.8332 10.4007 10.1225 15.8491 9.07296 21.9161C8.82634 23.3406 8.78046 23.8911 8.78046 25.6448C8.78046 27.8242 8.94104 29.1352 9.43428 31.0478C11.5506 39.226 18.2666 45.4632 26.6745 47.0637C28.1772 47.3475 28.8998 47.4099 30.7753 47.4099C32.6507 47.4099 33.3733 47.3475 34.876 47.0637C42.7276 45.5711 49.1167 40.0489 51.6804 32.5404C52.122 31.2351 52.5062 29.4984 52.6955 27.9433C52.793 27.1147 52.793 24.1749 52.6955 23.3463C52.3629 20.5937 51.6402 18.1703 50.4473 15.8548C46.9373 9.01027 40.2499 4.5551 32.5245 3.90811C31.733 3.84568 29.7372 3.84568 28.94 3.91378ZM32.0657 7.19983C33.8092 7.33036 35.6502 7.71629 37.1758 8.27815C38.971 8.93082 41.0013 10.0716 42.5039 11.2634C43.3126 11.9047 44.6604 13.2384 45.3085 14.0387C46.8455 15.9399 48.1417 18.4144 48.7554 20.6335C49.2486 22.4098 49.4379 23.7946 49.4379 25.6448C49.4379 28.7265 48.784 31.394 47.356 34.1352C46.4842 35.8151 45.3715 37.3134 43.9664 38.6982C42.091 40.554 40.0205 41.8991 37.5716 42.8582C35.3405 43.7266 33.2586 44.1125 30.7753 44.1125C29.4217 44.1125 28.8711 44.0671 27.5922 43.8571C24.9998 43.4315 22.4419 42.3929 20.165 40.8492C18.8516 39.9638 17.24 38.4825 16.2421 37.251C14.4928 35.0943 13.231 32.5461 12.6002 29.9013C12.2331 28.352 12.1127 27.3304 12.1127 25.6448C12.1127 23.7946 12.3019 22.3985 12.7894 20.6448C13.4088 18.4087 14.6993 15.9399 16.2421 14.0387C16.8901 13.2384 18.2379 11.9047 19.0466 11.2634C20.5493 10.0716 22.5795 8.93082 24.3747 8.27815C26.7548 7.40414 29.5364 7.01822 32.0657 7.19983Z"/>
<path d="M29.4277 7.7453C24.1569 8.17663 19.4655 10.7192 16.2996 14.8566C14.407 17.3253 13.2484 20.1403 12.7896 23.3753C12.6462 24.3685 12.6462 26.9111 12.7896 27.9156C13.0993 30.1347 13.713 32.07 14.6937 33.9202C17.1714 38.6137 21.6219 41.9962 26.8181 43.1483C34.836 44.919 43.0432 41.1392 46.8572 33.9202C47.8379 32.07 48.4459 30.1347 48.7613 27.9156C48.9047 26.9167 48.9047 24.3742 48.7613 23.3753C48.3082 20.1574 47.1382 17.3253 45.2513 14.8566C42.2919 10.9916 38.0249 8.52283 33.1269 7.85313C32.4903 7.768 30.0528 7.69422 29.4277 7.7453ZM33.3277 8.67039C36.396 9.14144 39.2235 10.3616 41.6381 12.2686C42.3722 12.8475 43.6913 14.1585 44.2591 14.8622C45.9912 17.0132 47.1554 19.4252 47.7175 22.0132C48.0157 23.3696 48.0673 23.9145 48.0673 25.6455C48.0673 27.3708 48.01 27.9326 47.7232 29.2493C46.2779 35.8498 41.0818 40.9974 34.4403 42.4105C33.0753 42.7 32.519 42.7567 30.7755 42.7567C29.0319 42.7567 28.4756 42.7 27.1106 42.4105C23.5662 41.6557 20.2742 39.7658 17.8825 37.1154C15.5425 34.5104 14.1202 31.4741 13.5868 27.944C13.4434 26.9735 13.4434 24.3174 13.5868 23.3469C14.0743 20.112 15.273 17.3707 17.2918 14.8622C17.8596 14.1585 19.1845 12.8475 19.9243 12.2629C21.2262 11.2357 23.0386 10.2027 24.5699 9.61817C25.7686 9.15847 27.3687 8.77254 28.8255 8.59093C29.8291 8.47175 32.2781 8.51148 33.3277 8.67039Z"/>
<path d="M29.7719 9.08366C29.7547 9.18581 29.5998 10.2414 29.4278 11.4276C29.2557 12.6137 29.1009 13.6694 29.0837 13.7658L29.0492 13.9531H32.5019L32.4675 13.7658C32.4503 13.6694 32.2954 12.6137 32.1234 11.4276C31.9513 10.2414 31.7964 9.18581 31.7792 9.08366L31.7448 8.90204H29.8063L29.7719 9.08366Z"/>
<path d="M18.7885 13.8124C18.1748 14.4197 18.1347 14.4764 18.2035 14.5842C18.2723 14.6864 21.1113 18.4719 21.1801 18.5513C21.1916 18.5627 21.7479 18.0349 22.4189 17.3709C23.1531 16.6444 23.6119 16.1507 23.5717 16.1223C23.5373 16.0996 22.6197 15.4242 21.53 14.6183C20.4403 13.8181 19.5226 13.1597 19.4997 13.1597C19.471 13.1597 19.1498 13.4548 18.7885 13.8124Z"/>
<path d="M40.067 14.5842C39.0117 15.3674 38.094 16.0428 38.0309 16.0882C37.922 16.162 37.9793 16.2301 39.1321 17.3709C39.8031 18.0349 40.3595 18.5627 40.3709 18.5513C40.4455 18.4719 43.273 14.6978 43.3418 14.5899C43.4164 14.4707 43.3877 14.4367 42.7625 13.8124C42.4012 13.4548 42.08 13.1597 42.0456 13.1597C42.017 13.1654 41.1223 13.801 40.067 14.5842Z"/>
<path d="M28.7622 14.2538C28.4926 14.4297 28.4123 14.617 28.4869 14.8781C28.5213 15.0143 28.6073 15.1221 28.7335 15.1959C28.9171 15.3094 29.0088 15.3151 30.7753 15.3151C32.5418 15.3151 32.6335 15.3094 32.817 15.1959C32.9432 15.1221 33.0293 15.0143 33.0637 14.8781C33.1382 14.617 33.0579 14.4297 32.7884 14.2538C32.5934 14.1232 32.5762 14.1232 30.7753 14.1232C28.9744 14.1232 28.9572 14.1232 28.7622 14.2538Z"/>
<path d="M29.0779 15.6961C29.0951 15.7869 29.2155 16.5701 29.3417 17.4385C29.4679 18.3125 29.5826 19.0332 29.5883 19.0389C29.5941 19.0503 29.8694 19.0276 30.1905 18.9935C30.6207 18.9481 30.9304 18.9481 31.3605 18.9935C31.6817 19.0276 31.957 19.0503 31.9627 19.0389C31.9685 19.0332 32.0832 18.3125 32.2094 17.4385C32.3355 16.5701 32.456 15.7869 32.4732 15.6961L32.5076 15.5429H29.0435L29.0779 15.6961Z"/>
<path d="M22.5629 17.5177L21.1979 18.8628V19.1352C21.1979 19.5155 21.37 19.6857 21.7542 19.6857H22.0295L23.3888 18.335L24.7538 16.9899V16.7175C24.7538 16.3373 24.5817 16.167 24.1975 16.167H23.9222L22.5629 17.5177Z"/>
<path d="M36.9407 16.3089C36.826 16.4167 36.7973 16.5018 36.7973 16.7175V16.9899L38.1623 18.335L39.5216 19.6857H39.7969C40.0148 19.6857 40.1008 19.6574 40.2098 19.5438C40.3245 19.436 40.3532 19.3509 40.3532 19.1352V18.8628L38.9882 17.5177L37.6289 16.167H37.3536C37.1357 16.167 37.0497 16.1954 36.9407 16.3089Z"/>
<path d="M23.52 18.4937C22.8604 19.1464 22.3328 19.6912 22.3443 19.7026C22.4876 19.8331 25.1775 21.7854 25.2119 21.7854C25.2348 21.7854 25.361 21.6492 25.4929 21.4846C25.751 21.1498 26.3188 20.5993 26.6629 20.3382C26.7948 20.2417 26.8694 20.1452 26.8522 20.0998C26.812 19.9977 24.7932 17.3075 24.7531 17.3019C24.7359 17.3019 24.1853 17.8354 23.52 18.4937Z"/>
<path d="M35.7475 18.664C35.1912 19.4074 34.7151 20.0544 34.6979 20.0998C34.6807 20.1452 34.7553 20.2417 34.8872 20.3382C35.2313 20.5993 35.7991 21.1498 36.0572 21.4846C36.1891 21.6492 36.3153 21.7854 36.3382 21.7854C36.3726 21.7854 39.0395 19.8501 39.2058 19.7026C39.2288 19.6799 36.8486 17.3019 36.797 17.3019C36.7798 17.3019 36.3095 17.9148 35.7475 18.664Z"/>
<path d="M29.6969 19.368C28.7506 19.5496 28.0222 19.8334 27.2594 20.3271C24.6613 22.0014 23.6577 25.2817 24.8621 28.1478C25.3094 29.2091 26.2615 30.3272 27.2766 30.9741C27.9018 31.3771 28.4524 31.6155 29.2209 31.8198C29.7141 31.9503 29.8747 31.9673 30.7751 31.9673C31.6756 31.9673 31.8362 31.9503 32.3294 31.8198C33.0865 31.6155 33.6428 31.3771 34.245 30.9912C36.8832 29.2999 37.9041 26.0309 36.6882 23.1421C36.2409 22.0808 35.2888 20.9628 34.2737 20.3158C33.2126 19.6404 32.2434 19.3453 30.9472 19.3112C30.3909 19.2999 29.9779 19.3169 29.6969 19.368ZM31.6354 20.3328C33.9697 20.7074 35.7648 22.4838 36.1434 24.7937C36.7054 28.1819 33.8951 31.2409 30.431 31.0139C28.0624 30.8606 26.0665 29.2091 25.4872 26.9162C25.3094 26.2011 25.3094 25.0888 25.4872 24.3737C26.1755 21.6438 28.8538 19.8845 31.6354 20.3328Z"/>
<path d="M30.1444 20.6503C28.2174 20.8886 26.6345 22.1486 26.0093 23.959C25.367 25.8149 25.9061 27.9091 27.38 29.2882C28.7164 30.5311 30.609 30.9738 32.3296 30.4346C32.9203 30.253 33.1497 30.1395 33.6889 29.7706C35.9256 28.2496 36.4762 25.0941 34.9047 22.8466C34.5606 22.3472 33.9412 21.7456 33.448 21.4221C32.5361 20.8262 31.2227 20.5197 30.1444 20.6503ZM31.6356 21.0816C33.6315 21.4562 35.2374 22.9999 35.1169 24.4301C35.0194 25.69 33.729 26.6151 32.5074 26.3029C31.584 26.0702 31.0621 25.48 30.9417 24.5492C30.7983 23.4482 30.632 23.0623 30.0814 22.5515C29.6053 22.1145 28.8884 21.8591 28.2862 21.9159C28.0281 21.9386 28.0109 21.9329 28.1142 21.8591C28.5615 21.5299 29.4849 21.1554 30.1158 21.0532C30.5803 20.9738 31.1309 20.9851 31.6356 21.0816ZM29.4562 22.5004C30.6033 23.0112 30.9703 24.4925 30.1961 25.4914C30.0928 25.6219 29.8978 25.8205 29.7544 25.9284C28.9228 26.5697 28.8368 26.6605 28.6246 27.0805C28.4525 27.421 28.4067 27.5856 28.3837 27.9488C28.3321 28.6696 28.5615 29.3563 29.0146 29.8274C29.2268 30.0544 29.2096 30.0544 28.7909 29.8728C27.8618 29.4641 26.9843 28.6412 26.5656 27.7899C26.1756 26.984 26.1011 26.6662 26.1011 25.7013C26.1068 25.0146 26.124 24.8046 26.233 24.4244C26.5484 23.3404 27.1793 22.6139 28.0109 22.3756C28.4181 22.2621 29.0318 22.3131 29.4562 22.5004ZM35.4611 25.7865C35.4438 26.2632 35.398 26.5867 35.3062 26.8648C34.7843 28.5107 33.4193 29.7819 31.7675 30.1622C31.2227 30.2871 30.3452 30.2473 29.9036 30.0771C29.158 29.7876 28.6934 29.1179 28.6934 28.3177C28.6934 27.6821 28.8597 27.3018 29.3358 26.8308C29.8462 26.3256 30.2018 26.1894 30.89 26.2292C31.303 26.2519 31.4636 26.2916 31.9511 26.5016C32.5017 26.7343 32.5475 26.7456 33.0981 26.7513C33.6258 26.7513 33.7061 26.7343 34.0444 26.5754C34.2509 26.4789 34.5205 26.3143 34.6466 26.2065C34.9162 25.9738 35.2833 25.4233 35.3349 25.1735C35.4496 24.6514 35.5012 24.8954 35.4611 25.7865Z"/>
<path d="M19.5341 23.3915C19.4595 23.4313 19.3333 23.5504 19.2645 23.6526C19.1326 23.8456 19.1326 23.8683 19.1326 25.6446C19.1326 27.4267 19.1326 27.4437 19.2645 27.6367C19.3333 27.7445 19.4595 27.858 19.5398 27.8978C19.7635 28.0056 20.0847 27.8978 20.2223 27.6708C20.3313 27.5005 20.337 27.37 20.337 25.656C20.337 24.0385 20.3255 23.8002 20.2395 23.6583C20.0904 23.4029 19.7635 23.278 19.5341 23.3915Z"/>
<path d="M41.6263 23.3849C41.5058 23.4189 41.3969 23.5041 41.3281 23.6176C41.2191 23.7878 41.2133 23.9127 41.2133 25.6323C41.2133 27.596 41.2306 27.7152 41.5058 27.8628C41.6894 27.9592 42.0106 27.9365 42.1425 27.823C42.4063 27.579 42.4178 27.5109 42.4178 25.6437C42.4178 23.7878 42.4063 23.7027 42.1539 23.4814C42.0048 23.3565 41.85 23.3281 41.6263 23.3849Z"/>
<path d="M16.38 24.3111C15.0379 24.5097 13.9253 24.6743 13.9024 24.6743C13.8737 24.68 13.8565 25.1113 13.8565 25.6448V26.6039L14.0457 26.638C14.1432 26.655 15.21 26.8083 16.4087 26.9785C17.6073 27.1488 18.6741 27.302 18.7773 27.319L18.9609 27.3531V25.6448C18.9609 24.3168 18.9437 23.9422 18.8921 23.9479C18.8519 23.9535 17.7221 24.1181 16.38 24.3111Z"/>
<path d="M20.5668 27.3588L20.7274 27.3247C20.8134 27.3077 21.6049 27.1885 22.4824 27.0637C23.3656 26.9388 24.094 26.8253 24.0997 26.8196C24.1112 26.814 24.0882 26.5415 24.0538 26.2237C24.0079 25.7981 24.0079 25.4916 24.0538 25.0659C24.0882 24.7481 24.1112 24.4814 24.1054 24.47C24.094 24.4644 23.3713 24.3565 22.4881 24.226C21.6049 24.1011 20.8134 23.9819 20.7274 23.9649L20.5668 23.9309V27.3588Z"/>
<path d="M39.1547 24.2033C38.2256 24.3451 37.4571 24.4643 37.4513 24.47C37.4399 24.4757 37.4628 24.7481 37.4972 25.0659C37.5431 25.4916 37.5431 25.798 37.4972 26.2237C37.4628 26.5415 37.4399 26.8139 37.4513 26.8196C37.4571 26.8253 38.174 26.9331 39.04 27.058C39.9003 27.1885 40.6975 27.302 40.8007 27.319L40.9843 27.3531V25.6448C40.9843 24.3168 40.9671 23.9422 40.9154 23.9479C40.8753 23.9535 40.0838 24.067 39.1547 24.2033Z"/>
<path d="M42.5904 27.3531L42.7797 27.319C42.8772 27.302 43.944 27.1488 45.1426 26.9785C46.3413 26.8083 47.4081 26.655 47.5113 26.638L47.6948 26.6039V24.6857L47.5113 24.6516C47.4081 24.6346 46.3413 24.4813 45.1426 24.3111C43.944 24.1408 42.8772 23.9876 42.7797 23.9706L42.5904 23.9365V27.3531Z"/>
<path d="M23.7723 30.5312C23.0038 31.0988 22.3615 31.5698 22.3443 31.5869C22.3328 31.5982 22.8662 32.1487 23.5372 32.8071C24.2025 33.4711 24.7588 33.9989 24.7703 33.9876C24.9194 33.823 26.8751 31.1839 26.8751 31.1499C26.8751 31.1272 26.7375 31.0023 26.5712 30.8718C26.2385 30.6164 25.6765 30.0545 25.4184 29.714C25.3266 29.6005 25.2348 29.504 25.2119 29.504C25.189 29.504 24.5409 29.9694 23.7723 30.5312Z"/>
<path d="M36.1381 29.714C35.8743 30.0545 35.3179 30.6164 34.9796 30.8718C34.8132 31.0023 34.6756 31.1272 34.6756 31.1499C34.6756 31.1839 36.6485 33.8457 36.7804 33.9876C36.8034 34.0103 39.2065 31.655 39.2065 31.6039C39.2007 31.5642 36.4822 29.5664 36.379 29.5267C36.3331 29.5097 36.2356 29.5835 36.1381 29.714Z"/>
<path d="M21.3413 31.7457C21.2266 31.8536 21.1979 31.9387 21.1979 32.1544V32.4268L22.5629 33.7718L23.9222 35.1226H24.1975C24.4154 35.1226 24.5014 35.0942 24.6104 34.9807C24.7251 34.8729 24.7538 34.7877 24.7538 34.5721V34.2997L23.3888 32.9546L22.0295 31.6038H21.7542C21.5363 31.6038 21.4503 31.6322 21.3413 31.7457Z"/>
<path d="M38.1623 32.9546L36.7973 34.2997V34.5721C36.7973 34.9523 36.9694 35.1226 37.3536 35.1226H37.6289L38.9882 33.7718L40.3532 32.4268V32.1544C40.3532 31.9387 40.3245 31.8536 40.2098 31.7457C40.1008 31.6322 40.0148 31.6038 39.7969 31.6038H39.5216L38.1623 32.9546Z"/>
<path d="M29.5712 32.2634C29.5712 32.3201 29.1353 35.277 29.0837 35.5608L29.0492 35.748H32.5076L32.4732 35.5891C32.456 35.504 32.3356 34.7208 32.2094 33.8525C32.0832 32.9785 31.9685 32.2577 31.957 32.2463C31.9513 32.235 31.7276 32.2577 31.4581 32.2917C31.0107 32.3485 30.1447 32.3258 29.7432 32.252C29.6515 32.2293 29.5712 32.235 29.5712 32.2634Z"/>
<path d="M19.6777 34.7255C18.8575 35.8208 18.1808 36.7459 18.1693 36.78C18.1636 36.8197 18.4503 37.1489 18.8174 37.5064C19.4253 38.108 19.4884 38.1534 19.5974 38.0853C19.7006 38.0229 23.5318 35.2079 23.6064 35.1398C23.6293 35.1171 21.2492 32.7391 21.1975 32.7391C21.1803 32.7391 20.4978 33.6358 19.6777 34.7255Z"/>
<path d="M39.12 33.9309C38.3973 34.6516 37.9385 35.1397 37.9787 35.1681C38.0131 35.1908 38.9307 35.8662 40.0204 36.6664C41.1101 37.4723 42.0278 38.1307 42.0507 38.1307C42.0794 38.1307 42.4006 37.8355 42.7619 37.478C43.4042 36.8423 43.4157 36.8196 43.3354 36.6891C43.1863 36.4564 40.3817 32.7447 40.3531 32.739C40.3359 32.739 39.7795 33.2782 39.12 33.9309Z"/>
<path d="M28.734 36.0819C28.3211 36.3316 28.3784 36.8537 28.8373 37.0864C29.0609 37.1999 32.4906 37.1999 32.7143 37.0864C33.0584 36.9105 33.1846 36.5699 33.0183 36.2635C32.8692 35.991 32.7487 35.974 30.7643 35.974C29.0437 35.974 28.9003 35.9797 28.734 36.0819Z"/>
<path d="M29.0837 37.5183C29.1009 37.6204 29.2557 38.6761 29.4278 39.8622C29.5998 41.0484 29.7547 42.104 29.7719 42.2005L29.8063 42.3878H31.7448L31.7792 42.2005C31.7964 42.104 31.9513 41.0484 32.1234 39.8622C32.2954 38.6761 32.4503 37.6204 32.4675 37.5183L32.5019 37.3367H29.0492L29.0837 37.5183Z"/>
<path d="M12.9734 7.14238C12.1361 7.46588 11.7231 8.44772 12.1418 9.12309L12.2622 9.31605L13.2545 8.33421C13.805 7.78937 14.2352 7.32399 14.218 7.29562C14.1549 7.19346 13.7075 7.02887 13.4839 7.03455C13.3577 7.03455 13.1283 7.08563 12.9734 7.14238Z"/>
<path d="M47.6028 7.1377C47.4708 7.19446 47.3504 7.26824 47.3275 7.30229C47.2988 7.35337 49.2029 9.27165 49.2889 9.27165C49.3119 9.27165 49.3864 9.15814 49.461 9.01625C49.6216 8.70978 49.6101 8.25575 49.4266 7.90388C49.2488 7.56336 48.8473 7.22283 48.4917 7.12068C48.1017 7.00149 47.8895 7.00717 47.6028 7.1377Z"/>
<path d="M14.8029 7.3083C14.5792 7.44451 12.3826 9.61818 12.245 9.83952C12.113 10.0495 12.1016 10.5773 12.2163 10.8554C12.3769 11.2357 12.8758 11.6783 13.2314 11.7635C13.3691 11.7918 13.4264 11.7464 13.7476 11.3548C14.3097 10.6852 15.2445 9.74304 16.0073 9.08469C16.3858 8.75552 16.7185 8.47175 16.7472 8.44905C16.9135 8.29581 16.34 7.52964 15.9041 7.31965C15.5772 7.16641 15.0438 7.16074 14.8029 7.3083Z"/>
<path d="M45.7041 7.28487C45.4288 7.40405 45.0216 7.79565 44.8897 8.07942C44.8209 8.22131 44.7693 8.35752 44.7693 8.38022C44.7693 8.40859 44.9815 8.60723 45.2453 8.8229C46.1457 9.56637 47.0978 10.5312 48.0498 11.6492C48.1817 11.8025 48.199 11.8081 48.3997 11.7457C48.6807 11.6492 49.151 11.2236 49.2944 10.9285C49.4378 10.639 49.455 10.1055 49.3345 9.87852C49.2313 9.69691 46.8569 7.35297 46.6791 7.26217C46.507 7.17704 45.9278 7.18839 45.7041 7.28487Z"/>
<path d="M7.30667 23.0561C6.92815 23.1582 6.5955 23.3909 6.45785 23.6577C6.34888 23.8677 6.34315 23.9868 6.34315 25.644C6.34315 27.2899 6.34888 27.4204 6.45785 27.6304C6.73888 28.1809 7.70241 28.4534 8.32182 28.1639L8.55123 28.0561L8.52255 27.6021C8.50535 27.3523 8.49388 26.4727 8.49388 25.644C8.49388 24.8154 8.50535 23.9358 8.52255 23.686L8.55123 23.232L8.3505 23.1412C8.058 23.005 7.62211 22.9709 7.30667 23.0561Z"/>
<path d="M53.5439 23.0277C53.4349 23.0504 53.2686 23.1072 53.1711 23.1526L52.999 23.2377L53.0277 23.7144C53.0449 23.9812 53.0564 24.8495 53.0564 25.644C53.0564 26.4386 53.0449 27.3069 53.0277 27.5737L52.999 28.0561L53.2284 28.1639C53.8478 28.4534 54.8114 28.1809 55.0924 27.6304C55.2014 27.4204 55.2071 27.2899 55.2071 25.644C55.2071 23.9812 55.2014 23.8677 55.0924 23.652C54.949 23.3796 54.5648 23.1185 54.169 23.039C53.8593 22.9709 53.8364 22.9709 53.5439 23.0277Z"/>
<path d="M5.79822 24.284C5.5344 24.3407 5.39675 24.4316 5.17881 24.6813C4.9494 24.948 4.8519 25.2375 4.8519 25.6461C4.8519 26.0604 4.9494 26.3442 5.18454 26.6109C5.40249 26.8663 5.60322 26.9855 5.85557 27.0138L6.02763 27.0366L6.04484 25.6801C6.05057 24.931 6.0391 24.301 6.01616 24.284C5.98748 24.2613 5.89572 24.2613 5.79822 24.284Z"/>
<path d="M55.5174 24.301C55.5059 24.3407 55.5002 24.9707 55.5059 25.7028L55.5231 27.0366L55.6952 27.0138C55.9475 26.9855 56.1483 26.8663 56.3662 26.6109C56.8709 26.032 56.7964 25.0275 56.2171 24.528C56.1024 24.4259 55.9361 24.3294 55.85 24.3067C55.764 24.2897 55.6608 24.267 55.6206 24.2499C55.5805 24.2386 55.5346 24.2613 55.5174 24.301Z"/>
<path d="M13.0135 39.6112C12.7267 39.7474 12.331 40.156 12.2163 40.4285C12.1016 40.7122 12.113 41.24 12.245 41.45C12.3826 41.6714 14.5792 43.845 14.8029 43.9812C15.0438 44.1288 15.5772 44.1231 15.9041 43.9699C16.34 43.7599 16.9135 42.9937 16.7472 42.8405C16.7185 42.8178 16.3858 42.534 16.0073 42.2048C15.2445 41.5465 14.3097 40.6044 13.7476 39.929C13.5469 39.6907 13.3519 39.492 13.3175 39.492C13.283 39.492 13.1454 39.5431 13.0135 39.6112Z"/>
<path d="M47.6426 40.1179C47.0462 40.8103 45.9622 41.8716 45.2453 42.4675C44.9815 42.6832 44.7693 42.8818 44.7693 42.9102C44.7693 42.9329 44.8209 43.0691 44.8897 43.211C45.0273 43.5004 45.4345 43.892 45.7156 44.0112C45.9507 44.1077 46.5013 44.119 46.6791 44.0282C46.8569 43.9374 49.2313 41.5935 49.3345 41.4119C49.455 41.1849 49.4378 40.6514 49.3001 40.3676C49.1166 39.993 48.5029 39.4936 48.2219 39.4936C48.199 39.4936 47.9351 39.7717 47.6426 40.1179Z"/>
<path d="M12.1418 42.1668C11.9239 42.5187 11.9124 42.9784 12.1132 43.3756C12.3598 43.858 12.9906 44.261 13.5011 44.261C13.7133 44.261 14.1549 44.0964 14.218 43.9943C14.2352 43.9659 13.8051 43.5005 13.2545 42.9557L12.2623 41.9738L12.1418 42.1668Z"/>
<path d="M48.2739 42.9775C47.2014 44.0388 47.2244 43.9991 47.6545 44.175C48.1019 44.3566 48.7155 44.1977 49.1113 43.7947C49.4038 43.4883 49.5242 43.2499 49.5701 42.898C49.6045 42.6086 49.4841 42.1773 49.335 42.0524C49.2833 42.007 49.0138 42.2454 48.2739 42.9775Z"/>
<path d="M28.3266 47.6827C28.1947 47.8473 28.1144 48.1651 28.1202 48.4829C28.1259 49.0391 28.3782 49.5102 28.7682 49.7088C28.9804 49.8166 29.1124 49.8223 30.7756 49.8223C32.456 49.8223 32.5707 49.8166 32.7887 49.7088C33.3679 49.4137 33.6145 48.4716 33.2934 47.8076L33.2073 47.6373L32.7256 47.6657C31.9972 47.7054 29.3819 47.6997 28.8428 47.6543C28.5044 47.6259 28.361 47.6316 28.3266 47.6827Z"/>
<path d="M29.3932 50.1456C29.3531 50.4237 29.4965 50.7131 29.8004 50.9685C30.5862 51.6382 32.0487 51.2239 32.1576 50.3045L32.1806 50.1343L30.7926 50.1172C30.0241 50.1116 29.399 50.1229 29.3932 50.1456Z"/>
</mask>
<path d="M30.2079 0.0718061C29.9671 0.156937 29.5943 0.463407 29.491 0.662046C29.4451 0.747176 29.3993 0.889061 29.3935 0.985542L29.3706 1.1558H32.1809L32.1579 0.985542C32.1522 0.889061 32.1063 0.747176 32.0604 0.667721C31.9457 0.446381 31.5557 0.134235 31.2976 0.0604553C31.0166 -0.0246754 30.4603 -0.019 30.2079 0.0718061Z" stroke="#E8E8E8" stroke-width="6" mask="url(#path-1-inside-1_1_733)"/>
<path d="M28.7504 1.58739C28.1826 1.88251 27.936 2.8303 28.2572 3.48297L28.3375 3.65323L28.7963 3.62485C29.0486 3.60783 29.9376 3.59648 30.7749 3.59648C31.6123 3.59648 32.5013 3.60783 32.7536 3.62485L33.2124 3.65323L33.2927 3.48297C33.6139 2.81895 33.3673 1.87684 32.788 1.58172C32.5701 1.47388 32.4611 1.46821 30.7635 1.46821C29.0773 1.47388 28.9569 1.47956 28.7504 1.58739Z" stroke="#E8E8E8" stroke-width="6" mask="url(#path-1-inside-1_1_733)"/>
<path d="M28.94 3.91378C25.4759 4.2089 22.1092 5.3156 19.1384 7.1374C13.8332 10.4007 10.1225 15.8491 9.07296 21.9161C8.82634 23.3406 8.78046 23.8911 8.78046 25.6448C8.78046 27.8242 8.94104 29.1352 9.43428 31.0478C11.5506 39.226 18.2666 45.4632 26.6745 47.0637C28.1772 47.3475 28.8998 47.4099 30.7753 47.4099C32.6507 47.4099 33.3733 47.3475 34.876 47.0637C42.7276 45.5711 49.1167 40.0489 51.6804 32.5404C52.122 31.2351 52.5062 29.4984 52.6955 27.9433C52.793 27.1147 52.793 24.1749 52.6955 23.3463C52.3629 20.5937 51.6402 18.1703 50.4473 15.8548C46.9373 9.01027 40.2499 4.5551 32.5245 3.90811C31.733 3.84568 29.7372 3.84568 28.94 3.91378ZM32.0657 7.19983C33.8092 7.33036 35.6502 7.71629 37.1758 8.27815C38.971 8.93082 41.0013 10.0716 42.5039 11.2634C43.3126 11.9047 44.6604 13.2384 45.3085 14.0387C46.8455 15.9399 48.1417 18.4144 48.7554 20.6335C49.2486 22.4098 49.4379 23.7946 49.4379 25.6448C49.4379 28.7265 48.784 31.394 47.356 34.1352C46.4842 35.8151 45.3715 37.3134 43.9664 38.6982C42.091 40.554 40.0205 41.8991 37.5716 42.8582C35.3405 43.7266 33.2586 44.1125 30.7753 44.1125C29.4217 44.1125 28.8711 44.0671 27.5922 43.8571C24.9998 43.4315 22.4419 42.3929 20.165 40.8492C18.8516 39.9638 17.24 38.4825 16.2421 37.251C14.4928 35.0943 13.231 32.5461 12.6002 29.9013C12.2331 28.352 12.1127 27.3304 12.1127 25.6448C12.1127 23.7946 12.3019 22.3985 12.7894 20.6448C13.4088 18.4087 14.6993 15.9399 16.2421 14.0387C16.8901 13.2384 18.2379 11.9047 19.0466 11.2634C20.5493 10.0716 22.5795 8.93082 24.3747 8.27815C26.7548 7.40414 29.5364 7.01822 32.0657 7.19983Z" stroke="#E8E8E8" stroke-width="6" mask="url(#path-1-inside-1_1_733)"/>
<path d="M29.4277 7.7453C24.1569 8.17663 19.4655 10.7192 16.2996 14.8566C14.407 17.3253 13.2484 20.1403 12.7896 23.3753C12.6462 24.3685 12.6462 26.9111 12.7896 27.9156C13.0993 30.1347 13.713 32.07 14.6937 33.9202C17.1714 38.6137 21.6219 41.9962 26.8181 43.1483C34.836 44.919 43.0432 41.1392 46.8572 33.9202C47.8379 32.07 48.4459 30.1347 48.7613 27.9156C48.9047 26.9167 48.9047 24.3742 48.7613 23.3753C48.3082 20.1574 47.1382 17.3253 45.2513 14.8566C42.2919 10.9916 38.0249 8.52283 33.1269 7.85313C32.4903 7.768 30.0528 7.69422 29.4277 7.7453ZM33.3277 8.67039C36.396 9.14144 39.2235 10.3616 41.6381 12.2686C42.3722 12.8475 43.6913 14.1585 44.2591 14.8622C45.9912 17.0132 47.1554 19.4252 47.7175 22.0132C48.0157 23.3696 48.0673 23.9145 48.0673 25.6455C48.0673 27.3708 48.01 27.9326 47.7232 29.2493C46.2779 35.8498 41.0818 40.9974 34.4403 42.4105C33.0753 42.7 32.519 42.7567 30.7755 42.7567C29.0319 42.7567 28.4756 42.7 27.1106 42.4105C23.5662 41.6557 20.2742 39.7658 17.8825 37.1154C15.5425 34.5104 14.1202 31.4741 13.5868 27.944C13.4434 26.9735 13.4434 24.3174 13.5868 23.3469C14.0743 20.112 15.273 17.3707 17.2918 14.8622C17.8596 14.1585 19.1845 12.8475 19.9243 12.2629C21.2262 11.2357 23.0386 10.2027 24.5699 9.61817C25.7686 9.15847 27.3687 8.77254 28.8255 8.59093C29.8291 8.47175 32.2781 8.51148 33.3277 8.67039Z" stroke="#E8E8E8" stroke-width="6" mask="url(#path-1-inside-1_1_733)"/>
<path d="M29.7719 9.08366C29.7547 9.18581 29.5998 10.2414 29.4278 11.4276C29.2557 12.6137 29.1009 13.6694 29.0837 13.7658L29.0492 13.9531H32.5019L32.4675 13.7658C32.4503 13.6694 32.2954 12.6137 32.1234 11.4276C31.9513 10.2414 31.7964 9.18581 31.7792 9.08366L31.7448 8.90204H29.8063L29.7719 9.08366Z" stroke="#E8E8E8" stroke-width="6" mask="url(#path-1-inside-1_1_733)"/>
<path d="M18.7885 13.8124C18.1748 14.4197 18.1347 14.4764 18.2035 14.5842C18.2723 14.6864 21.1113 18.4719 21.1801 18.5513C21.1916 18.5627 21.7479 18.0349 22.4189 17.3709C23.1531 16.6444 23.6119 16.1507 23.5717 16.1223C23.5373 16.0996 22.6197 15.4242 21.53 14.6183C20.4403 13.8181 19.5226 13.1597 19.4997 13.1597C19.471 13.1597 19.1498 13.4548 18.7885 13.8124Z" stroke="#E8E8E8" stroke-width="6" mask="url(#path-1-inside-1_1_733)"/>
<path d="M40.067 14.5842C39.0117 15.3674 38.094 16.0428 38.0309 16.0882C37.922 16.162 37.9793 16.2301 39.1321 17.3709C39.8031 18.0349 40.3595 18.5627 40.3709 18.5513C40.4455 18.4719 43.273 14.6978 43.3418 14.5899C43.4164 14.4707 43.3877 14.4367 42.7625 13.8124C42.4012 13.4548 42.08 13.1597 42.0456 13.1597C42.017 13.1654 41.1223 13.801 40.067 14.5842Z" stroke="#E8E8E8" stroke-width="6" mask="url(#path-1-inside-1_1_733)"/>
<path d="M28.7622 14.2538C28.4926 14.4297 28.4123 14.617 28.4869 14.8781C28.5213 15.0143 28.6073 15.1221 28.7335 15.1959C28.9171 15.3094 29.0088 15.3151 30.7753 15.3151C32.5418 15.3151 32.6335 15.3094 32.817 15.1959C32.9432 15.1221 33.0293 15.0143 33.0637 14.8781C33.1382 14.617 33.0579 14.4297 32.7884 14.2538C32.5934 14.1232 32.5762 14.1232 30.7753 14.1232C28.9744 14.1232 28.9572 14.1232 28.7622 14.2538Z" stroke="#E8E8E8" stroke-width="6" mask="url(#path-1-inside-1_1_733)"/>
<path d="M29.0779 15.6961C29.0951 15.7869 29.2155 16.5701 29.3417 17.4385C29.4679 18.3125 29.5826 19.0332 29.5883 19.0389C29.5941 19.0503 29.8694 19.0276 30.1905 18.9935C30.6207 18.9481 30.9304 18.9481 31.3605 18.9935C31.6817 19.0276 31.957 19.0503 31.9627 19.0389C31.9685 19.0332 32.0832 18.3125 32.2094 17.4385C32.3355 16.5701 32.456 15.7869 32.4732 15.6961L32.5076 15.5429H29.0435L29.0779 15.6961Z" stroke="#E8E8E8" stroke-width="6" mask="url(#path-1-inside-1_1_733)"/>
<path d="M22.5629 17.5177L21.1979 18.8628V19.1352C21.1979 19.5155 21.37 19.6857 21.7542 19.6857H22.0295L23.3888 18.335L24.7538 16.9899V16.7175C24.7538 16.3373 24.5817 16.167 24.1975 16.167H23.9222L22.5629 17.5177Z" stroke="#E8E8E8" stroke-width="6" mask="url(#path-1-inside-1_1_733)"/>
<path d="M36.9407 16.3089C36.826 16.4167 36.7973 16.5018 36.7973 16.7175V16.9899L38.1623 18.335L39.5216 19.6857H39.7969C40.0148 19.6857 40.1008 19.6574 40.2098 19.5438C40.3245 19.436 40.3532 19.3509 40.3532 19.1352V18.8628L38.9882 17.5177L37.6289 16.167H37.3536C37.1357 16.167 37.0497 16.1954 36.9407 16.3089Z" stroke="#E8E8E8" stroke-width="6" mask="url(#path-1-inside-1_1_733)"/>
<path d="M23.52 18.4937C22.8604 19.1464 22.3328 19.6912 22.3443 19.7026C22.4876 19.8331 25.1775 21.7854 25.2119 21.7854C25.2348 21.7854 25.361 21.6492 25.4929 21.4846C25.751 21.1498 26.3188 20.5993 26.6629 20.3382C26.7948 20.2417 26.8694 20.1452 26.8522 20.0998C26.812 19.9977 24.7932 17.3075 24.7531 17.3019C24.7359 17.3019 24.1853 17.8354 23.52 18.4937Z" stroke="#E8E8E8" stroke-width="6" mask="url(#path-1-inside-1_1_733)"/>
<path d="M35.7475 18.664C35.1912 19.4074 34.7151 20.0544 34.6979 20.0998C34.6807 20.1452 34.7553 20.2417 34.8872 20.3382C35.2313 20.5993 35.7991 21.1498 36.0572 21.4846C36.1891 21.6492 36.3153 21.7854 36.3382 21.7854C36.3726 21.7854 39.0395 19.8501 39.2058 19.7026C39.2288 19.6799 36.8486 17.3019 36.797 17.3019C36.7798 17.3019 36.3095 17.9148 35.7475 18.664Z" stroke="#E8E8E8" stroke-width="6" mask="url(#path-1-inside-1_1_733)"/>
<path d="M29.6969 19.368C28.7506 19.5496 28.0222 19.8334 27.2594 20.3271C24.6613 22.0014 23.6577 25.2817 24.8621 28.1478C25.3094 29.2091 26.2615 30.3272 27.2766 30.9741C27.9018 31.3771 28.4524 31.6155 29.2209 31.8198C29.7141 31.9503 29.8747 31.9673 30.7751 31.9673C31.6756 31.9673 31.8362 31.9503 32.3294 31.8198C33.0865 31.6155 33.6428 31.3771 34.245 30.9912C36.8832 29.2999 37.9041 26.0309 36.6882 23.1421C36.2409 22.0808 35.2888 20.9628 34.2737 20.3158C33.2126 19.6404 32.2434 19.3453 30.9472 19.3112C30.3909 19.2999 29.9779 19.3169 29.6969 19.368ZM31.6354 20.3328C33.9697 20.7074 35.7648 22.4838 36.1434 24.7937C36.7054 28.1819 33.8951 31.2409 30.431 31.0139C28.0624 30.8606 26.0665 29.2091 25.4872 26.9162C25.3094 26.2011 25.3094 25.0888 25.4872 24.3737C26.1755 21.6438 28.8538 19.8845 31.6354 20.3328Z" stroke="#E8E8E8" stroke-width="6" mask="url(#path-1-inside-1_1_733)"/>
<path d="M30.1444 20.6503C28.2174 20.8886 26.6345 22.1486 26.0093 23.959C25.367 25.8149 25.9061 27.9091 27.38 29.2882C28.7164 30.5311 30.609 30.9738 32.3296 30.4346C32.9203 30.253 33.1497 30.1395 33.6889 29.7706C35.9256 28.2496 36.4762 25.0941 34.9047 22.8466C34.5606 22.3472 33.9412 21.7456 33.448 21.4221C32.5361 20.8262 31.2227 20.5197 30.1444 20.6503ZM31.6356 21.0816C33.6315 21.4562 35.2374 22.9999 35.1169 24.4301C35.0194 25.69 33.729 26.6151 32.5074 26.3029C31.584 26.0702 31.0621 25.48 30.9417 24.5492C30.7983 23.4482 30.632 23.0623 30.0814 22.5515C29.6053 22.1145 28.8884 21.8591 28.2862 21.9159C28.0281 21.9386 28.0109 21.9329 28.1142 21.8591C28.5615 21.5299 29.4849 21.1554 30.1158 21.0532C30.5803 20.9738 31.1309 20.9851 31.6356 21.0816ZM29.4562 22.5004C30.6033 23.0112 30.9703 24.4925 30.1961 25.4914C30.0928 25.6219 29.8978 25.8205 29.7544 25.9284C28.9228 26.5697 28.8368 26.6605 28.6246 27.0805C28.4525 27.421 28.4067 27.5856 28.3837 27.9488C28.3321 28.6696 28.5615 29.3563 29.0146 29.8274C29.2268 30.0544 29.2096 30.0544 28.7909 29.8728C27.8618 29.4641 26.9843 28.6412 26.5656 27.7899C26.1756 26.984 26.1011 26.6662 26.1011 25.7013C26.1068 25.0146 26.124 24.8046 26.233 24.4244C26.5484 23.3404 27.1793 22.6139 28.0109 22.3756C28.4181 22.2621 29.0318 22.3131 29.4562 22.5004ZM35.4611 25.7865C35.4438 26.2632 35.398 26.5867 35.3062 26.8648C34.7843 28.5107 33.4193 29.7819 31.7675 30.1622C31.2227 30.2871 30.3452 30.2473 29.9036 30.0771C29.158 29.7876 28.6934 29.1179 28.6934 28.3177C28.6934 27.6821 28.8597 27.3018 29.3358 26.8308C29.8462 26.3256 30.2018 26.1894 30.89 26.2292C31.303 26.2519 31.4636 26.2916 31.9511 26.5016C32.5017 26.7343 32.5475 26.7456 33.0981 26.7513C33.6258 26.7513 33.7061 26.7343 34.0444 26.5754C34.2509 26.4789 34.5205 26.3143 34.6466 26.2065C34.9162 25.9738 35.2833 25.4233 35.3349 25.1735C35.4496 24.6514 35.5012 24.8954 35.4611 25.7865Z" stroke="#E8E8E8" stroke-width="6" mask="url(#path-1-inside-1_1_733)"/>
<path d="M19.5341 23.3915C19.4595 23.4313 19.3333 23.5504 19.2645 23.6526C19.1326 23.8456 19.1326 23.8683 19.1326 25.6446C19.1326 27.4267 19.1326 27.4437 19.2645 27.6367C19.3333 27.7445 19.4595 27.858 19.5398 27.8978C19.7635 28.0056 20.0847 27.8978 20.2223 27.6708C20.3313 27.5005 20.337 27.37 20.337 25.656C20.337 24.0385 20.3255 23.8002 20.2395 23.6583C20.0904 23.4029 19.7635 23.278 19.5341 23.3915Z" stroke="#E8E8E8" stroke-width="6" mask="url(#path-1-inside-1_1_733)"/>
<path d="M41.6263 23.3849C41.5058 23.4189 41.3969 23.5041 41.3281 23.6176C41.2191 23.7878 41.2133 23.9127 41.2133 25.6323C41.2133 27.596 41.2306 27.7152 41.5058 27.8628C41.6894 27.9592 42.0106 27.9365 42.1425 27.823C42.4063 27.579 42.4178 27.5109 42.4178 25.6437C42.4178 23.7878 42.4063 23.7027 42.1539 23.4814C42.0048 23.3565 41.85 23.3281 41.6263 23.3849Z" stroke="#E8E8E8" stroke-width="6" mask="url(#path-1-inside-1_1_733)"/>
<path d="M16.38 24.3111C15.0379 24.5097 13.9253 24.6743 13.9024 24.6743C13.8737 24.68 13.8565 25.1113 13.8565 25.6448V26.6039L14.0457 26.638C14.1432 26.655 15.21 26.8083 16.4087 26.9785C17.6073 27.1488 18.6741 27.302 18.7773 27.319L18.9609 27.3531V25.6448C18.9609 24.3168 18.9437 23.9422 18.8921 23.9479C18.8519 23.9535 17.7221 24.1181 16.38 24.3111Z" stroke="#E8E8E8" stroke-width="6" mask="url(#path-1-inside-1_1_733)"/>
<path d="M20.5668 27.3588L20.7274 27.3247C20.8134 27.3077 21.6049 27.1885 22.4824 27.0637C23.3656 26.9388 24.094 26.8253 24.0997 26.8196C24.1112 26.814 24.0882 26.5415 24.0538 26.2237C24.0079 25.7981 24.0079 25.4916 24.0538 25.0659C24.0882 24.7481 24.1112 24.4814 24.1054 24.47C24.094 24.4644 23.3713 24.3565 22.4881 24.226C21.6049 24.1011 20.8134 23.9819 20.7274 23.9649L20.5668 23.9309V27.3588Z" stroke="#E8E8E8" stroke-width="6" mask="url(#path-1-inside-1_1_733)"/>
<path d="M39.1547 24.2033C38.2256 24.3451 37.4571 24.4643 37.4513 24.47C37.4399 24.4757 37.4628 24.7481 37.4972 25.0659C37.5431 25.4916 37.5431 25.798 37.4972 26.2237C37.4628 26.5415 37.4399 26.8139 37.4513 26.8196C37.4571 26.8253 38.174 26.9331 39.04 27.058C39.9003 27.1885 40.6975 27.302 40.8007 27.319L40.9843 27.3531V25.6448C40.9843 24.3168 40.9671 23.9422 40.9154 23.9479C40.8753 23.9535 40.0838 24.067 39.1547 24.2033Z" stroke="#E8E8E8" stroke-width="6" mask="url(#path-1-inside-1_1_733)"/>
<path d="M42.5904 27.3531L42.7797 27.319C42.8772 27.302 43.944 27.1488 45.1426 26.9785C46.3413 26.8083 47.4081 26.655 47.5113 26.638L47.6948 26.6039V24.6857L47.5113 24.6516C47.4081 24.6346 46.3413 24.4813 45.1426 24.3111C43.944 24.1408 42.8772 23.9876 42.7797 23.9706L42.5904 23.9365V27.3531Z" stroke="#E8E8E8" stroke-width="6" mask="url(#path-1-inside-1_1_733)"/>
<path d="M23.7723 30.5312C23.0038 31.0988 22.3615 31.5698 22.3443 31.5869C22.3328 31.5982 22.8662 32.1487 23.5372 32.8071C24.2025 33.4711 24.7588 33.9989 24.7703 33.9876C24.9194 33.823 26.8751 31.1839 26.8751 31.1499C26.8751 31.1272 26.7375 31.0023 26.5712 30.8718C26.2385 30.6164 25.6765 30.0545 25.4184 29.714C25.3266 29.6005 25.2348 29.504 25.2119 29.504C25.189 29.504 24.5409 29.9694 23.7723 30.5312Z" stroke="#E8E8E8" stroke-width="6" mask="url(#path-1-inside-1_1_733)"/>
<path d="M36.1381 29.714C35.8743 30.0545 35.3179 30.6164 34.9796 30.8718C34.8132 31.0023 34.6756 31.1272 34.6756 31.1499C34.6756 31.1839 36.6485 33.8457 36.7804 33.9876C36.8034 34.0103 39.2065 31.655 39.2065 31.6039C39.2007 31.5642 36.4822 29.5664 36.379 29.5267C36.3331 29.5097 36.2356 29.5835 36.1381 29.714Z" stroke="#E8E8E8" stroke-width="6" mask="url(#path-1-inside-1_1_733)"/>
<path d="M21.3413 31.7457C21.2266 31.8536 21.1979 31.9387 21.1979 32.1544V32.4268L22.5629 33.7718L23.9222 35.1226H24.1975C24.4154 35.1226 24.5014 35.0942 24.6104 34.9807C24.7251 34.8729 24.7538 34.7877 24.7538 34.5721V34.2997L23.3888 32.9546L22.0295 31.6038H21.7542C21.5363 31.6038 21.4503 31.6322 21.3413 31.7457Z" stroke="#E8E8E8" stroke-width="6" mask="url(#path-1-inside-1_1_733)"/>
<path d="M38.1623 32.9546L36.7973 34.2997V34.5721C36.7973 34.9523 36.9694 35.1226 37.3536 35.1226H37.6289L38.9882 33.7718L40.3532 32.4268V32.1544C40.3532 31.9387 40.3245 31.8536 40.2098 31.7457C40.1008 31.6322 40.0148 31.6038 39.7969 31.6038H39.5216L38.1623 32.9546Z" stroke="#E8E8E8" stroke-width="6" mask="url(#path-1-inside-1_1_733)"/>
<path d="M29.5712 32.2634C29.5712 32.3201 29.1353 35.277 29.0837 35.5608L29.0492 35.748H32.5076L32.4732 35.5891C32.456 35.504 32.3356 34.7208 32.2094 33.8525C32.0832 32.9785 31.9685 32.2577 31.957 32.2463C31.9513 32.235 31.7276 32.2577 31.4581 32.2917C31.0107 32.3485 30.1447 32.3258 29.7432 32.252C29.6515 32.2293 29.5712 32.235 29.5712 32.2634Z" stroke="#E8E8E8" stroke-width="6" mask="url(#path-1-inside-1_1_733)"/>
<path d="M19.6777 34.7255C18.8575 35.8208 18.1808 36.7459 18.1693 36.78C18.1636 36.8197 18.4503 37.1489 18.8174 37.5064C19.4253 38.108 19.4884 38.1534 19.5974 38.0853C19.7006 38.0229 23.5318 35.2079 23.6064 35.1398C23.6293 35.1171 21.2492 32.7391 21.1975 32.7391C21.1803 32.7391 20.4978 33.6358 19.6777 34.7255Z" stroke="#E8E8E8" stroke-width="6" mask="url(#path-1-inside-1_1_733)"/>
<path d="M39.12 33.9309C38.3973 34.6516 37.9385 35.1397 37.9787 35.1681C38.0131 35.1908 38.9307 35.8662 40.0204 36.6664C41.1101 37.4723 42.0278 38.1307 42.0507 38.1307C42.0794 38.1307 42.4006 37.8355 42.7619 37.478C43.4042 36.8423 43.4157 36.8196 43.3354 36.6891C43.1863 36.4564 40.3817 32.7447 40.3531 32.739C40.3359 32.739 39.7795 33.2782 39.12 33.9309Z" stroke="#E8E8E8" stroke-width="6" mask="url(#path-1-inside-1_1_733)"/>
<path d="M28.734 36.0819C28.3211 36.3316 28.3784 36.8537 28.8373 37.0864C29.0609 37.1999 32.4906 37.1999 32.7143 37.0864C33.0584 36.9105 33.1846 36.5699 33.0183 36.2635C32.8692 35.991 32.7487 35.974 30.7643 35.974C29.0437 35.974 28.9003 35.9797 28.734 36.0819Z" stroke="#E8E8E8" stroke-width="6" mask="url(#path-1-inside-1_1_733)"/>
<path d="M29.0837 37.5183C29.1009 37.6204 29.2557 38.6761 29.4278 39.8622C29.5998 41.0484 29.7547 42.104 29.7719 42.2005L29.8063 42.3878H31.7448L31.7792 42.2005C31.7964 42.104 31.9513 41.0484 32.1234 39.8622C32.2954 38.6761 32.4503 37.6204 32.4675 37.5183L32.5019 37.3367H29.0492L29.0837 37.5183Z" stroke="#E8E8E8" stroke-width="6" mask="url(#path-1-inside-1_1_733)"/>
<path d="M12.9734 7.14238C12.1361 7.46588 11.7231 8.44772 12.1418 9.12309L12.2622 9.31605L13.2545 8.33421C13.805 7.78937 14.2352 7.32399 14.218 7.29562C14.1549 7.19346 13.7075 7.02887 13.4839 7.03455C13.3577 7.03455 13.1283 7.08563 12.9734 7.14238Z" stroke="#E8E8E8" stroke-width="6" mask="url(#path-1-inside-1_1_733)"/>
<path d="M47.6028 7.1377C47.4708 7.19446 47.3504 7.26824 47.3275 7.30229C47.2988 7.35337 49.2029 9.27165 49.2889 9.27165C49.3119 9.27165 49.3864 9.15814 49.461 9.01625C49.6216 8.70978 49.6101 8.25575 49.4266 7.90388C49.2488 7.56336 48.8473 7.22283 48.4917 7.12068C48.1017 7.00149 47.8895 7.00717 47.6028 7.1377Z" stroke="#E8E8E8" stroke-width="6" mask="url(#path-1-inside-1_1_733)"/>
<path d="M14.8029 7.3083C14.5792 7.44451 12.3826 9.61818 12.245 9.83952C12.113 10.0495 12.1016 10.5773 12.2163 10.8554C12.3769 11.2357 12.8758 11.6783 13.2314 11.7635C13.3691 11.7918 13.4264 11.7464 13.7476 11.3548C14.3097 10.6852 15.2445 9.74304 16.0073 9.08469C16.3858 8.75552 16.7185 8.47175 16.7472 8.44905C16.9135 8.29581 16.34 7.52964 15.9041 7.31965C15.5772 7.16641 15.0438 7.16074 14.8029 7.3083Z" stroke="#E8E8E8" stroke-width="6" mask="url(#path-1-inside-1_1_733)"/>
<path d="M45.7041 7.28487C45.4288 7.40405 45.0216 7.79565 44.8897 8.07942C44.8209 8.22131 44.7693 8.35752 44.7693 8.38022C44.7693 8.40859 44.9815 8.60723 45.2453 8.8229C46.1457 9.56637 47.0978 10.5312 48.0498 11.6492C48.1817 11.8025 48.199 11.8081 48.3997 11.7457C48.6807 11.6492 49.151 11.2236 49.2944 10.9285C49.4378 10.639 49.455 10.1055 49.3345 9.87852C49.2313 9.69691 46.8569 7.35297 46.6791 7.26217C46.507 7.17704 45.9278 7.18839 45.7041 7.28487Z" stroke="#E8E8E8" stroke-width="6" mask="url(#path-1-inside-1_1_733)"/>
<path d="M7.30667 23.0561C6.92815 23.1582 6.5955 23.3909 6.45785 23.6577C6.34888 23.8677 6.34315 23.9868 6.34315 25.644C6.34315 27.2899 6.34888 27.4204 6.45785 27.6304C6.73888 28.1809 7.70241 28.4534 8.32182 28.1639L8.55123 28.0561L8.52255 27.6021C8.50535 27.3523 8.49388 26.4727 8.49388 25.644C8.49388 24.8154 8.50535 23.9358 8.52255 23.686L8.55123 23.232L8.3505 23.1412C8.058 23.005 7.62211 22.9709 7.30667 23.0561Z" stroke="#E8E8E8" stroke-width="6" mask="url(#path-1-inside-1_1_733)"/>
<path d="M53.5439 23.0277C53.4349 23.0504 53.2686 23.1072 53.1711 23.1526L52.999 23.2377L53.0277 23.7144C53.0449 23.9812 53.0564 24.8495 53.0564 25.644C53.0564 26.4386 53.0449 27.3069 53.0277 27.5737L52.999 28.0561L53.2284 28.1639C53.8478 28.4534 54.8114 28.1809 55.0924 27.6304C55.2014 27.4204 55.2071 27.2899 55.2071 25.644C55.2071 23.9812 55.2014 23.8677 55.0924 23.652C54.949 23.3796 54.5648 23.1185 54.169 23.039C53.8593 22.9709 53.8364 22.9709 53.5439 23.0277Z" stroke="#E8E8E8" stroke-width="6" mask="url(#path-1-inside-1_1_733)"/>
<path d="M5.79822 24.284C5.5344 24.3407 5.39675 24.4316 5.17881 24.6813C4.9494 24.948 4.8519 25.2375 4.8519 25.6461C4.8519 26.0604 4.9494 26.3442 5.18454 26.6109C5.40249 26.8663 5.60322 26.9855 5.85557 27.0138L6.02763 27.0366L6.04484 25.6801C6.05057 24.931 6.0391 24.301 6.01616 24.284C5.98748 24.2613 5.89572 24.2613 5.79822 24.284Z" stroke="#E8E8E8" stroke-width="6" mask="url(#path-1-inside-1_1_733)"/>
<path d="M55.5174 24.301C55.5059 24.3407 55.5002 24.9707 55.5059 25.7028L55.5231 27.0366L55.6952 27.0138C55.9475 26.9855 56.1483 26.8663 56.3662 26.6109C56.8709 26.032 56.7964 25.0275 56.2171 24.528C56.1024 24.4259 55.9361 24.3294 55.85 24.3067C55.764 24.2897 55.6608 24.267 55.6206 24.2499C55.5805 24.2386 55.5346 24.2613 55.5174 24.301Z" stroke="#E8E8E8" stroke-width="6" mask="url(#path-1-inside-1_1_733)"/>
<path d="M13.0135 39.6112C12.7267 39.7474 12.331 40.156 12.2163 40.4285C12.1016 40.7122 12.113 41.24 12.245 41.45C12.3826 41.6714 14.5792 43.845 14.8029 43.9812C15.0438 44.1288 15.5772 44.1231 15.9041 43.9699C16.34 43.7599 16.9135 42.9937 16.7472 42.8405C16.7185 42.8178 16.3858 42.534 16.0073 42.2048C15.2445 41.5465 14.3097 40.6044 13.7476 39.929C13.5469 39.6907 13.3519 39.492 13.3175 39.492C13.283 39.492 13.1454 39.5431 13.0135 39.6112Z" stroke="#E8E8E8" stroke-width="6" mask="url(#path-1-inside-1_1_733)"/>
<path d="M47.6426 40.1179C47.0462 40.8103 45.9622 41.8716 45.2453 42.4675C44.9815 42.6832 44.7693 42.8818 44.7693 42.9102C44.7693 42.9329 44.8209 43.0691 44.8897 43.211C45.0273 43.5004 45.4345 43.892 45.7156 44.0112C45.9507 44.1077 46.5013 44.119 46.6791 44.0282C46.8569 43.9374 49.2313 41.5935 49.3345 41.4119C49.455 41.1849 49.4378 40.6514 49.3001 40.3676C49.1166 39.993 48.5029 39.4936 48.2219 39.4936C48.199 39.4936 47.9351 39.7717 47.6426 40.1179Z" stroke="#E8E8E8" stroke-width="6" mask="url(#path-1-inside-1_1_733)"/>
<path d="M12.1418 42.1668C11.9239 42.5187 11.9124 42.9784 12.1132 43.3756C12.3598 43.858 12.9906 44.261 13.5011 44.261C13.7133 44.261 14.1549 44.0964 14.218 43.9943C14.2352 43.9659 13.8051 43.5005 13.2545 42.9557L12.2623 41.9738L12.1418 42.1668Z" stroke="#E8E8E8" stroke-width="6" mask="url(#path-1-inside-1_1_733)"/>
<path d="M48.2739 42.9775C47.2014 44.0388 47.2244 43.9991 47.6545 44.175C48.1019 44.3566 48.7155 44.1977 49.1113 43.7947C49.4038 43.4883 49.5242 43.2499 49.5701 42.898C49.6045 42.6086 49.4841 42.1773 49.335 42.0524C49.2833 42.007 49.0138 42.2454 48.2739 42.9775Z" stroke="#E8E8E8" stroke-width="6" mask="url(#path-1-inside-1_1_733)"/>
<path d="M28.3266 47.6827C28.1947 47.8473 28.1144 48.1651 28.1202 48.4829C28.1259 49.0391 28.3782 49.5102 28.7682 49.7088C28.9804 49.8166 29.1124 49.8223 30.7756 49.8223C32.456 49.8223 32.5707 49.8166 32.7887 49.7088C33.3679 49.4137 33.6145 48.4716 33.2934 47.8076L33.2073 47.6373L32.7256 47.6657C31.9972 47.7054 29.3819 47.6997 28.8428 47.6543C28.5044 47.6259 28.361 47.6316 28.3266 47.6827Z" stroke="#E8E8E8" stroke-width="6" mask="url(#path-1-inside-1_1_733)"/>
<path d="M29.3932 50.1456C29.3531 50.4237 29.4965 50.7131 29.8004 50.9685C30.5862 51.6382 32.0487 51.2239 32.1576 50.3045L32.1806 50.1343L30.7926 50.1172C30.0241 50.1116 29.399 50.1229 29.3932 50.1456Z" stroke="#E8E8E8" stroke-width="6" mask="url(#path-1-inside-1_1_733)"/>
</g>
<defs>
<filter id="filter0_d_1_733" x="0.851898" y="0" width="59.8506" height="59.2983" filterUnits="userSpaceOnUse" color-interpolation-filters="sRGB">
<feFlood flood-opacity="0" result="BackgroundImageFix"/>
<feColorMatrix in="SourceAlpha" type="matrix" values="0 0 0 0 0 0 0 0 0 0 0 0 0 0 0 0 0 0 127 0" result="hardAlpha"/>
<feOffset dy="4"/>
<feGaussianBlur stdDeviation="2"/>
<feComposite in2="hardAlpha" operator="out"/>
<feColorMatrix type="matrix" values="0 0 0 0 0 0 0 0 0 0 0 0 0 0 0 0 0 0 0.25 0"/>
<feBlend mode="normal" in2="BackgroundImageFix" result="effect1_dropShadow_1_733"/>
<feBlend mode="normal" in="SourceGraphic" in2="effect1_dropShadow_1_733" result="shape"/>
</filter>
</defs>
</svg>
