<svg width="54" height="53" viewBox="0 0 54 53" fill="none" xmlns="http://www.w3.org/2000/svg">
<g filter="url(#filter0_d_1_730)">
<mask id="path-1-inside-1_1_730" fill="white">
<path d="M25.5184 0.213369C20.6785 1.14026 17.4144 4.18576 16.6265 8.51124C15.8837 12.4836 17.8646 16.9195 21.3764 19.1043C22.2993 19.7001 24.798 20.6491 25.3833 20.6491C25.4733 20.6491 25.6759 20.0753 25.8335 19.3691C26.5539 16.2133 28.7599 13.0574 31.5513 11.2036C33.8249 9.72503 35.5583 9.17331 38.3496 9.01883C41.0509 8.88641 42.9419 9.26158 45.238 10.3871L46.7912 11.1374L45.9358 9.79123C44.0899 6.81194 39.5877 3.19266 35.8284 1.66991C32.2266 0.1913 28.4448 -0.338352 25.5184 0.213369ZM32.024 3.89886C31.4838 4.49472 30.6734 4.89196 29.6604 5.06851C29.2102 5.13471 28.6699 5.39954 28.4673 5.62023C28.1296 5.97333 27.0716 6.50298 26.0586 6.81194C25.856 6.87815 25.6309 7.18711 25.5409 7.51815C25.4508 7.84918 25.2257 8.35676 25.0231 8.66572C24.663 9.19538 23.1997 10.0561 22.637 10.0561C22.4794 10.0561 22.1642 10.4092 21.9616 10.8285C21.624 11.5347 20.4309 12.4836 19.9131 12.4836C19.7781 12.4836 20.0032 12.1526 20.4084 11.7554C20.7911 11.3581 21.2638 10.6519 21.4214 10.1664C21.6465 9.50434 21.8941 9.26158 22.4794 9.06296C23.4699 8.73193 24.2578 7.80504 24.4153 6.72367C24.5279 6.01747 24.663 5.86299 25.0681 5.86299C25.9011 5.86299 27.0491 5.39954 27.7695 4.75954C28.1972 4.38438 28.7374 4.16369 29.2552 4.11955C29.7054 4.09748 30.5158 3.943 31.0561 3.78852C32.4292 3.36921 32.5193 3.36921 32.024 3.89886ZM36.2111 5.68643C36.7738 5.79678 37.6293 5.81885 38.1245 5.75264L39.0249 5.6423L38.2371 5.9954C37.6743 6.23816 37.0215 6.32643 35.986 6.26022C34.9505 6.19402 34.3652 6.26022 34.0275 6.48091C33.7349 6.65746 33.037 6.83401 32.4743 6.85608C31.5963 6.92229 31.3712 7.03263 31.011 7.60642C30.4708 8.48917 29.3227 9.17331 28.4223 9.17331C27.7695 9.17331 27.7019 9.23951 27.5669 10.0119C27.3868 11.1816 26.2162 12.1526 24.6404 12.4616C24.1227 12.5719 23.9426 12.7705 23.7175 13.4988C23.4023 14.5581 22.9521 15.2643 22.2768 15.7057C21.8491 16.0146 21.8491 15.9705 22.3668 14.8671C22.682 14.205 22.9296 13.2781 22.9296 12.7485C22.9296 12.0643 23.0197 11.8216 23.2898 11.8216C23.4699 11.8216 24.1452 11.6009 24.753 11.3581C25.9911 10.8285 26.3738 10.2767 26.6439 8.77607C26.8015 7.82711 26.824 7.80504 27.5444 7.93745C28.5348 8.13607 29.9305 7.56228 30.5608 6.74574C30.9885 6.14988 31.1686 6.08367 32.2491 6.08367C33.1271 6.08367 33.5998 5.97333 33.9825 5.6423C34.2751 5.39954 34.6803 5.26713 34.8604 5.3554C35.0405 5.42161 35.6483 5.57609 36.2111 5.68643Z"/>
<path d="M14.0153 3.85527C12.3945 4.91457 9.6031 7.71731 8.365 9.50489C7.86976 10.2332 7.03685 11.6235 6.54161 12.5945C1.63422 22.1724 5.37104 31.9047 14.1503 32.5006C18.3599 32.7875 22.5694 30.4261 24.3928 26.7406C24.8205 25.8799 25.2257 24.8206 25.2932 24.4013L25.4283 23.6289L23.8525 23.2538C21.3763 22.68 19.4404 21.6207 17.617 19.8772C16.7391 19.0165 15.7261 17.8469 15.3884 17.251C13.0248 13.2566 12.8447 8.26903 14.9382 4.36285C15.3434 3.61251 15.591 2.99459 15.501 2.99459C15.4109 2.99459 14.7356 3.39183 14.0153 3.85527ZM10.9988 14.2718C11.4265 16.3904 12.3945 18.0676 14.4655 20.2083C17.0993 22.9227 17.7521 24.2689 17.4144 26.3434L17.2343 27.3806L16.9192 26.233C16.514 24.8427 14.9157 22.8565 13.3849 21.8193C12.7997 21.422 12.2144 21.091 12.1243 21.091C12.0343 21.091 12.1919 21.5545 12.4845 22.1283C12.7997 22.702 13.0248 23.5407 13.0248 24.0482V24.9531L12.6196 24.291C12.372 23.9158 12.0118 23.4965 11.8092 23.32C11.449 23.0331 11.4265 23.0551 11.539 23.5407C11.6066 23.8275 11.7642 24.622 11.8992 25.2841C12.2594 27.0717 12.9347 28.2854 13.8802 28.8592L14.7131 29.3668L13.9927 29.433C13.1823 29.5213 11.7867 28.8813 11.0888 28.1089C10.8187 27.8441 10.1884 26.851 9.64813 25.9462C9.13037 25.0413 8.31998 23.8938 7.82474 23.4082C7.35201 22.9007 6.94681 22.4151 6.94681 22.3269C6.94681 21.9958 8.79271 22.371 9.46804 22.8565C9.89575 23.1655 10.0983 23.2096 10.0983 23.0331C10.0983 22.4593 8.59011 19.6345 7.86976 18.9062C7.48707 18.509 7.17192 18.1338 7.17192 18.1117C7.17192 17.891 8.9728 18.5752 9.55808 18.9945L10.2559 19.5241L9.96328 18.2662C9.53557 16.5228 9.58059 14.3159 10.0308 12.9035C10.481 11.5794 10.436 11.5352 10.9988 14.2718Z"/>
<path d="M36.8414 12.1751C33.5773 12.9475 30.8985 15.0219 29.5929 17.8247C29.1651 18.7074 28.76 19.7447 28.6924 20.1198C28.5799 20.804 28.5799 20.804 29.9755 21.1129C34.6803 22.084 38.9124 26.0784 40.128 30.7129C40.5782 32.4122 40.6007 35.8108 40.1505 37.4218C39.9704 38.0839 39.4752 39.2976 39.0475 40.1142L38.2821 41.5928L39.1825 41.1073C42.1315 39.4963 45.4406 35.8108 47.354 32.0149C50.1229 26.586 50.4155 21.7088 48.2544 17.3833C46.8363 14.5806 44.4951 12.7709 41.4561 12.153C39.5877 11.7558 38.5297 11.7558 36.8414 12.1751ZM40.4206 14.7571C41.0509 14.9337 42.0864 15.375 42.7393 15.7944C43.8873 16.5006 45.5081 18.3323 45.373 18.7295C45.328 18.9061 43.8198 19.5902 42.4241 20.0757C42.0189 20.2081 42.0189 20.2523 42.5367 20.5833C44.0449 21.5764 46.0259 23.9377 45.8233 24.4895C45.6432 24.9308 43.5722 25.3502 42.4691 25.1736C40.6683 24.8646 39.205 23.8715 38.7098 22.5695C38.3046 21.5322 38.4622 21.135 38.9124 22.0178C39.6553 23.364 40.7583 24.0481 42.4466 24.1364C43.9098 24.2246 43.9098 24.2246 43.7523 23.7171C43.3245 22.415 41.8163 20.9585 40.6007 20.7378C39.2276 20.495 39.1825 20.7598 40.4206 21.9516C41.0734 22.5695 41.5462 23.0771 41.4561 23.0771C41.0059 23.0771 39.3176 21.8633 39.0475 21.3336C38.7773 20.8481 38.4622 20.6716 37.4267 20.4509C36.4137 20.2302 35.9409 19.9654 35.1531 19.193C34.6128 18.6412 34.1851 18.0895 34.2526 17.935C34.2977 17.7805 34.6803 17.4274 35.108 17.1626C35.7609 16.6992 36.0985 16.655 37.4942 16.7212C39.5652 16.8095 40.1055 17.2288 38.1695 17.2288C36.6838 17.2288 35.2431 17.6702 35.3782 18.0895C35.5808 18.7074 36.9765 19.3254 38.147 19.3254C39.4301 19.3254 41.5012 18.6854 42.3341 18.0012C42.8293 17.604 42.8293 17.604 42.4241 17.1406C42.199 16.8978 41.5012 16.4344 40.8709 16.1254C39.2276 15.3309 37.3817 15.353 35.6708 16.1916C34.973 16.5447 34.4102 16.8095 34.4102 16.7654C34.4102 16.5888 35.7158 15.5075 36.3236 15.1985C37.7193 14.4702 38.7998 14.3599 40.4206 14.7571ZM43.5271 26.1226C43.9098 26.3433 44.4951 27.0495 44.8328 27.6674L45.4631 28.7929L44.8778 28.9474C43.302 29.3446 41.5462 28.1529 41.7038 26.7846C41.8163 25.7033 42.4466 25.4826 43.5271 26.1226Z"/>
<path d="M28.1297 25.1078C27.2068 29.6761 23.2448 33.6705 18.4275 34.9726C15.2985 35.8333 11.7642 35.5243 8.86032 34.1119C8.11746 33.7588 7.48715 33.516 7.44213 33.5602C7.39711 33.6043 7.62222 34.134 7.98239 34.7519C10.7062 39.6732 17.3019 43.8884 23.56 44.7049C29.5029 45.4773 35.3557 42.2994 36.8865 37.4884C38.3947 32.6554 35.9185 26.8733 31.3938 24.7547C30.5159 24.3354 29.4804 23.9382 29.1202 23.8499C28.4223 23.7175 28.4223 23.7175 28.1297 25.1078ZM29.4804 31.4416C30.6059 32.3243 29.9531 34.2002 27.792 36.4953C26.1037 38.2608 24.2128 39.4967 22.2994 40.0705C20.476 40.6222 20.0032 40.6222 21.3989 40.0705C23.8976 39.0774 26.1262 37.3119 27.5444 35.2153C28.6475 33.5822 28.9401 32.5229 28.2873 32.3905C28.0622 32.3464 27.8596 32.5009 27.7695 32.7878C27.5669 33.4057 27.2068 33.1188 27.2068 32.3464C27.2068 31.9492 27.3868 31.5961 27.702 31.3754C28.3548 30.9119 28.8501 30.934 29.4804 31.4416ZM34.0276 33.494C35.6709 34.3547 35.3557 36.2526 33.4648 36.9588C32.7219 37.2236 32.7444 37.2457 33.1722 36.2526C33.78 34.8402 32.8795 34.8181 31.2137 36.2305C28.3773 38.636 25.0232 40.4015 21.8491 41.196C20.8136 41.4387 19.9132 41.6153 19.8682 41.5491C19.8006 41.4829 20.431 41.2181 21.2864 40.9532C24.9331 39.7615 28.2873 37.6429 30.0431 35.3919C31.5964 33.4278 32.812 32.854 34.0276 33.494Z"/>
</mask>
<path d="M25.5184 0.213369C20.6785 1.14026 17.4144 4.18576 16.6265 8.51124C15.8837 12.4836 17.8646 16.9195 21.3764 19.1043C22.2993 19.7001 24.798 20.6491 25.3833 20.6491C25.4733 20.6491 25.6759 20.0753 25.8335 19.3691C26.5539 16.2133 28.7599 13.0574 31.5513 11.2036C33.8249 9.72503 35.5583 9.17331 38.3496 9.01883C41.0509 8.88641 42.9419 9.26158 45.238 10.3871L46.7912 11.1374L45.9358 9.79123C44.0899 6.81194 39.5877 3.19266 35.8284 1.66991C32.2266 0.1913 28.4448 -0.338352 25.5184 0.213369ZM32.024 3.89886C31.4838 4.49472 30.6734 4.89196 29.6604 5.06851C29.2102 5.13471 28.6699 5.39954 28.4673 5.62023C28.1296 5.97333 27.0716 6.50298 26.0586 6.81194C25.856 6.87815 25.6309 7.18711 25.5409 7.51815C25.4508 7.84918 25.2257 8.35676 25.0231 8.66572C24.663 9.19538 23.1997 10.0561 22.637 10.0561C22.4794 10.0561 22.1642 10.4092 21.9616 10.8285C21.624 11.5347 20.4309 12.4836 19.9131 12.4836C19.7781 12.4836 20.0032 12.1526 20.4084 11.7554C20.7911 11.3581 21.2638 10.6519 21.4214 10.1664C21.6465 9.50434 21.8941 9.26158 22.4794 9.06296C23.4699 8.73193 24.2578 7.80504 24.4153 6.72367C24.5279 6.01747 24.663 5.86299 25.0681 5.86299C25.9011 5.86299 27.0491 5.39954 27.7695 4.75954C28.1972 4.38438 28.7374 4.16369 29.2552 4.11955C29.7054 4.09748 30.5158 3.943 31.0561 3.78852C32.4292 3.36921 32.5193 3.36921 32.024 3.89886ZM36.2111 5.68643C36.7738 5.79678 37.6293 5.81885 38.1245 5.75264L39.0249 5.6423L38.2371 5.9954C37.6743 6.23816 37.0215 6.32643 35.986 6.26022C34.9505 6.19402 34.3652 6.26022 34.0275 6.48091C33.7349 6.65746 33.037 6.83401 32.4743 6.85608C31.5963 6.92229 31.3712 7.03263 31.011 7.60642C30.4708 8.48917 29.3227 9.17331 28.4223 9.17331C27.7695 9.17331 27.7019 9.23951 27.5669 10.0119C27.3868 11.1816 26.2162 12.1526 24.6404 12.4616C24.1227 12.5719 23.9426 12.7705 23.7175 13.4988C23.4023 14.5581 22.9521 15.2643 22.2768 15.7057C21.8491 16.0146 21.8491 15.9705 22.3668 14.8671C22.682 14.205 22.9296 13.2781 22.9296 12.7485C22.9296 12.0643 23.0197 11.8216 23.2898 11.8216C23.4699 11.8216 24.1452 11.6009 24.753 11.3581C25.9911 10.8285 26.3738 10.2767 26.6439 8.77607C26.8015 7.82711 26.824 7.80504 27.5444 7.93745C28.5348 8.13607 29.9305 7.56228 30.5608 6.74574C30.9885 6.14988 31.1686 6.08367 32.2491 6.08367C33.1271 6.08367 33.5998 5.97333 33.9825 5.6423C34.2751 5.39954 34.6803 5.26713 34.8604 5.3554C35.0405 5.42161 35.6483 5.57609 36.2111 5.68643Z" stroke="#E8E8E8" stroke-width="6" shape-rendering="crispEdges" mask="url(#path-1-inside-1_1_730)"/>
<path d="M14.0153 3.85527C12.3945 4.91457 9.6031 7.71731 8.365 9.50489C7.86976 10.2332 7.03685 11.6235 6.54161 12.5945C1.63422 22.1724 5.37104 31.9047 14.1503 32.5006C18.3599 32.7875 22.5694 30.4261 24.3928 26.7406C24.8205 25.8799 25.2257 24.8206 25.2932 24.4013L25.4283 23.6289L23.8525 23.2538C21.3763 22.68 19.4404 21.6207 17.617 19.8772C16.7391 19.0165 15.7261 17.8469 15.3884 17.251C13.0248 13.2566 12.8447 8.26903 14.9382 4.36285C15.3434 3.61251 15.591 2.99459 15.501 2.99459C15.4109 2.99459 14.7356 3.39183 14.0153 3.85527ZM10.9988 14.2718C11.4265 16.3904 12.3945 18.0676 14.4655 20.2083C17.0993 22.9227 17.7521 24.2689 17.4144 26.3434L17.2343 27.3806L16.9192 26.233C16.514 24.8427 14.9157 22.8565 13.3849 21.8193C12.7997 21.422 12.2144 21.091 12.1243 21.091C12.0343 21.091 12.1919 21.5545 12.4845 22.1283C12.7997 22.702 13.0248 23.5407 13.0248 24.0482V24.9531L12.6196 24.291C12.372 23.9158 12.0118 23.4965 11.8092 23.32C11.449 23.0331 11.4265 23.0551 11.539 23.5407C11.6066 23.8275 11.7642 24.622 11.8992 25.2841C12.2594 27.0717 12.9347 28.2854 13.8802 28.8592L14.7131 29.3668L13.9927 29.433C13.1823 29.5213 11.7867 28.8813 11.0888 28.1089C10.8187 27.8441 10.1884 26.851 9.64813 25.9462C9.13037 25.0413 8.31998 23.8938 7.82474 23.4082C7.35201 22.9007 6.94681 22.4151 6.94681 22.3269C6.94681 21.9958 8.79271 22.371 9.46804 22.8565C9.89575 23.1655 10.0983 23.2096 10.0983 23.0331C10.0983 22.4593 8.59011 19.6345 7.86976 18.9062C7.48707 18.509 7.17192 18.1338 7.17192 18.1117C7.17192 17.891 8.9728 18.5752 9.55808 18.9945L10.2559 19.5241L9.96328 18.2662C9.53557 16.5228 9.58059 14.3159 10.0308 12.9035C10.481 11.5794 10.436 11.5352 10.9988 14.2718Z" stroke="#E8E8E8" stroke-width="6" shape-rendering="crispEdges" mask="url(#path-1-inside-1_1_730)"/>
<path d="M36.8414 12.1751C33.5773 12.9475 30.8985 15.0219 29.5929 17.8247C29.1651 18.7074 28.76 19.7447 28.6924 20.1198C28.5799 20.804 28.5799 20.804 29.9755 21.1129C34.6803 22.084 38.9124 26.0784 40.128 30.7129C40.5782 32.4122 40.6007 35.8108 40.1505 37.4218C39.9704 38.0839 39.4752 39.2976 39.0475 40.1142L38.2821 41.5928L39.1825 41.1073C42.1315 39.4963 45.4406 35.8108 47.354 32.0149C50.1229 26.586 50.4155 21.7088 48.2544 17.3833C46.8363 14.5806 44.4951 12.7709 41.4561 12.153C39.5877 11.7558 38.5297 11.7558 36.8414 12.1751ZM40.4206 14.7571C41.0509 14.9337 42.0864 15.375 42.7393 15.7944C43.8873 16.5006 45.5081 18.3323 45.373 18.7295C45.328 18.9061 43.8198 19.5902 42.4241 20.0757C42.0189 20.2081 42.0189 20.2523 42.5367 20.5833C44.0449 21.5764 46.0259 23.9377 45.8233 24.4895C45.6432 24.9308 43.5722 25.3502 42.4691 25.1736C40.6683 24.8646 39.205 23.8715 38.7098 22.5695C38.3046 21.5322 38.4622 21.135 38.9124 22.0178C39.6553 23.364 40.7583 24.0481 42.4466 24.1364C43.9098 24.2246 43.9098 24.2246 43.7523 23.7171C43.3245 22.415 41.8163 20.9585 40.6007 20.7378C39.2276 20.495 39.1825 20.7598 40.4206 21.9516C41.0734 22.5695 41.5462 23.0771 41.4561 23.0771C41.0059 23.0771 39.3176 21.8633 39.0475 21.3336C38.7773 20.8481 38.4622 20.6716 37.4267 20.4509C36.4137 20.2302 35.9409 19.9654 35.1531 19.193C34.6128 18.6412 34.1851 18.0895 34.2526 17.935C34.2977 17.7805 34.6803 17.4274 35.108 17.1626C35.7609 16.6992 36.0985 16.655 37.4942 16.7212C39.5652 16.8095 40.1055 17.2288 38.1695 17.2288C36.6838 17.2288 35.2431 17.6702 35.3782 18.0895C35.5808 18.7074 36.9765 19.3254 38.147 19.3254C39.4301 19.3254 41.5012 18.6854 42.3341 18.0012C42.8293 17.604 42.8293 17.604 42.4241 17.1406C42.199 16.8978 41.5012 16.4344 40.8709 16.1254C39.2276 15.3309 37.3817 15.353 35.6708 16.1916C34.973 16.5447 34.4102 16.8095 34.4102 16.7654C34.4102 16.5888 35.7158 15.5075 36.3236 15.1985C37.7193 14.4702 38.7998 14.3599 40.4206 14.7571ZM43.5271 26.1226C43.9098 26.3433 44.4951 27.0495 44.8328 27.6674L45.4631 28.7929L44.8778 28.9474C43.302 29.3446 41.5462 28.1529 41.7038 26.7846C41.8163 25.7033 42.4466 25.4826 43.5271 26.1226Z" stroke="#E8E8E8" stroke-width="6" shape-rendering="crispEdges" mask="url(#path-1-inside-1_1_730)"/>
<path d="M28.1297 25.1078C27.2068 29.6761 23.2448 33.6705 18.4275 34.9726C15.2985 35.8333 11.7642 35.5243 8.86032 34.1119C8.11746 33.7588 7.48715 33.516 7.44213 33.5602C7.39711 33.6043 7.62222 34.134 7.98239 34.7519C10.7062 39.6732 17.3019 43.8884 23.56 44.7049C29.5029 45.4773 35.3557 42.2994 36.8865 37.4884C38.3947 32.6554 35.9185 26.8733 31.3938 24.7547C30.5159 24.3354 29.4804 23.9382 29.1202 23.8499C28.4223 23.7175 28.4223 23.7175 28.1297 25.1078ZM29.4804 31.4416C30.6059 32.3243 29.9531 34.2002 27.792 36.4953C26.1037 38.2608 24.2128 39.4967 22.2994 40.0705C20.476 40.6222 20.0032 40.6222 21.3989 40.0705C23.8976 39.0774 26.1262 37.3119 27.5444 35.2153C28.6475 33.5822 28.9401 32.5229 28.2873 32.3905C28.0622 32.3464 27.8596 32.5009 27.7695 32.7878C27.5669 33.4057 27.2068 33.1188 27.2068 32.3464C27.2068 31.9492 27.3868 31.5961 27.702 31.3754C28.3548 30.9119 28.8501 30.934 29.4804 31.4416ZM34.0276 33.494C35.6709 34.3547 35.3557 36.2526 33.4648 36.9588C32.7219 37.2236 32.7444 37.2457 33.1722 36.2526C33.78 34.8402 32.8795 34.8181 31.2137 36.2305C28.3773 38.636 25.0232 40.4015 21.8491 41.196C20.8136 41.4387 19.9132 41.6153 19.8682 41.5491C19.8006 41.4829 20.431 41.2181 21.2864 40.9532C24.9331 39.7615 28.2873 37.6429 30.0431 35.3919C31.5964 33.4278 32.812 32.854 34.0276 33.494Z" stroke="#E8E8E8" stroke-width="6" shape-rendering="crispEdges" mask="url(#path-1-inside-1_1_730)"/>
</g>
<defs>
<filter id="filter0_d_1_730" x="0.36145" y="0" width="53.3186" height="52.8206" filterUnits="userSpaceOnUse" color-interpolation-filters="sRGB">
<feFlood flood-opacity="0" result="BackgroundImageFix"/>
<feColorMatrix in="SourceAlpha" type="matrix" values="0 0 0 0 0 0 0 0 0 0 0 0 0 0 0 0 0 0 127 0" result="hardAlpha"/>
<feOffset dy="4"/>
<feGaussianBlur stdDeviation="2"/>
<feComposite in2="hardAlpha" operator="out"/>
<feColorMatrix type="matrix" values="0 0 0 0 0 0 0 0 0 0 0 0 0 0 0 0 0 0 0.25 0"/>
<feBlend mode="normal" in2="BackgroundImageFix" result="effect1_dropShadow_1_730"/>
<feBlend mode="normal" in="SourceGraphic" in2="effect1_dropShadow_1_730" result="shape"/>
</filter>
</defs>
</svg>
