<svg width="104" height="95" viewBox="0 0 104 95" fill="none" xmlns="http://www.w3.org/2000/svg">
<g filter="url(#filter0_d_1_698)">
<mask id="path-1-inside-1_1_698" fill="white">
<path d="M51.3753 17.0173C51.3753 17.802 49.6988 19.749 48.3576 20.5045C47.663 20.9113 46.1541 21.6378 45.0045 22.1319C40.4539 24.0789 37.1008 26.4037 36.2146 28.2344C35.9236 28.8228 35.1554 28.9779 34.659 28.5485L30.6341 25.0669C27.8798 22.7131 24.6464 19.9233 23.4249 18.9062C22.432 18.0794 21.629 17.3103 21.4019 16.9889C21.3392 16.9003 21.3889 16.8241 21.4969 16.8134C22.5572 16.7078 28.8903 16.6105 36.4062 16.6105C49.579 16.5814 51.3753 16.6396 51.3753 17.0173Z"/>
<path d="M52.7166 18.6156C53.8423 20.1267 55.6865 21.3763 60.5245 23.8755C64.2129 25.8225 65.4344 26.6071 66.2247 27.5951C66.7277 28.2054 67.4223 29.4549 67.4223 29.7165C67.4223 29.8908 65.2667 31.7797 54.7524 40.8173C53.2675 42.125 51.9262 43.1421 51.7825 43.084C51.6388 43.0259 49.2916 41.0789 46.5373 38.725C36.7176 30.3267 36.1667 29.8036 36.2385 29.1934C36.3583 28.2925 38.2264 26.4037 40.2143 25.2122C41.2203 24.6019 43.5674 23.4105 45.4116 22.5387C49.1719 20.7951 50.4173 19.9524 51.2077 18.4703C51.4951 17.9182 51.7586 17.4532 51.8065 17.4532C51.8304 17.4532 52.2376 17.9763 52.7166 18.6156Z"/>
<path d="M82.3675 16.843C82.4872 17.0755 68.5959 29.1353 67.9731 29.3096C67.8055 29.3678 67.6618 29.2806 67.6618 29.1353C67.6618 28.99 67.2307 28.2635 66.6798 27.537C65.6499 26.084 64.7877 25.5319 58.9437 22.3934C54.2973 19.8943 52.3334 18.296 52.3334 16.9592C52.3334 16.6686 55.3032 16.5814 67.2786 16.5814C75.5176 16.5814 82.2956 16.6977 82.3675 16.843Z"/>
<path d="M71.1825 31.6925C73.386 32.9421 74.4398 34.0754 76.6672 37.7079C78.5593 40.7592 80.4993 43.0259 81.2178 43.0259C81.8406 43.0259 81.5292 43.4618 80.188 44.4789C79.2299 45.2344 78.4875 46.1643 77.4097 47.966C74.9188 52.2378 72.907 54.6207 70.488 56.1318C69.7215 56.5968 68.8354 56.9746 68.5001 56.9746C67.7815 56.9746 68.0689 57.207 55.3751 46.2806L53.4018 44.5784C52.8233 44.0794 52.8164 43.185 53.3872 42.6771C53.986 42.1541 55.3512 40.9626 56.4529 40.0327C57.5546 39.1028 60.5005 36.5746 62.9914 34.4242L63.094 34.3359C67.5185 30.5297 67.5502 30.5024 68.6198 30.6754C69.1946 30.7626 70.3682 31.1985 71.1825 31.6925Z"/>
<path d="M83.1339 42.9387C83.086 42.9968 82.5351 42.9096 81.9364 42.7062C80.4993 42.2703 78.8946 40.5267 77.0025 37.3592C74.6793 33.4652 72.5717 31.3729 70.0568 30.5011C69.5792 30.3388 69.1169 30.1396 68.9007 30.0066C68.8194 29.9566 68.7702 29.8712 68.8209 29.7903C69.1819 29.2146 71.8063 26.8528 76.8828 22.5387C78.0085 21.5797 79.8766 19.9814 81.0262 18.9644C81.8458 18.2557 83.1193 18.8338 83.1254 19.9172L83.1818 29.978C83.2057 37.0395 83.1818 42.8806 83.1339 42.9387Z"/>
<path d="M83.2297 56.8293C83.2297 64.0942 83.2058 70.0515 83.1579 70.0515C83.1339 70.0515 81.6011 68.7438 79.7569 67.1746C77.9127 65.5763 75.5894 63.6002 74.6075 62.7575C73.6255 61.9147 71.925 60.4617 70.8233 59.5028L70.4207 59.1556C69.6401 58.4823 69.7472 57.2425 70.6317 56.713C72.883 55.3182 74.6314 53.313 77.1462 49.2447C78.224 47.472 79.4455 45.7284 79.8527 45.3797C80.667 44.6532 82.4872 43.6361 82.9423 43.6071C83.1579 43.6071 83.2297 46.4549 83.2297 56.8293Z"/>
<path d="M28.1193 23.5558C31.4762 26.4505 34.312 28.9387 34.9533 29.5673C35.0501 29.6622 35.0556 29.7777 34.9429 29.8531C34.7305 29.9954 34.3102 30.2117 33.8435 30.4139C30.9694 31.5472 29.2689 33.1746 26.9936 36.9233C24.5985 40.9045 23.1854 42.3575 21.2694 42.8806C20.869 42.9836 20.479 42.6813 20.479 42.2679V30.0942C20.479 19.1096 20.5269 17.1626 20.8143 17.3661C21.0059 17.4823 24.2872 20.272 28.1193 23.5558Z"/>
<path d="M45.22 38.231C48.5971 41.1079 51.3514 43.5199 51.3514 43.6071C51.3514 43.7814 49.9383 45.0019 44.7889 49.3609C42.825 51.0464 40.0946 53.3711 38.7534 54.5626C35.999 56.9455 35.4961 57.0908 33.4124 56.1318C31.2808 55.1438 28.6941 52.2088 26.4667 48.2857C25.341 46.2806 24.0956 44.7404 22.9938 44.0139C22.1795 43.4908 21.9161 43.0259 22.419 43.0259C23.1615 43.0259 25.0057 40.9045 26.9696 37.7951C28.1672 35.8771 29.5324 33.9011 30.0353 33.4361C31.1371 32.3028 32.9333 31.2276 34.6099 30.7045L34.8681 30.6248C35.527 30.4213 36.2441 30.5715 36.7659 31.0223L37.5079 31.6635C38.3941 32.39 41.8669 35.3541 45.22 38.231Z"/>
<path d="M56.1415 47.5882C58.321 49.4481 60.5724 51.366 61.1233 51.86C61.6502 52.3541 63.3507 53.807 64.8835 55.0857C66.3924 56.3643 67.6378 57.5558 67.6618 57.7592C67.6618 58.3985 65.9852 60.084 64.2608 61.1882C63.3267 61.7985 60.9077 63.0481 58.8719 63.978C54.4889 65.9831 53.3153 66.7677 52.4052 68.2788C52.0913 68.8149 51.3397 68.8749 50.9447 68.3956L50.7766 68.1916C49.603 66.7096 47.9744 65.6053 43.5914 63.3387C39.1605 61.0139 38.0588 60.2583 37.1008 58.8925C36.6457 58.2532 36.2864 57.6429 36.2864 57.5267C36.2864 57.4105 38.921 55.0566 42.1543 52.2959C50.2497 45.3216 51.6388 44.1883 51.9262 44.1883C52.046 44.1883 53.962 45.7284 56.1415 47.5882Z"/>
<path d="M70.2964 59.7352C72.6196 61.7694 72.4998 61.6823 77.8408 66.2156C80.071 68.0968 81.9621 69.7724 82.3783 70.229C82.4429 70.2997 82.4369 70.3692 82.3424 70.3845C80.2639 70.7215 52.1592 70.7342 51.9981 70.3711C51.7346 69.8771 53.4111 67.5814 54.6087 66.7968C55.2793 66.3609 56.884 65.5181 58.2013 64.937C62.5364 62.9899 65.8415 60.9558 66.9912 59.5028C67.3922 58.9739 67.8186 58.522 68.0671 58.3041C68.1866 58.1993 68.3393 58.1851 68.4732 58.2706C68.8272 58.4964 69.5405 59.0642 70.2964 59.7352Z"/>
<path d="M22.5148 44.4207C24.0716 45.3216 24.9338 46.3387 26.3709 49.0122C26.8738 49.9712 28.1432 51.8019 29.221 53.0805C31.161 55.4635 32.8615 56.7711 34.538 57.207C34.9039 57.3057 35.0098 57.7739 34.7219 58.0203L28.6462 63.2224C24.9338 66.419 21.5807 69.2669 21.1975 69.5575C20.9039 69.7831 20.479 69.5738 20.479 69.2034V56.8583C20.479 46.4549 20.5509 43.6071 20.7904 43.6071C20.9341 43.6071 21.7244 43.9848 22.5148 44.4207Z"/>
<path d="M36.5259 58.8344C37.1726 60.1421 39.0647 61.6532 41.4598 62.7865C45.3877 64.6754 49.603 67.378 50.5131 68.5985C52.1418 70.778 53.1477 70.6327 36.2385 70.6327C21.3412 70.6327 21.1017 70.6327 21.5568 70.0805C21.8202 69.7609 24.2393 67.6395 26.9457 65.3438C29.6521 63.019 32.7178 60.4036 33.7716 59.5028C34.8254 58.6019 35.7595 57.8464 35.8553 57.8464C35.9272 57.8464 36.2385 58.2823 36.5259 58.8344Z"/>
</mask>
<path d="M21.25 43.6071V69.2139H18.75V43.6071H21.25ZM22 69.9639H51.8544V72.4639H22V69.9639ZM51.8544 69.9639H81.7087V72.4639H51.8544V69.9639ZM82.4587 69.2139V43.6071H84.9587V69.2139H82.4587ZM82.4587 43.6071V18.0003H84.9587V43.6071H82.4587ZM81.7087 17.2503H51.8544V14.7503H81.7087V17.2503ZM51.8544 17.2503H22V14.7503H51.8544V17.2503ZM21.25 18.0003V43.6071H18.75V18.0003H21.25ZM62.1762 33.4765C62.2123 33.4455 62.2435 33.4187 62.2789 33.3883L63.9092 35.2835C63.8767 35.3115 63.8394 35.3435 63.8066 35.3718L62.1762 33.4765ZM21.25 69.2139C21.25 69.6281 21.5858 69.9639 22 69.9639V72.4639C20.2051 72.4639 18.75 71.0088 18.75 69.2139H21.25ZM22 17.2503C21.5858 17.2503 21.25 17.586 21.25 18.0003H18.75C18.75 16.2053 20.2051 14.7503 22 14.7503V17.2503ZM82.4587 18.0003C82.4587 17.586 82.1229 17.2503 81.7087 17.2503V14.7503C83.5036 14.7503 84.9587 16.2053 84.9587 18.0003H82.4587ZM81.7087 69.9639C82.1229 69.9639 82.4587 69.6281 82.4587 69.2139H84.9587C84.9587 71.0088 83.5036 72.4639 81.7087 72.4639V69.9639ZM48.3576 20.5045L47.094 18.3473L47.1122 18.3367L47.1305 18.3263L48.3576 20.5045ZM45.0045 22.1319L45.9915 24.4288L45.9879 24.4303L45.0045 22.1319ZM30.6341 25.0669L32.2583 23.1664L32.264 23.1712L32.2696 23.1761L30.6341 25.0669ZM23.4249 18.9062L25.0247 16.9851L23.4249 18.9062ZM36.4062 16.6105L36.4117 19.1105H36.4062V16.6105ZM82.3675 16.843L80.145 17.9878L80.1356 17.9696L80.1265 17.9512L82.3675 16.843ZM67.9731 29.3096L67.1543 26.9475L67.226 26.9227L67.2991 26.9022L67.9731 29.3096ZM66.6798 27.537L64.6877 29.0475L64.6634 29.0155L64.6402 28.9827L66.6798 27.537ZM58.9437 22.3934L57.7609 24.5959L57.7595 24.5951L58.9437 22.3934ZM28.1193 23.5558L29.746 21.6574L29.7519 21.6625L28.1193 23.5558ZM33.8435 30.4139L34.8375 32.7078L34.7993 32.7243L34.7606 32.7396L33.8435 30.4139ZM26.9936 36.9233L24.8513 35.6345L24.8564 35.6261L26.9936 36.9233ZM20.8143 17.3661L19.5176 19.5035L19.4421 19.4577L19.37 19.4067L20.8143 17.3661ZM81.9364 42.7062L82.6621 40.3138L82.7015 40.3258L82.7406 40.3391L81.9364 42.7062ZM77.0025 37.3592L74.8563 38.6412L74.8556 38.6401L77.0025 37.3592ZM70.0568 30.5011L70.861 28.134L70.8684 28.1365L70.8757 28.139L70.0568 30.5011ZM76.8828 22.5387L78.504 24.4418L78.5017 24.4437L76.8828 22.5387ZM83.1818 29.978L85.6818 29.964L85.6818 29.9695L83.1818 29.978ZM52.7166 18.6156L54.7173 17.1166L54.7214 17.1221L52.7166 18.6156ZM60.5245 23.8755L61.6719 21.6543L61.6817 21.6594L61.6916 21.6646L60.5245 23.8755ZM66.2247 27.5951L64.2955 29.1851L64.2839 29.171L64.2725 29.1568L66.2247 27.5951ZM54.7524 40.8173L53.1001 38.9411L53.1114 38.9312L53.1228 38.9214L54.7524 40.8173ZM46.5373 38.725L44.9131 40.6255L44.9124 40.6249L46.5373 38.725ZM36.2385 29.1934L33.7557 28.9011L33.7579 28.8825L33.7603 28.864L36.2385 29.1934ZM40.2143 25.2122L41.5111 27.3497L41.4996 27.3565L40.2143 25.2122ZM45.4116 22.5387L44.3432 20.2785L44.3516 20.2746L44.36 20.2707L45.4116 22.5387ZM51.2077 18.4703L53.4253 19.6247L53.4195 19.6357L53.4136 19.6467L51.2077 18.4703ZM45.22 38.231L43.5988 40.1341L43.5921 40.1283L45.22 38.231ZM44.7889 49.3609L43.1608 47.4637L43.1672 47.4582L43.1737 47.4528L44.7889 49.3609ZM38.7534 54.5626L40.4137 56.4316L40.4014 56.4425L40.389 56.4532L38.7534 54.5626ZM33.4124 56.1318L32.3672 58.4029L32.361 58.4L33.4124 56.1318ZM26.4667 48.2857L24.2926 49.52L24.2867 49.5095L26.4667 48.2857ZM22.9938 44.0139L24.345 41.9105L24.3576 41.9186L24.3701 41.9268L22.9938 44.0139ZM26.9696 37.7951L29.0903 39.1192L29.0833 39.1301L26.9696 37.7951ZM30.0353 33.4361L31.8279 35.1787L31.7814 35.2266L31.7324 35.2719L30.0353 33.4361ZM34.6099 30.7045L33.8653 28.318L33.8722 28.3158L34.6099 30.7045ZM37.5079 31.6635L35.9229 33.5968L35.8979 33.5763L35.8734 33.5552L37.5079 31.6635ZM71.1825 31.6925L69.9493 33.8672L69.9173 33.849L69.8858 33.83L71.1825 31.6925ZM76.6672 37.7079L74.5425 39.0254L74.536 39.0148L76.6672 37.7079ZM80.188 44.4789L78.6399 42.5159L78.6585 42.5012L78.6774 42.4868L80.188 44.4789ZM77.4097 47.966L75.25 46.7067L75.2571 46.6946L75.2643 46.6826L77.4097 47.966ZM70.488 56.1318L71.8125 58.2521L71.7986 58.2608L71.7847 58.2693L70.488 56.1318ZM55.3751 46.2806L53.7442 48.1753L53.7422 48.1736L55.3751 46.2806ZM62.9914 34.4242L61.3577 32.5318L61.3612 32.5288L62.9914 34.4242ZM68.6198 30.6754L68.2449 33.1472L68.2327 33.1453L68.2206 33.1434L68.6198 30.6754ZM22.5148 44.4207L23.7222 42.2316L23.7447 42.244L23.7669 42.2569L22.5148 44.4207ZM26.3709 49.0122L28.5729 47.8286L28.5789 47.8397L28.5848 47.851L26.3709 49.0122ZM29.221 53.0805L31.1325 51.4693L31.1463 51.4856L31.1597 51.5022L29.221 53.0805ZM28.6462 63.2224L27.0149 61.328L27.0202 61.3234L28.6462 63.2224ZM79.7569 67.1746L78.1367 69.0786L78.1281 69.0712L78.1195 69.0638L79.7569 67.1746ZM70.8233 59.5028L72.4561 57.6096L72.4646 57.6171L70.8233 59.5028ZM77.1462 49.2447L79.2824 50.5435L79.2776 50.5513L79.2728 50.5591L77.1462 49.2447ZM79.8527 45.3797L81.517 47.2452L81.4981 47.262L81.4789 47.2785L79.8527 45.3797ZM82.9423 43.6071L82.783 41.1121L82.8626 41.1071H82.9423V43.6071ZM61.1233 51.86L62.7924 49.9988L62.813 50.0173L62.8332 50.0363L61.1233 51.86ZM64.8835 55.0857L66.4849 53.1659L66.4923 53.1721L66.4997 53.1784L64.8835 55.0857ZM67.6618 57.7592L70.1446 57.4668L70.1618 57.6125V57.7592H67.6618ZM64.2608 61.1882L62.8934 59.0953L62.903 59.0891L62.9126 59.0829L64.2608 61.1882ZM58.8719 63.978L57.8319 61.7046L57.8332 61.704L58.8719 63.978ZM50.7766 68.1916L48.8474 69.7817L48.8318 69.7628L48.8167 69.7436L50.7766 68.1916ZM43.5914 63.3387L42.443 65.5593L42.4364 65.5559L42.4299 65.5524L43.5914 63.3387ZM37.1008 58.8925L39.1375 57.4428L39.1425 57.4498L39.1475 57.4569L37.1008 58.8925ZM42.1543 52.2959L43.7861 54.19L43.7777 54.1972L42.1543 52.2959ZM36.5259 58.8344L38.7435 57.6801L38.7554 57.703L38.7669 57.7262L36.5259 58.8344ZM41.4598 62.7865L42.5291 60.5268L42.5362 60.5301L42.5432 60.5335L41.4598 62.7865ZM50.5131 68.5985L48.5105 70.095L48.509 70.093L50.5131 68.5985ZM21.5568 70.0805L19.6276 68.4905L21.5568 70.0805ZM26.9457 65.3438L28.5747 67.2402L28.5688 67.2453L28.5629 67.2503L26.9457 65.3438ZM70.2964 59.7352L68.6495 61.6161L68.643 61.6105L68.6366 61.6048L70.2964 59.7352ZM77.8408 66.2156L76.2289 68.1265L76.223 68.1216L77.8408 66.2156ZM51.9981 70.3711L54.204 69.1947L54.2465 69.2744L54.2831 69.357L51.9981 70.3711ZM54.6087 66.7968L53.2386 64.7056L53.2462 64.7007L54.6087 66.7968ZM58.2013 64.937L59.2255 67.2175L59.218 67.2209L59.2104 67.2242L58.2013 64.937ZM66.9912 59.5028L68.9833 61.0133L68.9677 61.0338L68.9517 61.054L66.9912 59.5028ZM63.094 34.3359L64.7244 36.2311L64.7243 36.2312L63.094 34.3359ZM82.3783 70.229L84.2258 68.5446L82.3783 70.229ZM82.3424 70.3845L82.7424 72.8523L82.3424 70.3845ZM50.9447 68.3956L49.0155 69.9856L50.9447 68.3956ZM34.7219 58.0203L33.096 56.1213L34.7219 58.0203ZM34.8681 30.6248L35.6059 33.0134L34.8681 30.6248ZM83.1254 19.9172L80.6254 19.9312L83.1254 19.9172ZM21.4019 16.9889L19.3604 18.432L21.4019 16.9889ZM21.4969 16.8134L21.7447 19.3011L21.4969 16.8134ZM34.659 28.5485L33.0235 30.4392L34.659 28.5485ZM53.4018 44.5784L51.7689 46.4714L53.4018 44.5784ZM68.0671 58.3041L69.7154 60.1838L68.0671 58.3041ZM68.4732 58.2706L69.8181 56.1631L68.4732 58.2706ZM68.9007 30.0066L67.5909 32.136L68.9007 30.0066ZM68.8209 29.7903L70.939 31.1183L68.8209 29.7903ZM70.4207 59.1556L68.7879 61.0487L70.4207 59.1556ZM34.9533 29.5673L36.7034 27.782L34.9533 29.5673ZM34.9429 29.8531L33.5521 27.7757L34.9429 29.8531ZM53.8753 17.0173C53.8753 17.9221 53.4634 18.6849 53.2506 19.0488C52.9746 19.521 52.6237 19.9866 52.2613 20.4061C51.5597 21.2183 50.589 22.1169 49.5846 22.6827L47.1305 18.3263C47.4674 18.1366 48.0056 17.6839 48.4776 17.1375C48.702 16.8778 48.854 16.6623 48.9342 16.5251C48.9742 16.4569 48.974 16.4457 48.9586 16.487C48.951 16.5075 48.8753 16.7044 48.8753 17.0173H53.8753ZM49.6211 22.6617C48.7951 23.1455 47.1768 23.9194 45.9915 24.4288L44.0175 19.835C45.1314 19.3563 46.5309 18.6772 47.094 18.3473L49.6211 22.6617ZM45.9879 24.4303C43.8276 25.3546 42.0081 26.3455 40.6607 27.2806C39.2276 28.2752 38.6166 29.01 38.4648 29.3236L33.9643 27.1452C34.6987 25.628 36.2074 24.2851 37.81 23.1729C39.4984 22.0011 41.6308 20.8561 44.0211 19.8334L45.9879 24.4303ZM33.0235 30.4392L28.9986 26.9577L32.2696 23.1761L36.2945 26.6577L33.0235 30.4392ZM29.0099 26.9674C26.2316 24.5931 23.0307 21.8312 21.8252 20.8274L25.0247 16.9851C26.2621 18.0155 29.528 20.8331 32.2583 23.1664L29.0099 26.9674ZM21.8252 20.8274C21.2936 20.3847 20.8028 19.9493 20.4038 19.57C20.059 19.2423 19.6327 18.8172 19.3604 18.432L23.4433 15.5459C23.3972 15.4807 23.394 15.4876 23.4934 15.593C23.576 15.6807 23.6945 15.7995 23.8487 15.9461C24.1562 16.2384 24.5634 16.601 25.0247 16.9851L21.8252 20.8274ZM21.2492 14.3257C22.4676 14.2044 28.9683 14.1105 36.4062 14.1105V19.1105C28.8123 19.1105 22.6469 19.2112 21.7447 19.3011L21.2492 14.3257ZM36.4007 14.1105C42.9721 14.096 46.7581 14.1029 48.8999 14.1623C49.9407 14.1912 50.723 14.2346 51.2725 14.3199C51.512 14.3571 51.9566 14.4356 52.3968 14.6573C52.9128 14.9171 53.8753 15.6468 53.8753 17.0173H48.8753C48.8753 18.2935 49.7818 18.9387 50.1481 19.1231C50.4386 19.2694 50.6399 19.2816 50.5052 19.2607C50.3063 19.2298 49.8162 19.1897 48.7613 19.1604C46.7117 19.1036 43.0131 19.0959 36.4117 19.1105L36.4007 14.1105ZM84.59 15.6982C84.9911 16.4769 84.8567 17.1868 84.8017 17.4213C84.7337 17.7115 84.6287 17.9244 84.5789 18.0198C84.4735 18.2215 84.3618 18.3686 84.3204 18.4225C84.2196 18.5536 84.115 18.6669 84.0518 18.734C83.9093 18.8851 83.7269 19.0638 83.5339 19.2477C83.1381 19.6251 82.5818 20.1349 81.9291 20.7224C80.6184 21.9025 78.8611 23.4482 77.0865 24.9869C75.3119 26.5257 73.5081 28.0678 72.104 29.24C71.404 29.8243 70.7906 30.3275 70.3249 30.6953C70.0948 30.877 69.8805 31.0419 69.7005 31.1716C69.6128 31.2348 69.5073 31.3085 69.398 31.3771C69.3814 31.3875 69.0626 31.6007 68.6472 31.717L67.2991 26.9022C67.0557 26.9704 66.8858 27.0605 66.8518 27.0784C66.7909 27.1103 66.7509 27.1352 66.7412 27.1413C66.7209 27.154 66.7288 27.1501 66.777 27.1153C66.8689 27.0491 67.0167 26.9368 67.2258 26.7716C67.6385 26.4456 68.2116 25.9762 68.8997 25.4017C70.2715 24.2564 72.0499 22.7363 73.8109 21.2093C75.572 19.6822 77.3041 18.1585 78.5838 17.0065C79.2263 16.428 79.7405 15.9561 80.0839 15.6288C80.2605 15.4604 80.3648 15.3559 80.413 15.3048C80.4451 15.2708 80.4118 15.3031 80.3566 15.3749C80.3379 15.3991 80.2426 15.522 80.147 15.7051C80.102 15.7912 80.0003 15.9962 79.9338 16.2799C79.8803 16.5079 79.7457 17.2127 80.145 17.9878L84.59 15.6982ZM68.792 31.6717C68.1417 31.8972 67.2936 31.9173 66.5088 31.4663C65.6819 30.991 65.1618 30.1095 65.1618 29.1353H70.1618C70.1618 28.3063 69.7135 27.5411 69.0003 27.1312C68.3293 26.7456 67.6369 26.7802 67.1543 26.9475L68.792 31.6717ZM65.1618 29.1353C65.1618 29.2802 65.1748 29.3999 65.1872 29.4839C65.1998 29.5701 65.2153 29.6417 65.2282 29.6945C65.2532 29.7969 65.2796 29.8733 65.2942 29.913C65.31 29.9564 65.3231 29.9871 65.3298 30.0023C65.3369 30.0184 65.3413 30.0273 65.3415 30.0278C65.3415 30.0279 65.3336 30.012 65.3148 29.9783C65.2966 29.9458 65.2722 29.9038 65.2411 29.8526C65.1121 29.6404 64.9154 29.3478 64.6877 29.0475L68.6719 26.0265C68.9951 26.4527 69.2894 26.8865 69.5137 27.2556C69.6236 27.4365 69.7361 27.6334 69.8301 27.825C69.8758 27.9182 69.9359 28.0478 69.9902 28.1963C70.0154 28.2651 70.1618 28.6463 70.1618 29.1353H65.1618ZM64.6402 28.9827C64.0262 28.1164 63.8039 27.8412 57.7609 24.5959L60.1266 20.1909C65.7715 23.2225 67.2736 24.0516 68.7194 26.0913L64.6402 28.9827ZM57.7595 24.5951C55.4069 23.3298 53.5777 22.2125 52.3107 21.1734C51.1764 20.243 49.8334 18.8548 49.8334 16.9592H54.8334C54.8334 16.4004 54.4723 16.4797 55.4816 17.3074C56.3582 18.0264 57.8341 18.9579 60.128 20.1917L57.7595 24.5951ZM49.8334 16.9592C49.8334 15.7255 50.6534 15.0486 50.9741 14.8328C51.3177 14.6017 51.6464 14.4994 51.791 14.4576C52.1161 14.3638 52.4595 14.3191 52.7226 14.2914C53.2946 14.2311 54.1258 14.1914 55.2504 14.1622C57.5276 14.1031 61.2964 14.0814 67.2786 14.0814V19.0814C61.2855 19.0814 57.5816 19.1034 55.3801 19.1605C54.2653 19.1894 53.6055 19.226 53.2464 19.2638C53.0441 19.2852 53.0618 19.295 53.1778 19.2615C53.2177 19.2499 53.4709 19.1793 53.7652 18.9813C54.0365 18.7988 54.8334 18.1566 54.8334 16.9592H49.8334ZM67.2786 14.0814C71.4078 14.0814 75.1771 14.1106 77.9289 14.1581C79.302 14.1818 80.4361 14.2104 81.2392 14.2429C81.6357 14.2589 81.9798 14.277 82.2408 14.2984C82.3628 14.3084 82.5184 14.3231 82.6689 14.3471C82.7336 14.3573 82.8795 14.3817 83.0489 14.4317C83.1274 14.4549 83.3015 14.5093 83.5045 14.6139C83.6005 14.6634 84.2325 14.9745 84.6084 15.7348L80.1265 17.9512C80.5002 18.7069 81.1267 19.0135 81.214 19.0584C81.4082 19.1585 81.5702 19.2085 81.6336 19.2272C81.7727 19.2683 81.8754 19.2837 81.8845 19.2851C81.9238 19.2914 81.9183 19.2887 81.8321 19.2817C81.6764 19.2689 81.4149 19.2541 81.0371 19.2388C80.2917 19.2086 79.2028 19.1809 77.8425 19.1573C75.1276 19.1104 71.3884 19.0814 67.2786 19.0814V14.0814ZM29.7519 21.6625C33.0726 24.5259 35.9894 27.0822 36.7034 27.782L33.2033 31.3526C32.6346 30.7952 29.8798 28.375 26.4867 25.4491L29.7519 21.6625ZM36.3337 31.9306C35.9324 32.1993 35.3484 32.4864 34.8375 32.7078L32.8495 28.12C33.0381 28.0383 33.2115 27.9561 33.3504 27.8851C33.5046 27.8063 33.564 27.7678 33.5521 27.7757L36.3337 31.9306ZM34.7606 32.7396C33.5762 33.2066 32.7193 33.7358 31.9174 34.4989C31.0795 35.2963 30.219 36.4275 29.1307 38.2205L24.8564 35.6261C26.0435 33.6704 27.1709 32.1136 28.4706 30.8768C29.8063 29.6057 31.2367 28.7545 32.9264 28.0882L34.7606 32.7396ZM29.1358 38.2121C26.7536 42.172 24.8985 44.4813 21.9278 45.2923L20.611 40.4688C21.4724 40.2337 22.4435 39.637 24.8514 35.6346L29.1358 38.2121ZM17.979 42.2679V30.0942H22.979V42.2679H17.979ZM17.979 30.0942C17.979 24.6142 17.9908 21.3438 18.0397 19.4694C18.0634 18.5619 18.0977 17.8639 18.1641 17.3827C18.1858 17.2254 18.2502 16.7281 18.501 16.2475C18.6185 16.0223 19.0173 15.3239 19.9218 15.0006C20.9909 14.6185 21.8688 15.0496 22.2586 15.3255L19.37 19.4067C19.7239 19.6571 20.5678 20.0795 21.6046 19.709C22.4768 19.3972 22.8451 18.7305 22.9338 18.5605C23.1269 18.1905 23.1404 17.8977 23.1172 18.0659C23.0938 18.2358 23.0622 18.673 23.038 19.5999C22.9912 21.3943 22.979 24.5897 22.979 30.0942H17.979ZM22.111 15.2286C22.3211 15.3561 22.5644 15.5594 22.6019 15.5899C22.7305 15.6943 22.8994 15.8341 23.0995 16.0011C23.5017 16.3367 24.0555 16.804 24.7188 17.3666C26.0466 18.4929 27.8285 20.0143 29.746 21.6574L26.4925 25.4542C24.578 23.8135 22.8032 22.2982 21.4845 21.1796C20.8244 20.6198 20.2825 20.1626 19.8958 19.8398C19.7015 19.6777 19.5527 19.5547 19.4502 19.4715C19.2566 19.3143 19.3555 19.4051 19.5176 19.5035L22.111 15.2286ZM85.0631 44.5287C84.66 45.0177 84.1871 45.2189 83.9818 45.2943C83.7433 45.382 83.5397 45.4163 83.4243 45.4317C83.1912 45.4628 82.9952 45.4575 82.8936 45.4527C82.67 45.4422 82.4567 45.4098 82.2921 45.3798C81.9447 45.3162 81.5388 45.2115 81.1322 45.0733L82.7406 40.3391C82.9327 40.4044 83.1016 40.4449 83.1913 40.4613C83.2453 40.4711 83.216 40.4624 83.128 40.4582C83.0941 40.4566 82.9536 40.4502 82.7622 40.4757C82.6676 40.4884 82.4813 40.5188 82.2565 40.6014C82.0648 40.6719 81.6018 40.8669 81.2047 41.3487L85.0631 44.5287ZM81.2107 45.0986C79.8835 44.696 78.7589 43.7892 77.8022 42.7518C76.823 41.6899 75.8482 40.3017 74.8563 38.6412L79.1488 36.0772C80.049 37.5842 80.8226 38.6516 81.478 39.3623C82.156 40.0976 82.5522 40.2805 82.6621 40.3138L81.2107 45.0986ZM74.8556 38.6401C72.6359 34.9195 70.9167 33.4451 69.238 32.8632L70.8757 28.139C74.2266 29.3006 76.7228 32.0108 79.1495 36.0783L74.8556 38.6401ZM69.2527 32.8682C68.7247 32.6889 68.0497 32.4183 67.5909 32.136L70.2105 27.8772C70.1736 27.8545 70.1672 27.8534 70.2081 27.8735C70.2431 27.8907 70.2958 27.9151 70.3656 27.945C70.5062 28.0053 70.6808 28.0727 70.861 28.134L69.2527 32.8682ZM66.7028 28.4624C66.9762 28.0264 67.4307 27.5683 67.7663 27.2383C68.1806 26.831 68.7322 26.3189 69.4115 25.7078C70.7737 24.4824 72.7201 22.7954 75.2638 20.6337L78.5017 24.4437C75.969 26.5961 74.0649 28.2471 72.7555 29.425C72.0991 30.0156 71.6096 30.4716 71.2717 30.8038C70.855 31.2134 70.8462 31.2665 70.939 31.1183L66.7028 28.4624ZM75.2616 20.6356C76.3893 19.6749 78.2402 18.0912 79.3697 17.0919L82.6828 20.8368C81.513 21.8716 79.6277 23.4845 78.504 24.4418L75.2616 20.6356ZM85.6254 19.9032L85.6818 29.964L80.6818 29.992L80.6254 19.9312L85.6254 19.9032ZM85.6818 29.9695C85.6938 33.5047 85.6938 36.7365 85.6848 39.0942C85.6803 40.2719 85.6735 41.237 85.6647 41.9144C85.6604 42.2511 85.6554 42.5276 85.6496 42.7272C85.6469 42.8235 85.6433 42.9223 85.6383 43.0077C85.6361 43.0453 85.6317 43.1153 85.6229 43.194C85.6191 43.2279 85.6092 43.3131 85.5884 43.4181C85.5785 43.4679 85.5565 43.572 85.5156 43.6997C85.4998 43.7489 85.384 44.1393 85.0631 44.5287L81.2047 41.3487C80.8845 41.7371 80.7695 42.1259 80.7544 42.1728C80.7142 42.2982 80.693 42.3993 80.6839 42.4454C80.6645 42.5429 80.6561 42.618 80.6538 42.6388C80.6479 42.6916 80.6463 42.7247 80.6469 42.7146C80.6475 42.7046 80.6493 42.665 80.6517 42.5823C80.6563 42.4237 80.6609 42.1792 80.6652 41.8498C80.6736 41.195 80.6803 40.2475 80.6848 39.0751C80.6938 36.7323 80.6938 33.5129 80.6818 29.9865L85.6818 29.9695ZM54.7214 17.1221C55.4491 18.0989 56.7565 19.1152 61.6719 21.6543L59.3771 26.0966C54.6165 23.6374 52.2355 22.1546 50.7117 20.1091L54.7214 17.1221ZM61.6916 21.6646C65.2471 23.5414 66.9966 24.5579 68.177 26.0334L64.2725 29.1568C63.8721 28.6563 63.1787 28.1035 59.3574 26.0863L61.6916 21.6646ZM68.154 26.0051C68.5371 26.47 68.919 27.0762 69.1922 27.5629C69.3342 27.8159 69.4751 28.0867 69.5887 28.3414C69.6445 28.4664 69.7094 28.622 69.765 28.7902C69.7977 28.8891 69.9223 29.2588 69.9223 29.7165H64.9223C64.9223 29.9502 64.9576 30.1247 64.9728 30.1937C64.9912 30.2773 65.0098 30.3359 65.0179 30.3603C65.0336 30.4077 65.0402 30.4181 65.0231 30.3796C64.9908 30.3073 64.9266 30.1786 64.8321 30.0102C64.7405 29.847 64.6363 29.6749 64.5338 29.5187C64.4272 29.3562 64.3441 29.244 64.2955 29.1851L68.154 26.0051ZM69.9223 29.7165C69.9223 30.2918 69.7235 30.7101 69.66 30.8395C69.5722 31.0185 69.4804 31.1532 69.4277 31.2266C69.3204 31.3764 69.2113 31.498 69.145 31.5697C69.0019 31.7245 68.8228 31.8981 68.6293 32.0791C68.2303 32.4524 67.6052 33.0109 66.6777 33.8235C64.8138 35.4566 61.6366 38.1966 56.382 42.7132L53.1228 38.9214C58.3825 34.4004 61.5403 31.6771 63.3827 30.0628C64.3084 29.2518 64.8793 28.7405 65.2131 28.4282C65.2946 28.3519 65.3563 28.2927 65.402 28.2478C65.4247 28.2256 65.4418 28.2084 65.4542 28.1957C65.4604 28.1894 65.465 28.1846 65.4683 28.1811C65.4699 28.1794 65.4711 28.1782 65.472 28.1773C65.4724 28.1768 65.4727 28.1765 65.4729 28.1763C65.4731 28.176 65.4732 28.1759 65.4732 28.1759C65.4732 28.1759 65.4731 28.1761 65.4729 28.1763C65.4726 28.1766 65.4723 28.1769 65.4718 28.1774C65.4709 28.1784 65.4695 28.18 65.4677 28.1821C65.464 28.1862 65.4578 28.1933 65.4497 28.203C65.4357 28.2196 65.4035 28.2584 65.3633 28.3146C65.329 28.3624 65.2506 28.4754 65.1715 28.6365C65.1168 28.7479 64.9223 29.1521 64.9223 29.7165H69.9223ZM56.4046 42.6935C55.6287 43.3768 54.8757 43.9973 54.2793 44.4516C53.9876 44.6738 53.6961 44.8848 53.4403 45.0476C53.3214 45.1232 53.1446 45.2308 52.9448 45.3237C52.8508 45.3674 52.6692 45.4472 52.4366 45.506C52.3235 45.5347 51.6358 45.7214 50.8452 45.4016L52.7198 40.7664C52.2891 40.5922 51.9123 40.5802 51.704 40.5881C51.4835 40.5966 51.3105 40.6334 51.2098 40.6589C51.0134 40.7086 50.8768 40.7712 50.8362 40.7901C50.743 40.8334 50.7062 40.8609 50.7564 40.8289C50.8389 40.7764 51.0025 40.6623 51.2496 40.474C51.731 40.1074 52.3911 39.5655 53.1001 38.9411L56.4046 42.6935ZM50.8452 45.4016C50.6253 45.3127 50.4628 45.2088 50.438 45.1933C50.3783 45.1559 50.3284 45.1217 50.2967 45.0995C50.2315 45.0539 50.1675 45.0061 50.1149 44.966C50.0059 44.8831 49.872 44.7773 49.7243 44.6587C49.4254 44.4186 49.0203 44.0862 48.5416 43.6886C47.5816 42.8912 46.297 41.8082 44.9131 40.6255L48.1615 36.8245C49.5319 37.9956 50.7981 39.0631 51.7362 39.8422C52.2065 40.2328 52.5873 40.5452 52.8549 40.7601C52.9906 40.869 53.0851 40.9432 53.1428 40.9871C53.1734 41.0104 53.1774 41.0127 53.1637 41.0031C53.1578 40.999 53.1295 40.9792 53.0873 40.9528C53.0799 40.9482 52.9308 40.8517 52.7198 40.7664L50.8452 45.4016ZM44.9124 40.6249C40.0242 36.4443 37.3819 34.1722 35.9793 32.8724C35.3071 32.2495 34.773 31.7187 34.4199 31.2368C34.2281 30.9749 34.0062 30.6181 33.8678 30.1676C33.7129 29.6632 33.7177 29.2235 33.7557 28.9011L38.7214 29.4857C38.7414 29.3159 38.7477 29.026 38.6475 28.6998C38.6049 28.561 38.555 28.4554 38.5178 28.387C38.4818 28.3207 38.455 28.2841 38.4531 28.2815C38.4509 28.2785 38.4642 28.2969 38.5024 28.3407C38.54 28.3839 38.5949 28.4439 38.6728 28.5244C38.8305 28.6874 39.0561 28.9069 39.3779 29.205C40.6877 30.4189 43.2307 32.6074 48.1622 36.8251L44.9124 40.6249ZM33.7603 28.864C33.8707 28.0339 34.2923 27.3448 34.5748 26.9364C34.9061 26.4576 35.3187 25.9854 35.7542 25.548C36.6253 24.6729 37.7517 23.7735 38.9291 23.0679L41.4996 27.3565C40.689 27.8423 39.8874 28.4831 39.2976 29.0756C39.0026 29.3719 38.8014 29.6153 38.6866 29.7812C38.5231 30.0176 38.6663 29.9025 38.7167 29.5228L33.7603 28.864ZM38.9177 23.0748C40.0436 22.3917 42.4929 21.1532 44.3432 20.2785L46.4801 24.7989C44.642 25.6678 42.397 26.8122 41.511 27.3496L38.9177 23.0748ZM44.36 20.2707C48.2037 18.4884 48.6577 17.9392 49.0018 17.2939L53.4136 19.6467C52.177 21.9656 50.1401 23.1019 46.4633 24.8067L44.36 20.2707ZM48.9901 17.316C49.142 17.0243 49.3 16.7312 49.436 16.4976C49.4997 16.388 49.5835 16.2482 49.6735 16.1175C49.7123 16.0611 49.7981 15.9386 49.9163 15.8066C49.9706 15.7459 50.0949 15.6115 50.2767 15.4725C50.3526 15.4144 50.9262 14.9532 51.8065 14.9532V19.9532C52.2942 19.9532 52.6647 19.8109 52.8627 19.7181C53.0722 19.6199 53.2251 19.5122 53.3133 19.4447C53.4859 19.3128 53.5992 19.1889 53.6413 19.142C53.7347 19.0376 53.7898 18.9557 53.7927 18.9515C53.8108 18.9252 53.8019 18.9362 53.7578 19.0119C53.6782 19.1488 53.5608 19.3642 53.4253 19.6247L48.9901 17.316ZM51.8065 14.9532C52.3216 14.9532 52.7003 15.1133 52.8398 15.1765C53.0149 15.2559 53.1443 15.3391 53.2135 15.386C53.3527 15.4804 53.452 15.5687 53.491 15.604C53.5794 15.6838 53.6452 15.7546 53.6695 15.7809C53.729 15.8454 53.782 15.9084 53.8146 15.9477C53.8874 16.0354 53.9735 16.1437 54.0606 16.2552C54.2393 16.4838 54.4718 16.789 54.7173 17.1166L50.7159 20.1147C50.4823 19.803 50.2717 19.5269 50.1211 19.3342C50.0436 19.235 49.9934 19.1726 49.9682 19.1422C49.9518 19.1225 49.9653 19.1397 49.9961 19.173C50.006 19.1837 50.0602 19.2428 50.1397 19.3146C50.1743 19.3459 50.2699 19.4311 50.4062 19.5235C50.4738 19.5694 50.602 19.6519 50.7759 19.7307C50.8658 19.7714 50.9929 19.8226 51.1502 19.8655C51.304 19.9074 51.5301 19.9532 51.8065 19.9532V14.9532ZM46.8413 36.3279C48.5356 37.7714 50.0778 39.1016 51.1999 40.0851C51.7593 40.5754 52.2232 40.9873 52.552 41.2868C52.7133 41.4338 52.8593 41.5693 52.9723 41.6796C53.0242 41.7303 53.0988 41.8042 53.1716 41.8846C53.203 41.9192 53.2763 42.001 53.3556 42.1086C53.3927 42.1589 53.4716 42.2689 53.5521 42.4189C53.58 42.4708 53.8514 42.9432 53.8514 43.6071H48.8514C48.8514 44.2682 49.1214 44.7367 49.1467 44.7837C49.2245 44.9286 49.2994 45.0326 49.3312 45.0757C49.3998 45.1689 49.4572 45.2318 49.4676 45.2432C49.4985 45.2773 49.5106 45.2877 49.4806 45.2584C49.4298 45.2089 49.3342 45.1192 49.1846 44.9829C48.8913 44.7157 48.4556 44.3285 47.9043 43.8453C46.805 42.8818 45.2815 41.5675 43.5988 40.1341L46.8413 36.3279ZM53.8514 43.6071C53.8514 44.3283 53.5386 44.8366 53.4848 44.9273C53.3777 45.108 53.2671 45.2467 53.203 45.3238C53.0689 45.4851 52.9185 45.637 52.793 45.759C52.529 46.0157 52.1486 46.358 51.6469 46.7967C50.6316 47.6845 48.9739 49.0938 46.4042 51.269L43.1737 47.4528C45.7534 45.269 47.3769 43.8885 48.3555 43.0328C48.8507 42.5998 49.1454 42.3318 49.3073 42.1743C49.3947 42.0893 49.3949 42.0832 49.3582 42.1273C49.3428 42.1459 49.2676 42.2362 49.1837 42.3778C49.1532 42.4293 48.8514 42.9076 48.8514 43.6071H53.8514ZM46.4171 51.258C44.4327 52.9611 41.7336 55.2591 40.4137 56.4316L37.093 52.6936C38.4556 51.4832 41.2173 49.1317 43.1608 47.4637L46.4171 51.258ZM40.389 56.4532C39.6986 57.0506 39.0738 57.5743 38.5034 57.982C37.9351 58.388 37.2859 58.7791 36.5352 58.9993C34.8321 59.499 33.4093 58.8825 32.3672 58.4029L34.4575 53.8608C35.4991 54.3401 35.3697 54.1305 35.1276 54.2015C35.1073 54.2075 35.2305 54.1753 35.5964 53.9139C35.96 53.6541 36.4309 53.2661 37.1177 52.672L40.389 56.4532ZM32.361 58.4C30.8491 57.6992 29.4002 56.433 28.1025 54.9654C26.7753 53.4643 25.4747 51.6019 24.2926 49.52L28.6407 47.0513C29.6861 48.8925 30.7925 50.4592 31.8484 51.6534C32.9338 52.8811 33.844 53.5764 34.4637 53.8636L32.361 58.4ZM24.2867 49.5095C23.2266 47.6212 22.2195 46.4979 21.6176 46.101L24.3701 41.9268C25.9716 42.9829 27.4554 44.9399 28.6466 47.0618L24.2867 49.5095ZM21.6427 46.1173C21.1721 45.8151 20.4667 45.3005 20.047 44.573C19.8927 44.3055 19.2388 43.0608 20.0797 41.7539C20.8576 40.5451 22.1545 40.5259 22.419 40.5259V45.5259C22.5252 45.5259 22.7764 45.5166 23.09 45.4071C23.4168 45.293 23.9188 45.0278 24.2845 44.4594C25.0588 43.2561 24.4274 42.1603 24.3779 42.0744C24.2408 41.8368 24.115 41.7385 24.1537 41.7731C24.1666 41.7845 24.2258 41.8339 24.345 41.9105L21.6427 46.1173ZM22.419 40.5259C21.9548 40.5259 21.657 40.6782 21.609 40.7027C21.5329 40.7417 21.5278 40.7559 21.6012 40.6969C21.7475 40.5795 21.9993 40.339 22.35 39.9358C23.0401 39.1424 23.917 37.9466 24.856 36.4601L29.0833 39.1301C28.0583 40.753 27.0312 42.1726 26.1226 43.2172C25.6739 43.7331 25.2027 44.2172 24.733 44.5947C24.4984 44.7832 24.2121 44.9875 23.8853 45.1545C23.5867 45.3072 23.0688 45.5259 22.419 45.5259V40.5259ZM24.8491 36.471C25.467 35.4814 26.1316 34.4709 26.7143 33.6379C27.2284 32.9029 27.851 32.0508 28.3383 31.6004L31.7324 35.2719C31.7721 35.2351 31.7013 35.3005 31.4887 35.5749C31.3047 35.8123 31.0748 36.1273 30.8116 36.5036C30.2865 37.2543 29.6698 38.1908 29.0902 39.1192L24.8491 36.471ZM28.2427 31.6935C29.6637 30.2319 31.8329 28.9521 33.8653 28.318L35.3545 33.091C34.0338 33.5031 32.6104 34.3737 31.8279 35.1787L28.2427 31.6935ZM33.8722 28.3158L34.1304 28.2361L35.6059 33.0134L35.3476 33.0932L33.8722 28.3158ZM38.4004 29.1306L39.1424 29.7718L35.8734 33.5552L35.1314 32.914L38.4004 29.1306ZM39.0929 29.7301C40.0067 30.4792 43.5075 33.4676 46.8479 36.3336L43.5921 40.1283C40.2264 37.2406 36.7815 34.3007 35.9229 33.5968L39.0929 29.7301ZM72.4158 29.5179C73.6812 30.2355 74.7224 30.9842 75.7606 32.1194C76.7483 33.1992 77.6713 34.5629 78.7985 36.4011L74.536 39.0148C73.4358 37.2205 72.7181 36.2013 72.0712 35.4939C71.4748 34.8419 70.8873 34.3992 69.9493 33.8672L72.4158 29.5179ZM78.7919 36.3904C79.6901 37.8389 80.5744 39.0587 81.2821 39.8857C81.6417 40.3059 81.9079 40.5683 82.0694 40.7028C82.1515 40.7711 82.1536 40.7618 82.0837 40.724C82.054 40.7079 81.7306 40.5259 81.2178 40.5259V45.5259C80.5255 45.5259 79.9842 45.273 79.7035 45.1211C79.3826 44.9473 79.1005 44.7371 78.8701 44.5453C78.4066 44.1594 77.9349 43.6644 77.4832 43.1366C76.5682 42.0674 75.5364 40.6282 74.5426 39.0254L78.7919 36.3904ZM81.2178 40.5259C81.4121 40.5259 81.7344 40.5395 82.0969 40.6435C82.4411 40.7423 83.1181 41.0099 83.5954 41.7337C84.1178 42.5261 84.0696 43.349 83.9371 43.853C83.8168 44.3107 83.6009 44.645 83.4778 44.8183C83.0502 45.4206 82.3121 46.0056 81.6986 46.4709L78.6774 42.4868C78.9873 42.2518 79.2039 42.0757 79.3467 41.9495C79.5187 41.7975 79.4882 41.8008 79.401 41.9236C79.3617 41.9789 79.1989 42.2109 79.1014 42.5818C78.9918 42.999 78.9361 43.7504 79.4211 44.486C79.861 45.1531 80.4706 45.3787 80.7179 45.4496C80.9835 45.5258 81.1793 45.5259 81.2178 45.5259V40.5259ZM81.7361 46.4418C81.1281 46.9214 80.5714 47.5506 79.5551 49.2494L75.2643 46.6826C76.4036 44.7781 77.3318 43.5475 78.6399 42.5159L81.7361 46.4418ZM79.5694 49.2253C77.0067 53.6203 74.7452 56.4201 71.8125 58.2521L69.1635 54.0115C71.0688 52.8213 72.831 50.8553 75.25 46.7067L79.5694 49.2253ZM71.7847 58.2693C71.303 58.5615 70.7833 58.8275 70.3095 59.0287C70.0732 59.129 69.8178 59.2263 69.563 59.3027C69.3601 59.3637 68.9584 59.4746 68.5001 59.4746V54.4746C68.3265 54.4746 68.2068 54.4968 68.1733 54.5033C68.1295 54.5119 68.1116 54.518 68.1257 54.5138C68.1553 54.5049 68.2322 54.4787 68.3552 54.4264C68.5999 54.3225 68.9065 54.1671 69.1913 53.9944L71.7847 58.2693ZM68.5001 59.4746C68.4848 59.4746 68.488 59.4747 68.4479 59.4749C68.42 59.475 68.371 59.4752 68.3141 59.4738C68.1929 59.4709 68.0219 59.4612 67.8199 59.4259C67.3937 59.3513 67.035 59.1994 66.7321 59.0338C66.2262 58.7572 65.6263 58.2964 64.849 57.663C63.2102 56.3275 60.07 53.6204 53.7442 48.1753L57.006 44.3858C63.3741 49.8672 66.437 52.5071 68.0076 53.787C68.3955 54.1031 68.6687 54.3168 68.8647 54.4616C69.0693 54.6129 69.1396 54.6516 69.1304 54.6465C69.0999 54.6299 68.9358 54.5451 68.681 54.5006C68.4927 54.4676 68.2691 54.4746 68.5001 54.4746V59.4746ZM53.7422 48.1736L51.7689 46.4714L55.0347 42.6854L57.008 44.3875L53.7422 48.1736ZM51.7424 40.7944C52.3394 40.2729 53.72 39.0679 54.8404 38.1223L58.0654 41.9431C56.9823 42.8573 55.6325 44.0352 55.032 44.5599L51.7424 40.7944ZM54.8404 38.1223C55.9301 37.2025 58.8663 34.6827 61.3577 32.5318L64.6251 36.3165C62.1348 38.4665 59.1791 41.0031 58.0654 41.9431L54.8404 38.1223ZM68.9947 28.2037C69.9686 28.3514 71.4533 28.9327 72.4792 29.5551L69.8858 33.83C69.6348 33.6777 69.2765 33.5058 68.9052 33.3614C68.7257 33.2916 68.5635 33.2362 68.4323 33.197C68.2895 33.1543 68.2305 33.145 68.2449 33.1472L68.9947 28.2037ZM23.7669 42.2569C25.9097 43.4968 27.0458 44.9875 28.5729 47.8286L24.1688 50.1958C22.8218 47.6899 22.2335 47.1463 21.2627 46.5846L23.7669 42.2569ZM28.5848 47.851C28.978 48.6006 30.1297 50.2796 31.1325 51.4693L27.3095 54.6918C26.1567 53.3242 24.7697 51.3417 24.1569 50.1734L28.5848 47.851ZM31.1597 51.5022C32.9846 53.7436 34.2637 54.5526 35.1671 54.7875L33.909 59.6266C31.4593 58.9897 29.3374 57.1833 27.2823 54.6589L31.1597 51.5022ZM36.3479 59.9193L30.2721 65.1214L27.0202 61.3234L33.096 56.1213L36.3479 59.9193ZM30.2774 65.1169C26.6132 68.272 23.1721 71.1976 22.7081 71.5495L19.6869 67.5654C19.6868 67.5655 19.7413 67.5226 19.884 67.4048C20.012 67.2992 20.183 67.1565 20.3937 66.9797C20.8143 66.6266 21.381 66.1472 22.0542 65.575C23.3998 64.4309 25.1622 62.9233 27.0149 61.328L30.2774 65.1169ZM17.979 69.2034V56.8583H22.979V69.2034H17.979ZM17.979 56.8583C17.979 51.661 17.9969 48.3188 18.0456 46.2719C18.0697 45.2604 18.1024 44.5039 18.1517 43.9804C18.1744 43.739 18.2105 43.4288 18.2849 43.1355C18.3167 43.0097 18.3984 42.706 18.5893 42.3796C18.7186 42.1585 19.3825 41.1071 20.7904 41.1071V46.1071C22.1683 46.1071 22.8036 45.0778 22.9055 44.9036C23.069 44.624 23.1246 44.3916 23.1316 44.364C23.1562 44.267 23.1474 44.2606 23.1297 44.4488C23.0981 44.7843 23.068 45.39 23.0442 46.3909C22.9971 48.3688 22.979 51.6522 22.979 56.8583H17.979ZM20.7904 41.1071C21.2092 41.1071 21.5458 41.2157 21.5981 41.2315C21.7266 41.2704 21.8429 41.3141 21.9296 41.3485C22.1076 41.4189 22.2993 41.5053 22.4805 41.5912C22.8498 41.7662 23.2913 41.994 23.7222 42.2316L21.3075 46.6099C20.948 46.4116 20.5991 46.2326 20.3397 46.1097C20.2065 46.0466 20.1243 46.0113 20.089 45.9973C20.0691 45.9895 20.0938 46.0002 20.1485 46.0168C20.1762 46.0252 20.236 46.0425 20.3178 46.0595C20.3819 46.0727 20.5575 46.1071 20.7904 46.1071V41.1071ZM85.7297 56.8293C85.7297 60.4637 85.7237 63.7739 85.7117 66.1772C85.7057 67.3778 85.6982 68.3578 85.6891 69.0405C85.6845 69.3797 85.6795 69.6572 85.6736 69.8552C85.6708 69.9498 85.6672 70.0501 85.6618 70.137C85.6596 70.1719 85.6544 70.2538 85.6426 70.3471C85.6387 70.3783 85.6228 70.507 85.5827 70.6645C85.5677 70.7233 85.5128 70.9388 85.3841 71.19C85.3221 71.3111 85.1755 71.5764 84.9027 71.8422C84.6213 72.1162 84.0295 72.5515 83.1579 72.5515V67.5515C82.2866 67.5515 81.6952 67.9866 81.4141 68.2602C81.1417 68.5256 80.9955 68.7904 80.9338 68.9108C80.8059 69.1605 80.7518 69.3739 80.7375 69.4298C80.6989 69.5814 80.6844 69.7015 80.6819 69.7212C80.6767 69.7631 80.674 69.7939 80.6731 69.8052C80.6719 69.8191 80.6714 69.8276 80.6713 69.8286C80.6712 69.8301 80.6718 69.8211 80.6727 69.7975C80.6736 69.7751 80.6747 69.7454 80.6758 69.7074C80.6804 69.5512 80.6851 69.3066 80.6895 68.9737C80.6983 68.3124 80.7058 67.3491 80.7118 66.1522C80.7237 63.7607 80.7297 60.4598 80.7297 56.8293H85.7297ZM83.1579 72.5515C82.6093 72.5515 82.2039 72.3627 82.1709 72.3485C82.0467 72.2952 81.9537 72.2431 81.9119 72.2192C81.8226 72.168 81.7556 72.1221 81.7324 72.106C81.6762 72.0673 81.6315 72.0332 81.6149 72.0204C81.5735 71.9887 81.5331 71.9562 81.5045 71.9329C81.4421 71.8823 81.3617 71.8156 81.2717 71.7403C81.0888 71.5873 80.8318 71.37 80.5229 71.1081C79.9041 70.5833 79.0568 69.8614 78.1367 69.0786L81.377 65.2706C82.3011 66.0569 83.1423 66.7735 83.757 67.2949C84.0649 67.556 84.3108 67.7638 84.4796 67.905C84.5655 67.9768 84.6232 68.0245 84.6564 68.0515C84.6756 68.0671 84.6725 68.0642 84.657 68.0524C84.6534 68.0496 84.6189 68.023 84.5701 67.9893C84.5505 67.9758 84.4864 67.9318 84.3994 67.8818C84.3587 67.8585 84.2666 67.8069 84.1431 67.7539C84.0805 67.727 83.9767 67.6854 83.844 67.6475C83.7296 67.6149 83.4809 67.5515 83.1579 67.5515V72.5515ZM78.1195 69.0638C76.2802 67.4697 73.9764 65.5103 72.9793 64.6546L76.2356 60.8603C77.2025 61.6901 79.5451 63.6828 81.3942 65.2853L78.1195 69.0638ZM72.9793 64.6546C72.0058 63.8192 70.2924 62.3551 69.1819 61.3885L72.4646 57.6171C73.5576 58.5684 75.2452 60.0103 76.2356 60.8603L72.9793 64.6546ZM69.1905 61.3959L68.7879 61.0487L72.0535 57.2624L72.4561 57.6096L69.1905 61.3959ZM69.315 54.5879C71.0688 53.5012 72.5693 51.8944 75.0197 47.9302L79.2728 50.5591C76.6936 54.7317 74.6972 57.1351 71.9484 58.8382L69.315 54.5879ZM75.0101 47.9459C75.5748 47.017 76.179 46.0925 76.7032 45.3441C76.9645 44.971 77.2173 44.6254 77.4433 44.3375C77.6286 44.1015 77.9161 43.7467 78.2264 43.4809L81.4789 47.2785C81.5856 47.1871 81.5677 47.181 81.3758 47.4254C81.2247 47.6179 81.0284 47.8844 80.7987 48.2123C80.3409 48.866 79.7954 49.6997 79.2824 50.5435L75.0101 47.9459ZM78.1884 43.5142C78.7867 42.9804 79.6193 42.4433 80.2972 42.0582C80.6518 41.8567 81.0206 41.6646 81.3602 41.5125C81.5287 41.437 81.7184 41.3586 81.9133 41.2929C82.0665 41.2412 82.3935 41.137 82.783 41.1121L83.1016 46.102C83.2629 46.0917 83.3785 46.0659 83.4236 46.0551C83.4765 46.0424 83.5077 46.0319 83.5112 46.0307C83.5164 46.0289 83.4828 46.0404 83.404 46.0757C83.2489 46.1452 83.0263 46.2583 82.7672 46.4055C82.2176 46.7178 81.733 47.0525 81.517 47.2452L78.1884 43.5142ZM82.9423 41.1071C84.4783 41.1071 85.1234 42.3448 85.1912 42.4731C85.3565 42.7857 85.426 43.0725 85.4528 43.1888C85.5164 43.4651 85.5483 43.7606 85.5689 43.9991C85.6133 44.5136 85.6436 45.2623 85.6662 46.2719C85.7118 48.3128 85.7297 51.6454 85.7297 56.8293H80.7297C80.7297 51.6388 80.7116 48.3603 80.6675 46.3837C80.6451 45.3846 80.6171 44.7728 80.5874 44.4292C80.571 44.2386 80.5619 44.2306 80.5803 44.3106C80.5844 44.3287 80.6304 44.5442 80.7709 44.8101C80.814 44.8915 81.4333 46.1071 82.9423 46.1071V41.1071ZM57.7643 45.6865C59.9195 47.5256 62.2112 49.4776 62.7924 49.9988L59.4541 53.7212C58.9336 53.2544 56.7225 51.3705 54.5187 49.49L57.7643 45.6865ZM62.8332 50.0363C63.2969 50.471 64.9377 51.8753 66.4849 53.1659L63.2821 57.0055C61.7636 55.7388 60.0034 54.2371 59.4133 53.6838L62.8332 50.0363ZM66.4997 53.1784C67.2824 53.8416 68.0116 54.4946 68.5613 55.0227C68.8318 55.2825 69.0875 55.5393 69.2912 55.7666C69.3892 55.8758 69.512 56.0189 69.6259 56.177C69.6819 56.2548 69.7658 56.3775 69.8479 56.531C69.9042 56.6363 70.0878 56.9844 70.1446 57.4668L65.1789 58.0515C65.2327 58.5085 65.4038 58.8235 65.4385 58.8883C65.499 59.0015 65.5522 59.0764 65.569 59.0997C65.6043 59.1487 65.6141 59.1553 65.5683 59.1043C65.4847 59.011 65.3301 58.8519 65.0977 58.6286C64.6415 58.1905 63.9935 57.6083 63.2673 56.993L66.4997 53.1784ZM70.1618 57.7592C70.1618 58.3398 69.9848 58.807 69.8664 59.0701C69.7345 59.3634 69.5738 59.623 69.4264 59.8352C69.131 60.2606 68.7604 60.6796 68.3821 61.0607C67.6204 61.8279 66.6277 62.6412 65.609 63.2936L62.9126 59.0829C63.6183 58.631 64.3261 58.0494 64.8338 57.538C65.0902 57.2797 65.2465 57.0885 65.3194 56.9835C65.3561 56.9306 65.3398 56.945 65.3063 57.0194C65.2864 57.0637 65.1618 57.3384 65.1618 57.7592H70.1618ZM65.6282 63.2812C64.5287 63.9994 61.9669 65.3127 59.9106 66.252L57.8332 61.704C59.8485 60.7834 62.1247 59.5975 62.8934 59.0953L65.6282 63.2812ZM59.9119 66.2514C55.4363 68.2989 55.0014 68.8139 54.5468 69.5687L50.2637 66.989C51.6293 64.7215 53.5415 63.6673 57.8319 61.7046L59.9119 66.2514ZM49.0155 69.9856L48.8474 69.7817L52.7058 66.6016L52.8739 66.8056L49.0155 69.9856ZM48.8167 69.7436C48.0193 68.7367 46.861 67.844 42.443 65.5593L44.7398 61.118C49.0878 63.3666 51.1867 64.6825 52.7365 66.6397L48.8167 69.7436ZM42.4299 65.5524C38.102 63.2817 36.4188 62.2737 35.0541 60.3281L39.1475 57.4569C39.6988 58.2429 40.2191 58.7461 44.7529 61.1249L42.4299 65.5524ZM35.064 60.3422C34.803 59.9755 34.5606 59.6051 34.3735 59.29C34.2823 59.1365 34.1855 58.9648 34.1031 58.7961C34.0633 58.7145 34.008 58.5955 33.9571 58.4572C33.9382 58.4062 33.7864 58.0215 33.7864 57.5267H38.7864C38.7864 57.3752 38.7723 57.2506 38.7593 57.1649C38.746 57.0766 38.7298 57.0034 38.7165 56.95C38.6906 56.8462 38.6634 56.7684 38.6485 56.7278C38.6321 56.6835 38.6183 56.6512 38.6109 56.6343C38.603 56.6164 38.5977 56.6054 38.5962 56.6024C38.5955 56.6008 38.6169 56.6434 38.6724 56.7369C38.7787 56.9158 38.9435 57.1702 39.1375 57.4428L35.064 60.3422ZM33.7864 57.5267C33.7864 57.0082 33.9495 56.6276 34.0006 56.5116C34.0723 56.3489 34.1467 56.2268 34.1881 56.1621C34.2723 56.0305 34.3527 55.9313 34.3899 55.8863C34.4727 55.7862 34.5561 55.6984 34.6104 55.6423C34.7291 55.5198 34.8776 55.3765 35.0347 55.2285C35.3565 54.9256 35.8062 54.5169 36.3437 54.0374C37.4232 53.0744 38.9043 51.7836 40.531 50.3947L43.7777 54.1972C42.1711 55.5689 40.7182 56.8354 39.6721 57.7686C39.1468 58.2372 38.7358 58.6113 38.4625 58.8686C38.3221 59.0008 38.2396 59.0821 38.2015 59.1213C38.1775 59.1461 38.2011 59.1235 38.2437 59.0719C38.2608 59.0512 38.326 58.9722 38.4001 58.8565C38.4364 58.7997 38.507 58.6846 38.5761 58.5277C38.6247 58.4174 38.7864 58.0415 38.7864 57.5267H33.7864ZM40.5226 50.4019C44.5654 46.9189 46.9562 44.8749 48.3739 43.7011C49.0747 43.1208 49.582 42.7162 49.95 42.4496C50.1289 42.3201 50.3364 42.1778 50.5532 42.0588C50.6725 41.9934 51.2085 41.6883 51.9262 41.6883V46.6883C52.2983 46.6883 52.5759 46.6011 52.7008 46.5564C52.8379 46.5073 52.9294 46.4582 52.9585 46.4423C53.0127 46.4126 53.0013 46.4133 52.883 46.499C52.6568 46.6629 52.2569 46.9775 51.5626 47.5523C50.19 48.6888 47.8386 50.6986 43.7861 54.19L40.5226 50.4019ZM51.9262 41.6883C52.4537 41.6883 52.8469 41.8614 52.8958 41.8816C53.0272 41.9357 53.1293 41.9906 53.1825 42.0201C53.2942 42.082 53.3892 42.1444 53.4462 42.1827C53.5698 42.2657 53.7047 42.3645 53.832 42.4603C54.0949 42.6581 54.4384 42.9285 54.83 43.2441C55.6185 43.8794 56.6608 44.7449 57.7643 45.6865L54.5187 49.49C53.4428 48.5718 52.4373 47.7373 51.6929 47.1375C51.3181 46.8356 51.024 46.6047 50.8258 46.4556C50.7226 46.378 50.6711 46.3419 50.6584 46.3334C50.6473 46.3259 50.6868 46.3534 50.7562 46.3919C50.7882 46.4097 50.8725 46.4557 50.9895 46.5039C51.024 46.5181 51.4062 46.6883 51.9262 46.6883V41.6883ZM38.7669 57.7262C38.8611 57.9167 39.1827 58.3504 39.8994 58.924C40.5796 59.4684 41.4808 60.0307 42.5291 60.5268L40.3905 65.0463C39.0437 64.409 37.8013 63.6491 36.775 62.8277C35.7852 62.0354 34.8375 61.0598 34.285 59.9426L38.7669 57.7262ZM42.5432 60.5335C44.6011 61.5231 46.7259 62.721 48.4683 63.8391C49.3392 64.398 50.1401 64.9532 50.8015 65.4675C51.4107 65.9412 52.0751 66.5111 52.5173 67.104L48.509 70.093C48.5233 70.1121 48.4801 70.0534 48.3258 69.9106C48.1826 69.778 47.986 69.6119 47.7324 69.4147C47.2247 69.02 46.5556 68.5527 45.7679 68.0472C44.1932 67.0367 42.2464 65.9388 40.3763 65.0396L42.5432 60.5335ZM52.5158 67.102C52.599 67.2135 52.6823 67.3201 52.777 67.4414C52.8642 67.5529 52.9743 67.6936 53.0755 67.8313C53.201 68.0021 53.6455 68.5847 53.7982 69.341C53.8935 69.8133 53.8974 70.4424 53.5974 71.0888C53.3067 71.715 52.8484 72.1025 52.483 72.3278C51.8513 72.7174 51.1316 72.8436 50.6798 72.9079C49.6563 73.0536 48.0754 73.1011 45.8541 73.1212C43.581 73.1418 40.4519 73.1327 36.2385 73.1327V68.1327C40.4797 68.1327 43.5659 68.1417 45.8089 68.1214C48.1038 68.1007 49.3401 68.0482 49.9752 67.9578C50.3527 67.9041 50.1727 67.8782 49.8585 68.072C49.6519 68.1994 49.2968 68.4781 49.0623 68.9833C48.8184 69.5087 48.8313 70.0048 48.8971 70.3305C48.9907 70.794 49.2215 71.0304 49.0463 70.792C48.9971 70.7251 48.9352 70.6454 48.8369 70.5196C48.7463 70.4036 48.6308 70.2559 48.5105 70.095L52.5158 67.102ZM36.2385 73.1327C28.8258 73.1327 24.9733 73.1332 23.0481 73.0619C22.5612 73.0439 22.1484 73.0198 21.81 72.9839C21.5385 72.955 21.0711 72.8979 20.6234 72.7161C20.3962 72.6239 19.924 72.4029 19.5262 71.9135C19.0395 71.3147 18.8716 70.5741 18.9735 69.8929C19.0554 69.3451 19.2927 68.961 19.3835 68.8205C19.4892 68.657 19.5977 68.5268 19.6276 68.4905L23.486 71.6706C23.459 71.7033 23.5161 71.6378 23.5825 71.5349C23.6342 71.4551 23.8444 71.1276 23.9185 70.6327C24.0125 70.0043 23.8557 69.3128 23.406 68.7596C23.0452 68.3157 22.6359 68.1368 22.5044 68.0834C22.2479 67.9793 22.1026 67.9868 22.3384 68.0119C22.5074 68.0298 22.7873 68.0489 23.233 68.0654C25.038 68.1322 28.754 68.1327 36.2385 68.1327V73.1327ZM19.6276 68.4905C19.8329 68.2414 20.1935 67.9108 20.443 67.6828C20.7663 67.3874 21.1917 67.0084 21.6853 66.5749C22.6746 65.7059 23.9672 64.592 25.3285 63.4373L28.5629 67.2503C27.2178 68.3913 25.9477 69.4859 24.985 70.3315C24.5026 70.7552 24.1046 71.11 23.8157 71.374C23.453 71.7054 23.4124 71.7598 23.486 71.6706L19.6276 68.4905ZM25.3167 63.4474C28.0261 61.12 31.0962 58.5009 32.1472 57.6025L35.3961 61.4031C34.3394 62.3063 31.2781 64.918 28.5747 67.2402L25.3167 63.4474ZM32.1472 57.6025C32.6854 57.1424 33.2051 56.709 33.6119 56.3839C33.8114 56.2244 34.0069 56.0724 34.1733 55.9521C34.2516 55.8956 34.3611 55.8186 34.48 55.7461C34.5359 55.712 34.6405 55.6501 34.7727 55.5886C34.7878 55.5815 35.2438 55.3464 35.8553 55.3464V60.3464C36.2182 60.3464 36.4922 60.2656 36.5975 60.2323C36.7289 60.1907 36.8287 60.1467 36.8827 60.1216C36.9902 60.0715 37.0639 60.0267 37.083 60.0151C37.1284 59.9874 37.1409 59.9765 37.1017 60.0048C37.0331 60.0544 36.9113 60.1476 36.7336 60.2896C36.3859 60.5675 35.9117 60.9623 35.3961 61.4031L32.1472 57.6025ZM35.8553 55.3464C36.4442 55.3464 36.872 55.5525 37.0395 55.641C37.2419 55.7479 37.3899 55.8611 37.4722 55.9281C37.6382 56.0634 37.7595 56.1955 37.8224 56.2666C37.9599 56.422 38.0787 56.5847 38.1679 56.714C38.3561 56.987 38.5581 57.3239 38.7435 57.6801L34.3084 59.9887C34.2064 59.7927 34.109 59.6356 34.0517 59.5526C34.0182 59.504 34.0277 59.5232 34.0776 59.5796C34.0967 59.6012 34.1796 59.6949 34.3138 59.8043C34.3801 59.8583 34.5137 59.9615 34.7036 60.0618C34.8585 60.1436 35.2754 60.3464 35.8553 60.3464V55.3464ZM71.9432 57.8544C74.2554 59.8788 74.1258 59.7832 79.4586 64.3096L76.223 68.1216C70.8738 63.5813 70.9837 63.66 68.6495 61.6161L71.9432 57.8544ZM79.4528 64.3047C81.6259 66.1378 83.6721 67.9373 84.2258 68.5446L80.5309 71.9133C80.5333 71.9159 80.5254 71.9071 80.5026 71.8841C80.481 71.8621 80.4515 71.8328 80.4132 71.7956C80.3361 71.7207 80.2348 71.6248 80.1087 71.508C79.8566 71.2746 79.5266 70.977 79.133 70.6287C78.347 69.9331 77.332 69.057 76.2289 68.1265L79.4528 64.3047ZM82.7424 72.8523C82.2881 72.926 81.4348 72.9645 80.5307 72.9942C79.541 73.0269 78.2549 73.0538 76.7835 73.0754C73.8382 73.1185 70.1124 73.1404 66.4512 73.1404C62.7908 73.1403 59.1826 73.1184 56.4736 73.0734C55.1225 73.051 53.9772 73.0227 53.156 72.9875C52.7514 72.9702 52.3913 72.9498 52.1139 72.9243C51.9848 72.9125 51.8127 72.8942 51.6431 72.8632C51.5694 72.8497 51.404 72.8177 51.2125 72.7519C51.1211 72.7204 50.9333 72.6511 50.7192 72.5224C50.5691 72.4322 50.0287 72.0966 49.713 71.3852L54.2831 69.357C53.97 68.6513 53.4355 68.3214 53.2946 68.2367C53.0898 68.1136 52.9146 68.0498 52.8392 68.0239C52.6797 67.969 52.5594 67.9478 52.5437 67.945C52.49 67.9351 52.4851 67.9374 52.5713 67.9453C52.7242 67.9594 52.9865 67.9756 53.3699 67.9921C54.1246 68.0244 55.2177 68.0519 56.5565 68.0741C59.2274 68.1184 62.8055 68.1403 66.4513 68.1404C70.0962 68.1404 73.7964 68.1186 76.7103 68.0759C78.1685 68.0546 79.4203 68.0281 80.3661 67.997C80.8399 67.9813 81.2255 67.9649 81.5165 67.9481C81.8435 67.9292 81.9555 67.9146 81.9423 67.9168L82.7424 72.8523ZM49.7921 71.5475C49.3408 70.7012 49.4779 69.8903 49.5368 69.6039C49.6145 69.2267 49.7493 68.8963 49.8617 68.6557C50.0931 68.1609 50.4144 67.6596 50.7366 67.2184C51.3528 66.3748 52.2799 65.3338 53.2386 64.7056L55.9788 68.8879C55.8935 68.9438 55.7094 69.0916 55.4579 69.3524C55.2193 69.5997 54.9785 69.8879 54.7744 70.1674C54.5607 70.4601 54.4374 70.6743 54.3911 70.7734C54.3647 70.8298 54.4024 70.7659 54.4341 70.6119C54.4509 70.5307 54.4778 70.3681 54.4685 70.1507C54.4592 69.9355 54.4104 69.5818 54.204 69.1947L49.7921 71.5475ZM53.2462 64.7007C54.0707 64.1648 55.8075 63.2606 57.1921 62.6497L59.2104 67.2242C57.9605 67.7757 56.4879 68.557 55.9711 68.8929L53.2462 64.7007ZM57.177 62.6564C59.272 61.7155 61.0806 60.7699 62.4773 59.9074C63.9412 59.0035 64.7399 58.319 65.0306 57.9516L68.9517 61.054C68.0928 62.1395 66.6641 63.1986 65.1042 64.1618C63.4772 65.1664 61.4657 66.2114 59.2255 67.2175L57.177 62.6564ZM64.9991 57.9923C65.4776 57.3612 66.0165 56.7772 66.4189 56.4244L69.7154 60.1838C69.684 60.2113 69.5837 60.3064 69.4352 60.4696C69.2935 60.6252 69.1351 60.8131 68.9833 61.0133L64.9991 57.9923ZM69.8181 56.1631C70.349 56.5019 71.1859 57.1819 71.9561 57.8657L68.6366 61.6048C68.287 61.2945 67.9519 61.0122 67.6708 60.7869C67.371 60.5467 67.1887 60.4165 67.1283 60.378L69.8181 56.1631ZM61.3612 32.5288L61.4638 32.4405L64.7243 36.2312L64.6216 36.3195L61.3612 32.5288ZM61.4637 32.4407C63.5918 30.6099 64.8702 29.5027 65.7327 28.9304C66.2109 28.6131 66.793 28.2957 67.5098 28.1743C68.2018 28.057 68.8045 28.1728 69.0191 28.2075L68.2206 33.1434C67.9003 33.0915 68.098 33.1459 68.345 33.104C68.6167 33.058 68.7139 32.9529 68.4973 33.0966C67.9704 33.4462 67.0208 34.2556 64.7244 36.2311L61.4637 32.4407ZM84.2258 68.5446C84.4457 68.7858 85.0988 69.5984 84.8778 70.7853C84.5957 72.2994 83.2935 72.763 82.7424 72.8523L81.9423 67.9168C81.4858 67.9908 80.2338 68.4119 79.9623 69.8698C79.7517 71.0004 80.3756 71.7429 80.5309 71.9133L84.2258 68.5446ZM22.7208 71.5398C20.783 73.0289 17.979 71.6474 17.979 69.2034H22.979C22.979 67.5002 21.0248 66.5373 19.6742 67.5751L22.7208 71.5398ZM54.5625 69.5422C53.3703 71.578 50.5159 71.8062 49.0155 69.9856L52.8739 66.8056C52.1636 65.9437 50.8123 66.0517 50.2479 67.0155L54.5625 69.5422ZM35.1889 54.7932C37.4951 55.4151 38.1622 58.3659 36.3479 59.9193L33.096 56.1213C31.8573 57.1818 32.3128 59.1963 33.8872 59.6208L35.1889 54.7932ZM34.1304 28.2361C35.6128 27.7783 37.2264 28.1163 38.4004 29.1306L35.1314 32.914C35.2619 33.0267 35.4411 33.0643 35.6059 33.0134L34.1304 28.2361ZM79.3911 17.0733C81.8252 14.9686 85.6073 16.6854 85.6254 19.9032L80.6254 19.9312C80.6313 20.9821 81.8665 21.5428 82.6614 20.8554L79.3911 17.0733ZM19.3604 18.432C18.9536 17.8566 18.5714 16.7498 19.2185 15.6251C19.7847 14.6411 20.7367 14.3767 21.2492 14.3257L21.7447 19.3011C22.1492 19.2608 23.0223 19.0399 23.5523 18.1188C24.1632 17.057 23.7874 16.0326 23.4433 15.5459L19.3604 18.432ZM38.4556 29.3426C37.4396 31.3971 34.7569 31.9387 33.0235 30.4392L36.2945 26.6577C35.5539 26.017 34.4077 26.2484 33.9736 27.1262L38.4556 29.3426ZM21.8925 45.3017C19.9101 45.8119 17.979 44.3148 17.979 42.2679H22.979C22.979 41.0477 21.8279 40.1553 20.6463 40.4595L21.8925 45.3017ZM51.7689 46.4714C50.0459 44.9852 50.0255 42.3219 51.7254 40.8094L55.049 44.5449C55.6073 44.0481 55.6006 43.1735 55.0347 42.6854L51.7689 46.4714ZM66.4189 56.4244C67.3451 55.6123 68.7144 55.4587 69.8181 56.1631L67.1283 60.378C67.4897 60.6086 67.9606 60.7511 68.4776 60.7069C68.9902 60.6631 69.4144 60.4477 69.7154 60.1838L66.4189 56.4244ZM67.5909 32.136C67.2386 31.9193 66.7841 31.528 66.5126 30.8929C66.1983 30.1579 66.2108 29.247 66.7028 28.4624L70.939 31.1183C71.3803 30.4146 71.392 29.5868 71.11 28.9272C70.8707 28.3675 70.4814 28.0439 70.2105 27.8772L67.5909 32.136ZM68.7879 61.0487C66.7167 59.2623 67.0009 55.9727 69.3477 54.5679L71.9157 58.8581C72.4935 58.5122 72.5634 57.7022 72.0535 57.2624L68.7879 61.0487ZM36.7034 27.782C37.0662 28.1376 37.5381 28.8066 37.5265 29.7482C37.5137 30.7874 36.9238 31.5355 36.3337 31.9306L33.5521 27.7757C33.0748 28.0953 32.5384 28.7479 32.5269 29.6868C32.5165 30.5281 32.9373 31.0919 33.2033 31.3526L36.7034 27.782Z" fill="#E8E8E8" mask="url(#path-1-inside-1_1_698)"/>
</g>
<defs>
<filter id="filter0_d_1_698" x="0.479004" y="0.581543" width="102.751" height="94.0588" filterUnits="userSpaceOnUse" color-interpolation-filters="sRGB">
<feFlood flood-opacity="0" result="BackgroundImageFix"/>
<feColorMatrix in="SourceAlpha" type="matrix" values="0 0 0 0 0 0 0 0 0 0 0 0 0 0 0 0 0 0 127 0" result="hardAlpha"/>
<feOffset dy="4"/>
<feGaussianBlur stdDeviation="10"/>
<feComposite in2="hardAlpha" operator="out"/>
<feColorMatrix type="matrix" values="0 0 0 0 0 0 0 0 0 0 0 0 0 0 0 0 0 0 0.35 0"/>
<feBlend mode="normal" in2="BackgroundImageFix" result="effect1_dropShadow_1_698"/>
<feBlend mode="normal" in="SourceGraphic" in2="effect1_dropShadow_1_698" result="shape"/>
</filter>
</defs>
</svg>
