<svg width="64" height="58" viewBox="0 0 64 58" fill="none" xmlns="http://www.w3.org/2000/svg">
<g filter="url(#filter0_d_1_747)">
<mask id="path-1-inside-1_1_747" fill="white">
<path d="M38.6913 0.42334C37.7011 0.660755 34.8804 1.49171 32.3899 2.26331C28.369 3.50974 27.5888 3.65812 25.0682 3.65812H22.2476L21.1674 4.72649C19.367 6.47742 16.2763 7.3974 8.71461 8.37674C6.73417 8.64383 5.0538 8.9406 4.96378 9.02963C4.87376 9.11866 4.78374 10.6322 4.81375 12.3534C4.84375 14.9353 4.99379 16.0334 5.68394 18.1998C7.06425 22.681 7.18427 23.4526 6.61415 25.2035C6.10403 26.6874 6.10403 26.7467 6.70417 27.3699C7.84442 28.557 8.47456 30.6047 8.95467 34.5814C9.46478 38.5581 9.88487 40.2497 10.7851 41.6148C11.2352 42.2677 11.5352 42.3864 12.7055 42.3864C13.4557 42.3864 14.5959 42.2677 15.2261 42.1193L16.3363 41.8522V44.2264C16.3363 47.3721 16.7864 48.7966 17.7766 49.0637C18.9169 49.3308 23.808 49.2715 28.0389 48.9153C31.6097 48.5889 35.5406 48.856 36.7108 49.5089C36.9509 49.6276 37.7911 49.4198 38.7813 49.0044C40.9418 48.025 43.3423 47.847 48.5935 48.3218C52.1943 48.6482 53.2145 48.6482 55.0749 48.2921C57.1454 47.9063 57.2954 47.8173 57.2354 47.1347C57.2054 46.7192 57.0854 44.1077 56.9653 41.3477C56.7253 35.3233 56.9653 34.1363 58.6457 32.5931L59.786 31.5544L58.9158 30.5157C57.4754 28.8538 57.1454 27.0732 57.1754 22.0281C57.2354 18.1404 57.1754 17.4282 56.6053 16.2114C56.0351 14.9056 55.9151 14.8166 54.5948 14.6089C53.8146 14.5198 52.1043 14.4902 50.814 14.6089C48.5335 14.7869 48.3834 14.7573 47.6633 14.045C46.553 12.947 45.8629 11.196 45.1427 7.51611C44.3925 3.8065 43.8524 2.29298 42.8322 0.89817C42.022 -0.170197 41.5119 -0.229549 38.6913 0.42334ZM39.5015 5.08261C38.6613 6.74451 37.251 9.17801 36.4108 10.4838L34.8804 12.8283L34.3103 11.7896C33.5601 10.3354 31.9998 9.02963 30.2594 8.40641C25.8484 6.80386 24.138 6.1213 23.988 5.91356C23.928 5.76517 24.8882 5.58711 26.1785 5.49808C27.4988 5.37938 29.8993 4.87487 31.7897 4.28133C37.9411 2.38201 40.5817 1.69944 40.9118 1.93686C41.0018 1.99621 40.3416 3.39103 39.5015 5.08261ZM41.992 2.94587C42.2621 3.45038 42.8622 5.64647 43.3423 7.81288C43.8224 9.97929 44.5426 12.4425 44.9627 13.2734C45.3828 14.0747 45.7428 14.8463 45.7428 14.9353C45.7428 15.4102 43.5824 14.9353 40.9718 13.8966C39.0514 13.125 37.521 12.7096 36.6508 12.7096H35.3005L36.8909 10.3057C37.7911 8.97028 39.1414 6.56645 39.9516 4.9639C40.7317 3.33167 41.4219 2.02589 41.4519 2.02589C41.4819 2.02589 41.752 2.44137 41.992 2.94587ZM27.8889 7.96126C31.0996 8.97028 32.78 9.97929 33.6201 11.3741C34.4903 12.8579 34.4903 13.2141 33.7402 14.1934C32.7199 15.4992 33.11 15.5289 34.2803 14.2528C35.8406 12.5909 37.251 12.6205 41.0018 14.3715L42.5921 15.1134L40.6417 14.965C39.5615 14.9056 38.1812 14.6089 37.581 14.3418L36.4708 13.8076L35.2405 14.6386C34.5804 15.0837 33.6802 15.5289 33.2001 15.6179C32.1798 15.8256 25.9084 15.8553 21.5275 15.6772C18.3768 15.5289 18.1367 15.4992 18.1367 14.9353C18.1667 13.9263 19.2169 11.9676 20.8073 9.94961C21.6475 8.88124 22.5477 7.54579 22.7877 6.95225L23.2378 5.85421L24.5281 6.59613C25.2183 6.98193 26.7486 7.60514 27.8889 7.96126ZM22.2476 7.27869C21.9776 7.72385 21.1674 8.91092 20.3872 9.89026C18.4368 12.3534 17.8066 13.6889 17.7766 15.3805V16.8643L16.8464 16.3895C15.5861 15.7366 12.8855 14.1934 9.61481 12.1754L6.94422 10.5135L11.1151 9.86058C17.1465 8.9406 20.0571 8.07997 21.8875 6.68516C22.6677 6.09162 22.7877 6.24001 22.2476 7.27869ZM9.28474 12.4425C10.605 13.3031 12.9456 14.6682 14.4759 15.5289L17.2365 17.0721L15.8262 17.7843C14.746 18.3482 13.9358 19.1494 12.5255 21.0191C11.4752 22.4139 10.1849 24.0758 9.61481 24.7287L8.59459 25.9158L8.74462 24.1352C8.86465 22.681 8.68461 21.7016 7.81441 18.7636C6.76418 15.1727 6.10403 10.9289 6.61415 10.9289C6.76418 10.9289 7.96445 11.6115 9.28474 12.4425ZM40.9418 19.6243C43.5824 21.2268 44.6326 22.2358 45.2627 23.7494C45.9829 25.4409 45.8629 25.8564 44.2725 27.1919C43.1623 28.1119 42.7422 28.3196 42.4721 28.0525C42.2021 27.7854 41.992 27.7854 41.5419 28.0822C41.2118 28.2602 40.1616 28.4383 39.1714 28.4383C37.1609 28.4383 36.4408 28.8834 36.4408 30.1596C36.4408 30.7531 36.3508 30.8421 36.1707 30.5454C36.0207 30.3079 35.6306 30.1892 35.2705 30.3079C34.7604 30.4266 34.6404 30.3376 34.6404 29.7738C34.6404 29.0022 33.5601 27.548 32.99 27.548C32.75 27.548 32.4499 27.7261 32.3299 27.9635C32.1198 28.3196 31.8197 28.2009 30.7995 27.3699C29.8093 26.539 29.5392 26.1235 29.5392 25.3816C29.5392 23.69 30.6195 22.1171 33.2901 19.8617C34.7004 18.7043 36.0207 17.3985 36.2007 16.983L36.5608 16.2411L37.611 17.2501C38.2112 17.814 39.7115 18.8823 40.9418 19.6243ZM41.842 16.8643C42.9222 16.8643 46.1029 16.7159 48.9536 16.5082C51.8042 16.3005 54.2047 16.2411 54.3247 16.3301C54.6248 16.6566 51.8642 20.0397 48.9536 22.9481L46.283 25.5893L45.7729 24.0461C45.0827 22.0281 44.6326 21.5829 41.2418 19.3869C39.6815 18.3778 38.1512 17.2798 37.8511 16.9534C37.311 16.3598 37.341 16.3598 38.6013 16.5972C39.3214 16.7159 40.7617 16.8346 41.842 16.8643ZM35.3605 17.4875C35.0605 17.8437 33.9802 18.7933 32.99 19.6243C30.6495 21.5236 29.8393 22.5623 29.2392 24.3132L28.7891 25.7674L24.4981 21.7313C22.1576 19.5056 20.2372 17.6062 20.2372 17.4875C20.2372 17.3688 21.1374 17.3688 22.2776 17.4875C26.1785 17.9327 32.5399 17.7843 34.1903 17.2204C35.0305 16.9237 35.7506 16.7159 35.8106 16.7753C35.8706 16.8346 35.6906 17.1611 35.3605 17.4875ZM55.465 22.9481C55.495 27.459 55.555 28.1415 56.1552 29.388C56.5152 30.1892 56.7253 30.8124 56.6053 30.8124C56.1852 30.8124 54.0847 29.5957 52.2843 28.2602C49.9138 26.539 48.3834 25.7674 47.3632 25.7674C46.613 25.7674 46.8231 25.4706 49.6737 22.5623C51.4141 20.8113 53.2745 18.734 53.8446 17.9624C54.8349 16.5972 54.8949 16.5676 55.1349 17.2204C55.285 17.6062 55.435 20.1585 55.465 22.9481ZM27.3488 26.0938C25.8784 26.3312 24.6482 27.0732 22.1876 29.2099C20.8073 30.397 19.7871 31.0795 19.577 30.9312C19.367 30.8124 19.277 30.8124 19.397 30.9608C19.6971 31.2576 19.0969 31.9995 18.5568 31.9995C18.2567 31.9995 18.2567 31.7918 18.6168 30.9312C18.9769 30.1002 19.0369 28.7944 18.9769 24.788C18.9169 21.2862 19.0069 19.3572 19.247 18.6449L19.637 17.6062L23.988 21.761L28.339 25.9158L27.3488 26.0938ZM17.3865 18.2591C17.2665 18.5559 17.0565 20.0694 16.9364 21.6126C16.8164 23.1558 16.6964 24.1945 16.6964 23.8977C16.6664 23.6306 16.4863 23.3932 16.3063 23.3932C15.9162 23.3932 16.2463 24.5506 16.8764 25.2332C17.3265 25.7674 17.0265 25.9751 16.4563 25.53C16.3063 25.4113 16.4263 25.53 16.6964 25.8267C17.3865 26.4499 17.3865 26.6874 16.7264 26.4499C16.2463 26.3016 16.2463 26.3312 16.7564 26.717C17.2365 27.0732 17.2665 27.3699 17.0865 28.6757C16.9664 29.5363 16.7564 30.2189 16.5764 30.2189C16.4263 30.2189 16.3963 30.1002 16.4863 29.9221C16.5764 29.7738 16.4863 29.7144 16.2163 29.8034C15.6462 30.0112 14.6259 29.477 15.106 29.2099C15.2861 29.0912 15.4361 29.1505 15.4361 29.3583C15.4361 29.566 15.5261 29.655 15.6161 29.566C15.8562 29.2989 15.2261 28.2306 14.6859 28.0228C14.4159 27.9338 14.2959 27.9635 14.3859 28.1415C14.6559 28.5867 14.0558 28.4977 13.6657 28.0228C13.3957 27.6964 13.3957 27.5777 13.6957 27.4293C13.9058 27.3403 13.7857 27.3403 13.3957 27.4293C13.0056 27.5183 12.4955 27.4293 12.2554 27.2215C12.0153 27.0435 11.7453 26.9248 11.6553 27.0138C11.5953 27.1028 11.9853 27.3996 12.5555 27.6667C13.5157 28.1119 14.2358 28.7351 13.7857 28.7351C13.6957 28.7351 12.7655 28.1712 11.7453 27.4886C10.7251 26.8061 9.85487 26.2719 9.82486 26.3016C9.58481 26.4796 8.77463 26.3312 8.95467 26.1235C9.07469 26.0048 9.25473 25.9454 9.34475 26.0048C9.43477 26.0641 9.67483 25.7971 9.88487 25.4113C10.0649 25.0255 10.395 24.7584 10.605 24.8177C10.8151 24.8474 10.9051 24.7584 10.8151 24.6397C10.7251 24.4913 11.2052 23.5713 11.8953 22.6216C14.0558 19.5352 14.896 18.6153 15.3461 18.7636C15.5861 18.8527 15.6762 18.7933 15.5861 18.6449C15.4061 18.3482 16.3963 17.814 17.2065 17.7843C17.4766 17.7546 17.5366 17.9327 17.3865 18.2591ZM49.1036 26.6874C49.7637 27.0138 51.2341 27.9338 52.3143 28.7351C53.3945 29.5067 54.8649 30.4266 55.525 30.7531L56.7853 31.3763L55.375 32.8008C54.6248 33.6021 53.2745 35.0859 52.3743 36.1246C50.5439 38.2613 48.9836 39.0923 46.9431 39.122C45.7428 39.122 45.3228 38.9439 43.7924 37.6975C41.992 36.273 41.992 36.273 41.902 34.5221C41.782 32.4447 41.4819 31.9995 40.1916 31.9995C38.6613 31.9995 38.2412 31.7324 38.2412 30.7828C38.2412 29.9815 38.3012 29.9221 39.5015 29.9221C40.1916 29.9221 40.6417 30.0112 40.5217 30.1299C40.4017 30.2783 39.9215 30.3673 39.5015 30.3673C38.9913 30.3673 38.6613 30.5454 38.6013 30.9015C38.4212 31.7621 39.3514 31.8215 40.2516 31.0202C40.7317 30.6047 42.2321 29.3286 43.6424 28.1712C46.493 25.8267 47.0931 25.6783 49.1036 26.6874ZM31.0396 28.0822L32.81 29.477V31.2576C32.84 33.2756 33.17 33.7801 34.4303 33.7801C34.8804 33.7801 35.2105 33.8988 35.1205 34.0472C35.0305 34.1659 33.5301 35.3233 31.7597 36.5698C29.0591 38.4988 28.519 38.7955 28.0989 38.4691C27.7388 38.1723 27.6788 38.1723 27.8589 38.4394C28.0989 38.8549 27.1987 38.9439 25.9985 38.6471C25.3083 38.4691 25.2183 37.7272 25.7884 37.2523C25.9684 37.1039 25.9084 37.0446 25.6384 37.1336C25.3983 37.193 25.1883 37.4007 25.1883 37.5491C25.1883 37.7272 25.0983 37.9942 24.9782 38.0833C24.8582 38.202 24.8282 37.9646 24.9182 37.5194C24.9782 37.1039 24.9482 36.7478 24.8282 36.7181C24.6782 36.7181 24.3481 36.6588 24.078 36.5994C23.778 36.5401 23.5679 36.5994 23.5679 36.6885C23.6579 37.2523 23.4779 37.371 23.0878 37.0446C22.8478 36.8368 22.7277 36.5401 22.8478 36.3323C22.9378 36.1543 22.9378 36.0949 22.8177 36.2136C22.5177 36.451 21.7375 35.7982 21.9476 35.4717C22.0376 35.353 22.2476 35.353 22.4577 35.5311C22.6977 35.7388 22.8177 35.6498 22.8177 35.2343C22.8177 34.6408 22.6077 34.5221 22.2176 34.8782C21.7975 35.2936 21.3474 35.1453 20.3272 34.255C19.307 33.3647 19.0969 32.8898 19.667 32.8898C19.8171 32.8898 19.9071 33.0085 19.8171 33.1569C19.7271 33.3053 19.8471 33.513 20.0871 33.6021C20.4772 33.7505 20.5072 33.6614 20.2072 33.1569C19.9671 32.6821 19.7271 32.5931 19.0969 32.7414C18.4068 32.8898 18.4968 32.7711 19.577 31.9995C20.2672 31.495 20.9873 31.1686 21.1674 31.2576C21.3174 31.3763 21.4074 31.2873 21.3774 31.0499C21.3174 30.8421 21.4674 30.6937 21.6775 30.7531C21.9175 30.7828 22.0076 30.7234 21.9175 30.575C21.7375 30.2783 23.868 28.2009 25.1883 27.3996C26.2385 26.7467 27.6188 26.4203 28.579 26.5687C28.9691 26.628 30.0794 27.3106 31.0396 28.0822ZM10.305 27.3403C11.0551 27.7261 12.5255 28.5867 13.5757 29.2692C15.2261 30.3376 15.3761 30.486 14.806 30.6641C14.2959 30.8421 14.2358 30.9312 14.5659 31.1389C14.896 31.3466 14.896 31.406 14.5959 31.406C14.3859 31.406 14.2658 31.5247 14.3859 31.6731C14.4759 31.8215 14.3859 32.0589 14.2058 32.1479C14.0558 32.2666 13.9658 32.5337 14.0558 32.7711C14.1458 32.9789 13.9358 33.335 13.6057 33.513C13.0056 33.8098 13.0056 33.7801 13.4557 32.9195C13.9958 31.9105 14.0258 31.7028 13.6957 31.7028C13.5457 31.7028 13.2456 32.0292 13.0356 32.4447C12.8255 32.8305 12.5555 33.1272 12.4654 33.0382C12.3454 32.9789 12.2554 33.1866 12.2554 33.4834C12.2554 33.7801 12.3454 34.0175 12.4354 34.0175C13.1856 33.9582 14.2358 34.1066 14.2058 34.2846C14.1158 34.9079 14.2658 35.5904 14.4759 35.442C15.016 35.1156 14.5659 36.7181 13.7857 37.8755C12.9756 39.0923 12.8855 39.1516 12.5255 38.6175C12.1954 38.202 12.0754 38.1723 11.8653 38.4691C11.6853 38.7658 11.5652 38.7065 11.4452 38.1723C11.3252 37.8162 11.2652 37.2226 11.2652 36.8962C11.2952 36.5104 11.3852 36.5994 11.5352 37.193L11.7753 38.0833L11.7453 37.0446C11.7153 36.4807 11.5652 36.0356 11.3852 36.0949C11.2352 36.1246 10.9351 34.8782 10.7251 33.2756C10.335 30.2783 9.67483 28.0822 8.89465 27.1622C8.29452 26.4796 8.62459 26.5093 10.305 27.3403ZM55.7051 33.6911C55.285 34.6408 55.1949 35.7388 55.2249 40.3684C55.255 43.4548 55.1949 45.9476 55.1349 45.9476C55.0749 45.9476 53.1545 44.5825 50.844 42.9206C48.1734 41.0213 46.7631 39.8342 47.0031 39.6858C47.2132 39.5968 47.8733 39.4187 48.4734 39.3C50.0938 39.0329 51.8042 37.6381 53.9347 34.9672C54.9549 33.6614 55.8851 32.5931 56.0051 32.5931C56.1251 32.5931 55.9751 33.0976 55.7051 33.6911ZM20.8973 35.4717C21.4975 36.0949 22.0076 36.6885 22.0376 36.8072C22.0376 36.9556 22.0976 37.0149 22.1576 36.9556C22.2476 36.9259 22.6077 37.193 22.9978 37.5194C23.928 38.38 25.2783 39.0329 26.5986 39.2703L27.7088 39.4781L24.4981 41.8226C22.7277 43.0987 20.7173 44.7012 20.0271 45.3541C18.8569 46.5412 18.7668 46.5709 18.4668 46.007C18.2567 45.5915 18.1967 44.5232 18.3468 42.9206C18.6468 39.4187 18.6468 34.9672 18.3167 33.9582L18.0467 33.0679L18.9169 33.6911C19.397 34.0472 20.2972 34.8485 20.8973 35.4717ZM39.6215 35.353C39.9215 35.264 40.1016 35.5014 40.2216 36.0949C40.3416 36.5994 40.6717 37.2523 41.0018 37.5491C41.5419 38.0239 41.6319 38.0536 41.962 37.5788C42.2921 37.1336 42.4721 37.193 43.8224 38.2613C46.1029 40.0419 45.6528 41.051 41.3319 43.9593C39.1414 45.4135 38.7213 45.6212 38.2712 45.2948C37.8511 44.9683 37.8511 44.9683 38.1512 45.3541C38.4212 45.7102 38.3312 45.9773 37.7911 46.6005C37.1909 47.2831 37.0409 47.3425 36.7408 46.9863C36.5308 46.7489 35.4806 46.0664 34.4003 45.4728C33.2901 44.8496 32.3599 44.2561 32.2999 44.1077C32.2398 43.989 31.9998 43.8703 31.7597 43.8703C31.4897 43.8703 31.3997 43.7219 31.4897 43.5735C31.6097 43.3954 31.5197 43.3064 31.2796 43.3361C31.0696 43.3954 30.9195 43.247 30.9496 43.069C31.0096 42.8612 30.8595 42.7129 30.6495 42.7722C30.4694 42.8019 30.3194 42.6535 30.3794 42.4458C30.4094 42.2084 30.3194 42.1193 30.1394 42.238C29.8093 42.4458 28.9391 40.6652 28.9391 39.7452C28.9391 39.4187 29.5092 38.7658 30.3794 38.1426C31.5197 37.3117 31.8498 37.1633 32.0298 37.5194C32.2999 38.0239 33.2001 38.0536 33.6502 37.6084C33.8302 37.4304 34.8204 37.2523 35.8406 37.2226C37.8511 37.1336 38.5412 36.6588 38.5412 35.442C38.5412 34.9969 38.6313 34.9375 38.8713 35.1749C39.0514 35.353 39.4114 35.442 39.6215 35.353ZM30.3794 43.5141C30.9796 43.989 32.5999 44.998 33.9502 45.7993C35.3305 46.6005 36.3808 47.2831 36.3508 47.3425C36.2907 47.4018 35.4506 47.2831 34.4603 47.105C33.14 46.8379 31.2196 46.8676 26.7486 47.1347C23.4779 47.3425 20.7473 47.4315 20.6273 47.3425C20.5372 47.2534 20.9273 47.0457 21.4674 46.8676L22.4877 46.5709L21.3774 46.6302C20.7773 46.6599 20.1472 46.5709 20.0271 46.4225C19.9071 46.3038 19.9371 46.2147 20.0871 46.2444C20.7473 46.3928 21.1074 46.2147 20.9573 45.8586C20.7773 45.3838 21.7375 44.5232 25.3083 41.8226L28.1589 39.6858L28.6991 41.1697C29.0891 42.149 29.6593 42.9503 30.3794 43.5141ZM51.6842 43.9593C55.645 46.7786 55.615 47.016 51.3241 46.7192C42.112 46.0664 41.0318 46.1257 37.9411 47.3425C36.8909 47.7579 38.4812 46.3928 40.9718 44.7606C43.9424 42.7425 45.3528 41.4368 45.6228 40.4277L45.8029 39.7155L47.0631 40.6355C47.7233 41.14 49.8237 42.6238 51.6842 43.9593Z"/>
</mask>
<path d="M38.6913 0.42334C37.7011 0.660755 34.8804 1.49171 32.3899 2.26331C28.369 3.50974 27.5888 3.65812 25.0682 3.65812H22.2476L21.1674 4.72649C19.367 6.47742 16.2763 7.3974 8.71461 8.37674C6.73417 8.64383 5.0538 8.9406 4.96378 9.02963C4.87376 9.11866 4.78374 10.6322 4.81375 12.3534C4.84375 14.9353 4.99379 16.0334 5.68394 18.1998C7.06425 22.681 7.18427 23.4526 6.61415 25.2035C6.10403 26.6874 6.10403 26.7467 6.70417 27.3699C7.84442 28.557 8.47456 30.6047 8.95467 34.5814C9.46478 38.5581 9.88487 40.2497 10.7851 41.6148C11.2352 42.2677 11.5352 42.3864 12.7055 42.3864C13.4557 42.3864 14.5959 42.2677 15.2261 42.1193L16.3363 41.8522V44.2264C16.3363 47.3721 16.7864 48.7966 17.7766 49.0637C18.9169 49.3308 23.808 49.2715 28.0389 48.9153C31.6097 48.5889 35.5406 48.856 36.7108 49.5089C36.9509 49.6276 37.7911 49.4198 38.7813 49.0044C40.9418 48.025 43.3423 47.847 48.5935 48.3218C52.1943 48.6482 53.2145 48.6482 55.0749 48.2921C57.1454 47.9063 57.2954 47.8173 57.2354 47.1347C57.2054 46.7192 57.0854 44.1077 56.9653 41.3477C56.7253 35.3233 56.9653 34.1363 58.6457 32.5931L59.786 31.5544L58.9158 30.5157C57.4754 28.8538 57.1454 27.0732 57.1754 22.0281C57.2354 18.1404 57.1754 17.4282 56.6053 16.2114C56.0351 14.9056 55.9151 14.8166 54.5948 14.6089C53.8146 14.5198 52.1043 14.4902 50.814 14.6089C48.5335 14.7869 48.3834 14.7573 47.6633 14.045C46.553 12.947 45.8629 11.196 45.1427 7.51611C44.3925 3.8065 43.8524 2.29298 42.8322 0.89817C42.022 -0.170197 41.5119 -0.229549 38.6913 0.42334ZM39.5015 5.08261C38.6613 6.74451 37.251 9.17801 36.4108 10.4838L34.8804 12.8283L34.3103 11.7896C33.5601 10.3354 31.9998 9.02963 30.2594 8.40641C25.8484 6.80386 24.138 6.1213 23.988 5.91356C23.928 5.76517 24.8882 5.58711 26.1785 5.49808C27.4988 5.37938 29.8993 4.87487 31.7897 4.28133C37.9411 2.38201 40.5817 1.69944 40.9118 1.93686C41.0018 1.99621 40.3416 3.39103 39.5015 5.08261ZM41.992 2.94587C42.2621 3.45038 42.8622 5.64647 43.3423 7.81288C43.8224 9.97929 44.5426 12.4425 44.9627 13.2734C45.3828 14.0747 45.7428 14.8463 45.7428 14.9353C45.7428 15.4102 43.5824 14.9353 40.9718 13.8966C39.0514 13.125 37.521 12.7096 36.6508 12.7096H35.3005L36.8909 10.3057C37.7911 8.97028 39.1414 6.56645 39.9516 4.9639C40.7317 3.33167 41.4219 2.02589 41.4519 2.02589C41.4819 2.02589 41.752 2.44137 41.992 2.94587ZM27.8889 7.96126C31.0996 8.97028 32.78 9.97929 33.6201 11.3741C34.4903 12.8579 34.4903 13.2141 33.7402 14.1934C32.7199 15.4992 33.11 15.5289 34.2803 14.2528C35.8406 12.5909 37.251 12.6205 41.0018 14.3715L42.5921 15.1134L40.6417 14.965C39.5615 14.9056 38.1812 14.6089 37.581 14.3418L36.4708 13.8076L35.2405 14.6386C34.5804 15.0837 33.6802 15.5289 33.2001 15.6179C32.1798 15.8256 25.9084 15.8553 21.5275 15.6772C18.3768 15.5289 18.1367 15.4992 18.1367 14.9353C18.1667 13.9263 19.2169 11.9676 20.8073 9.94961C21.6475 8.88124 22.5477 7.54579 22.7877 6.95225L23.2378 5.85421L24.5281 6.59613C25.2183 6.98193 26.7486 7.60514 27.8889 7.96126ZM22.2476 7.27869C21.9776 7.72385 21.1674 8.91092 20.3872 9.89026C18.4368 12.3534 17.8066 13.6889 17.7766 15.3805V16.8643L16.8464 16.3895C15.5861 15.7366 12.8855 14.1934 9.61481 12.1754L6.94422 10.5135L11.1151 9.86058C17.1465 8.9406 20.0571 8.07997 21.8875 6.68516C22.6677 6.09162 22.7877 6.24001 22.2476 7.27869ZM9.28474 12.4425C10.605 13.3031 12.9456 14.6682 14.4759 15.5289L17.2365 17.0721L15.8262 17.7843C14.746 18.3482 13.9358 19.1494 12.5255 21.0191C11.4752 22.4139 10.1849 24.0758 9.61481 24.7287L8.59459 25.9158L8.74462 24.1352C8.86465 22.681 8.68461 21.7016 7.81441 18.7636C6.76418 15.1727 6.10403 10.9289 6.61415 10.9289C6.76418 10.9289 7.96445 11.6115 9.28474 12.4425ZM40.9418 19.6243C43.5824 21.2268 44.6326 22.2358 45.2627 23.7494C45.9829 25.4409 45.8629 25.8564 44.2725 27.1919C43.1623 28.1119 42.7422 28.3196 42.4721 28.0525C42.2021 27.7854 41.992 27.7854 41.5419 28.0822C41.2118 28.2602 40.1616 28.4383 39.1714 28.4383C37.1609 28.4383 36.4408 28.8834 36.4408 30.1596C36.4408 30.7531 36.3508 30.8421 36.1707 30.5454C36.0207 30.3079 35.6306 30.1892 35.2705 30.3079C34.7604 30.4266 34.6404 30.3376 34.6404 29.7738C34.6404 29.0022 33.5601 27.548 32.99 27.548C32.75 27.548 32.4499 27.7261 32.3299 27.9635C32.1198 28.3196 31.8197 28.2009 30.7995 27.3699C29.8093 26.539 29.5392 26.1235 29.5392 25.3816C29.5392 23.69 30.6195 22.1171 33.2901 19.8617C34.7004 18.7043 36.0207 17.3985 36.2007 16.983L36.5608 16.2411L37.611 17.2501C38.2112 17.814 39.7115 18.8823 40.9418 19.6243ZM41.842 16.8643C42.9222 16.8643 46.1029 16.7159 48.9536 16.5082C51.8042 16.3005 54.2047 16.2411 54.3247 16.3301C54.6248 16.6566 51.8642 20.0397 48.9536 22.9481L46.283 25.5893L45.7729 24.0461C45.0827 22.0281 44.6326 21.5829 41.2418 19.3869C39.6815 18.3778 38.1512 17.2798 37.8511 16.9534C37.311 16.3598 37.341 16.3598 38.6013 16.5972C39.3214 16.7159 40.7617 16.8346 41.842 16.8643ZM35.3605 17.4875C35.0605 17.8437 33.9802 18.7933 32.99 19.6243C30.6495 21.5236 29.8393 22.5623 29.2392 24.3132L28.7891 25.7674L24.4981 21.7313C22.1576 19.5056 20.2372 17.6062 20.2372 17.4875C20.2372 17.3688 21.1374 17.3688 22.2776 17.4875C26.1785 17.9327 32.5399 17.7843 34.1903 17.2204C35.0305 16.9237 35.7506 16.7159 35.8106 16.7753C35.8706 16.8346 35.6906 17.1611 35.3605 17.4875ZM55.465 22.9481C55.495 27.459 55.555 28.1415 56.1552 29.388C56.5152 30.1892 56.7253 30.8124 56.6053 30.8124C56.1852 30.8124 54.0847 29.5957 52.2843 28.2602C49.9138 26.539 48.3834 25.7674 47.3632 25.7674C46.613 25.7674 46.8231 25.4706 49.6737 22.5623C51.4141 20.8113 53.2745 18.734 53.8446 17.9624C54.8349 16.5972 54.8949 16.5676 55.1349 17.2204C55.285 17.6062 55.435 20.1585 55.465 22.9481ZM27.3488 26.0938C25.8784 26.3312 24.6482 27.0732 22.1876 29.2099C20.8073 30.397 19.7871 31.0795 19.577 30.9312C19.367 30.8124 19.277 30.8124 19.397 30.9608C19.6971 31.2576 19.0969 31.9995 18.5568 31.9995C18.2567 31.9995 18.2567 31.7918 18.6168 30.9312C18.9769 30.1002 19.0369 28.7944 18.9769 24.788C18.9169 21.2862 19.0069 19.3572 19.247 18.6449L19.637 17.6062L23.988 21.761L28.339 25.9158L27.3488 26.0938ZM17.3865 18.2591C17.2665 18.5559 17.0565 20.0694 16.9364 21.6126C16.8164 23.1558 16.6964 24.1945 16.6964 23.8977C16.6664 23.6306 16.4863 23.3932 16.3063 23.3932C15.9162 23.3932 16.2463 24.5506 16.8764 25.2332C17.3265 25.7674 17.0265 25.9751 16.4563 25.53C16.3063 25.4113 16.4263 25.53 16.6964 25.8267C17.3865 26.4499 17.3865 26.6874 16.7264 26.4499C16.2463 26.3016 16.2463 26.3312 16.7564 26.717C17.2365 27.0732 17.2665 27.3699 17.0865 28.6757C16.9664 29.5363 16.7564 30.2189 16.5764 30.2189C16.4263 30.2189 16.3963 30.1002 16.4863 29.9221C16.5764 29.7738 16.4863 29.7144 16.2163 29.8034C15.6462 30.0112 14.6259 29.477 15.106 29.2099C15.2861 29.0912 15.4361 29.1505 15.4361 29.3583C15.4361 29.566 15.5261 29.655 15.6161 29.566C15.8562 29.2989 15.2261 28.2306 14.6859 28.0228C14.4159 27.9338 14.2959 27.9635 14.3859 28.1415C14.6559 28.5867 14.0558 28.4977 13.6657 28.0228C13.3957 27.6964 13.3957 27.5777 13.6957 27.4293C13.9058 27.3403 13.7857 27.3403 13.3957 27.4293C13.0056 27.5183 12.4955 27.4293 12.2554 27.2215C12.0153 27.0435 11.7453 26.9248 11.6553 27.0138C11.5953 27.1028 11.9853 27.3996 12.5555 27.6667C13.5157 28.1119 14.2358 28.7351 13.7857 28.7351C13.6957 28.7351 12.7655 28.1712 11.7453 27.4886C10.7251 26.8061 9.85487 26.2719 9.82486 26.3016C9.58481 26.4796 8.77463 26.3312 8.95467 26.1235C9.07469 26.0048 9.25473 25.9454 9.34475 26.0048C9.43477 26.0641 9.67483 25.7971 9.88487 25.4113C10.0649 25.0255 10.395 24.7584 10.605 24.8177C10.8151 24.8474 10.9051 24.7584 10.8151 24.6397C10.7251 24.4913 11.2052 23.5713 11.8953 22.6216C14.0558 19.5352 14.896 18.6153 15.3461 18.7636C15.5861 18.8527 15.6762 18.7933 15.5861 18.6449C15.4061 18.3482 16.3963 17.814 17.2065 17.7843C17.4766 17.7546 17.5366 17.9327 17.3865 18.2591ZM49.1036 26.6874C49.7637 27.0138 51.2341 27.9338 52.3143 28.7351C53.3945 29.5067 54.8649 30.4266 55.525 30.7531L56.7853 31.3763L55.375 32.8008C54.6248 33.6021 53.2745 35.0859 52.3743 36.1246C50.5439 38.2613 48.9836 39.0923 46.9431 39.122C45.7428 39.122 45.3228 38.9439 43.7924 37.6975C41.992 36.273 41.992 36.273 41.902 34.5221C41.782 32.4447 41.4819 31.9995 40.1916 31.9995C38.6613 31.9995 38.2412 31.7324 38.2412 30.7828C38.2412 29.9815 38.3012 29.9221 39.5015 29.9221C40.1916 29.9221 40.6417 30.0112 40.5217 30.1299C40.4017 30.2783 39.9215 30.3673 39.5015 30.3673C38.9913 30.3673 38.6613 30.5454 38.6013 30.9015C38.4212 31.7621 39.3514 31.8215 40.2516 31.0202C40.7317 30.6047 42.2321 29.3286 43.6424 28.1712C46.493 25.8267 47.0931 25.6783 49.1036 26.6874ZM31.0396 28.0822L32.81 29.477V31.2576C32.84 33.2756 33.17 33.7801 34.4303 33.7801C34.8804 33.7801 35.2105 33.8988 35.1205 34.0472C35.0305 34.1659 33.5301 35.3233 31.7597 36.5698C29.0591 38.4988 28.519 38.7955 28.0989 38.4691C27.7388 38.1723 27.6788 38.1723 27.8589 38.4394C28.0989 38.8549 27.1987 38.9439 25.9985 38.6471C25.3083 38.4691 25.2183 37.7272 25.7884 37.2523C25.9684 37.1039 25.9084 37.0446 25.6384 37.1336C25.3983 37.193 25.1883 37.4007 25.1883 37.5491C25.1883 37.7272 25.0983 37.9942 24.9782 38.0833C24.8582 38.202 24.8282 37.9646 24.9182 37.5194C24.9782 37.1039 24.9482 36.7478 24.8282 36.7181C24.6782 36.7181 24.3481 36.6588 24.078 36.5994C23.778 36.5401 23.5679 36.5994 23.5679 36.6885C23.6579 37.2523 23.4779 37.371 23.0878 37.0446C22.8478 36.8368 22.7277 36.5401 22.8478 36.3323C22.9378 36.1543 22.9378 36.0949 22.8177 36.2136C22.5177 36.451 21.7375 35.7982 21.9476 35.4717C22.0376 35.353 22.2476 35.353 22.4577 35.5311C22.6977 35.7388 22.8177 35.6498 22.8177 35.2343C22.8177 34.6408 22.6077 34.5221 22.2176 34.8782C21.7975 35.2936 21.3474 35.1453 20.3272 34.255C19.307 33.3647 19.0969 32.8898 19.667 32.8898C19.8171 32.8898 19.9071 33.0085 19.8171 33.1569C19.7271 33.3053 19.8471 33.513 20.0871 33.6021C20.4772 33.7505 20.5072 33.6614 20.2072 33.1569C19.9671 32.6821 19.7271 32.5931 19.0969 32.7414C18.4068 32.8898 18.4968 32.7711 19.577 31.9995C20.2672 31.495 20.9873 31.1686 21.1674 31.2576C21.3174 31.3763 21.4074 31.2873 21.3774 31.0499C21.3174 30.8421 21.4674 30.6937 21.6775 30.7531C21.9175 30.7828 22.0076 30.7234 21.9175 30.575C21.7375 30.2783 23.868 28.2009 25.1883 27.3996C26.2385 26.7467 27.6188 26.4203 28.579 26.5687C28.9691 26.628 30.0794 27.3106 31.0396 28.0822ZM10.305 27.3403C11.0551 27.7261 12.5255 28.5867 13.5757 29.2692C15.2261 30.3376 15.3761 30.486 14.806 30.6641C14.2959 30.8421 14.2358 30.9312 14.5659 31.1389C14.896 31.3466 14.896 31.406 14.5959 31.406C14.3859 31.406 14.2658 31.5247 14.3859 31.6731C14.4759 31.8215 14.3859 32.0589 14.2058 32.1479C14.0558 32.2666 13.9658 32.5337 14.0558 32.7711C14.1458 32.9789 13.9358 33.335 13.6057 33.513C13.0056 33.8098 13.0056 33.7801 13.4557 32.9195C13.9958 31.9105 14.0258 31.7028 13.6957 31.7028C13.5457 31.7028 13.2456 32.0292 13.0356 32.4447C12.8255 32.8305 12.5555 33.1272 12.4654 33.0382C12.3454 32.9789 12.2554 33.1866 12.2554 33.4834C12.2554 33.7801 12.3454 34.0175 12.4354 34.0175C13.1856 33.9582 14.2358 34.1066 14.2058 34.2846C14.1158 34.9079 14.2658 35.5904 14.4759 35.442C15.016 35.1156 14.5659 36.7181 13.7857 37.8755C12.9756 39.0923 12.8855 39.1516 12.5255 38.6175C12.1954 38.202 12.0754 38.1723 11.8653 38.4691C11.6853 38.7658 11.5652 38.7065 11.4452 38.1723C11.3252 37.8162 11.2652 37.2226 11.2652 36.8962C11.2952 36.5104 11.3852 36.5994 11.5352 37.193L11.7753 38.0833L11.7453 37.0446C11.7153 36.4807 11.5652 36.0356 11.3852 36.0949C11.2352 36.1246 10.9351 34.8782 10.7251 33.2756C10.335 30.2783 9.67483 28.0822 8.89465 27.1622C8.29452 26.4796 8.62459 26.5093 10.305 27.3403ZM55.7051 33.6911C55.285 34.6408 55.1949 35.7388 55.2249 40.3684C55.255 43.4548 55.1949 45.9476 55.1349 45.9476C55.0749 45.9476 53.1545 44.5825 50.844 42.9206C48.1734 41.0213 46.7631 39.8342 47.0031 39.6858C47.2132 39.5968 47.8733 39.4187 48.4734 39.3C50.0938 39.0329 51.8042 37.6381 53.9347 34.9672C54.9549 33.6614 55.8851 32.5931 56.0051 32.5931C56.1251 32.5931 55.9751 33.0976 55.7051 33.6911ZM20.8973 35.4717C21.4975 36.0949 22.0076 36.6885 22.0376 36.8072C22.0376 36.9556 22.0976 37.0149 22.1576 36.9556C22.2476 36.9259 22.6077 37.193 22.9978 37.5194C23.928 38.38 25.2783 39.0329 26.5986 39.2703L27.7088 39.4781L24.4981 41.8226C22.7277 43.0987 20.7173 44.7012 20.0271 45.3541C18.8569 46.5412 18.7668 46.5709 18.4668 46.007C18.2567 45.5915 18.1967 44.5232 18.3468 42.9206C18.6468 39.4187 18.6468 34.9672 18.3167 33.9582L18.0467 33.0679L18.9169 33.6911C19.397 34.0472 20.2972 34.8485 20.8973 35.4717ZM39.6215 35.353C39.9215 35.264 40.1016 35.5014 40.2216 36.0949C40.3416 36.5994 40.6717 37.2523 41.0018 37.5491C41.5419 38.0239 41.6319 38.0536 41.962 37.5788C42.2921 37.1336 42.4721 37.193 43.8224 38.2613C46.1029 40.0419 45.6528 41.051 41.3319 43.9593C39.1414 45.4135 38.7213 45.6212 38.2712 45.2948C37.8511 44.9683 37.8511 44.9683 38.1512 45.3541C38.4212 45.7102 38.3312 45.9773 37.7911 46.6005C37.1909 47.2831 37.0409 47.3425 36.7408 46.9863C36.5308 46.7489 35.4806 46.0664 34.4003 45.4728C33.2901 44.8496 32.3599 44.2561 32.2999 44.1077C32.2398 43.989 31.9998 43.8703 31.7597 43.8703C31.4897 43.8703 31.3997 43.7219 31.4897 43.5735C31.6097 43.3954 31.5197 43.3064 31.2796 43.3361C31.0696 43.3954 30.9195 43.247 30.9496 43.069C31.0096 42.8612 30.8595 42.7129 30.6495 42.7722C30.4694 42.8019 30.3194 42.6535 30.3794 42.4458C30.4094 42.2084 30.3194 42.1193 30.1394 42.238C29.8093 42.4458 28.9391 40.6652 28.9391 39.7452C28.9391 39.4187 29.5092 38.7658 30.3794 38.1426C31.5197 37.3117 31.8498 37.1633 32.0298 37.5194C32.2999 38.0239 33.2001 38.0536 33.6502 37.6084C33.8302 37.4304 34.8204 37.2523 35.8406 37.2226C37.8511 37.1336 38.5412 36.6588 38.5412 35.442C38.5412 34.9969 38.6313 34.9375 38.8713 35.1749C39.0514 35.353 39.4114 35.442 39.6215 35.353ZM30.3794 43.5141C30.9796 43.989 32.5999 44.998 33.9502 45.7993C35.3305 46.6005 36.3808 47.2831 36.3508 47.3425C36.2907 47.4018 35.4506 47.2831 34.4603 47.105C33.14 46.8379 31.2196 46.8676 26.7486 47.1347C23.4779 47.3425 20.7473 47.4315 20.6273 47.3425C20.5372 47.2534 20.9273 47.0457 21.4674 46.8676L22.4877 46.5709L21.3774 46.6302C20.7773 46.6599 20.1472 46.5709 20.0271 46.4225C19.9071 46.3038 19.9371 46.2147 20.0871 46.2444C20.7473 46.3928 21.1074 46.2147 20.9573 45.8586C20.7773 45.3838 21.7375 44.5232 25.3083 41.8226L28.1589 39.6858L28.6991 41.1697C29.0891 42.149 29.6593 42.9503 30.3794 43.5141ZM51.6842 43.9593C55.645 46.7786 55.615 47.016 51.3241 46.7192C42.112 46.0664 41.0318 46.1257 37.9411 47.3425C36.8909 47.7579 38.4812 46.3928 40.9718 44.7606C43.9424 42.7425 45.3528 41.4368 45.6228 40.4277L45.8029 39.7155L47.0631 40.6355C47.7233 41.14 49.8237 42.6238 51.6842 43.9593Z" stroke="#E8E8E8" stroke-width="6" shape-rendering="crispEdges" mask="url(#path-1-inside-1_1_747)"/>
</g>
<defs>
<filter id="filter0_d_1_747" x="0.807861" y="-0.000488281" width="62.9781" height="57.5425" filterUnits="userSpaceOnUse" color-interpolation-filters="sRGB">
<feFlood flood-opacity="0" result="BackgroundImageFix"/>
<feColorMatrix in="SourceAlpha" type="matrix" values="0 0 0 0 0 0 0 0 0 0 0 0 0 0 0 0 0 0 127 0" result="hardAlpha"/>
<feOffset dy="4"/>
<feGaussianBlur stdDeviation="2"/>
<feComposite in2="hardAlpha" operator="out"/>
<feColorMatrix type="matrix" values="0 0 0 0 0 0 0 0 0 0 0 0 0 0 0 0 0 0 0.25 0"/>
<feBlend mode="normal" in2="BackgroundImageFix" result="effect1_dropShadow_1_747"/>
<feBlend mode="normal" in="SourceGraphic" in2="effect1_dropShadow_1_747" result="shape"/>
</filter>
</defs>
</svg>
