<svg width="55" height="53" viewBox="0 0 55 53" fill="none" xmlns="http://www.w3.org/2000/svg">
<g filter="url(#filter0_d_1_750)">
<path d="M27.3728 7.16276L27.3727 7.15932C27.2941 4.67233 27.1974 3.11054 27.0545 2.13304C27.0146 1.86035 26.9744 1.65777 26.9378 1.50938C26.8073 1.51936 26.6529 1.53778 26.4781 1.56684C25.8527 1.67085 25.1522 1.87943 24.6386 2.1284L24.6318 2.13172C24.0078 2.43032 23.6675 2.74776 23.4688 3.06253C23.2703 3.37691 23.1319 3.81724 23.1319 4.50108C23.1319 4.95675 23.1109 5.44376 23.0056 5.87649C22.9008 6.3072 22.6434 6.95992 21.9517 7.33511C21.2995 7.68884 20.6334 7.58669 20.2347 7.48472C19.8078 7.37554 19.3541 7.17735 18.9104 6.96128L18.9019 6.95713L18.8934 6.95288C18.3546 6.68206 17.3488 6.45087 16.22 6.37584C15.079 6.3 14.1589 6.40661 13.7503 6.56447C13.4793 6.67764 13.3528 6.78717 13.2999 6.84513C13.3512 6.90111 13.4216 6.97474 13.513 7.06677C13.7383 7.29369 14.0534 7.59429 14.44 7.94979C15.2111 8.65882 16.232 9.55444 17.3142 10.459C18.4284 11.3905 19.4308 12.2756 20.1521 12.9522C20.5094 13.2873 20.8156 13.5879 21.0357 13.8253C21.1403 13.9381 21.2581 14.0714 21.3552 14.205C21.3982 14.2641 21.4826 14.3844 21.5535 14.5402C21.588 14.6161 21.6505 14.7668 21.6801 14.9657C21.7078 15.1522 21.7323 15.5598 21.4768 15.9811L21.4713 15.99L21.4658 15.9989C21.173 16.4667 20.6384 16.905 19.8672 16.917C19.2847 16.926 18.7842 16.6761 18.4578 16.4855C17.7655 16.0813 16.8393 15.3119 15.5957 14.2088C14.031 12.8391 12.5746 11.6888 11.4617 10.9162C11.069 10.6436 10.7359 10.4298 10.4674 10.2732C10.3924 10.3886 10.3132 10.518 10.2323 10.6587C9.86573 11.2953 9.57294 11.9686 9.47469 12.366C9.28016 13.2396 9.50737 14.0748 10.5026 14.9626L10.5195 14.9777L10.5359 14.9933C10.8744 15.314 11.2021 15.6509 11.4564 15.9497C11.5809 16.0958 11.7118 16.2608 11.8203 16.4277C11.874 16.5104 11.9413 16.6224 12 16.7537C12.0455 16.8557 12.1541 17.1147 12.1541 17.452C12.1541 17.927 11.9384 18.2596 11.8673 18.3644C11.7687 18.5098 11.6617 18.6217 11.5862 18.6947C11.4308 18.8449 11.2523 18.9792 11.0899 19.0904C10.7559 19.3191 10.3289 19.559 9.87431 19.769C8.75444 20.2921 7.69748 21.2312 7.00193 22.2251C6.65697 22.7181 6.43356 23.1784 6.32407 23.5558C6.29063 23.6711 6.27034 23.7693 6.25881 23.8517C6.41815 23.8492 6.61006 23.8441 6.84541 23.837L6.85231 23.8368C7.70338 23.8152 10.2846 23.3849 12.803 22.8142C12.8039 22.814 12.8047 22.8138 12.8056 22.8136L13.0133 23.7297C13.1734 23.6971 13.3347 23.6648 13.4969 23.6327C14.4411 23.4434 15.3363 23.2372 16.01 23.0569C16.3498 22.966 16.6124 22.8871 16.7893 22.8255C16.8647 22.7993 16.9082 22.7818 16.9272 22.7736M27.3728 7.16276L27.7219 41.6478C27.2253 41.0274 26.6241 40.5104 26.4412 40.5104C26.2321 40.5104 25.7877 41.1049 25.4218 41.8029C24.5854 43.4573 23.5138 44.1294 21.7364 44.1294C20.2204 44.1294 17.9988 43.4573 17.7897 42.9403M27.3728 7.16276C27.4502 9.44611 27.5361 11.0048 27.6874 11.8913C27.7264 12.1198 27.7794 12.3658 27.8607 12.5933C27.9175 12.7521 28.0889 13.2124 28.5424 13.5291C28.8188 13.7222 29.1794 13.8457 29.5809 13.817C29.9531 13.7905 30.2344 13.6425 30.4077 13.5224C30.7205 13.3058 30.912 13.0198 31.0025 12.8765L31.0184 12.8514L31.0333 12.8256C31.1628 12.6015 31.2085 12.3848 31.2189 12.3356C31.2193 12.3336 31.2197 12.3319 31.22 12.3305C31.2387 12.2434 31.2509 12.1598 31.2592 12.0938C31.2763 11.9586 31.289 11.8018 31.299 11.64C31.3194 11.3111 31.3337 10.878 31.3421 10.3779C31.3588 9.3739 31.3521 8.04643 31.3123 6.63179M27.3728 7.16276L31.3123 6.63179M16.9272 22.7736C16.8911 22.7927 16.8154 22.8374 16.7288 22.911C16.7238 22.917 16.7176 22.9247 16.7105 22.9341C16.6992 22.9491 16.6855 22.9684 16.6707 22.9917C16.6663 22.9987 16.6617 23.0061 16.6571 23.0138C16.6294 23.0602 16.5061 23.2806 16.4862 23.5902C16.7537 23.5488 16.9833 23.5199 17.1768 23.5035C17.1917 23.5022 17.2063 23.501 17.2208 23.4999C18.0661 23.4344 18.1818 23.6195 17.7113 24.0438M16.9272 22.7736C16.931 22.772 16.9337 22.7708 16.9356 22.7699C16.9584 22.7594 16.9524 22.7603 16.9272 22.7736ZM17.7113 24.0438C17.6228 24.1313 17.2541 24.2649 16.7117 24.4194C16.8791 24.6761 17.09 24.8146 17.2225 24.882C17.3611 24.9524 17.4703 24.9748 17.5054 24.9813C17.5312 24.9861 17.5459 24.9873 17.5459 24.9875C17.5459 24.9877 17.5111 24.9854 17.4289 24.9895C16.9027 25.0154 15.7967 25.211 13.8984 25.6411C13.8979 25.6413 13.8975 25.6414 13.897 25.6415C13.7602 25.6725 13.6193 25.7047 13.4742 25.7381L13.4688 25.7394C10.9723 26.3052 8.12189 26.8047 6.93222 26.8357C6.91487 26.8363 6.89761 26.8368 6.88044 26.8373C6.2524 27.0597 5.8415 27.2548 5.71415 27.4043M17.7113 24.0438L18.7158 25.1578C18.7192 25.1547 18.7226 25.1516 18.726 25.1485M17.7113 24.0438L18.766 25.1103C18.7528 25.1234 18.7395 25.1361 18.726 25.1485M5.71415 27.4043C5.26982 27.973 6.08008 30.2996 7.17785 31.4887M5.71415 27.4043L6.85623 28.3768C6.77941 28.467 6.70961 28.5208 6.67842 28.5422M5.71415 27.4043L6.89615 28.3279C7.05502 28.1245 7.08342 27.9461 7.08754 27.9189C7.08964 27.9051 7.09008 27.8977 7.09015 27.8977C7.09026 27.8978 7.08921 27.9206 7.09406 27.9708C7.10272 28.0604 7.12461 28.1822 7.16327 28.3309M7.17785 31.4887C8.35404 32.7553 9.71318 33.1689 11.386 32.7553C13.0065 32.3676 13.1633 32.5744 12.7451 34.9009M7.17785 31.4887L8.27999 30.4712C8.27949 30.4706 8.27898 30.4701 8.27847 30.4695M7.17785 31.4887L8.27704 30.468C8.27752 30.4685 8.278 30.469 8.27847 30.4695M12.7451 34.9009C12.4838 36.5295 12.4838 37.0206 12.8497 38.4165C13.3463 40.3553 14.052 41.3893 15.0714 41.7512M12.7451 34.9009L14.2215 35.1663C14.2223 35.1616 14.2231 35.1569 14.224 35.1523M12.7451 34.9009L14.2262 35.1386C14.2254 35.1432 14.2247 35.1477 14.224 35.1523M15.0714 41.7512C15.6987 41.958 15.9078 41.9321 16.2214 41.5961C16.2869 41.5313 16.4356 41.2901 16.6453 40.9149C16.7507 40.5978 16.8754 40.2562 17.0158 39.8954C17.4434 38.7963 18.051 37.4313 18.8019 35.8836C18.8023 35.8827 18.8028 35.8818 18.8032 35.8809C18.994 35.4876 19.1941 35.0825 19.4028 34.667L19.4045 34.6636C19.9345 33.6153 20.4109 32.6345 20.7527 31.9017C20.9243 31.5336 21.0576 31.2376 21.1456 31.0307C21.1905 30.9252 21.2172 30.8578 21.2303 30.8222C21.2373 30.803 21.234 30.8104 21.2269 30.835C21.2233 30.8472 21.2144 30.8788 21.2053 30.9231C21.1991 30.9533 21.1774 31.0609 21.1774 31.2043C21.1774 31.4542 21.242 31.6606 21.3217 31.8196C21.4926 31.5416 21.6335 31.3419 21.754 31.2043C21.9167 31.0186 22.0422 30.9458 22.1546 30.9458C22.4421 30.9458 22.6774 31.0751 22.6774 31.2043C22.6774 31.2787 22.4791 31.7452 22.1546 32.4443C22.1544 32.4448 22.1542 32.4453 22.1539 32.4458C22.1542 32.4458 22.1544 32.4458 22.1546 32.4458C22.5772 32.4458 22.8279 32.2432 22.8852 32.1895M15.0714 41.7512L15.3811 40.8118L15.3972 40.7627L15.5174 40.3982C15.394 40.4214 15.2829 40.4684 15.1964 40.5231C15.1886 40.528 15.1812 40.5329 15.1745 40.5375C15.1532 40.552 15.1369 40.5647 15.126 40.5737C15.1229 40.5763 15.1203 40.5785 15.1181 40.5805C15.0894 40.6123 15.0694 40.638 15.0594 40.6514M15.0714 41.7512L15.399 40.8285L15.4157 40.7814L15.5539 40.392C15.5579 40.3914 15.562 40.3909 15.5661 40.3903C15.6907 40.3737 15.7662 40.3906 15.7515 40.3878C15.7342 40.3845 15.68 40.3719 15.5606 40.333C15.495 40.3084 15.4161 40.2683 15.3277 40.1977M22.8852 32.1895C22.8463 32.2326 22.7343 32.377 22.5253 32.7279C22.1959 33.281 21.737 34.1538 21.0634 35.5012L22.0836 36.0137C22.0833 36.0142 22.0831 36.0147 22.0828 36.0152M22.8852 32.1895C22.9009 32.1747 22.902 32.1712 22.8881 32.1863C22.8872 32.1873 22.8862 32.1884 22.8852 32.1895ZM22.0828 36.0152C22.0825 36.0159 22.0822 36.0165 22.0818 36.0171L21.063 35.502C20.8817 35.8646 20.6849 36.2615 20.4709 36.6958C19.787 38.1134 19.1145 39.4569 18.5804 40.4805C18.3754 40.8734 18.188 41.2246 18.0263 41.5176C17.7937 42.2418 17.7078 42.7334 17.7897 42.9403M22.0828 36.0152C21.0752 38.0212 20.3009 39.7257 19.8116 40.9832C19.6208 41.4736 19.4814 41.8755 19.3889 42.1884C19.4842 42.2226 19.5903 42.2577 19.7063 42.2927C20.3766 42.4949 21.1617 42.6294 21.7364 42.6294C22.4345 42.6294 22.8447 42.4988 23.1321 42.3176C23.4249 42.133 23.7425 41.7999 24.0831 41.1261L24.0882 41.1162L24.0933 41.1064C24.3057 40.7014 24.5543 40.2988 24.805 39.9756C24.927 39.8183 25.0816 39.6379 25.2619 39.4814C25.3521 39.4031 25.4809 39.3025 25.6437 39.2152C25.7943 39.1345 26.0747 39.0104 26.4412 39.0104C26.7722 39.0104 27.0274 39.1147 27.132 39.1606C27.2647 39.219 27.3783 39.2864 27.4638 39.3417C27.6365 39.4535 27.8046 39.5883 27.9543 39.7199C28.2542 39.9835 28.5837 40.3259 28.8808 40.6953M22.0828 36.0152C22.6241 34.9445 23.1144 33.9355 23.4716 33.1696C23.6496 32.7879 23.7989 32.4571 23.9061 32.2052C23.9589 32.0812 24.0079 31.9612 24.0462 31.857C24.0648 31.8064 24.0877 31.741 24.108 31.6711C24.1082 31.6704 24.1085 31.6693 24.109 31.6678C24.1184 31.6365 24.1774 31.4405 24.1774 31.2043C24.1774 30.7003 23.9482 30.3307 23.7643 30.1208C23.5791 29.9095 23.3711 29.7752 23.2069 29.6912C22.876 29.5219 22.5064 29.4458 22.1546 29.4458C21.4068 29.4458 20.9153 29.9013 20.6869 30.148C20.4296 30.4258 20.1875 30.7904 19.9478 31.1929C19.4579 32.0155 18.7786 33.3431 17.7772 35.3753L17.7771 35.3753L17.7716 35.3866C17.0973 36.7845 16.438 38.1014 15.9207 39.0927C15.6866 39.5413 15.4856 39.9157 15.3277 40.1977M17.7897 42.9403L19.1845 42.3884C19.2512 42.557 19.2598 42.6905 19.2597 42.7407M17.7897 42.9403L19.2597 42.7407M28.8808 40.6953L18.726 25.1485M28.8808 40.6953C29.8518 41.8459 31.4855 42.8865 32.7288 43.1889L32.7405 43.1917L32.7522 43.1948C33.2148 43.3152 33.3724 43.3238 33.4554 43.3196C33.516 43.3165 33.6136 43.3039 33.8949 43.1966C33.8746 43.1208 33.8454 43.0223 33.8063 42.9008C33.7249 42.6484 33.6109 42.329 33.4702 41.9625C33.1894 41.2312 32.8183 40.3537 32.4283 39.5201C31.0241 36.5495 30.2309 34.8562 29.8179 33.8853C29.6204 33.4212 29.4655 33.0221 29.3906 32.6954C29.3536 32.5341 29.3041 32.262 29.3479 31.9495C29.3996 31.5805 29.5704 31.231 29.8584 30.9631C30.0761 30.7564 30.4043 30.5402 30.8458 30.4758C31.3101 30.4081 31.7077 30.5363 31.9908 30.6921C32.477 30.9599 32.8156 31.4136 33.0364 31.7438C33.5261 32.476 34.115 33.6806 34.8663 35.3713C35.7478 37.307 36.5023 38.8608 37.1064 39.9841C37.4094 40.5477 37.6643 40.9834 37.8697 41.2969C37.8968 41.3382 37.9219 41.3757 37.9453 41.4098C38.1434 41.3137 38.3998 41.1548 38.6891 40.9241C39.4996 40.2779 40.157 39.4057 40.35 38.7774L40.3507 38.7751C40.4774 38.3649 40.469 38.2926 40.4655 38.262C40.4653 38.2606 40.4652 38.2594 40.4651 38.2582C40.4549 38.1605 40.4071 37.9668 40.1418 37.3227C39.9495 36.882 39.7879 36.4287 39.6816 36.0327C39.6286 35.835 39.581 35.6209 39.5557 35.4128L39.5553 35.4099C39.5395 35.2804 39.4893 34.8689 39.6494 34.4466L39.6654 34.4046L39.6838 34.3636C39.9242 33.8287 40.3674 33.5755 40.576 33.4728C40.8234 33.3509 41.0857 33.2759 41.3126 33.2246C41.7734 33.1204 42.3573 33.0565 43.0237 33.016C44.8407 32.9005 46.4844 32.253 47.2571 31.5676C47.4313 31.4048 47.6344 31.1266 47.7898 30.8212C47.5201 30.7178 47.1783 30.6008 46.763 30.473C45.5029 30.0853 43.7182 29.6441 41.5889 29.2102L41.5832 29.209C39.7951 28.8374 38.5797 28.5652 37.8074 28.3274C37.4364 28.2132 37.0438 28.0712 36.7206 27.867C36.3996 27.6642 35.8143 27.1773 35.8143 26.3186C35.8143 26.0322 35.8784 25.6633 36.1147 25.3102C36.352 24.9556 36.6739 24.7501 36.957 24.6369C37.4445 24.4421 37.9696 24.4609 38.3287 24.4911C39.121 24.5577 40.3089 24.8159 41.9609 25.2244L41.9701 25.2267L41.9701 25.2267C43.8769 25.7109 46.408 26.2401 47.5909 26.4108L28.8808 40.6953ZM15.3277 40.1977C15.0412 39.9691 14.6554 39.4208 14.3028 38.0443L14.3007 38.0362C14.1271 37.3741 14.0702 37.0343 14.0617 36.7068C14.0526 36.3608 14.0953 35.9557 14.224 35.1523M15.3277 40.1977C15.3106 40.2282 15.2941 40.2576 15.2781 40.2858C15.1951 40.4321 15.1327 40.5369 15.09 40.6045C15.0756 40.6272 15.0655 40.6424 15.0594 40.6514M14.224 35.1523C14.3272 34.5769 14.4106 34.0511 14.4348 33.6123C14.4554 33.2382 14.4643 32.577 14.0909 31.9977C13.6065 31.2461 12.8346 31.1023 12.3485 31.0998C11.9088 31.0976 11.4316 31.2021 11.0369 31.2965L11.0369 31.2965L11.0259 31.2992C10.3999 31.454 9.92102 31.4344 9.52909 31.3161C9.13655 31.1976 8.72243 30.9472 8.27847 30.4695M8.27847 30.4695C7.90343 30.0626 7.51759 29.3782 7.28141 28.7124C7.2314 28.5714 7.19253 28.4435 7.16327 28.3309M7.16327 28.3309C7.54903 28.1849 8.08419 28.0124 8.75099 27.8229C10.146 27.4265 12.0192 26.9831 14.0817 26.5752L14.0855 26.5744C15.0751 26.376 16.0352 26.1558 16.7857 25.9549C17.1582 25.8552 17.4999 25.7547 17.7756 25.6588C17.9117 25.6114 18.0554 25.5569 18.1885 25.4958L18.1921 25.4941C18.2717 25.4576 18.5091 25.3485 18.726 25.1485M7.16327 28.3309C7.14365 28.3383 7.12442 28.3457 7.10558 28.353C6.90923 28.4289 6.7815 28.4872 6.70899 28.5254C6.696 28.5323 6.68592 28.5379 6.67842 28.5422M6.67842 28.5422C6.66781 28.5495 6.66167 28.553 6.66125 28.553C6.66083 28.5529 6.66615 28.5493 6.67842 28.5422ZM15.0594 40.6514C15.0547 40.6578 15.0522 40.6614 15.0522 40.6616C15.0521 40.6618 15.0545 40.6586 15.0594 40.6514ZM19.2597 42.7407C19.2596 42.7412 19.2596 42.7417 19.2595 42.7422C19.257 42.7708 19.2596 42.7678 19.2597 42.7407ZM31.3123 6.63179C31.2731 5.13731 31.2511 4.01282 31.2613 3.15744C31.2698 2.44878 31.3006 1.98968 31.344 1.69209M31.3123 6.63179L47.5914 26.4109C48.2286 26.5025 48.6576 26.5524 48.961 26.5641M31.3123 6.63179C31.3123 6.63132 31.3123 6.63086 31.3123 6.63039L30.3579 6.65719C30.2817 4.39804 30.1841 2.80199 30.0229 1.69909C29.994 1.50126 29.9618 1.31008 29.9251 1.12652M31.3123 6.63179L29.9251 1.12652M31.344 1.69209C31.7344 1.74168 32.3458 2.02948 33.0253 2.75813C33.7435 3.52832 34.3679 4.62238 34.6856 5.83181M31.344 1.69209C31.3544 1.62145 31.3654 1.55991 31.377 1.50629C31.395 1.42295 31.4092 1.38351 31.4131 1.37381M31.344 1.69209C31.3014 1.68668 31.2615 1.6841 31.2243 1.6841C31.0631 1.6841 31.0023 1.69489 31.0023 1.6945C31.0022 1.69402 31.0892 1.67751 31.1949 1.60721C31.2051 1.6004 31.2149 1.59354 31.2243 1.58666C31.3561 1.49021 31.4057 1.39053 31.4131 1.37381M34.6856 5.83181C34.8027 6.29424 34.9272 6.71725 35.0709 7.07737C35.2057 7.41513 35.4094 7.83528 35.7499 8.17199C36.1583 8.5759 36.7338 8.82422 37.3911 8.74162C37.9211 8.675 38.3368 8.40975 38.5973 8.21535M34.6856 5.83181C34.685 5.82959 34.6845 5.82737 34.6839 5.82514L36.1382 5.45754M34.6856 5.83181C34.6861 5.83369 34.6866 5.83556 34.6871 5.83744L36.1382 5.45754M38.5973 8.21535C39.5636 7.51142 40.2328 7.20617 40.7428 7.10848C41.1943 7.022 41.6304 7.07634 42.2083 7.36662L42.2083 7.36665L42.2167 7.37083C42.6225 7.57148 43.1906 8.00284 43.6698 8.4824C43.7844 8.59711 43.8843 8.70507 43.9684 8.8027M38.5973 8.21535C38.595 8.21704 38.5927 8.21874 38.5904 8.22043L37.7064 7.00855M38.5973 8.21535C38.6004 8.21302 38.6035 8.2107 38.6066 8.20839L37.7064 7.00855M43.9684 8.8027C43.8376 8.94088 43.6618 9.1118 43.4301 9.31902C42.6378 10.0279 41.3732 11.0034 39.5242 12.3298L39.524 12.33C38.0708 13.3729 37.072 14.128 36.5079 14.6859C36.2683 14.9228 35.8672 15.3455 35.7198 15.9117C35.6281 16.264 35.628 16.6961 35.8332 17.1198C36.0228 17.5111 36.3149 17.7432 36.5197 17.8712L36.5271 17.8758L36.5345 17.8803C36.5379 17.8824 36.5425 17.8853 36.5482 17.8889C36.6519 17.9547 37.1269 18.2558 37.7881 18.1573C38.2507 18.0884 38.6487 17.8397 38.8913 17.6843C39.4147 17.3489 40.3077 16.6863 41.8903 15.5119C42.0498 15.3936 42.2162 15.27 42.39 15.1412L42.3928 15.1391C43.2796 14.4781 44.2035 13.8182 44.9753 13.2915C45.7901 12.7354 46.3292 12.4016 46.5027 12.3196L46.5027 12.3196L46.5131 12.3146C46.5612 12.2914 46.606 12.2698 46.6481 12.2497M43.9684 8.8027C44.0552 8.90352 44.1252 8.99332 44.177 9.06818C44.2283 9.14236 44.2431 9.17503 44.2401 9.16841C44.2379 9.16352 44.225 9.13454 44.2115 9.08458C44.1987 9.0367 44.1783 8.94389 44.1783 8.81807C44.1783 8.63525 44.2242 8.51324 44.2459 8.46753M43.9684 8.8027C44.0631 8.7027 44.1341 8.61984 44.1856 8.55277C44.2163 8.5128 44.2353 8.48463 44.2459 8.46753M46.6481 12.2497C46.6514 12.2555 46.6548 12.2615 46.6582 12.2674C46.762 12.4498 46.843 12.6379 46.8828 12.7691L46.8828 12.7691L46.8859 12.7793C47.013 13.1878 46.9898 14.0556 46.6423 15.16C46.3087 16.2203 45.766 17.2076 45.1926 17.8142M46.6481 12.2497C46.6022 12.1704 46.5597 12.1058 46.5252 12.0588C46.508 12.0354 46.4964 12.0213 46.4908 12.0147M46.6481 12.2497C46.7227 12.214 46.7885 12.1828 46.848 12.1553C46.9415 12.112 47.0067 12.0837 47.0537 12.0649C47.0891 12.0508 47.1043 12.0461 47.1043 12.0461C47.1043 12.046 47.1023 12.0466 47.0986 12.0476C47.0831 12.0517 47.0245 12.066 46.9361 12.0687C46.841 12.0716 46.7342 12.0604 46.6254 12.0291C46.594 12.0201 46.5652 12.0102 46.5393 12.0001L47.508 10.9119M45.1926 17.8142C44.9103 18.1098 44.6216 18.4682 44.4359 18.8851C44.2381 19.3294 44.1219 19.9319 44.3709 20.564C44.6053 21.1593 45.0626 21.5177 45.4357 21.7283C45.8138 21.9417 46.2478 22.0849 46.6774 22.1912L46.681 22.192C47.7645 22.4572 48.2416 22.8069 48.5005 23.1712C48.7808 23.5656 48.9996 24.2478 48.9877 25.5814H48.9876V25.5948C48.9876 26.0383 48.9791 26.3456 48.961 26.5641M45.1926 17.8142C45.1936 17.8132 45.1945 17.8122 45.1955 17.8111L46.2795 18.8479M45.1926 17.8142C45.1918 17.815 45.1911 17.8158 45.1903 17.8166L46.2795 18.8479M48.961 26.5641C48.9528 26.6635 48.9426 26.7446 48.9304 26.8117C48.9194 26.8717 48.911 26.896 48.911 26.8959C48.9109 26.8958 48.9556 26.7652 49.117 26.6455C49.2111 26.5757 49.2848 26.5564 49.2934 26.5544C49.2857 26.556 49.2249 26.5673 49.0819 26.5668C49.0439 26.5666 49.0037 26.5657 48.961 26.5641ZM46.2795 18.8479C47.8216 17.2194 48.841 14.014 48.3182 12.3337M46.2795 18.8479C45.3647 19.8044 45.5738 20.3731 47.0375 20.735C49.5728 21.3554 50.5138 22.6738 50.4876 25.5948L48.3182 12.3337M48.3182 12.3337C48.1614 11.8167 47.7955 11.1704 47.508 10.9119M48.3182 12.3337L46.4908 12.0147M46.4908 12.0147C46.4384 11.9682 46.4073 11.9415 46.385 11.9234C46.3759 11.916 46.3716 11.9128 46.3718 11.9129C46.3719 11.9131 46.3845 11.9224 46.4065 11.9357C46.433 11.9517 46.4754 11.9747 46.5321 11.9973M46.4908 12.0147L46.5321 11.9973M47.508 10.9119L46.5321 11.9973M47.508 10.9119C47.0488 10.5033 46.9526 10.4535 46.21 10.7977C46.1201 10.895 46.0244 10.9935 45.9237 11.093C45.9234 11.0932 45.9231 11.0935 45.9229 11.0938C45.7698 11.245 45.6049 11.3987 45.4304 11.5548C44.6034 12.2947 43.408 13.2213 41.8211 14.3721C41.8208 14.3724 41.8204 14.3726 41.8201 14.3729L46.5321 11.9973M44.2459 8.46753C44.2522 8.45435 44.2564 8.44751 44.257 8.44739C44.2576 8.44727 44.2544 8.45386 44.2459 8.46753ZM37.7064 7.00855C36.9484 7.57726 36.5825 7.21535 36.1382 5.45754M37.7064 7.00855C39.7974 5.48339 41.235 5.19904 42.8816 6.02625L36.1382 5.45754M36.1382 5.45754C35.3802 2.56232 33.1585 0.184105 31.2243 0.184105C30.5103 0.184105 30.1197 0.307152 29.9251 1.12652M36.1382 5.45754L29.9251 1.12652M31.4131 1.37381C31.4138 1.37213 31.4141 1.37135 31.4141 1.37138C31.4142 1.37141 31.4138 1.37223 31.4131 1.37381ZM22.2468 20.1894C21.6434 20.8202 21.1284 21.677 21.1829 22.6778C21.2417 23.7586 21.93 24.5259 22.7344 24.9681C22.7384 24.9703 22.7423 24.9725 22.7461 24.9747C22.758 25.652 23 26.3049 23.2943 26.7884C23.4502 27.0444 23.6594 27.3177 23.9289 27.5451C24.1766 27.754 24.6284 28.0513 25.2388 28.0513C25.4617 28.0513 25.6785 27.9956 25.7121 27.9869C25.7139 27.9865 25.7152 27.9861 25.7159 27.986C25.8061 27.964 25.9068 27.9361 26.007 27.9067C26.2014 27.8498 26.4358 27.7749 26.6699 27.6937C26.8891 27.8931 27.1338 28.0675 27.3661 28.2019C27.5039 28.2816 27.6621 28.3616 27.8312 28.4258C27.9748 28.4803 28.2401 28.5683 28.5583 28.5683C29.0894 28.5683 29.5282 28.3605 29.8084 28.189C30.1112 28.0038 30.3787 27.7689 30.5981 27.5297C30.8185 27.2894 31.025 27.0071 31.1837 26.7009C31.2284 26.6148 31.2745 26.5169 31.317 26.4089C31.862 26.2634 32.3391 25.9705 32.6607 25.7221C32.9155 25.5253 33.1749 25.2791 33.385 24.9921C33.5696 24.7399 33.8482 24.2777 33.8482 23.6819C33.8482 23.3907 33.7679 23.1406 33.7389 23.051C33.6955 22.9169 33.6418 22.783 33.5894 22.6626C33.4834 22.4194 33.3475 22.152 33.2078 21.9063L33.2019 21.8961L33.1972 21.8881C33.284 21.703 33.359 21.5077 33.4178 21.3237C33.4912 21.0936 33.5869 20.7364 33.5869 20.3731C33.5869 19.8365 33.3806 19.3939 33.1796 19.0895C32.9717 18.7749 32.7078 18.5121 32.4394 18.3045C32.0091 17.9716 31.4118 17.6638 30.7487 17.5782C30.7421 17.5677 30.7353 17.5565 30.7286 17.5446L30.7287 17.5446L30.7232 17.535C30.5091 17.1604 30.206 16.7194 29.7182 16.4063C29.1996 16.0733 28.6623 16.0037 28.2185 16.0037C27.812 16.0037 27.4124 16.0878 27.0775 16.2072C26.8304 16.2954 26.4733 16.4537 26.1649 16.7294C26.0636 16.7543 25.8923 16.7792 25.657 16.7792C25.1781 16.7792 24.6137 16.8041 24.0858 17.0216C23.4709 17.275 23.0985 17.7011 22.8353 18.1017L22.825 18.1172L22.8152 18.133C22.6141 18.4562 22.4729 18.8229 22.392 19.1593C22.3402 19.3741 22.2757 19.7249 22.3184 20.1098M22.2468 20.1894L22.345 20.2832C22.3335 20.2249 22.3248 20.167 22.3184 20.1098M22.2468 20.1894C22.2465 20.1896 22.2463 20.1899 22.246 20.1902L22.3453 20.2851C22.3576 20.3472 22.373 20.4098 22.392 20.4724L22.3987 20.4944L22.406 20.5161C22.401 20.5013 22.3965 20.4867 22.3924 20.4723C22.3747 20.4102 22.3651 20.3523 22.361 20.3L22.5055 20.438L22.54 20.471L23.3308 21.2262M22.2468 20.1894C22.2754 20.1594 22.299 20.1328 22.3184 20.1098M22.3184 20.1098C22.379 20.038 22.3982 20.0007 22.3985 20.0008C22.3986 20.0009 22.3977 20.003 22.396 20.0071C22.3856 20.0326 22.3486 20.1403 22.3608 20.2984L22.5065 20.4377L22.5409 20.4706L23.3308 21.2262M23.3308 21.2262C23.7751 20.7608 23.932 20.3472 23.8274 20.037L22.7456 24.9366C22.7456 24.932 22.7456 24.9274 22.7456 24.9227C22.7456 24.8766 22.744 24.8462 22.7423 24.8279C22.7413 24.8165 22.7405 24.8113 22.7405 24.8113C22.7405 24.8113 22.7408 24.8131 22.7415 24.8164C22.7436 24.8261 22.7489 24.8471 22.7601 24.8756C22.7627 24.8822 22.7655 24.8889 22.7685 24.8957L23.4615 23.6561M23.3308 21.2262C22.416 22.1826 22.4683 23.1132 23.4615 23.6561M23.4615 23.6561L22.7756 24.911L25.2388 26.5513C24.7945 26.5513 24.2456 25.6465 24.2456 24.9227C24.2456 24.2765 24.0627 23.9921 23.4615 23.6561ZM15.1098 40.5881C15.1098 40.588 15.1106 40.5872 15.1122 40.5857C15.1106 40.5874 15.1098 40.5881 15.1098 40.5881ZM37.6431 41.5189C37.6436 41.518 37.654 41.5155 37.6726 41.5142C37.6518 41.5191 37.6425 41.5198 37.6431 41.5189ZM34.3711 42.982C34.3711 42.982 34.3706 42.9824 34.3694 42.9831C34.3705 42.9824 34.3711 42.982 34.3711 42.982ZM33.9631 43.7006C33.9631 43.7007 33.9631 43.7008 33.9631 43.7009C33.9631 43.7018 33.9631 43.7021 33.9631 43.7021C33.9631 43.7021 33.9631 43.7016 33.9631 43.7006ZM20.0893 13.9562C20.0894 13.9564 20.0859 13.9552 20.0788 13.952C20.0857 13.9544 20.0892 13.956 20.0893 13.9562ZM13.2238 6.75808C13.224 6.75824 13.2248 6.75934 13.2264 6.76134C13.2245 6.75896 13.2236 6.75789 13.2238 6.75808ZM38.5075 16.937C38.503 16.9435 38.5004 16.9468 38.5002 16.9469C38.5 16.9469 38.5022 16.9437 38.5075 16.937ZM16.7433 22.8947C16.7434 22.8947 16.7417 22.8966 16.7379 22.9004C16.7413 22.8967 16.7432 22.8948 16.7433 22.8947ZM6.31318 24.3185C6.31315 24.3184 6.31311 24.3183 6.31308 24.3182L6.31391 24.3201C6.31393 24.3202 6.31369 24.3196 6.31318 24.3185ZM10.8357 9.78128C10.8466 9.77094 10.8454 9.77346 10.8326 9.78424C10.8338 9.7831 10.8348 9.78212 10.8357 9.78128ZM26.8379 1.20147C26.8369 1.19979 26.8364 1.19889 26.8364 1.19883C26.8364 1.19877 26.8369 1.19962 26.8379 1.20147ZM31.4959 25.5175C31.4959 25.5178 31.4959 25.5183 31.4959 25.5188V25.5173V25.5175ZM33.0273 22.2057C33.0273 22.2057 33.0277 22.2051 33.0283 22.2039C33.0277 22.2051 33.0273 22.2058 33.0273 22.2057Z" stroke="#E8E8E8" stroke-width="3" shape-rendering="crispEdges"/>
</g>
<defs>
<filter id="filter0_d_1_750" x="0.745667" y="0" width="53.7425" height="52.8203" filterUnits="userSpaceOnUse" color-interpolation-filters="sRGB">
<feFlood flood-opacity="0" result="BackgroundImageFix"/>
<feColorMatrix in="SourceAlpha" type="matrix" values="0 0 0 0 0 0 0 0 0 0 0 0 0 0 0 0 0 0 127 0" result="hardAlpha"/>
<feOffset dy="4"/>
<feGaussianBlur stdDeviation="2"/>
<feComposite in2="hardAlpha" operator="out"/>
<feColorMatrix type="matrix" values="0 0 0 0 0 0 0 0 0 0 0 0 0 0 0 0 0 0 0.25 0"/>
<feBlend mode="normal" in2="BackgroundImageFix" result="effect1_dropShadow_1_750"/>
<feBlend mode="normal" in="SourceGraphic" in2="effect1_dropShadow_1_750" result="shape"/>
</filter>
</defs>
</svg>
