<svg width="82" height="82" viewBox="0 0 82 82" fill="none" xmlns="http://www.w3.org/2000/svg">
<path fill-rule="evenodd" clip-rule="evenodd" d="M41.7794 76.1495C42.8339 76.4399 43.705 77.8153 43.5216 78.9003C43.2924 80.2452 42.3601 81.0399 41 81.0399C38.6924 81.0399 37.6226 78.503 39.212 76.7761C39.8691 76.0731 40.7249 75.8591 41.7794 76.1495ZM80.6578 42.4213C81.4372 41.2598 81.0704 39.5176 79.8937 38.8452C78.8086 38.2186 77.5249 38.4326 76.6538 39.3801C75.7522 40.3581 75.798 41.7488 76.7455 42.6963C77.9528 43.9037 79.7256 43.7814 80.6578 42.4213ZM4.64319 38.784C6.12558 39.5635 6.43123 41.5196 5.25449 42.6963C3.58871 44.3621 0.960133 43.3535 0.960133 41.0306C0.960133 39.7774 1.46445 39.0286 2.59535 38.6159C3.22193 38.3867 3.98605 38.4478 4.64319 38.784ZM42.3448 1.26578C43.3535 1.87707 43.7967 3.20664 43.3688 4.29169C42.8797 5.51429 41.703 6.17143 40.4651 5.94219C39.3037 5.71296 38.2797 4.26113 38.4784 3.09966C38.7076 1.75481 39.6399 0.960133 41 0.960133C41.5654 0.960133 42.0086 1.05183 42.3448 1.26578ZM68.7528 27.6279C64.0306 17.8013 54.4791 11.2299 43.5216 10.2977C39.3342 9.9309 35.1316 10.4505 31.1429 11.8106C24.6173 14.0571 19.2532 18.1375 15.4478 23.8073C7.62326 35.4066 8.64718 50.903 17.9236 61.4326C24.1435 68.5083 33.8937 72.4817 43.1854 71.7329C54.4027 70.8159 63.9694 64.3209 68.7528 54.3721C72.8332 45.8445 72.8332 36.1555 68.7528 27.6279ZM22.7681 20.1547C26.9707 16.5022 32.2279 14.164 37.7907 13.4458C38.081 13.3999 39.7774 13.3846 41.5349 13.4152C44.2857 13.461 45.004 13.5222 46.5933 13.8584C51.3309 14.867 55.6405 17.0218 59.2777 20.2006C60.5462 21.3009 62.5329 23.4252 63.1136 24.2963C63.3276 24.6172 62.808 25.5188 52.202 42.9102C46.089 52.9507 41.0458 61.1727 41 61.1727C40.9541 61.1727 38.4478 57.0006 35.4219 51.9268C32.396 46.8378 29.8744 42.681 29.8285 42.681C29.7063 42.681 27.7043 46.1348 27.7043 46.3487C27.7043 46.5627 40.8624 68.5082 40.9847 68.5082C41.0305 68.5082 46.578 59.461 53.3023 48.4119C58.4726 39.9161 62.9472 32.613 64.76 29.6843C65.3257 28.7705 65.9077 28.7789 66.327 29.7685C66.753 30.774 67.2558 32.0656 67.4996 32.8391C68.3707 35.6358 68.5847 37.271 68.5847 40.9999C68.5847 44.7288 68.3707 46.364 67.4996 49.1607C66.9953 50.7654 65.7422 53.6996 65.5893 53.6537C65.5129 53.6232 63.9694 51.1627 62.1661 48.1826C60.8666 46.0532 59.7076 44.1735 59.135 43.2516C58.8855 42.8498 58.573 42.7915 58.3027 43.1796C58.0908 43.4838 57.8257 43.8969 57.5508 44.362C56.8838 45.4706 56.8873 46.8579 57.56 47.9631L59.889 51.7893C62.0285 55.3195 63.2664 57.4743 63.19 57.5966C62.8385 58.2232 60.5003 60.7295 59.293 61.7992C55.6252 64.9933 51.3462 67.1328 46.5169 68.172C44.7289 68.5388 44.3163 68.5693 41 68.5693C37.6837 68.5693 37.2711 68.5388 35.483 68.172C30.6538 67.1328 26.3747 64.9933 22.7222 61.7992C21.4385 60.6836 19.2226 58.2996 19.0392 57.8564C18.9628 57.673 40.8319 20.98 41.0153 20.98C41.0611 20.98 43.5063 24.9228 46.4252 29.7215C49.3594 34.5355 51.9116 38.7076 52.095 38.9826C52.2501 39.2223 52.6027 39.2163 52.7496 38.9715L53.5315 37.6684C54.2085 36.5306 54.2014 35.112 53.5131 33.9811L47.9535 24.8464C44.2704 18.8099 41.1834 13.7973 41.0917 13.6903C40.9694 13.5527 37.9588 18.4737 29.1256 33.2517C22.6305 44.1175 17.1442 53.2717 16.9455 53.5926C16.7957 53.8465 16.4231 53.8301 16.2962 53.564L15.9674 52.8743C15.0658 50.9946 14.3016 48.7328 13.8279 46.5169C13.4611 44.7288 13.4305 44.3162 13.4305 40.9999C13.4305 37.6836 13.4611 37.271 13.8279 35.483C14.0571 34.4285 14.485 32.885 14.7754 32.0444C15.3714 30.3328 16.3036 28.2391 16.5176 28.1016C16.594 28.0557 18.1986 30.5926 20.0631 33.7408C21.3289 35.8885 22.4609 37.7756 23.0764 38.7756C23.3909 39.2865 23.7789 39.3284 24.1089 38.8274C24.3014 38.5351 24.5298 38.1717 24.7701 37.7753C25.4385 36.6549 25.439 35.2582 24.7713 34.1374L22.4319 30.2105C20.5369 27.0471 18.9933 24.3727 18.9933 24.281C18.9933 23.96 21.3774 21.3468 22.7681 20.1547ZM46.6545 36.5069C46.6545 36.4763 45.4166 34.2298 43.8883 31.5095C42.3754 28.7893 41.0917 26.5122 41.0305 26.4511C40.9388 26.3594 32.2737 41.7029 32.1668 42.1614C32.1209 42.3295 33.2212 42.3753 38.5089 42.4059L40.7752 42.4221C42.6496 42.4355 43.834 44.4411 42.9408 46.0889C42.3188 47.228 41.7469 48.2414 41.3607 48.8902C41.0538 49.4057 40.6833 49.3921 40.3759 48.8769C40.1423 48.4852 39.8459 47.9734 39.5329 47.4185L39.0916 46.6366C38.6183 45.7978 37.7299 45.279 36.7668 45.279C35.8957 45.279 35.1927 45.3095 35.1927 45.3401C35.1927 45.4165 40.7096 55.4265 40.8319 55.5487C40.9236 55.6557 49.8638 39.8079 49.8638 39.5634C49.8638 39.5175 46.9754 39.4717 43.4452 39.4717C38.9521 39.4717 37.0266 39.4258 37.0266 39.3036C37.0266 39.0896 40.8624 32.2889 40.9847 32.2889C41.0305 32.2889 41.596 33.2365 42.2226 34.3979L42.5759 35.0433C43.0669 35.9402 43.9971 36.5091 45.0192 36.5375C45.9209 36.5527 46.6545 36.5527 46.6545 36.5069Z" fill="url(#paint0_linear_1_354)"/>
<defs>
<linearGradient id="paint0_linear_1_354" x1="-1.18537" y1="-4.99995" x2="84.7445" y2="-3.9509" gradientUnits="userSpaceOnUse">
<stop stop-color="#A77149"/>
<stop offset="0.46875" stop-color="#DD9F70"/>
<stop offset="1" stop-color="#A77149"/>
</linearGradient>
</defs>
</svg>
