<svg width="41" height="58" viewBox="0 0 41 58" fill="none" xmlns="http://www.w3.org/2000/svg">
<g filter="url(#filter0_d_1_742)">
<mask id="path-1-inside-1_1_742" fill="white">
<path d="M20.6211 0.0860481C20.3901 0.179134 19.988 0.686863 19.988 0.881493C19.988 0.991501 19.9452 1.01689 19.7997 0.966114C19.62 0.915344 19.3976 0.703789 19.389 0.593781C19.389 0.568394 19.2778 0.483772 19.1409 0.399147C18.8243 0.212982 18.3281 0.212982 18.02 0.39069C17.789 0.534546 17.5067 0.991501 17.5067 1.22844C17.5067 1.31306 17.4211 1.35538 17.2671 1.35538C17.1387 1.35538 16.9762 1.40615 16.9163 1.45692C16.8307 1.55 16.7965 1.54154 16.728 1.41461C16.5141 1.05074 15.8211 0.906879 15.3676 1.14382C15.0853 1.28768 14.7687 1.82079 14.7687 2.14236C14.7687 2.48084 14.5633 2.58239 14.2211 2.42161C13.8275 2.23544 13.3483 2.25237 13.0574 2.45546C12.7751 2.65009 12.5441 3.17474 12.604 3.47938C12.6638 3.80941 12.4499 3.93634 12.1248 3.77555C11.4061 3.40322 10.5761 3.90249 10.5761 4.69793C10.5761 4.8164 10.5248 4.96872 10.4735 5.02796C10.4136 5.09565 10.2767 5.24797 10.1654 5.36644C10.0285 5.52723 9.93441 5.56954 9.86596 5.51876C9.52371 5.25644 8.8221 5.37491 8.48841 5.73878C8.29162 5.9588 8.21461 6.585 8.34296 6.94887L8.43707 7.21966L8.12905 7.16889C7.75258 7.10965 7.31621 7.27043 7.11942 7.54122C6.93974 7.79509 6.93974 8.48052 7.11942 8.81901C7.20498 8.98825 7.22209 9.10673 7.17075 9.1575C7.11942 9.20827 7.1023 9.30136 7.12797 9.36059C7.1622 9.44521 7.09375 9.47906 6.90551 9.47906C6.56326 9.47906 6.1269 9.65677 5.92155 9.88525C5.83598 9.98679 5.74187 10.2407 5.72475 10.4522C5.68197 10.7653 5.7162 10.8922 5.88732 11.1546C6.1269 11.51 6.1269 12.0177 5.88732 12.0177C5.81032 12.0177 5.58785 12.0939 5.39106 12.1954C5.10015 12.3308 4.99748 12.4408 4.87769 12.737C4.70656 13.177 4.7579 13.4394 5.08304 13.8117C5.3825 14.1671 5.35684 14.4379 5.01459 14.5141C4.87769 14.5479 4.64667 14.7002 4.50121 14.861C4.03918 15.3857 4.20175 16.1557 4.83491 16.4773C5.00603 16.5619 5.16004 16.6381 5.17716 16.6465C5.19427 16.6634 5.16004 16.7227 5.10871 16.7904C5.04881 16.8581 5.02314 16.9512 5.04881 17.0019C5.07448 17.0442 4.99748 17.1204 4.86058 17.1712C4.38998 17.3489 4.15897 17.6789 4.15897 18.1782C4.15897 18.5167 4.46699 18.9482 4.79213 19.0836C5.12582 19.219 5.28839 19.6083 5.06592 19.7352C4.99748 19.7775 4.81779 19.9045 4.66378 20.0314C4.43276 20.226 4.4071 20.3022 4.44132 20.556C4.53544 21.2838 4.76646 21.5546 5.46807 21.7831C5.59641 21.8254 5.61352 21.8846 5.57074 22.1046C5.53652 22.2569 5.43384 22.4854 5.34828 22.6124C5.10015 22.9508 5.13437 23.5347 5.40817 23.8563C5.61352 24.1017 6.21246 24.3471 6.37503 24.254C6.41781 24.2286 6.52904 24.2794 6.63171 24.364C6.79428 24.5079 6.80284 24.5333 6.67449 24.6264C6.49481 24.7787 6.29802 25.1764 6.29802 25.3879C6.29802 25.9295 6.84562 26.488 7.3761 26.488C7.53011 26.488 7.70124 26.5557 7.79536 26.6573C7.94081 26.8181 7.94081 26.835 7.81247 26.9788C7.39322 27.4358 7.48733 28.1466 8.01782 28.502C8.26595 28.6713 8.37718 28.6967 8.76221 28.6543C9.11301 28.612 9.20713 28.629 9.20713 28.722C9.20713 28.7897 9.26703 28.9082 9.34403 28.9759C9.45526 29.0859 9.46382 29.1621 9.38681 29.3906C9.31836 29.6021 9.31836 29.746 9.39537 29.966C9.52371 30.3299 9.63494 30.4399 10.0285 30.6006C10.3023 30.7107 10.405 30.7191 10.7387 30.626C11.0296 30.5414 11.1323 30.5414 11.1579 30.6176C11.1751 30.6768 11.235 30.7191 11.3034 30.7191C11.3719 30.7191 11.4232 30.8714 11.4489 31.1422C11.543 32.0477 12.5269 32.4539 13.1772 31.8615C13.3141 31.7346 13.4596 31.6838 13.5622 31.7092C13.7077 31.743 13.7334 31.8192 13.7248 32.1661C13.7163 32.6908 13.8874 32.9447 14.3751 33.1308C14.6831 33.2493 14.8115 33.2578 15.051 33.1816C15.2222 33.1224 15.4018 33.0208 15.4532 32.9531C15.5131 32.8939 15.6329 32.8347 15.7184 32.8347C15.8553 32.8347 15.881 32.9024 15.881 33.2493C15.881 33.7063 16.0778 34.0194 16.4799 34.2309C16.8136 34.4002 17.0617 34.3917 17.4382 34.1886C17.8318 33.9855 18.02 34.0447 18.02 34.3748C18.02 34.7386 18.2425 35.1448 18.5249 35.3141C18.8671 35.5172 19.3976 35.5002 19.6799 35.2802C19.8938 35.111 19.9024 35.111 19.9024 35.2718C19.9024 35.3648 19.9623 35.4579 20.0307 35.4918C20.142 35.5341 20.142 35.5595 19.9965 35.7033C19.7227 35.9741 19.6029 36.4988 19.7313 36.8119C19.834 37.0573 20.2104 37.4381 20.4329 37.5058C20.5013 37.5312 20.4757 37.5989 20.3473 37.7258C19.8853 38.1828 20.1334 39.5198 20.6896 39.5198C20.8778 39.5198 20.8949 39.3844 20.7067 39.2828C20.6211 39.2405 20.604 39.1813 20.6468 39.1559C20.6981 39.1221 20.8008 39.1728 20.8864 39.2659C21.2201 39.6298 21.7848 39.3421 21.7848 38.809C21.7848 38.3097 21.6821 37.9881 21.434 37.7512L21.1944 37.5142L21.4425 37.3281C22.0072 36.9219 21.9302 35.8895 21.3056 35.5256C20.9634 35.331 20.9377 35.2718 21.2115 35.2887C21.7334 35.331 21.9046 35.2802 22.1784 34.9841C22.4179 34.7386 22.4693 34.6202 22.4693 34.3325C22.4693 34.1294 22.3923 33.8586 22.2981 33.6978C22.1698 33.4947 22.1441 33.3762 22.2126 33.2662C22.2554 33.1816 22.2725 33.0885 22.2468 33.0631C22.2211 33.0462 22.2981 32.877 22.4265 32.7077C22.7602 32.2169 22.726 31.7938 22.3067 31.3876C22.0415 31.1168 21.9131 31.0576 21.6479 31.0576C21.2714 31.0491 20.9548 30.7868 20.758 30.3129C20.6297 29.9998 20.3302 29.7544 19.9024 29.636C19.7398 29.5852 19.6628 29.5429 19.7398 29.5429C19.8083 29.5344 19.9623 29.4413 20.065 29.3313C20.2275 29.1621 20.2874 29.1452 20.4671 29.2298C20.5783 29.2805 20.6725 29.399 20.6725 29.4921C20.6725 29.9152 21.2543 30.4653 21.6992 30.4653C21.9644 30.4653 22.3409 30.2452 22.5719 29.966C22.7602 29.729 22.7858 29.7206 23.0939 29.8137C23.265 29.8729 23.4104 29.966 23.4104 30.0252C23.4104 30.0929 23.5388 30.2706 23.7014 30.4314C23.9495 30.6768 24.0522 30.7191 24.3944 30.7191C24.8992 30.7191 25.2244 30.4991 25.404 30.0506C25.6008 29.5767 25.8147 29.5344 26.1912 29.9067C26.773 30.4906 27.7142 30.2452 27.9538 29.4498C28.0736 29.069 28.1848 29.0521 28.6126 29.3482C29.2372 29.7883 29.9388 29.636 30.264 28.9759C30.3581 28.7728 30.418 28.5443 30.3923 28.4766C30.3667 28.4005 30.3923 28.3497 30.4693 28.3497C30.5292 28.3497 30.649 28.2905 30.726 28.2143C30.8544 28.0874 30.8715 28.0874 31.0255 28.2228C31.2651 28.4343 31.8811 28.4851 32.2062 28.3159C32.5656 28.1297 32.771 27.732 32.7111 27.3258C32.6597 26.9534 32.8308 26.7419 33.1816 26.7419C33.5496 26.7419 34.0202 26.4965 34.1913 26.2088C34.4137 25.8534 34.4052 25.5318 34.1742 25.1256C33.9603 24.7448 34.0373 24.5925 34.4822 24.5163C34.9357 24.4402 35.2095 24.2286 35.3121 23.8394C35.4148 23.4501 35.3121 22.9508 35.0897 22.7647C35.0212 22.7054 34.9613 22.5531 34.9613 22.4177C34.9613 22.2231 34.9956 22.1723 35.1581 22.1723C35.4405 22.1723 35.8769 21.8761 36.0309 21.5884C36.2533 21.1569 36.1849 20.7591 35.7999 20.3445C35.663 20.1922 35.6544 20.1329 35.74 19.9468C35.7913 19.8283 35.9539 19.6844 36.0908 19.6252C36.6384 19.4052 36.8608 18.5336 36.4929 18.0766C36.3988 17.9582 36.2105 17.7974 36.0822 17.7381C35.7228 17.552 35.7571 17.2558 36.1592 17.0696C36.8009 16.7735 36.8865 15.8511 36.3218 15.3857C36.1678 15.2503 35.9881 15.1487 35.9282 15.1487C35.8597 15.1487 35.817 15.0472 35.817 14.9118C35.817 14.751 35.9025 14.6156 36.1164 14.4464C36.4245 14.201 36.5785 13.8371 36.5186 13.4478C36.4843 13.194 36.0052 12.6524 35.7485 12.5762C35.5346 12.5085 35.4576 12.2208 35.6202 12.0939C35.817 11.9246 35.9881 11.5438 35.9881 11.2561C35.9881 10.7484 35.663 10.3761 35.0811 10.2322C34.6362 10.1222 34.5763 9.94448 34.8073 9.48752C35.0298 9.03903 34.9613 8.57361 34.6191 8.25205C34.4052 8.05742 34.2683 8.00664 33.7891 7.96433C33.233 7.91356 33.2159 7.9051 33.1474 7.64277C33.0961 7.43122 33.1132 7.31274 33.2159 7.15196C33.695 6.42422 33.0362 5.43414 32.1292 5.53569C31.5987 5.58646 31.4875 5.5103 31.6159 5.16335C31.7613 4.74024 31.7271 4.36791 31.5303 4.11404C31.1709 3.65709 30.495 3.50477 30.1014 3.77555C29.9132 3.90249 29.8961 3.90249 29.8533 3.74171C29.8276 3.64862 29.7592 3.54708 29.6993 3.52169C29.6223 3.4963 29.5966 3.3863 29.6223 3.20013C29.6822 2.82779 29.4255 2.38776 29.049 2.18467C28.6811 1.99004 28.4073 1.99004 27.988 2.20159C27.8083 2.29468 27.6543 2.36237 27.6372 2.34545C27.5688 2.26083 27.3634 1.77848 27.3206 1.60078C27.1324 0.822258 26.0372 0.526085 25.4982 1.10997C25.4126 1.20306 25.2928 1.25383 25.2244 1.22844C25.1645 1.20306 25.0361 1.22844 24.942 1.27075C24.8051 1.34691 24.7794 1.32999 24.7794 1.18613C24.7794 0.619167 24.2404 0.0860481 23.6586 0.0860481C23.3677 0.0860481 22.9313 0.32299 22.7003 0.619167C22.5377 0.822258 22.1441 0.856106 22.0842 0.669937C22.0586 0.585316 21.896 0.399147 21.7334 0.263756C21.4254 -0.0070343 21.0147 -0.0747337 20.6211 0.0860481ZM20.1163 1.52462C20.142 1.60924 20.2874 1.78695 20.4329 1.90542C20.6553 2.09159 20.7751 2.12543 21.1003 2.10005L21.5024 2.07466L21.3313 2.41315C21.2372 2.59932 21.1431 2.76856 21.1345 2.77702C21.1259 2.79395 21.0489 2.6924 20.9805 2.54854C20.6126 1.85464 19.4404 1.86311 19.081 2.56547C19.004 2.70932 18.927 2.85318 18.9099 2.87011C18.8842 2.89549 18.3623 2.38776 18.3623 2.33699C18.3623 2.32853 18.4906 2.32006 18.6532 2.3116C19.0382 2.30314 19.3462 2.07466 19.5345 1.66848C19.6971 1.31306 20.0222 1.22844 20.1163 1.52462ZM15.6329 3.13243C15.7184 3.13243 15.7954 3.16628 15.7954 3.21705C15.7954 3.25937 15.7184 3.30168 15.6243 3.30168C14.9227 3.30168 14.4863 4.18174 14.8115 4.9518C14.8799 5.11258 14.8713 5.11258 14.7173 4.98565C14.4435 4.75717 14.0328 4.65562 13.7077 4.74871C13.297 4.85872 12.8863 5.34106 12.8863 5.71339C12.8863 6.08573 12.8007 6.12804 12.3387 5.97572C11.4831 5.68801 10.7729 6.30574 10.8585 7.2789C10.8756 7.4566 10.8414 7.49045 10.6617 7.46507C10.5419 7.4566 10.328 7.43968 10.174 7.42275C9.90874 7.40583 9.90874 7.40583 10.0542 7.23658C10.4221 6.83886 10.4991 6.40729 10.2852 5.99265C10.174 5.78955 10.1825 5.7557 10.3109 5.63723C10.3964 5.56107 10.5077 5.50184 10.5676 5.50184C10.6189 5.50184 10.6874 5.45107 10.713 5.38337C10.7473 5.29029 10.8243 5.30721 11.0724 5.47646C11.5173 5.77263 11.9708 5.70493 12.3473 5.29875C12.5783 5.05334 12.6296 4.92641 12.6296 4.62178C12.6296 4.31714 12.6638 4.24098 12.8179 4.20713C12.912 4.18174 13.0745 4.21559 13.1772 4.28329C13.2713 4.34252 13.5024 4.40176 13.682 4.40176C14.3066 4.40176 14.7687 3.95326 14.7687 3.34399C14.7687 3.17474 14.8115 2.96319 14.8628 2.87011C14.9484 2.70932 14.9569 2.70932 15.205 2.92088C15.3505 3.03935 15.5387 3.13243 15.6329 3.13243ZM21.3997 3.47092C21.5709 3.80095 21.9816 4.0125 22.358 3.95326L22.6489 3.90249L22.3666 4.21559C22.0329 4.58792 21.7848 4.61331 21.3826 4.33406C21.2286 4.22405 20.9634 4.11404 20.7922 4.08866C20.5441 4.04635 20.5099 4.02096 20.6211 3.96173C20.6981 3.91941 20.8607 3.73325 20.9719 3.54708C21.0917 3.36937 21.2029 3.21705 21.2286 3.21705C21.2457 3.21705 21.3227 3.32706 21.3997 3.47092ZM19.0896 3.57246C19.2093 3.83479 19.7056 4.14789 19.9965 4.14789H20.2447L19.9965 4.37637C19.8682 4.51176 19.7056 4.75717 19.6543 4.92641C19.5345 5.29875 19.3291 5.34106 19.081 5.07027C18.6532 4.60485 18.02 4.52023 17.5837 4.8841C17.3099 5.11258 17.0361 5.62031 17.1131 5.74725C17.1387 5.78109 17.0703 5.85725 16.9505 5.90802C16.7879 5.98418 16.6853 5.96726 16.42 5.8234C15.9922 5.59492 15.5216 5.66262 15.1879 6.01803L14.9569 6.26344L14.9997 5.90802C15.0681 5.39183 15.1537 5.31567 15.5815 5.38337C16.0093 5.4426 16.3687 5.29029 16.651 4.93488C16.8051 4.74025 16.8307 4.62177 16.8051 4.24944L16.7623 3.80095L16.9847 4.0125C17.6179 4.61331 18.4735 4.42714 18.7815 3.61478C18.8928 3.33553 18.9783 3.32706 19.0896 3.57246ZM25.4639 4.13097C25.4639 4.68947 26.0372 5.24797 26.6276 5.24797C26.773 5.24797 27.0297 5.15489 27.2009 5.04488L27.5003 4.84179L27.4575 5.12104C27.4319 5.28182 27.4319 5.50184 27.4661 5.61185C27.5859 6.08573 28.1677 6.44114 28.7239 6.37344L29.049 6.32267L29.0062 6.90656C28.972 7.40583 28.9891 7.51584 29.1346 7.68508C29.3656 7.94741 29.8362 8.12511 30.3068 8.12511C30.6747 8.12511 30.7003 8.13358 30.649 8.31128C30.5036 8.81901 30.5036 8.97133 30.649 9.26751C30.8715 9.74139 31.2223 9.91909 31.7784 9.85986C32.018 9.83447 32.2234 9.84293 32.2234 9.86832C32.2234 9.90217 32.0865 10.0714 31.9239 10.2491C31.5816 10.6215 31.5389 10.9261 31.7613 11.3915C31.9068 11.6961 32.3517 12.0177 32.6341 12.0177C32.7624 12.0177 32.7966 12.06 32.7624 12.187C32.7367 12.28 32.6426 12.3985 32.5485 12.4493C32.3089 12.5762 32.0522 13.0332 32.0522 13.3463C32.0522 13.7271 32.3004 14.1163 32.6683 14.2856C33.0619 14.4633 33.1389 14.6325 32.9079 14.8102C32.6255 15.0218 32.3945 15.4195 32.3945 15.6988C32.3945 16.0796 32.6683 16.5196 33.0191 16.6973C33.3357 16.8581 33.464 17.1796 33.2159 17.1796C32.9849 17.1796 32.5656 17.6112 32.48 17.9412C32.3603 18.3813 32.5314 18.7959 32.9421 19.0582C33.1132 19.1682 33.2501 19.2783 33.2501 19.3036C33.2501 19.329 33.0704 19.3375 32.848 19.3206C32.3089 19.2783 31.9324 19.5067 31.7014 20.0145C31.5474 20.3614 31.5389 20.4122 31.6672 20.6999C31.7613 20.9199 31.7699 21.0469 31.71 21.1061C31.6672 21.1484 31.6244 21.2584 31.6244 21.3515C31.6244 21.4361 31.5132 21.5969 31.3763 21.7069C30.8372 22.1639 30.8372 22.8578 31.3763 23.3063L31.6415 23.5263H31.4105C30.6832 23.5263 30.0757 24.3809 30.3752 24.9818C30.5634 25.3456 30.4437 25.4556 29.9303 25.4049C29.3485 25.3541 29.0062 25.5487 28.7838 26.0395C28.6212 26.3949 28.6212 26.4457 28.741 26.7504C28.8522 27.0296 28.8522 27.0804 28.7495 27.0804C28.6811 27.0804 28.6297 26.9958 28.6297 26.8858C28.6297 26.4288 28.1164 26.0649 27.4661 26.0649C27.1324 26.0649 27.0297 26.1072 26.7902 26.3442C26.4821 26.6488 26.2511 26.6827 26.003 26.4711C25.7292 26.2342 25.4811 26.1495 25.0704 26.1495C24.7281 26.1495 24.634 26.1919 24.3859 26.4457C24.2147 26.6319 24.0949 26.8519 24.0778 27.0211C24.0436 27.3596 23.9153 27.3766 23.8211 27.0381C23.7356 26.708 23.1452 26.3188 22.726 26.3188C22.4179 26.3188 22.0329 26.5134 21.8361 26.7842C21.6907 26.9788 21.5281 26.8773 21.5281 26.5896C21.5281 26.0734 20.9719 25.5572 20.4158 25.5572C20.1078 25.5572 19.6885 25.7518 19.5773 25.9464C19.5174 26.0565 19.466 26.0649 19.312 25.9888C19.2093 25.9295 19.1495 25.8534 19.1751 25.8026C19.2692 25.6587 19.0382 25.1425 18.7815 24.931C18.3366 24.5587 17.7976 24.5756 17.2329 24.9818C17.0275 25.1341 16.9847 25.041 17.096 24.694C17.3355 23.9071 16.3687 23.1032 15.6243 23.4755C15.3762 23.594 15.3334 23.594 15.1451 23.4755C15.0254 23.3993 14.9398 23.2555 14.9398 23.1455C14.9398 23.0439 14.8628 22.8578 14.7601 22.7308C14.3494 22.2146 13.605 22.0962 13.1515 22.477C13.0061 22.5954 12.8863 22.6547 12.8863 22.6124C12.8863 22.57 12.9376 22.5108 12.9975 22.4854C13.1687 22.4262 13.3997 21.8931 13.3997 21.5884C13.3997 21.2584 12.9804 20.7761 12.5868 20.6491C12.2189 20.5307 12.1676 20.3699 12.3729 20.0314C12.4842 19.8621 12.5441 19.6083 12.5441 19.3544C12.5441 18.999 12.5013 18.8975 12.2531 18.6521C12.005 18.4067 11.9023 18.3643 11.543 18.3559L11.1323 18.3474L11.4574 18.2713C11.9537 18.1528 12.0991 18.0512 12.2959 17.6704C12.5098 17.2558 12.4671 16.9427 12.159 16.5365C11.8852 16.1811 11.8852 16.0119 12.1847 15.9018C13.0061 15.5972 13.2029 14.7341 12.5954 14.1163C12.2446 13.7609 12.2788 13.6255 12.7152 13.6848C13.1344 13.744 13.5794 13.4901 13.7762 13.0839C13.9558 12.7116 13.9473 12.5424 13.7419 12.1446C13.6478 11.9585 13.5708 11.7808 13.5708 11.7469C13.5708 11.7131 13.7334 11.6792 13.9387 11.6792C14.435 11.6792 14.8542 11.4507 15.051 11.0615C15.205 10.7653 15.2136 10.6807 15.1195 10.3084C15.0681 10.0714 15.0425 9.85986 15.0681 9.83447C15.0938 9.80909 15.205 9.83447 15.3248 9.88525C15.4446 9.94448 15.7013 9.98679 15.8981 9.98679C16.189 9.98679 16.3002 9.93602 16.5826 9.64831C16.9163 9.31828 16.9248 9.29289 16.8906 8.8444C16.8649 8.59053 16.8735 8.37898 16.8906 8.37898C16.9163 8.37898 17.0361 8.49745 17.1644 8.64131C17.3441 8.86132 17.4639 8.9121 17.8318 8.95441C18.3537 8.99672 18.6275 8.86132 18.8928 8.41283C19.1067 8.04895 19.235 8.0828 19.3291 8.52284C19.4233 9.00518 19.7912 9.32674 20.3045 9.36905C20.6639 9.4029 20.758 9.37752 21.0489 9.14904C21.2286 9.00518 21.4083 8.90363 21.4425 8.92902C21.4853 8.9544 21.5366 9.13211 21.5709 9.32674C21.6564 9.80062 21.8104 10.0291 22.1869 10.1983C22.5891 10.393 22.9826 10.3084 23.3677 9.95294C23.5816 9.74985 23.727 9.68215 23.8725 9.70754C23.9837 9.73293 24.1035 9.70754 24.1292 9.65677C24.1634 9.60599 24.4115 9.56368 24.6853 9.56368C25.2586 9.56368 25.5324 9.4029 25.7549 8.93748C25.9431 8.53976 25.926 8.37052 25.6778 7.99818C25.5153 7.7697 25.4811 7.65969 25.5495 7.57507C25.6008 7.51584 25.618 7.40583 25.5837 7.33813C25.5581 7.26197 25.618 7.08427 25.7121 6.94887C25.9688 6.60192 26.0115 6.26344 25.8575 5.89956C25.7121 5.55261 25.2843 5.24797 24.9335 5.24797C24.6083 5.24797 24.1805 4.98565 24.1805 4.78255C24.1805 4.68947 24.1206 4.5033 24.0522 4.37637C23.9324 4.14789 23.9409 4.13943 24.0949 4.18174C24.1891 4.20713 24.3345 4.24944 24.4201 4.27483C24.5056 4.30021 24.7452 4.22405 24.9591 4.11404C25.4468 3.85172 25.4639 3.85172 25.4639 4.13097ZM22.0415 5.16335C22.0415 5.39183 22.5719 5.8911 22.8885 5.95033C23.111 6.00111 23.4019 5.95034 23.7527 5.80648C23.8554 5.76417 23.881 5.8234 23.8554 6.12804C23.8126 6.62731 24.0351 7.07581 24.4201 7.27044C24.7196 7.42276 24.7196 7.42275 24.5056 7.47353C24.1634 7.55815 23.6671 8.15896 23.6671 8.48052V8.74285L23.4789 8.56515C23.0511 8.18435 22.435 8.10819 21.9645 8.38744C21.6222 8.59053 21.4425 8.54822 21.4425 8.24359C21.4425 7.92202 21.0746 7.48199 20.7152 7.36352C20.3473 7.24505 19.9709 7.31274 19.6628 7.57507C19.3548 7.82894 19.0553 7.7697 18.8329 7.42275C18.7388 7.27044 18.5163 7.08427 18.3366 6.99118C18.0543 6.85579 17.9516 6.84733 17.6778 6.93195C17.327 7.03349 16.9077 7.44814 16.9077 7.68508C16.9077 7.85432 16.5227 8.04895 16.343 7.98126C16.1633 7.91356 16.1976 7.84586 16.5056 7.69354C16.8564 7.53276 17.096 7.08427 17.0617 6.66962C17.0275 6.25497 17.173 6.2042 17.481 6.50884C18.02 7.03349 18.8158 6.88117 19.2008 6.17035C19.4831 5.6457 19.6029 5.60339 19.9366 5.91648C20.0821 6.06034 20.3302 6.2042 20.4842 6.22959C21.066 6.34806 21.7848 5.78109 21.7848 5.21413C21.7848 5.07873 21.8276 4.99411 21.9131 4.99411C21.9816 4.99411 22.0415 5.07027 22.0415 5.16335ZM30.341 5.7557C30.5549 5.81494 30.7431 5.81494 30.8886 5.7557C31.0511 5.69647 31.1624 5.70493 31.2822 5.77263C31.4276 5.86572 31.4276 5.8911 31.3078 6.12804C31.1538 6.42422 31.1966 6.93195 31.4105 7.24505C31.5987 7.53276 32.0865 7.72739 32.4544 7.65969C32.6768 7.61738 32.7367 7.63431 32.7367 7.73586C32.7367 7.81202 32.8137 7.91356 32.9079 7.9728C33.1218 8.10819 33.1218 8.14204 32.9164 8.47206L32.7453 8.74285L32.6255 8.44668C32.3945 7.89664 31.8041 7.63431 31.1624 7.81201C30.9485 7.87125 30.9228 7.86279 30.9827 7.72739C31.0169 7.64277 31.0683 7.37198 31.0939 7.13504C31.1282 6.70347 31.1196 6.67808 30.7859 6.34806C30.495 6.06034 30.3923 6.00957 30.0929 6.00957C29.8961 6.00957 29.6565 6.05188 29.5624 6.09419C29.3656 6.2042 29.3656 6.17881 29.5453 5.67109L29.6907 5.2649L29.8447 5.46799C29.9388 5.578 30.1528 5.70493 30.341 5.7557ZM12.7409 8.14204C12.7237 8.60746 12.7066 8.67516 12.5697 8.64977C12.0906 8.55668 11.6884 8.599 11.4574 8.76824L11.2178 8.94594L11.2093 8.36205C11.2007 8.04895 11.2093 7.78663 11.2178 7.78663C11.2264 7.78663 11.389 7.84586 11.5686 7.92202C11.8339 8.03203 11.9537 8.04049 12.2104 7.96433C12.3815 7.91356 12.5697 7.81201 12.6296 7.74431C12.6895 7.67662 12.7408 7.61738 12.7494 7.61738C12.7494 7.61738 12.7494 7.85432 12.7409 8.14204ZM14.6917 9.51291C14.6232 9.55522 14.3665 9.58061 14.1184 9.57215C13.759 9.55522 13.6393 9.58907 13.4168 9.77524C13.0232 10.1053 12.8863 10.8076 13.1601 11.1461C13.3398 11.3746 13.1515 11.5692 12.7066 11.6115C12.3986 11.6454 12.2104 11.7131 12.0478 11.8823L11.8082 12.1023L11.8424 11.8062C11.8681 11.62 11.8168 11.3915 11.697 11.1715C11.4574 10.7145 11.4574 10.5453 11.7141 10.6384C12.4927 10.9007 13.2029 10.3168 13.1259 9.4706C13.0831 9.10673 13.1002 9.05595 13.22 9.11519C13.297 9.14904 13.5622 9.18289 13.8018 9.18289C14.1783 9.18289 14.2895 9.14904 14.4863 8.94594L14.7259 8.709L14.7772 9.07288C14.82 9.35213 14.8029 9.45368 14.6917 9.51291ZM11.0296 9.43675C11.0039 9.65677 11.0211 9.91063 11.0895 10.063C11.2435 10.4353 11.0895 10.6638 10.6788 10.6638C10.4991 10.6638 10.2681 10.7315 10.1569 10.8076C9.95152 10.943 9.95152 10.943 10.0029 10.6892C10.0713 10.3507 9.94297 9.92756 9.71195 9.67369C9.46382 9.41983 9.54083 9.35213 9.92586 9.47906C10.1997 9.56368 10.2852 9.55522 10.6189 9.39444C10.8328 9.29289 11.0039 9.17442 11.0039 9.13211C11.0039 9.0898 11.0211 9.05595 11.0467 9.05595C11.0638 9.05595 11.0638 9.2252 11.0296 9.43675ZM9.74617 11.4592C9.68628 11.8231 9.76329 12.1277 9.94297 12.3139C10.1825 12.5424 10.0371 12.8301 9.6435 12.8978C9.45526 12.9232 9.24991 13.0078 9.18146 13.0755C9.07023 13.1855 9.06168 13.1432 9.0959 12.7116C9.13868 12.2716 9.12157 12.1954 8.91622 11.9585C8.64242 11.6369 8.63387 11.51 8.89055 11.51C8.99323 11.51 9.2328 11.4338 9.42104 11.3492C9.60928 11.2561 9.77184 11.18 9.7804 11.18C9.78896 11.1715 9.77184 11.3069 9.74617 11.4592ZM33.849 11.5184C33.849 11.8062 34.371 12.2547 34.7817 12.3224C34.9699 12.3562 35.1325 12.4154 35.1325 12.4577C35.1325 12.5001 34.9785 12.6778 34.7988 12.847C34.3881 13.2363 34.294 13.5409 34.4565 13.9979C34.5506 14.2771 34.6533 14.3871 34.9613 14.5394C35.295 14.7002 35.449 14.861 35.4662 15.081C35.4747 15.1149 35.3977 15.1656 35.3036 15.191C35.2095 15.2249 34.9956 15.3772 34.8416 15.538L34.5592 15.8257V15.6057C34.5592 15.2926 34.2854 14.9625 33.8661 14.7679C33.6694 14.6748 33.5068 14.5564 33.5068 14.4971C33.5068 14.4379 33.6437 14.2602 33.8148 14.1079C34.0629 13.8879 34.1314 13.7525 34.1656 13.4309C34.2084 13.0924 34.1827 12.9909 33.9859 12.737C33.8576 12.5762 33.6608 12.4154 33.541 12.39C33.1731 12.297 33.1474 12.0262 33.4554 11.6623C33.7635 11.3069 33.849 11.273 33.849 11.5184ZM11.7312 12.4408C11.697 12.5424 11.7398 12.8216 11.8168 13.067C11.9793 13.5832 11.9023 13.8794 11.5943 13.8794C11.4916 13.8794 11.2863 14.0063 11.1408 14.1502L10.867 14.4294L10.9013 14.0063C10.9269 13.6425 10.9013 13.5324 10.7301 13.3293C10.6104 13.1855 10.4991 12.9993 10.4735 12.9062C10.4392 12.7539 10.4735 12.737 10.7986 12.7285C11.0638 12.7201 11.2521 12.6524 11.4489 12.5001C11.7911 12.2293 11.7997 12.2293 11.7312 12.4408ZM8.81355 13.6255C8.6852 14.0063 8.7451 14.2517 9.07023 14.6833C9.30981 14.9964 9.24136 15.318 8.93333 15.318C8.51408 15.318 8.09483 15.8172 8.09483 16.325V16.5704L7.84669 16.325C7.7098 16.1896 7.53011 16.0796 7.46167 16.0796C7.21354 16.0796 7.31621 15.8511 7.59001 15.7918C7.73546 15.7665 7.98359 15.6141 8.14616 15.4534C8.40285 15.1995 8.43707 15.1149 8.43707 14.7341C8.43707 14.3787 8.39429 14.2602 8.17183 14.0063C7.94937 13.7525 7.93226 13.7101 8.0606 13.7101C8.18039 13.7101 8.65954 13.4817 8.91622 13.2955C8.92478 13.287 8.882 13.4394 8.81355 13.6255ZM10.9868 15.4534C11.0382 15.5549 11.1836 15.6988 11.3034 15.7749C11.543 15.9272 11.5858 16.0796 11.389 16.0796C11.3205 16.0796 11.1066 16.1388 10.9184 16.215C10.5333 16.3673 10.2339 16.8158 10.2339 17.2389C10.2339 17.4927 10.5162 18.0259 10.6531 18.0259C10.7473 18.0259 10.7216 18.4913 10.6189 18.7198C10.5162 18.9567 10.405 18.8975 10.405 18.6097C10.405 18.4659 10.3366 18.2374 10.2595 18.102C10.1312 17.8905 9.99431 17.8058 9.53227 17.6535C9.34403 17.5943 9.32692 17.4335 9.5066 17.4335C9.67772 17.4335 10.0542 17.0273 10.2082 16.6804C10.3708 16.308 10.2938 16.0119 9.9173 15.5803C9.74617 15.3857 9.6435 15.191 9.68628 15.1572C9.72906 15.1233 9.9173 15.0472 10.1141 14.9964C10.3023 14.9372 10.5333 14.8187 10.6275 14.7171L10.79 14.5394L10.8328 14.9033C10.8585 15.1064 10.9269 15.3518 10.9868 15.4534ZM34.6191 16.3842C34.6191 16.5873 34.9271 16.9681 35.2266 17.1458C35.3036 17.1881 35.3892 17.3066 35.4234 17.4081C35.4662 17.5435 35.4405 17.6027 35.3036 17.6451C35.2009 17.6789 34.987 17.8312 34.833 17.992C34.5678 18.2543 34.5335 18.2628 34.5335 18.1105C34.5335 17.8228 34.294 17.442 34.0202 17.3066C33.6522 17.1204 33.6865 16.8581 34.1057 16.5619C34.294 16.4265 34.448 16.2657 34.448 16.198C34.448 16.1303 34.4907 16.0965 34.5335 16.1219C34.5849 16.1473 34.6191 16.2742 34.6191 16.3842ZM8.49697 17.1796C8.62531 17.1881 8.83922 17.3912 8.89911 17.5689C8.94189 17.6958 8.89911 17.772 8.75365 17.8482C8.46274 18.0005 8.26595 18.3813 8.26595 18.7875C8.26595 19.0921 8.31729 19.1936 8.59964 19.4729C8.8221 19.6929 9.01034 19.8029 9.16435 19.8029C9.34403 19.8029 9.38681 19.8368 9.34403 19.9383C9.30981 20.0145 9.33548 20.1329 9.38681 20.1922C9.46382 20.2768 9.42959 20.3699 9.25847 20.573C9.13868 20.7168 9.03601 20.9115 9.03601 21.013C9.03601 21.1822 9.01034 21.1738 8.81355 20.9199C8.49697 20.5307 8.14616 20.3699 7.71835 20.4291C7.41888 20.4714 7.39322 20.463 7.53011 20.3699C8.14616 19.9891 8.35151 19.4644 8.10338 18.9144C7.98359 18.6436 7.85525 18.5167 7.59001 18.3982C7.40177 18.3051 7.24776 18.2205 7.2392 18.1951C7.2392 18.1697 7.36755 18.0936 7.52156 18.0174C7.90659 17.8312 8.1975 17.3066 8.13761 16.9258L8.08627 16.6296L8.25739 16.9004C8.36007 17.0527 8.46274 17.1796 8.49697 17.1796ZM34.8501 19.3544C34.9613 19.5067 35.1154 19.6337 35.1838 19.6337C35.2437 19.6337 35.3036 19.6675 35.3036 19.7098C35.3036 19.9214 35.1752 20.0568 34.987 20.0568C34.7218 20.0568 34.2255 20.3445 34.1057 20.5645C33.9004 20.9453 34.0629 21.7238 34.3966 21.9946C34.6619 22.2146 34.5592 22.4008 34.1571 22.46C33.6351 22.5362 33.2501 22.9593 33.2501 23.4501C33.2501 23.8224 33.4298 24.2371 33.6437 24.3556C33.8661 24.4825 33.7207 24.601 33.2843 24.6517C33.0704 24.6687 32.7795 24.7702 32.6512 24.8718L32.403 25.0495L32.4544 24.7533C32.48 24.5925 32.4544 24.3471 32.3945 24.2032C32.3089 24.0086 32.3089 23.924 32.3945 23.8224C32.4458 23.7547 32.4715 23.6701 32.4458 23.6194C32.4116 23.577 32.5057 23.4586 32.6512 23.357C33.0105 23.1032 33.1902 22.7308 33.1218 22.3754C33.0619 22.02 32.7111 21.6054 32.3603 21.4615C32.1121 21.36 32.1207 21.3515 32.5827 21.3938C33.0704 21.4277 33.0875 21.4276 33.4212 21.0892C33.8063 20.7168 33.8747 20.336 33.6351 19.8875C33.5581 19.7352 33.541 19.6252 33.5923 19.5914C33.6437 19.566 33.6779 19.4644 33.6779 19.3713C33.6779 19.2783 33.7635 19.1767 33.8833 19.1344C33.9945 19.0921 34.1742 18.9398 34.2854 18.8044L34.4907 18.559L34.5678 18.8213C34.6105 18.9652 34.7389 19.2106 34.8501 19.3544ZM6.79428 20.3022C7.11086 20.4291 7.12797 20.5645 6.89695 21.123C6.7515 21.453 6.84562 21.9354 7.1023 22.2231C7.25632 22.4093 7.39322 22.46 7.77825 22.4939C8.04349 22.5108 8.26595 22.5447 8.26595 22.57C8.26595 22.587 8.15472 22.697 8.01782 22.8154C7.68413 23.0947 7.53867 23.5263 7.65846 23.8817C7.7868 24.2456 8.0606 24.5163 8.40285 24.6264C8.70232 24.7279 8.85633 25.0071 8.70232 25.1595C8.5483 25.3118 8.59109 25.9972 8.77932 26.2934L8.95045 26.5726H8.6082C8.41996 26.5726 8.26595 26.5303 8.26595 26.488C8.26595 26.4373 8.20606 26.4034 8.13761 26.4034C8.06916 26.4034 8.00926 26.3611 8.00926 26.3188C8.00926 26.268 8.04349 26.2342 8.09483 26.2342C8.24028 26.2342 8.43707 25.7434 8.43707 25.3795C8.43707 25.0833 8.38574 24.9733 8.10338 24.7025C7.82958 24.4233 7.71835 24.3725 7.41888 24.3725C7.1622 24.3725 7.06808 24.3386 7.06808 24.2456C7.06808 24.1779 7.03385 24.1186 6.98252 24.1186C6.93974 24.1186 6.99963 23.9832 7.11086 23.814C7.3761 23.4332 7.38466 22.9932 7.15364 22.6124C6.98252 22.3416 6.54615 22.0877 6.24668 22.0877C6.10978 22.0877 5.87877 21.8677 5.87021 21.7323C5.87021 21.6984 5.93866 21.6561 6.02422 21.6307C6.22957 21.563 6.55471 20.9876 6.55471 20.6914C6.55471 20.573 6.51193 20.3868 6.46059 20.2937C6.40925 20.2006 6.40069 20.1414 6.44348 20.1583C6.4777 20.1752 6.64027 20.2429 6.79428 20.3022ZM9.47238 22.1215C9.58361 22.1977 9.81462 22.2569 9.99431 22.2569C10.2595 22.2569 10.3194 22.2908 10.3194 22.4177C10.3194 22.5108 10.3622 22.6124 10.405 22.6377C10.4563 22.6716 10.4307 22.7816 10.3194 22.9339C10.0456 23.3147 10.02 23.6363 10.2253 24.0594C10.4307 24.474 10.6788 24.6264 11.1751 24.6264C11.6114 24.6264 11.8596 24.8548 11.8596 25.261C11.8596 26.0734 12.7066 26.5811 13.3997 26.1919C13.7676 25.9803 13.8275 26.0311 13.8275 26.5219C13.8275 26.8942 13.8703 27.0296 14.05 27.2412C14.3665 27.6135 15.0082 27.715 15.4189 27.4612C15.5216 27.3935 15.6842 27.3681 15.7869 27.3935C15.9323 27.4273 15.9665 27.5035 15.9665 27.7658C15.9665 28.2482 16.3173 28.6036 16.8478 28.6628C17.3013 28.7136 17.7291 28.5782 17.8575 28.3412C17.9773 28.1043 18.2767 28.3074 18.2767 28.629C18.2767 28.7644 18.3195 28.9505 18.3708 29.0521C18.4735 29.2382 18.4735 29.2382 18.2938 29.0775C18.1912 28.9928 17.9345 28.8997 17.7206 28.8744C17.404 28.8405 17.2756 28.8744 17.0703 29.0182C16.7537 29.2552 16.497 29.1875 16.2489 28.8151C16.0607 28.5359 15.6585 28.3497 15.2393 28.3497C14.9826 28.3497 14.435 28.7474 14.3237 29.0098L14.2296 29.2382L14.1697 28.9421C14.0414 28.2566 13.6649 27.9266 13.0232 27.9266C12.7836 27.9266 12.5184 27.9858 12.4243 28.0535C12.2018 28.2228 12.1077 28.1382 12.2104 27.8674C12.39 27.3935 12.0392 26.6403 11.5601 26.488C11.3975 26.4373 11.1152 26.4034 10.9355 26.4203C10.6617 26.4457 10.6189 26.4203 10.6446 26.2765C10.6617 26.1834 10.6959 25.9803 10.7216 25.828C10.7815 25.4726 10.6189 25.1002 10.2938 24.8294C10.0628 24.6348 9.96864 24.6094 9.57505 24.6433L9.13013 24.6856L9.42104 24.4233C10.0285 23.8901 9.87452 22.9762 9.13013 22.6377C8.72798 22.46 8.6852 22.3416 8.85633 21.8592L8.98467 21.5123L9.13013 21.7492C9.21569 21.8761 9.3697 22.0454 9.47238 22.1215ZM15.051 24.2794C15.0168 24.584 15.0425 24.7533 15.1537 24.9395C15.4275 25.3964 15.9922 25.5995 16.4029 25.3795C16.5313 25.3202 16.6425 25.3202 16.8222 25.4049C17.0361 25.498 17.0789 25.5657 17.0789 25.8195C17.0789 26.0057 17.1473 26.2172 17.2585 26.3526L17.4297 26.5726H17.0789C16.7024 26.5726 16.4628 26.6657 16.1719 26.9281C15.9665 27.1142 15.8382 27.0211 15.9238 26.7504C15.9837 26.5473 15.7697 26.0141 15.5216 25.7518C15.3762 25.5995 15.2478 25.5572 14.9056 25.5572C14.666 25.5572 14.4179 25.591 14.3494 25.6333C14.1526 25.7603 13.9986 25.6418 13.9986 25.3541C13.9986 25.2102 13.9045 24.931 13.7847 24.7279L13.5794 24.3725H13.836C14.1184 24.3725 14.512 24.2032 14.6746 24.0001C14.743 23.924 14.8628 23.8648 14.9484 23.8648C15.0853 23.8648 15.0938 23.9155 15.051 24.2794ZM32.2747 25.7264C32.2747 26.0057 32.326 26.2003 32.4287 26.3103C32.6597 26.5557 32.5314 26.6657 32.1806 26.5219C31.7784 26.3611 31.4619 26.3696 31.1367 26.5726L30.8544 26.7419V26.4796C30.8544 26.3357 30.8116 26.1495 30.7602 26.0565C30.7175 25.9634 30.7003 25.8195 30.726 25.7264C30.7688 25.591 30.8372 25.5741 31.2394 25.6164C31.6159 25.6587 31.7356 25.6333 31.941 25.4895C32.0693 25.3879 32.1977 25.3033 32.2234 25.3033C32.249 25.3033 32.2661 25.4895 32.2747 25.7264ZM19.3035 26.4034C19.3377 26.4034 19.389 26.5642 19.4233 26.7588C19.4575 26.9619 19.5687 27.2073 19.6628 27.3089L19.8425 27.5035H19.466C19.2265 27.5035 18.9612 27.5796 18.7131 27.715C18.2168 28.0028 18.1227 27.9858 18.1227 27.6304C18.1227 27.4527 18.0371 27.1989 17.9174 27.0127L17.7035 26.6996L18.0543 26.725C18.3195 26.7419 18.4735 26.6996 18.7045 26.5388C18.8671 26.4203 19.0553 26.3442 19.1152 26.3611C19.1837 26.3865 19.2607 26.4034 19.3035 26.4034ZM10.3194 26.7334C10.3194 26.7757 10.2595 26.945 10.1825 27.1227C10.0285 27.495 10.0799 27.7743 10.3708 28.1551C10.636 28.502 11.0895 28.6543 11.4317 28.519C11.5686 28.4682 11.7569 28.4428 11.8424 28.4766C11.9879 28.519 12.0136 28.5951 12.005 28.8913C11.9879 29.1959 12.0392 29.3229 12.2703 29.6106C12.5013 29.8983 12.5269 29.9575 12.3986 29.9575C12.313 29.9575 12.0991 30.0337 11.928 30.1268C11.543 30.3299 11.3034 30.2791 11.4403 30.0252C11.5601 29.8052 11.4916 29.2552 11.3034 28.9759C11.0296 28.5613 10.1911 28.4089 9.83174 28.7051C9.75473 28.7644 9.67772 28.739 9.55794 28.5951C9.40393 28.4089 9.40393 28.4005 9.57505 28.1212C9.77184 27.7827 9.72906 27.3342 9.46382 26.9788L9.2927 26.7504L9.66061 26.7165C9.85741 26.6996 10.0884 26.6827 10.174 26.6742C10.251 26.6657 10.3194 26.6911 10.3194 26.7334ZM26.5335 27.3342C26.5677 27.4781 26.7046 27.6981 26.8329 27.8335L27.0811 28.0789L26.7303 28.1297C26.3281 28.1974 25.9345 28.5528 25.849 28.9421C25.8147 29.0859 25.7206 29.2382 25.6265 29.2805C25.4896 29.3567 25.4468 29.3398 25.3698 29.179C25.019 28.4259 23.7784 28.5105 23.4104 29.3144C23.2736 29.6021 23.2479 29.619 23.2051 29.4667C23.1709 29.3652 23.0939 29.3059 23.0254 29.3313C22.957 29.3567 22.8885 29.2975 22.8543 29.179C22.8201 29.069 22.7174 28.8828 22.6318 28.7559C22.5377 28.6374 22.4693 28.519 22.4693 28.4936C22.4693 28.4766 22.6489 28.4343 22.8714 28.4089C23.1965 28.3751 23.3334 28.3074 23.5473 28.0705C23.8896 27.7066 24.1891 27.6135 24.3345 27.842C24.5056 28.1212 24.9249 28.282 25.3014 28.2228C25.695 28.1551 26.1142 27.7912 26.1912 27.4527C26.2853 27.0465 26.311 26.9788 26.3966 27.0296C26.4394 27.0635 26.4992 27.1989 26.5335 27.3342ZM21.742 27.6389C21.7677 27.7912 21.8618 28.0028 21.9559 28.1212C22.127 28.3328 22.127 28.3328 21.9559 28.2905C21.7078 28.2228 21.0318 28.502 20.8778 28.7305C20.681 29.0351 20.4158 28.9167 20.4158 28.5274C20.4158 28.3412 20.3388 28.1043 20.2104 27.9266L20.0136 27.6304H20.4072C20.7238 27.6304 20.8693 27.5796 21.0917 27.4019C21.3227 27.2073 21.3912 27.1819 21.5281 27.2665C21.6136 27.3258 21.7078 27.4866 21.742 27.6389ZM14.3836 29.8644C14.5719 30.2368 14.9141 30.4653 15.2735 30.4653C15.6585 30.4653 16.1034 30.2029 16.2917 29.8729C16.3687 29.7375 16.4628 29.619 16.4885 29.619C16.5227 29.619 16.5655 29.8052 16.5997 30.0337C16.6596 30.4653 16.9334 30.8037 17.3441 30.9307C17.5837 31.0068 18.0628 30.9137 18.1912 30.7614C18.2511 30.6937 18.388 30.6345 18.4906 30.6345C18.6446 30.6345 18.7045 30.6937 18.7559 30.9053C18.9184 31.6669 19.6115 31.9546 20.3559 31.5738C20.527 31.4892 20.6725 31.4469 20.6725 31.4807C20.6725 31.523 20.6382 31.5823 20.5869 31.6076C20.45 31.6923 20.4842 32.4031 20.6468 32.6654C20.7238 32.8008 20.9206 32.9785 21.0746 33.0631L21.357 33.2155L21.1174 33.3424C20.6639 33.5878 20.4928 33.7401 20.4158 34.0109C20.3388 34.2902 20.4158 34.7048 20.5955 34.9164C20.7152 35.0602 20.6896 35.0602 20.3644 34.9502C20.1334 34.874 20.1163 34.8317 20.142 34.5356C20.1591 34.3409 20.1163 34.104 20.0393 33.9432C19.7655 33.4185 18.927 33.2324 18.4393 33.5878C18.1227 33.8163 18.02 33.757 18.02 33.3593C18.02 32.5131 17.1559 32.0054 16.3601 32.3777C16.0093 32.5469 15.7869 32.4962 15.8553 32.2592C15.8981 32.0731 15.6927 31.6161 15.4275 31.3284C15.282 31.1761 15.1623 31.1422 14.7687 31.1422C14.5034 31.1422 14.2211 31.193 14.127 31.2607C13.8532 31.4469 13.605 31.2945 13.5366 30.9053C13.5109 30.7022 13.3826 30.4568 13.2286 30.296C13.0917 30.1437 12.9719 30.0168 12.9719 29.9998C12.9719 29.9914 13.066 29.9744 13.1772 29.9744C13.297 29.9744 13.4938 29.8983 13.6307 29.8052C13.9729 29.5513 14.2211 29.5683 14.3836 29.8644Z"/>
</mask>
<path d="M20.6211 0.0860481C20.3901 0.179134 19.988 0.686863 19.988 0.881493C19.988 0.991501 19.9452 1.01689 19.7997 0.966114C19.62 0.915344 19.3976 0.703789 19.389 0.593781C19.389 0.568394 19.2778 0.483772 19.1409 0.399147C18.8243 0.212982 18.3281 0.212982 18.02 0.39069C17.789 0.534546 17.5067 0.991501 17.5067 1.22844C17.5067 1.31306 17.4211 1.35538 17.2671 1.35538C17.1387 1.35538 16.9762 1.40615 16.9163 1.45692C16.8307 1.55 16.7965 1.54154 16.728 1.41461C16.5141 1.05074 15.8211 0.906879 15.3676 1.14382C15.0853 1.28768 14.7687 1.82079 14.7687 2.14236C14.7687 2.48084 14.5633 2.58239 14.2211 2.42161C13.8275 2.23544 13.3483 2.25237 13.0574 2.45546C12.7751 2.65009 12.5441 3.17474 12.604 3.47938C12.6638 3.80941 12.4499 3.93634 12.1248 3.77555C11.4061 3.40322 10.5761 3.90249 10.5761 4.69793C10.5761 4.8164 10.5248 4.96872 10.4735 5.02796C10.4136 5.09565 10.2767 5.24797 10.1654 5.36644C10.0285 5.52723 9.93441 5.56954 9.86596 5.51876C9.52371 5.25644 8.8221 5.37491 8.48841 5.73878C8.29162 5.9588 8.21461 6.585 8.34296 6.94887L8.43707 7.21966L8.12905 7.16889C7.75258 7.10965 7.31621 7.27043 7.11942 7.54122C6.93974 7.79509 6.93974 8.48052 7.11942 8.81901C7.20498 8.98825 7.22209 9.10673 7.17075 9.1575C7.11942 9.20827 7.1023 9.30136 7.12797 9.36059C7.1622 9.44521 7.09375 9.47906 6.90551 9.47906C6.56326 9.47906 6.1269 9.65677 5.92155 9.88525C5.83598 9.98679 5.74187 10.2407 5.72475 10.4522C5.68197 10.7653 5.7162 10.8922 5.88732 11.1546C6.1269 11.51 6.1269 12.0177 5.88732 12.0177C5.81032 12.0177 5.58785 12.0939 5.39106 12.1954C5.10015 12.3308 4.99748 12.4408 4.87769 12.737C4.70656 13.177 4.7579 13.4394 5.08304 13.8117C5.3825 14.1671 5.35684 14.4379 5.01459 14.5141C4.87769 14.5479 4.64667 14.7002 4.50121 14.861C4.03918 15.3857 4.20175 16.1557 4.83491 16.4773C5.00603 16.5619 5.16004 16.6381 5.17716 16.6465C5.19427 16.6634 5.16004 16.7227 5.10871 16.7904C5.04881 16.8581 5.02314 16.9512 5.04881 17.0019C5.07448 17.0442 4.99748 17.1204 4.86058 17.1712C4.38998 17.3489 4.15897 17.6789 4.15897 18.1782C4.15897 18.5167 4.46699 18.9482 4.79213 19.0836C5.12582 19.219 5.28839 19.6083 5.06592 19.7352C4.99748 19.7775 4.81779 19.9045 4.66378 20.0314C4.43276 20.226 4.4071 20.3022 4.44132 20.556C4.53544 21.2838 4.76646 21.5546 5.46807 21.7831C5.59641 21.8254 5.61352 21.8846 5.57074 22.1046C5.53652 22.2569 5.43384 22.4854 5.34828 22.6124C5.10015 22.9508 5.13437 23.5347 5.40817 23.8563C5.61352 24.1017 6.21246 24.3471 6.37503 24.254C6.41781 24.2286 6.52904 24.2794 6.63171 24.364C6.79428 24.5079 6.80284 24.5333 6.67449 24.6264C6.49481 24.7787 6.29802 25.1764 6.29802 25.3879C6.29802 25.9295 6.84562 26.488 7.3761 26.488C7.53011 26.488 7.70124 26.5557 7.79536 26.6573C7.94081 26.8181 7.94081 26.835 7.81247 26.9788C7.39322 27.4358 7.48733 28.1466 8.01782 28.502C8.26595 28.6713 8.37718 28.6967 8.76221 28.6543C9.11301 28.612 9.20713 28.629 9.20713 28.722C9.20713 28.7897 9.26703 28.9082 9.34403 28.9759C9.45526 29.0859 9.46382 29.1621 9.38681 29.3906C9.31836 29.6021 9.31836 29.746 9.39537 29.966C9.52371 30.3299 9.63494 30.4399 10.0285 30.6006C10.3023 30.7107 10.405 30.7191 10.7387 30.626C11.0296 30.5414 11.1323 30.5414 11.1579 30.6176C11.1751 30.6768 11.235 30.7191 11.3034 30.7191C11.3719 30.7191 11.4232 30.8714 11.4489 31.1422C11.543 32.0477 12.5269 32.4539 13.1772 31.8615C13.3141 31.7346 13.4596 31.6838 13.5622 31.7092C13.7077 31.743 13.7334 31.8192 13.7248 32.1661C13.7163 32.6908 13.8874 32.9447 14.3751 33.1308C14.6831 33.2493 14.8115 33.2578 15.051 33.1816C15.2222 33.1224 15.4018 33.0208 15.4532 32.9531C15.5131 32.8939 15.6329 32.8347 15.7184 32.8347C15.8553 32.8347 15.881 32.9024 15.881 33.2493C15.881 33.7063 16.0778 34.0194 16.4799 34.2309C16.8136 34.4002 17.0617 34.3917 17.4382 34.1886C17.8318 33.9855 18.02 34.0447 18.02 34.3748C18.02 34.7386 18.2425 35.1448 18.5249 35.3141C18.8671 35.5172 19.3976 35.5002 19.6799 35.2802C19.8938 35.111 19.9024 35.111 19.9024 35.2718C19.9024 35.3648 19.9623 35.4579 20.0307 35.4918C20.142 35.5341 20.142 35.5595 19.9965 35.7033C19.7227 35.9741 19.6029 36.4988 19.7313 36.8119C19.834 37.0573 20.2104 37.4381 20.4329 37.5058C20.5013 37.5312 20.4757 37.5989 20.3473 37.7258C19.8853 38.1828 20.1334 39.5198 20.6896 39.5198C20.8778 39.5198 20.8949 39.3844 20.7067 39.2828C20.6211 39.2405 20.604 39.1813 20.6468 39.1559C20.6981 39.1221 20.8008 39.1728 20.8864 39.2659C21.2201 39.6298 21.7848 39.3421 21.7848 38.809C21.7848 38.3097 21.6821 37.9881 21.434 37.7512L21.1944 37.5142L21.4425 37.3281C22.0072 36.9219 21.9302 35.8895 21.3056 35.5256C20.9634 35.331 20.9377 35.2718 21.2115 35.2887C21.7334 35.331 21.9046 35.2802 22.1784 34.9841C22.4179 34.7386 22.4693 34.6202 22.4693 34.3325C22.4693 34.1294 22.3923 33.8586 22.2981 33.6978C22.1698 33.4947 22.1441 33.3762 22.2126 33.2662C22.2554 33.1816 22.2725 33.0885 22.2468 33.0631C22.2211 33.0462 22.2981 32.877 22.4265 32.7077C22.7602 32.2169 22.726 31.7938 22.3067 31.3876C22.0415 31.1168 21.9131 31.0576 21.6479 31.0576C21.2714 31.0491 20.9548 30.7868 20.758 30.3129C20.6297 29.9998 20.3302 29.7544 19.9024 29.636C19.7398 29.5852 19.6628 29.5429 19.7398 29.5429C19.8083 29.5344 19.9623 29.4413 20.065 29.3313C20.2275 29.1621 20.2874 29.1452 20.4671 29.2298C20.5783 29.2805 20.6725 29.399 20.6725 29.4921C20.6725 29.9152 21.2543 30.4653 21.6992 30.4653C21.9644 30.4653 22.3409 30.2452 22.5719 29.966C22.7602 29.729 22.7858 29.7206 23.0939 29.8137C23.265 29.8729 23.4104 29.966 23.4104 30.0252C23.4104 30.0929 23.5388 30.2706 23.7014 30.4314C23.9495 30.6768 24.0522 30.7191 24.3944 30.7191C24.8992 30.7191 25.2244 30.4991 25.404 30.0506C25.6008 29.5767 25.8147 29.5344 26.1912 29.9067C26.773 30.4906 27.7142 30.2452 27.9538 29.4498C28.0736 29.069 28.1848 29.0521 28.6126 29.3482C29.2372 29.7883 29.9388 29.636 30.264 28.9759C30.3581 28.7728 30.418 28.5443 30.3923 28.4766C30.3667 28.4005 30.3923 28.3497 30.4693 28.3497C30.5292 28.3497 30.649 28.2905 30.726 28.2143C30.8544 28.0874 30.8715 28.0874 31.0255 28.2228C31.2651 28.4343 31.8811 28.4851 32.2062 28.3159C32.5656 28.1297 32.771 27.732 32.7111 27.3258C32.6597 26.9534 32.8308 26.7419 33.1816 26.7419C33.5496 26.7419 34.0202 26.4965 34.1913 26.2088C34.4137 25.8534 34.4052 25.5318 34.1742 25.1256C33.9603 24.7448 34.0373 24.5925 34.4822 24.5163C34.9357 24.4402 35.2095 24.2286 35.3121 23.8394C35.4148 23.4501 35.3121 22.9508 35.0897 22.7647C35.0212 22.7054 34.9613 22.5531 34.9613 22.4177C34.9613 22.2231 34.9956 22.1723 35.1581 22.1723C35.4405 22.1723 35.8769 21.8761 36.0309 21.5884C36.2533 21.1569 36.1849 20.7591 35.7999 20.3445C35.663 20.1922 35.6544 20.1329 35.74 19.9468C35.7913 19.8283 35.9539 19.6844 36.0908 19.6252C36.6384 19.4052 36.8608 18.5336 36.4929 18.0766C36.3988 17.9582 36.2105 17.7974 36.0822 17.7381C35.7228 17.552 35.7571 17.2558 36.1592 17.0696C36.8009 16.7735 36.8865 15.8511 36.3218 15.3857C36.1678 15.2503 35.9881 15.1487 35.9282 15.1487C35.8597 15.1487 35.817 15.0472 35.817 14.9118C35.817 14.751 35.9025 14.6156 36.1164 14.4464C36.4245 14.201 36.5785 13.8371 36.5186 13.4478C36.4843 13.194 36.0052 12.6524 35.7485 12.5762C35.5346 12.5085 35.4576 12.2208 35.6202 12.0939C35.817 11.9246 35.9881 11.5438 35.9881 11.2561C35.9881 10.7484 35.663 10.3761 35.0811 10.2322C34.6362 10.1222 34.5763 9.94448 34.8073 9.48752C35.0298 9.03903 34.9613 8.57361 34.6191 8.25205C34.4052 8.05742 34.2683 8.00664 33.7891 7.96433C33.233 7.91356 33.2159 7.9051 33.1474 7.64277C33.0961 7.43122 33.1132 7.31274 33.2159 7.15196C33.695 6.42422 33.0362 5.43414 32.1292 5.53569C31.5987 5.58646 31.4875 5.5103 31.6159 5.16335C31.7613 4.74024 31.7271 4.36791 31.5303 4.11404C31.1709 3.65709 30.495 3.50477 30.1014 3.77555C29.9132 3.90249 29.8961 3.90249 29.8533 3.74171C29.8276 3.64862 29.7592 3.54708 29.6993 3.52169C29.6223 3.4963 29.5966 3.3863 29.6223 3.20013C29.6822 2.82779 29.4255 2.38776 29.049 2.18467C28.6811 1.99004 28.4073 1.99004 27.988 2.20159C27.8083 2.29468 27.6543 2.36237 27.6372 2.34545C27.5688 2.26083 27.3634 1.77848 27.3206 1.60078C27.1324 0.822258 26.0372 0.526085 25.4982 1.10997C25.4126 1.20306 25.2928 1.25383 25.2244 1.22844C25.1645 1.20306 25.0361 1.22844 24.942 1.27075C24.8051 1.34691 24.7794 1.32999 24.7794 1.18613C24.7794 0.619167 24.2404 0.0860481 23.6586 0.0860481C23.3677 0.0860481 22.9313 0.32299 22.7003 0.619167C22.5377 0.822258 22.1441 0.856106 22.0842 0.669937C22.0586 0.585316 21.896 0.399147 21.7334 0.263756C21.4254 -0.0070343 21.0147 -0.0747337 20.6211 0.0860481ZM20.1163 1.52462C20.142 1.60924 20.2874 1.78695 20.4329 1.90542C20.6553 2.09159 20.7751 2.12543 21.1003 2.10005L21.5024 2.07466L21.3313 2.41315C21.2372 2.59932 21.1431 2.76856 21.1345 2.77702C21.1259 2.79395 21.0489 2.6924 20.9805 2.54854C20.6126 1.85464 19.4404 1.86311 19.081 2.56547C19.004 2.70932 18.927 2.85318 18.9099 2.87011C18.8842 2.89549 18.3623 2.38776 18.3623 2.33699C18.3623 2.32853 18.4906 2.32006 18.6532 2.3116C19.0382 2.30314 19.3462 2.07466 19.5345 1.66848C19.6971 1.31306 20.0222 1.22844 20.1163 1.52462ZM15.6329 3.13243C15.7184 3.13243 15.7954 3.16628 15.7954 3.21705C15.7954 3.25937 15.7184 3.30168 15.6243 3.30168C14.9227 3.30168 14.4863 4.18174 14.8115 4.9518C14.8799 5.11258 14.8713 5.11258 14.7173 4.98565C14.4435 4.75717 14.0328 4.65562 13.7077 4.74871C13.297 4.85872 12.8863 5.34106 12.8863 5.71339C12.8863 6.08573 12.8007 6.12804 12.3387 5.97572C11.4831 5.68801 10.7729 6.30574 10.8585 7.2789C10.8756 7.4566 10.8414 7.49045 10.6617 7.46507C10.5419 7.4566 10.328 7.43968 10.174 7.42275C9.90874 7.40583 9.90874 7.40583 10.0542 7.23658C10.4221 6.83886 10.4991 6.40729 10.2852 5.99265C10.174 5.78955 10.1825 5.7557 10.3109 5.63723C10.3964 5.56107 10.5077 5.50184 10.5676 5.50184C10.6189 5.50184 10.6874 5.45107 10.713 5.38337C10.7473 5.29029 10.8243 5.30721 11.0724 5.47646C11.5173 5.77263 11.9708 5.70493 12.3473 5.29875C12.5783 5.05334 12.6296 4.92641 12.6296 4.62178C12.6296 4.31714 12.6638 4.24098 12.8179 4.20713C12.912 4.18174 13.0745 4.21559 13.1772 4.28329C13.2713 4.34252 13.5024 4.40176 13.682 4.40176C14.3066 4.40176 14.7687 3.95326 14.7687 3.34399C14.7687 3.17474 14.8115 2.96319 14.8628 2.87011C14.9484 2.70932 14.9569 2.70932 15.205 2.92088C15.3505 3.03935 15.5387 3.13243 15.6329 3.13243ZM21.3997 3.47092C21.5709 3.80095 21.9816 4.0125 22.358 3.95326L22.6489 3.90249L22.3666 4.21559C22.0329 4.58792 21.7848 4.61331 21.3826 4.33406C21.2286 4.22405 20.9634 4.11404 20.7922 4.08866C20.5441 4.04635 20.5099 4.02096 20.6211 3.96173C20.6981 3.91941 20.8607 3.73325 20.9719 3.54708C21.0917 3.36937 21.2029 3.21705 21.2286 3.21705C21.2457 3.21705 21.3227 3.32706 21.3997 3.47092ZM19.0896 3.57246C19.2093 3.83479 19.7056 4.14789 19.9965 4.14789H20.2447L19.9965 4.37637C19.8682 4.51176 19.7056 4.75717 19.6543 4.92641C19.5345 5.29875 19.3291 5.34106 19.081 5.07027C18.6532 4.60485 18.02 4.52023 17.5837 4.8841C17.3099 5.11258 17.0361 5.62031 17.1131 5.74725C17.1387 5.78109 17.0703 5.85725 16.9505 5.90802C16.7879 5.98418 16.6853 5.96726 16.42 5.8234C15.9922 5.59492 15.5216 5.66262 15.1879 6.01803L14.9569 6.26344L14.9997 5.90802C15.0681 5.39183 15.1537 5.31567 15.5815 5.38337C16.0093 5.4426 16.3687 5.29029 16.651 4.93488C16.8051 4.74025 16.8307 4.62177 16.8051 4.24944L16.7623 3.80095L16.9847 4.0125C17.6179 4.61331 18.4735 4.42714 18.7815 3.61478C18.8928 3.33553 18.9783 3.32706 19.0896 3.57246ZM25.4639 4.13097C25.4639 4.68947 26.0372 5.24797 26.6276 5.24797C26.773 5.24797 27.0297 5.15489 27.2009 5.04488L27.5003 4.84179L27.4575 5.12104C27.4319 5.28182 27.4319 5.50184 27.4661 5.61185C27.5859 6.08573 28.1677 6.44114 28.7239 6.37344L29.049 6.32267L29.0062 6.90656C28.972 7.40583 28.9891 7.51584 29.1346 7.68508C29.3656 7.94741 29.8362 8.12511 30.3068 8.12511C30.6747 8.12511 30.7003 8.13358 30.649 8.31128C30.5036 8.81901 30.5036 8.97133 30.649 9.26751C30.8715 9.74139 31.2223 9.91909 31.7784 9.85986C32.018 9.83447 32.2234 9.84293 32.2234 9.86832C32.2234 9.90217 32.0865 10.0714 31.9239 10.2491C31.5816 10.6215 31.5389 10.9261 31.7613 11.3915C31.9068 11.6961 32.3517 12.0177 32.6341 12.0177C32.7624 12.0177 32.7966 12.06 32.7624 12.187C32.7367 12.28 32.6426 12.3985 32.5485 12.4493C32.3089 12.5762 32.0522 13.0332 32.0522 13.3463C32.0522 13.7271 32.3004 14.1163 32.6683 14.2856C33.0619 14.4633 33.1389 14.6325 32.9079 14.8102C32.6255 15.0218 32.3945 15.4195 32.3945 15.6988C32.3945 16.0796 32.6683 16.5196 33.0191 16.6973C33.3357 16.8581 33.464 17.1796 33.2159 17.1796C32.9849 17.1796 32.5656 17.6112 32.48 17.9412C32.3603 18.3813 32.5314 18.7959 32.9421 19.0582C33.1132 19.1682 33.2501 19.2783 33.2501 19.3036C33.2501 19.329 33.0704 19.3375 32.848 19.3206C32.3089 19.2783 31.9324 19.5067 31.7014 20.0145C31.5474 20.3614 31.5389 20.4122 31.6672 20.6999C31.7613 20.9199 31.7699 21.0469 31.71 21.1061C31.6672 21.1484 31.6244 21.2584 31.6244 21.3515C31.6244 21.4361 31.5132 21.5969 31.3763 21.7069C30.8372 22.1639 30.8372 22.8578 31.3763 23.3063L31.6415 23.5263H31.4105C30.6832 23.5263 30.0757 24.3809 30.3752 24.9818C30.5634 25.3456 30.4437 25.4556 29.9303 25.4049C29.3485 25.3541 29.0062 25.5487 28.7838 26.0395C28.6212 26.3949 28.6212 26.4457 28.741 26.7504C28.8522 27.0296 28.8522 27.0804 28.7495 27.0804C28.6811 27.0804 28.6297 26.9958 28.6297 26.8858C28.6297 26.4288 28.1164 26.0649 27.4661 26.0649C27.1324 26.0649 27.0297 26.1072 26.7902 26.3442C26.4821 26.6488 26.2511 26.6827 26.003 26.4711C25.7292 26.2342 25.4811 26.1495 25.0704 26.1495C24.7281 26.1495 24.634 26.1919 24.3859 26.4457C24.2147 26.6319 24.0949 26.8519 24.0778 27.0211C24.0436 27.3596 23.9153 27.3766 23.8211 27.0381C23.7356 26.708 23.1452 26.3188 22.726 26.3188C22.4179 26.3188 22.0329 26.5134 21.8361 26.7842C21.6907 26.9788 21.5281 26.8773 21.5281 26.5896C21.5281 26.0734 20.9719 25.5572 20.4158 25.5572C20.1078 25.5572 19.6885 25.7518 19.5773 25.9464C19.5174 26.0565 19.466 26.0649 19.312 25.9888C19.2093 25.9295 19.1495 25.8534 19.1751 25.8026C19.2692 25.6587 19.0382 25.1425 18.7815 24.931C18.3366 24.5587 17.7976 24.5756 17.2329 24.9818C17.0275 25.1341 16.9847 25.041 17.096 24.694C17.3355 23.9071 16.3687 23.1032 15.6243 23.4755C15.3762 23.594 15.3334 23.594 15.1451 23.4755C15.0254 23.3993 14.9398 23.2555 14.9398 23.1455C14.9398 23.0439 14.8628 22.8578 14.7601 22.7308C14.3494 22.2146 13.605 22.0962 13.1515 22.477C13.0061 22.5954 12.8863 22.6547 12.8863 22.6124C12.8863 22.57 12.9376 22.5108 12.9975 22.4854C13.1687 22.4262 13.3997 21.8931 13.3997 21.5884C13.3997 21.2584 12.9804 20.7761 12.5868 20.6491C12.2189 20.5307 12.1676 20.3699 12.3729 20.0314C12.4842 19.8621 12.5441 19.6083 12.5441 19.3544C12.5441 18.999 12.5013 18.8975 12.2531 18.6521C12.005 18.4067 11.9023 18.3643 11.543 18.3559L11.1323 18.3474L11.4574 18.2713C11.9537 18.1528 12.0991 18.0512 12.2959 17.6704C12.5098 17.2558 12.4671 16.9427 12.159 16.5365C11.8852 16.1811 11.8852 16.0119 12.1847 15.9018C13.0061 15.5972 13.2029 14.7341 12.5954 14.1163C12.2446 13.7609 12.2788 13.6255 12.7152 13.6848C13.1344 13.744 13.5794 13.4901 13.7762 13.0839C13.9558 12.7116 13.9473 12.5424 13.7419 12.1446C13.6478 11.9585 13.5708 11.7808 13.5708 11.7469C13.5708 11.7131 13.7334 11.6792 13.9387 11.6792C14.435 11.6792 14.8542 11.4507 15.051 11.0615C15.205 10.7653 15.2136 10.6807 15.1195 10.3084C15.0681 10.0714 15.0425 9.85986 15.0681 9.83447C15.0938 9.80909 15.205 9.83447 15.3248 9.88525C15.4446 9.94448 15.7013 9.98679 15.8981 9.98679C16.189 9.98679 16.3002 9.93602 16.5826 9.64831C16.9163 9.31828 16.9248 9.29289 16.8906 8.8444C16.8649 8.59053 16.8735 8.37898 16.8906 8.37898C16.9163 8.37898 17.0361 8.49745 17.1644 8.64131C17.3441 8.86132 17.4639 8.9121 17.8318 8.95441C18.3537 8.99672 18.6275 8.86132 18.8928 8.41283C19.1067 8.04895 19.235 8.0828 19.3291 8.52284C19.4233 9.00518 19.7912 9.32674 20.3045 9.36905C20.6639 9.4029 20.758 9.37752 21.0489 9.14904C21.2286 9.00518 21.4083 8.90363 21.4425 8.92902C21.4853 8.9544 21.5366 9.13211 21.5709 9.32674C21.6564 9.80062 21.8104 10.0291 22.1869 10.1983C22.5891 10.393 22.9826 10.3084 23.3677 9.95294C23.5816 9.74985 23.727 9.68215 23.8725 9.70754C23.9837 9.73293 24.1035 9.70754 24.1292 9.65677C24.1634 9.60599 24.4115 9.56368 24.6853 9.56368C25.2586 9.56368 25.5324 9.4029 25.7549 8.93748C25.9431 8.53976 25.926 8.37052 25.6778 7.99818C25.5153 7.7697 25.4811 7.65969 25.5495 7.57507C25.6008 7.51584 25.618 7.40583 25.5837 7.33813C25.5581 7.26197 25.618 7.08427 25.7121 6.94887C25.9688 6.60192 26.0115 6.26344 25.8575 5.89956C25.7121 5.55261 25.2843 5.24797 24.9335 5.24797C24.6083 5.24797 24.1805 4.98565 24.1805 4.78255C24.1805 4.68947 24.1206 4.5033 24.0522 4.37637C23.9324 4.14789 23.9409 4.13943 24.0949 4.18174C24.1891 4.20713 24.3345 4.24944 24.4201 4.27483C24.5056 4.30021 24.7452 4.22405 24.9591 4.11404C25.4468 3.85172 25.4639 3.85172 25.4639 4.13097ZM22.0415 5.16335C22.0415 5.39183 22.5719 5.8911 22.8885 5.95033C23.111 6.00111 23.4019 5.95034 23.7527 5.80648C23.8554 5.76417 23.881 5.8234 23.8554 6.12804C23.8126 6.62731 24.0351 7.07581 24.4201 7.27044C24.7196 7.42276 24.7196 7.42275 24.5056 7.47353C24.1634 7.55815 23.6671 8.15896 23.6671 8.48052V8.74285L23.4789 8.56515C23.0511 8.18435 22.435 8.10819 21.9645 8.38744C21.6222 8.59053 21.4425 8.54822 21.4425 8.24359C21.4425 7.92202 21.0746 7.48199 20.7152 7.36352C20.3473 7.24505 19.9709 7.31274 19.6628 7.57507C19.3548 7.82894 19.0553 7.7697 18.8329 7.42275C18.7388 7.27044 18.5163 7.08427 18.3366 6.99118C18.0543 6.85579 17.9516 6.84733 17.6778 6.93195C17.327 7.03349 16.9077 7.44814 16.9077 7.68508C16.9077 7.85432 16.5227 8.04895 16.343 7.98126C16.1633 7.91356 16.1976 7.84586 16.5056 7.69354C16.8564 7.53276 17.096 7.08427 17.0617 6.66962C17.0275 6.25497 17.173 6.2042 17.481 6.50884C18.02 7.03349 18.8158 6.88117 19.2008 6.17035C19.4831 5.6457 19.6029 5.60339 19.9366 5.91648C20.0821 6.06034 20.3302 6.2042 20.4842 6.22959C21.066 6.34806 21.7848 5.78109 21.7848 5.21413C21.7848 5.07873 21.8276 4.99411 21.9131 4.99411C21.9816 4.99411 22.0415 5.07027 22.0415 5.16335ZM30.341 5.7557C30.5549 5.81494 30.7431 5.81494 30.8886 5.7557C31.0511 5.69647 31.1624 5.70493 31.2822 5.77263C31.4276 5.86572 31.4276 5.8911 31.3078 6.12804C31.1538 6.42422 31.1966 6.93195 31.4105 7.24505C31.5987 7.53276 32.0865 7.72739 32.4544 7.65969C32.6768 7.61738 32.7367 7.63431 32.7367 7.73586C32.7367 7.81202 32.8137 7.91356 32.9079 7.9728C33.1218 8.10819 33.1218 8.14204 32.9164 8.47206L32.7453 8.74285L32.6255 8.44668C32.3945 7.89664 31.8041 7.63431 31.1624 7.81201C30.9485 7.87125 30.9228 7.86279 30.9827 7.72739C31.0169 7.64277 31.0683 7.37198 31.0939 7.13504C31.1282 6.70347 31.1196 6.67808 30.7859 6.34806C30.495 6.06034 30.3923 6.00957 30.0929 6.00957C29.8961 6.00957 29.6565 6.05188 29.5624 6.09419C29.3656 6.2042 29.3656 6.17881 29.5453 5.67109L29.6907 5.2649L29.8447 5.46799C29.9388 5.578 30.1528 5.70493 30.341 5.7557ZM12.7409 8.14204C12.7237 8.60746 12.7066 8.67516 12.5697 8.64977C12.0906 8.55668 11.6884 8.599 11.4574 8.76824L11.2178 8.94594L11.2093 8.36205C11.2007 8.04895 11.2093 7.78663 11.2178 7.78663C11.2264 7.78663 11.389 7.84586 11.5686 7.92202C11.8339 8.03203 11.9537 8.04049 12.2104 7.96433C12.3815 7.91356 12.5697 7.81201 12.6296 7.74431C12.6895 7.67662 12.7408 7.61738 12.7494 7.61738C12.7494 7.61738 12.7494 7.85432 12.7409 8.14204ZM14.6917 9.51291C14.6232 9.55522 14.3665 9.58061 14.1184 9.57215C13.759 9.55522 13.6393 9.58907 13.4168 9.77524C13.0232 10.1053 12.8863 10.8076 13.1601 11.1461C13.3398 11.3746 13.1515 11.5692 12.7066 11.6115C12.3986 11.6454 12.2104 11.7131 12.0478 11.8823L11.8082 12.1023L11.8424 11.8062C11.8681 11.62 11.8168 11.3915 11.697 11.1715C11.4574 10.7145 11.4574 10.5453 11.7141 10.6384C12.4927 10.9007 13.2029 10.3168 13.1259 9.4706C13.0831 9.10673 13.1002 9.05595 13.22 9.11519C13.297 9.14904 13.5622 9.18289 13.8018 9.18289C14.1783 9.18289 14.2895 9.14904 14.4863 8.94594L14.7259 8.709L14.7772 9.07288C14.82 9.35213 14.8029 9.45368 14.6917 9.51291ZM11.0296 9.43675C11.0039 9.65677 11.0211 9.91063 11.0895 10.063C11.2435 10.4353 11.0895 10.6638 10.6788 10.6638C10.4991 10.6638 10.2681 10.7315 10.1569 10.8076C9.95152 10.943 9.95152 10.943 10.0029 10.6892C10.0713 10.3507 9.94297 9.92756 9.71195 9.67369C9.46382 9.41983 9.54083 9.35213 9.92586 9.47906C10.1997 9.56368 10.2852 9.55522 10.6189 9.39444C10.8328 9.29289 11.0039 9.17442 11.0039 9.13211C11.0039 9.0898 11.0211 9.05595 11.0467 9.05595C11.0638 9.05595 11.0638 9.2252 11.0296 9.43675ZM9.74617 11.4592C9.68628 11.8231 9.76329 12.1277 9.94297 12.3139C10.1825 12.5424 10.0371 12.8301 9.6435 12.8978C9.45526 12.9232 9.24991 13.0078 9.18146 13.0755C9.07023 13.1855 9.06168 13.1432 9.0959 12.7116C9.13868 12.2716 9.12157 12.1954 8.91622 11.9585C8.64242 11.6369 8.63387 11.51 8.89055 11.51C8.99323 11.51 9.2328 11.4338 9.42104 11.3492C9.60928 11.2561 9.77184 11.18 9.7804 11.18C9.78896 11.1715 9.77184 11.3069 9.74617 11.4592ZM33.849 11.5184C33.849 11.8062 34.371 12.2547 34.7817 12.3224C34.9699 12.3562 35.1325 12.4154 35.1325 12.4577C35.1325 12.5001 34.9785 12.6778 34.7988 12.847C34.3881 13.2363 34.294 13.5409 34.4565 13.9979C34.5506 14.2771 34.6533 14.3871 34.9613 14.5394C35.295 14.7002 35.449 14.861 35.4662 15.081C35.4747 15.1149 35.3977 15.1656 35.3036 15.191C35.2095 15.2249 34.9956 15.3772 34.8416 15.538L34.5592 15.8257V15.6057C34.5592 15.2926 34.2854 14.9625 33.8661 14.7679C33.6694 14.6748 33.5068 14.5564 33.5068 14.4971C33.5068 14.4379 33.6437 14.2602 33.8148 14.1079C34.0629 13.8879 34.1314 13.7525 34.1656 13.4309C34.2084 13.0924 34.1827 12.9909 33.9859 12.737C33.8576 12.5762 33.6608 12.4154 33.541 12.39C33.1731 12.297 33.1474 12.0262 33.4554 11.6623C33.7635 11.3069 33.849 11.273 33.849 11.5184ZM11.7312 12.4408C11.697 12.5424 11.7398 12.8216 11.8168 13.067C11.9793 13.5832 11.9023 13.8794 11.5943 13.8794C11.4916 13.8794 11.2863 14.0063 11.1408 14.1502L10.867 14.4294L10.9013 14.0063C10.9269 13.6425 10.9013 13.5324 10.7301 13.3293C10.6104 13.1855 10.4991 12.9993 10.4735 12.9062C10.4392 12.7539 10.4735 12.737 10.7986 12.7285C11.0638 12.7201 11.2521 12.6524 11.4489 12.5001C11.7911 12.2293 11.7997 12.2293 11.7312 12.4408ZM8.81355 13.6255C8.6852 14.0063 8.7451 14.2517 9.07023 14.6833C9.30981 14.9964 9.24136 15.318 8.93333 15.318C8.51408 15.318 8.09483 15.8172 8.09483 16.325V16.5704L7.84669 16.325C7.7098 16.1896 7.53011 16.0796 7.46167 16.0796C7.21354 16.0796 7.31621 15.8511 7.59001 15.7918C7.73546 15.7665 7.98359 15.6141 8.14616 15.4534C8.40285 15.1995 8.43707 15.1149 8.43707 14.7341C8.43707 14.3787 8.39429 14.2602 8.17183 14.0063C7.94937 13.7525 7.93226 13.7101 8.0606 13.7101C8.18039 13.7101 8.65954 13.4817 8.91622 13.2955C8.92478 13.287 8.882 13.4394 8.81355 13.6255ZM10.9868 15.4534C11.0382 15.5549 11.1836 15.6988 11.3034 15.7749C11.543 15.9272 11.5858 16.0796 11.389 16.0796C11.3205 16.0796 11.1066 16.1388 10.9184 16.215C10.5333 16.3673 10.2339 16.8158 10.2339 17.2389C10.2339 17.4927 10.5162 18.0259 10.6531 18.0259C10.7473 18.0259 10.7216 18.4913 10.6189 18.7198C10.5162 18.9567 10.405 18.8975 10.405 18.6097C10.405 18.4659 10.3366 18.2374 10.2595 18.102C10.1312 17.8905 9.99431 17.8058 9.53227 17.6535C9.34403 17.5943 9.32692 17.4335 9.5066 17.4335C9.67772 17.4335 10.0542 17.0273 10.2082 16.6804C10.3708 16.308 10.2938 16.0119 9.9173 15.5803C9.74617 15.3857 9.6435 15.191 9.68628 15.1572C9.72906 15.1233 9.9173 15.0472 10.1141 14.9964C10.3023 14.9372 10.5333 14.8187 10.6275 14.7171L10.79 14.5394L10.8328 14.9033C10.8585 15.1064 10.9269 15.3518 10.9868 15.4534ZM34.6191 16.3842C34.6191 16.5873 34.9271 16.9681 35.2266 17.1458C35.3036 17.1881 35.3892 17.3066 35.4234 17.4081C35.4662 17.5435 35.4405 17.6027 35.3036 17.6451C35.2009 17.6789 34.987 17.8312 34.833 17.992C34.5678 18.2543 34.5335 18.2628 34.5335 18.1105C34.5335 17.8228 34.294 17.442 34.0202 17.3066C33.6522 17.1204 33.6865 16.8581 34.1057 16.5619C34.294 16.4265 34.448 16.2657 34.448 16.198C34.448 16.1303 34.4907 16.0965 34.5335 16.1219C34.5849 16.1473 34.6191 16.2742 34.6191 16.3842ZM8.49697 17.1796C8.62531 17.1881 8.83922 17.3912 8.89911 17.5689C8.94189 17.6958 8.89911 17.772 8.75365 17.8482C8.46274 18.0005 8.26595 18.3813 8.26595 18.7875C8.26595 19.0921 8.31729 19.1936 8.59964 19.4729C8.8221 19.6929 9.01034 19.8029 9.16435 19.8029C9.34403 19.8029 9.38681 19.8368 9.34403 19.9383C9.30981 20.0145 9.33548 20.1329 9.38681 20.1922C9.46382 20.2768 9.42959 20.3699 9.25847 20.573C9.13868 20.7168 9.03601 20.9115 9.03601 21.013C9.03601 21.1822 9.01034 21.1738 8.81355 20.9199C8.49697 20.5307 8.14616 20.3699 7.71835 20.4291C7.41888 20.4714 7.39322 20.463 7.53011 20.3699C8.14616 19.9891 8.35151 19.4644 8.10338 18.9144C7.98359 18.6436 7.85525 18.5167 7.59001 18.3982C7.40177 18.3051 7.24776 18.2205 7.2392 18.1951C7.2392 18.1697 7.36755 18.0936 7.52156 18.0174C7.90659 17.8312 8.1975 17.3066 8.13761 16.9258L8.08627 16.6296L8.25739 16.9004C8.36007 17.0527 8.46274 17.1796 8.49697 17.1796ZM34.8501 19.3544C34.9613 19.5067 35.1154 19.6337 35.1838 19.6337C35.2437 19.6337 35.3036 19.6675 35.3036 19.7098C35.3036 19.9214 35.1752 20.0568 34.987 20.0568C34.7218 20.0568 34.2255 20.3445 34.1057 20.5645C33.9004 20.9453 34.0629 21.7238 34.3966 21.9946C34.6619 22.2146 34.5592 22.4008 34.1571 22.46C33.6351 22.5362 33.2501 22.9593 33.2501 23.4501C33.2501 23.8224 33.4298 24.2371 33.6437 24.3556C33.8661 24.4825 33.7207 24.601 33.2843 24.6517C33.0704 24.6687 32.7795 24.7702 32.6512 24.8718L32.403 25.0495L32.4544 24.7533C32.48 24.5925 32.4544 24.3471 32.3945 24.2032C32.3089 24.0086 32.3089 23.924 32.3945 23.8224C32.4458 23.7547 32.4715 23.6701 32.4458 23.6194C32.4116 23.577 32.5057 23.4586 32.6512 23.357C33.0105 23.1032 33.1902 22.7308 33.1218 22.3754C33.0619 22.02 32.7111 21.6054 32.3603 21.4615C32.1121 21.36 32.1207 21.3515 32.5827 21.3938C33.0704 21.4277 33.0875 21.4276 33.4212 21.0892C33.8063 20.7168 33.8747 20.336 33.6351 19.8875C33.5581 19.7352 33.541 19.6252 33.5923 19.5914C33.6437 19.566 33.6779 19.4644 33.6779 19.3713C33.6779 19.2783 33.7635 19.1767 33.8833 19.1344C33.9945 19.0921 34.1742 18.9398 34.2854 18.8044L34.4907 18.559L34.5678 18.8213C34.6105 18.9652 34.7389 19.2106 34.8501 19.3544ZM6.79428 20.3022C7.11086 20.4291 7.12797 20.5645 6.89695 21.123C6.7515 21.453 6.84562 21.9354 7.1023 22.2231C7.25632 22.4093 7.39322 22.46 7.77825 22.4939C8.04349 22.5108 8.26595 22.5447 8.26595 22.57C8.26595 22.587 8.15472 22.697 8.01782 22.8154C7.68413 23.0947 7.53867 23.5263 7.65846 23.8817C7.7868 24.2456 8.0606 24.5163 8.40285 24.6264C8.70232 24.7279 8.85633 25.0071 8.70232 25.1595C8.5483 25.3118 8.59109 25.9972 8.77932 26.2934L8.95045 26.5726H8.6082C8.41996 26.5726 8.26595 26.5303 8.26595 26.488C8.26595 26.4373 8.20606 26.4034 8.13761 26.4034C8.06916 26.4034 8.00926 26.3611 8.00926 26.3188C8.00926 26.268 8.04349 26.2342 8.09483 26.2342C8.24028 26.2342 8.43707 25.7434 8.43707 25.3795C8.43707 25.0833 8.38574 24.9733 8.10338 24.7025C7.82958 24.4233 7.71835 24.3725 7.41888 24.3725C7.1622 24.3725 7.06808 24.3386 7.06808 24.2456C7.06808 24.1779 7.03385 24.1186 6.98252 24.1186C6.93974 24.1186 6.99963 23.9832 7.11086 23.814C7.3761 23.4332 7.38466 22.9932 7.15364 22.6124C6.98252 22.3416 6.54615 22.0877 6.24668 22.0877C6.10978 22.0877 5.87877 21.8677 5.87021 21.7323C5.87021 21.6984 5.93866 21.6561 6.02422 21.6307C6.22957 21.563 6.55471 20.9876 6.55471 20.6914C6.55471 20.573 6.51193 20.3868 6.46059 20.2937C6.40925 20.2006 6.40069 20.1414 6.44348 20.1583C6.4777 20.1752 6.64027 20.2429 6.79428 20.3022ZM9.47238 22.1215C9.58361 22.1977 9.81462 22.2569 9.99431 22.2569C10.2595 22.2569 10.3194 22.2908 10.3194 22.4177C10.3194 22.5108 10.3622 22.6124 10.405 22.6377C10.4563 22.6716 10.4307 22.7816 10.3194 22.9339C10.0456 23.3147 10.02 23.6363 10.2253 24.0594C10.4307 24.474 10.6788 24.6264 11.1751 24.6264C11.6114 24.6264 11.8596 24.8548 11.8596 25.261C11.8596 26.0734 12.7066 26.5811 13.3997 26.1919C13.7676 25.9803 13.8275 26.0311 13.8275 26.5219C13.8275 26.8942 13.8703 27.0296 14.05 27.2412C14.3665 27.6135 15.0082 27.715 15.4189 27.4612C15.5216 27.3935 15.6842 27.3681 15.7869 27.3935C15.9323 27.4273 15.9665 27.5035 15.9665 27.7658C15.9665 28.2482 16.3173 28.6036 16.8478 28.6628C17.3013 28.7136 17.7291 28.5782 17.8575 28.3412C17.9773 28.1043 18.2767 28.3074 18.2767 28.629C18.2767 28.7644 18.3195 28.9505 18.3708 29.0521C18.4735 29.2382 18.4735 29.2382 18.2938 29.0775C18.1912 28.9928 17.9345 28.8997 17.7206 28.8744C17.404 28.8405 17.2756 28.8744 17.0703 29.0182C16.7537 29.2552 16.497 29.1875 16.2489 28.8151C16.0607 28.5359 15.6585 28.3497 15.2393 28.3497C14.9826 28.3497 14.435 28.7474 14.3237 29.0098L14.2296 29.2382L14.1697 28.9421C14.0414 28.2566 13.6649 27.9266 13.0232 27.9266C12.7836 27.9266 12.5184 27.9858 12.4243 28.0535C12.2018 28.2228 12.1077 28.1382 12.2104 27.8674C12.39 27.3935 12.0392 26.6403 11.5601 26.488C11.3975 26.4373 11.1152 26.4034 10.9355 26.4203C10.6617 26.4457 10.6189 26.4203 10.6446 26.2765C10.6617 26.1834 10.6959 25.9803 10.7216 25.828C10.7815 25.4726 10.6189 25.1002 10.2938 24.8294C10.0628 24.6348 9.96864 24.6094 9.57505 24.6433L9.13013 24.6856L9.42104 24.4233C10.0285 23.8901 9.87452 22.9762 9.13013 22.6377C8.72798 22.46 8.6852 22.3416 8.85633 21.8592L8.98467 21.5123L9.13013 21.7492C9.21569 21.8761 9.3697 22.0454 9.47238 22.1215ZM15.051 24.2794C15.0168 24.584 15.0425 24.7533 15.1537 24.9395C15.4275 25.3964 15.9922 25.5995 16.4029 25.3795C16.5313 25.3202 16.6425 25.3202 16.8222 25.4049C17.0361 25.498 17.0789 25.5657 17.0789 25.8195C17.0789 26.0057 17.1473 26.2172 17.2585 26.3526L17.4297 26.5726H17.0789C16.7024 26.5726 16.4628 26.6657 16.1719 26.9281C15.9665 27.1142 15.8382 27.0211 15.9238 26.7504C15.9837 26.5473 15.7697 26.0141 15.5216 25.7518C15.3762 25.5995 15.2478 25.5572 14.9056 25.5572C14.666 25.5572 14.4179 25.591 14.3494 25.6333C14.1526 25.7603 13.9986 25.6418 13.9986 25.3541C13.9986 25.2102 13.9045 24.931 13.7847 24.7279L13.5794 24.3725H13.836C14.1184 24.3725 14.512 24.2032 14.6746 24.0001C14.743 23.924 14.8628 23.8648 14.9484 23.8648C15.0853 23.8648 15.0938 23.9155 15.051 24.2794ZM32.2747 25.7264C32.2747 26.0057 32.326 26.2003 32.4287 26.3103C32.6597 26.5557 32.5314 26.6657 32.1806 26.5219C31.7784 26.3611 31.4619 26.3696 31.1367 26.5726L30.8544 26.7419V26.4796C30.8544 26.3357 30.8116 26.1495 30.7602 26.0565C30.7175 25.9634 30.7003 25.8195 30.726 25.7264C30.7688 25.591 30.8372 25.5741 31.2394 25.6164C31.6159 25.6587 31.7356 25.6333 31.941 25.4895C32.0693 25.3879 32.1977 25.3033 32.2234 25.3033C32.249 25.3033 32.2661 25.4895 32.2747 25.7264ZM19.3035 26.4034C19.3377 26.4034 19.389 26.5642 19.4233 26.7588C19.4575 26.9619 19.5687 27.2073 19.6628 27.3089L19.8425 27.5035H19.466C19.2265 27.5035 18.9612 27.5796 18.7131 27.715C18.2168 28.0028 18.1227 27.9858 18.1227 27.6304C18.1227 27.4527 18.0371 27.1989 17.9174 27.0127L17.7035 26.6996L18.0543 26.725C18.3195 26.7419 18.4735 26.6996 18.7045 26.5388C18.8671 26.4203 19.0553 26.3442 19.1152 26.3611C19.1837 26.3865 19.2607 26.4034 19.3035 26.4034ZM10.3194 26.7334C10.3194 26.7757 10.2595 26.945 10.1825 27.1227C10.0285 27.495 10.0799 27.7743 10.3708 28.1551C10.636 28.502 11.0895 28.6543 11.4317 28.519C11.5686 28.4682 11.7569 28.4428 11.8424 28.4766C11.9879 28.519 12.0136 28.5951 12.005 28.8913C11.9879 29.1959 12.0392 29.3229 12.2703 29.6106C12.5013 29.8983 12.5269 29.9575 12.3986 29.9575C12.313 29.9575 12.0991 30.0337 11.928 30.1268C11.543 30.3299 11.3034 30.2791 11.4403 30.0252C11.5601 29.8052 11.4916 29.2552 11.3034 28.9759C11.0296 28.5613 10.1911 28.4089 9.83174 28.7051C9.75473 28.7644 9.67772 28.739 9.55794 28.5951C9.40393 28.4089 9.40393 28.4005 9.57505 28.1212C9.77184 27.7827 9.72906 27.3342 9.46382 26.9788L9.2927 26.7504L9.66061 26.7165C9.85741 26.6996 10.0884 26.6827 10.174 26.6742C10.251 26.6657 10.3194 26.6911 10.3194 26.7334ZM26.5335 27.3342C26.5677 27.4781 26.7046 27.6981 26.8329 27.8335L27.0811 28.0789L26.7303 28.1297C26.3281 28.1974 25.9345 28.5528 25.849 28.9421C25.8147 29.0859 25.7206 29.2382 25.6265 29.2805C25.4896 29.3567 25.4468 29.3398 25.3698 29.179C25.019 28.4259 23.7784 28.5105 23.4104 29.3144C23.2736 29.6021 23.2479 29.619 23.2051 29.4667C23.1709 29.3652 23.0939 29.3059 23.0254 29.3313C22.957 29.3567 22.8885 29.2975 22.8543 29.179C22.8201 29.069 22.7174 28.8828 22.6318 28.7559C22.5377 28.6374 22.4693 28.519 22.4693 28.4936C22.4693 28.4766 22.6489 28.4343 22.8714 28.4089C23.1965 28.3751 23.3334 28.3074 23.5473 28.0705C23.8896 27.7066 24.1891 27.6135 24.3345 27.842C24.5056 28.1212 24.9249 28.282 25.3014 28.2228C25.695 28.1551 26.1142 27.7912 26.1912 27.4527C26.2853 27.0465 26.311 26.9788 26.3966 27.0296C26.4394 27.0635 26.4992 27.1989 26.5335 27.3342ZM21.742 27.6389C21.7677 27.7912 21.8618 28.0028 21.9559 28.1212C22.127 28.3328 22.127 28.3328 21.9559 28.2905C21.7078 28.2228 21.0318 28.502 20.8778 28.7305C20.681 29.0351 20.4158 28.9167 20.4158 28.5274C20.4158 28.3412 20.3388 28.1043 20.2104 27.9266L20.0136 27.6304H20.4072C20.7238 27.6304 20.8693 27.5796 21.0917 27.4019C21.3227 27.2073 21.3912 27.1819 21.5281 27.2665C21.6136 27.3258 21.7078 27.4866 21.742 27.6389ZM14.3836 29.8644C14.5719 30.2368 14.9141 30.4653 15.2735 30.4653C15.6585 30.4653 16.1034 30.2029 16.2917 29.8729C16.3687 29.7375 16.4628 29.619 16.4885 29.619C16.5227 29.619 16.5655 29.8052 16.5997 30.0337C16.6596 30.4653 16.9334 30.8037 17.3441 30.9307C17.5837 31.0068 18.0628 30.9137 18.1912 30.7614C18.2511 30.6937 18.388 30.6345 18.4906 30.6345C18.6446 30.6345 18.7045 30.6937 18.7559 30.9053C18.9184 31.6669 19.6115 31.9546 20.3559 31.5738C20.527 31.4892 20.6725 31.4469 20.6725 31.4807C20.6725 31.523 20.6382 31.5823 20.5869 31.6076C20.45 31.6923 20.4842 32.4031 20.6468 32.6654C20.7238 32.8008 20.9206 32.9785 21.0746 33.0631L21.357 33.2155L21.1174 33.3424C20.6639 33.5878 20.4928 33.7401 20.4158 34.0109C20.3388 34.2902 20.4158 34.7048 20.5955 34.9164C20.7152 35.0602 20.6896 35.0602 20.3644 34.9502C20.1334 34.874 20.1163 34.8317 20.142 34.5356C20.1591 34.3409 20.1163 34.104 20.0393 33.9432C19.7655 33.4185 18.927 33.2324 18.4393 33.5878C18.1227 33.8163 18.02 33.757 18.02 33.3593C18.02 32.5131 17.1559 32.0054 16.3601 32.3777C16.0093 32.5469 15.7869 32.4962 15.8553 32.2592C15.8981 32.0731 15.6927 31.6161 15.4275 31.3284C15.282 31.1761 15.1623 31.1422 14.7687 31.1422C14.5034 31.1422 14.2211 31.193 14.127 31.2607C13.8532 31.4469 13.605 31.2945 13.5366 30.9053C13.5109 30.7022 13.3826 30.4568 13.2286 30.296C13.0917 30.1437 12.9719 30.0168 12.9719 29.9998C12.9719 29.9914 13.066 29.9744 13.1772 29.9744C13.297 29.9744 13.4938 29.8983 13.6307 29.8052C13.9729 29.5513 14.2211 29.5683 14.3836 29.8644Z" stroke="#E8E8E8" stroke-width="6" mask="url(#path-1-inside-1_1_742)"/>
<mask id="path-2-inside-2_1_742" fill="white">
<path d="M20.7507 39.8428C20.7165 39.8682 20.6908 40.0205 20.6908 40.1728C20.6908 40.3251 20.648 40.5536 20.5967 40.689C20.5453 40.8159 20.4683 41.1544 20.4341 41.4337C20.3742 41.9329 20.3742 41.9329 20.3571 41.5521C20.3571 41.3321 20.4084 40.9936 20.4769 40.799C20.5453 40.6044 20.6052 40.3082 20.6052 40.1474C20.6052 39.8682 20.5881 39.8597 20.3314 39.8851C20.0234 39.9105 20.0747 39.8174 19.5956 41.349C19.4501 41.8145 19.3132 42.356 19.279 42.5507C19.2106 43.0753 18.8769 43.7777 18.5432 44.0823C18.3806 44.2346 17.9442 44.5054 17.5678 44.6831C16.9175 44.9962 15.2747 45.5801 14.7699 45.6817C14.5132 45.7324 14.2223 46.0032 14.3421 46.0794C14.3849 46.1048 14.6073 46.0371 14.8383 45.9271C15.0694 45.8171 15.7025 45.5886 16.2416 45.4109C16.7806 45.2416 17.4223 45.0047 17.6533 44.8862C18.0469 44.6831 18.0726 44.6831 17.9186 44.8524C17.833 44.9455 17.5507 45.1824 17.3025 45.377C16.8747 45.6986 16.8148 45.724 16.464 45.6732C16.0448 45.6055 15.8565 45.7409 16.0961 45.9186C16.2244 46.0117 16.2159 46.0286 16.0105 46.1217C15.8908 46.1809 15.5314 46.2402 15.2234 46.2656C14.4619 46.3248 14.2308 46.3756 14.325 46.4686C14.4362 46.5787 15.7453 46.3586 16.31 46.1386C16.7977 45.944 17.0715 45.9186 17.2683 46.0455C17.3539 46.0963 17.2683 46.1386 16.9517 46.1725C16.4897 46.2402 16.2501 46.3417 16.3528 46.4348C16.387 46.4686 16.772 46.3925 17.217 46.2656C18.3122 45.944 18.3635 45.9694 17.9442 46.5956C17.756 46.8748 17.5164 47.2133 17.4138 47.3487C17.3111 47.4841 17.217 47.6534 17.2084 47.7295C17.1999 47.8057 17.1656 47.9495 17.1314 48.0511C17.0544 48.3303 17.2341 48.2965 17.3881 48.0088C17.4993 47.7887 18.2095 47.3149 18.2095 47.4587C18.2095 47.5941 17.8416 48.1272 17.5763 48.3557C17.3111 48.5927 17.3795 48.6265 17.8073 48.4573C17.8929 48.4234 17.9528 48.4319 17.9528 48.4911C17.9528 48.5419 17.9186 48.5842 17.8672 48.5842C17.8245 48.5842 17.7817 48.618 17.7817 48.6688C17.7817 48.7111 17.8416 48.7534 17.9186 48.7534C18.0384 48.7534 18.0298 48.7957 17.8758 49.0581C17.7731 49.2189 17.6961 49.4135 17.6961 49.4896C17.6961 49.7689 17.9528 49.4135 18.0897 48.9396C18.218 48.508 18.663 47.9072 18.7742 48.0172C18.7999 48.0426 18.7229 48.2965 18.6116 48.5842C18.4918 48.8634 18.4405 49.0835 18.4918 49.0665C18.5432 49.0496 18.6459 48.8634 18.7143 48.6519C18.9197 48.0511 18.9967 48.0595 18.971 48.6688C18.9368 49.4135 18.9624 49.8535 19.048 49.8535C19.0822 49.8535 19.1164 49.3542 19.1164 48.745C19.125 48.0595 19.1678 47.6026 19.2277 47.5433C19.2961 47.4756 19.3218 47.721 19.3218 48.4657C19.3218 49.4304 19.3817 49.6843 19.5956 49.6843C19.6298 49.6843 19.664 49.4896 19.664 49.2612C19.664 48.9396 19.6983 48.8381 19.7924 48.8381C19.8608 48.8381 19.9207 48.8973 19.9207 48.965C19.9207 49.1173 20.0576 49.1342 20.1517 48.9819C20.1945 48.9142 20.2373 48.9734 20.263 49.1596C20.2886 49.3119 20.3485 49.4219 20.3913 49.4135C20.4427 49.3966 20.4683 49.3542 20.4512 49.3204C20.4255 49.2273 20.5967 48.9227 20.6822 48.9227C20.725 48.9227 20.7764 49.075 20.8106 49.2612C20.8448 49.4812 20.9047 49.5997 20.9903 49.5997C21.0587 49.5997 21.1186 49.5489 21.1272 49.4896C21.1443 49.2527 21.1015 48.8127 21.0245 48.5673C20.9646 48.3557 20.9817 48.2626 21.0929 48.1357C21.2298 47.9918 21.2469 47.9918 21.3496 48.1272C21.4095 48.2119 21.4865 48.4657 21.5122 48.6942C21.5464 48.9227 21.6234 49.1258 21.6833 49.1512C21.7518 49.1765 21.8031 49.2358 21.8031 49.295C21.8031 49.3458 21.8972 49.3966 22.017 49.3966C22.1453 49.405 22.2309 49.3712 22.2309 49.295C22.2309 49.1596 22.3678 49.1342 22.4448 49.2612C22.4705 49.3035 22.5646 49.3458 22.6502 49.3458C22.7614 49.3458 22.7956 49.295 22.77 49.1512C22.7528 49.0496 22.77 48.8719 22.8213 48.7534L22.9068 48.5419L22.9154 48.7534C22.924 49.0581 23.0437 49.2104 23.2149 49.1427C23.309 49.1088 23.4117 49.1427 23.4801 49.2358C23.6341 49.4389 23.6256 49.2781 23.4716 48.8381C23.3175 48.4149 23.3175 48.4149 23.4202 48.4149C23.463 48.4149 23.54 48.525 23.5999 48.6688C23.6855 48.8804 23.7282 48.9058 23.8737 48.8296C24.002 48.7619 24.0363 48.6688 24.0106 48.4403C23.9935 48.2542 24.0277 48.1188 24.0962 48.1018C24.1646 48.0765 24.1988 48.1865 24.2074 48.4742C24.216 48.855 24.2245 48.8634 24.2844 48.6011C24.37 48.2372 24.4213 48.1949 24.5411 48.4065C24.6694 48.6519 24.832 48.635 24.7635 48.3811C24.678 48.0511 24.8577 48.0426 25.0202 48.3726C25.2085 48.7704 25.294 48.745 25.2769 48.3049C25.2684 47.9749 25.2855 47.9411 25.4566 47.9749C25.6277 48.0088 25.6363 47.9918 25.5678 47.6957C25.5251 47.518 25.4652 47.3487 25.4224 47.3233C25.1742 47.1541 24.9347 46.6379 24.832 46.0371C24.678 45.1993 24.2673 44.3616 23.3689 43.1007C23.1806 42.8214 22.9411 42.4153 22.8384 42.2037C22.7443 41.9837 22.4619 41.5098 22.2052 41.1544C21.9486 40.799 21.6576 40.342 21.5464 40.1389C21.3753 39.8343 21.3068 39.7835 21.0758 39.7835C20.9304 39.7835 20.7764 39.8089 20.7507 39.8428ZM19.1935 44.1162C19.1592 44.3616 19.048 44.7593 18.9368 45.0047C18.7656 45.3686 18.663 45.4786 18.3036 45.6563C17.8758 45.8763 17.2426 45.9525 17.14 45.8001C17.1143 45.7578 17.3196 45.5463 17.5849 45.3263C17.8587 45.1147 18.3293 44.6577 18.6373 44.3108C18.9453 43.9638 19.2106 43.6846 19.2191 43.6761C19.2362 43.6761 19.2277 43.8792 19.1935 44.1162Z"/>
</mask>
<path d="M20.7507 39.8428C20.7165 39.8682 20.6908 40.0205 20.6908 40.1728C20.6908 40.3251 20.648 40.5536 20.5967 40.689C20.5453 40.8159 20.4683 41.1544 20.4341 41.4337C20.3742 41.9329 20.3742 41.9329 20.3571 41.5521C20.3571 41.3321 20.4084 40.9936 20.4769 40.799C20.5453 40.6044 20.6052 40.3082 20.6052 40.1474C20.6052 39.8682 20.5881 39.8597 20.3314 39.8851C20.0234 39.9105 20.0747 39.8174 19.5956 41.349C19.4501 41.8145 19.3132 42.356 19.279 42.5507C19.2106 43.0753 18.8769 43.7777 18.5432 44.0823C18.3806 44.2346 17.9442 44.5054 17.5678 44.6831C16.9175 44.9962 15.2747 45.5801 14.7699 45.6817C14.5132 45.7324 14.2223 46.0032 14.3421 46.0794C14.3849 46.1048 14.6073 46.0371 14.8383 45.9271C15.0694 45.8171 15.7025 45.5886 16.2416 45.4109C16.7806 45.2416 17.4223 45.0047 17.6533 44.8862C18.0469 44.6831 18.0726 44.6831 17.9186 44.8524C17.833 44.9455 17.5507 45.1824 17.3025 45.377C16.8747 45.6986 16.8148 45.724 16.464 45.6732C16.0448 45.6055 15.8565 45.7409 16.0961 45.9186C16.2244 46.0117 16.2159 46.0286 16.0105 46.1217C15.8908 46.1809 15.5314 46.2402 15.2234 46.2656C14.4619 46.3248 14.2308 46.3756 14.325 46.4686C14.4362 46.5787 15.7453 46.3586 16.31 46.1386C16.7977 45.944 17.0715 45.9186 17.2683 46.0455C17.3539 46.0963 17.2683 46.1386 16.9517 46.1725C16.4897 46.2402 16.2501 46.3417 16.3528 46.4348C16.387 46.4686 16.772 46.3925 17.217 46.2656C18.3122 45.944 18.3635 45.9694 17.9442 46.5956C17.756 46.8748 17.5164 47.2133 17.4138 47.3487C17.3111 47.4841 17.217 47.6534 17.2084 47.7295C17.1999 47.8057 17.1656 47.9495 17.1314 48.0511C17.0544 48.3303 17.2341 48.2965 17.3881 48.0088C17.4993 47.7887 18.2095 47.3149 18.2095 47.4587C18.2095 47.5941 17.8416 48.1272 17.5763 48.3557C17.3111 48.5927 17.3795 48.6265 17.8073 48.4573C17.8929 48.4234 17.9528 48.4319 17.9528 48.4911C17.9528 48.5419 17.9186 48.5842 17.8672 48.5842C17.8245 48.5842 17.7817 48.618 17.7817 48.6688C17.7817 48.7111 17.8416 48.7534 17.9186 48.7534C18.0384 48.7534 18.0298 48.7957 17.8758 49.0581C17.7731 49.2189 17.6961 49.4135 17.6961 49.4896C17.6961 49.7689 17.9528 49.4135 18.0897 48.9396C18.218 48.508 18.663 47.9072 18.7742 48.0172C18.7999 48.0426 18.7229 48.2965 18.6116 48.5842C18.4918 48.8634 18.4405 49.0835 18.4918 49.0665C18.5432 49.0496 18.6459 48.8634 18.7143 48.6519C18.9197 48.0511 18.9967 48.0595 18.971 48.6688C18.9368 49.4135 18.9624 49.8535 19.048 49.8535C19.0822 49.8535 19.1164 49.3542 19.1164 48.745C19.125 48.0595 19.1678 47.6026 19.2277 47.5433C19.2961 47.4756 19.3218 47.721 19.3218 48.4657C19.3218 49.4304 19.3817 49.6843 19.5956 49.6843C19.6298 49.6843 19.664 49.4896 19.664 49.2612C19.664 48.9396 19.6983 48.8381 19.7924 48.8381C19.8608 48.8381 19.9207 48.8973 19.9207 48.965C19.9207 49.1173 20.0576 49.1342 20.1517 48.9819C20.1945 48.9142 20.2373 48.9734 20.263 49.1596C20.2886 49.3119 20.3485 49.4219 20.3913 49.4135C20.4427 49.3966 20.4683 49.3542 20.4512 49.3204C20.4255 49.2273 20.5967 48.9227 20.6822 48.9227C20.725 48.9227 20.7764 49.075 20.8106 49.2612C20.8448 49.4812 20.9047 49.5997 20.9903 49.5997C21.0587 49.5997 21.1186 49.5489 21.1272 49.4896C21.1443 49.2527 21.1015 48.8127 21.0245 48.5673C20.9646 48.3557 20.9817 48.2626 21.0929 48.1357C21.2298 47.9918 21.2469 47.9918 21.3496 48.1272C21.4095 48.2119 21.4865 48.4657 21.5122 48.6942C21.5464 48.9227 21.6234 49.1258 21.6833 49.1512C21.7518 49.1765 21.8031 49.2358 21.8031 49.295C21.8031 49.3458 21.8972 49.3966 22.017 49.3966C22.1453 49.405 22.2309 49.3712 22.2309 49.295C22.2309 49.1596 22.3678 49.1342 22.4448 49.2612C22.4705 49.3035 22.5646 49.3458 22.6502 49.3458C22.7614 49.3458 22.7956 49.295 22.77 49.1512C22.7528 49.0496 22.77 48.8719 22.8213 48.7534L22.9068 48.5419L22.9154 48.7534C22.924 49.0581 23.0437 49.2104 23.2149 49.1427C23.309 49.1088 23.4117 49.1427 23.4801 49.2358C23.6341 49.4389 23.6256 49.2781 23.4716 48.8381C23.3175 48.4149 23.3175 48.4149 23.4202 48.4149C23.463 48.4149 23.54 48.525 23.5999 48.6688C23.6855 48.8804 23.7282 48.9058 23.8737 48.8296C24.002 48.7619 24.0363 48.6688 24.0106 48.4403C23.9935 48.2542 24.0277 48.1188 24.0962 48.1018C24.1646 48.0765 24.1988 48.1865 24.2074 48.4742C24.216 48.855 24.2245 48.8634 24.2844 48.6011C24.37 48.2372 24.4213 48.1949 24.5411 48.4065C24.6694 48.6519 24.832 48.635 24.7635 48.3811C24.678 48.0511 24.8577 48.0426 25.0202 48.3726C25.2085 48.7704 25.294 48.745 25.2769 48.3049C25.2684 47.9749 25.2855 47.9411 25.4566 47.9749C25.6277 48.0088 25.6363 47.9918 25.5678 47.6957C25.5251 47.518 25.4652 47.3487 25.4224 47.3233C25.1742 47.1541 24.9347 46.6379 24.832 46.0371C24.678 45.1993 24.2673 44.3616 23.3689 43.1007C23.1806 42.8214 22.9411 42.4153 22.8384 42.2037C22.7443 41.9837 22.4619 41.5098 22.2052 41.1544C21.9486 40.799 21.6576 40.342 21.5464 40.1389C21.3753 39.8343 21.3068 39.7835 21.0758 39.7835C20.9304 39.7835 20.7764 39.8089 20.7507 39.8428ZM19.1935 44.1162C19.1592 44.3616 19.048 44.7593 18.9368 45.0047C18.7656 45.3686 18.663 45.4786 18.3036 45.6563C17.8758 45.8763 17.2426 45.9525 17.14 45.8001C17.1143 45.7578 17.3196 45.5463 17.5849 45.3263C17.8587 45.1147 18.3293 44.6577 18.6373 44.3108C18.9453 43.9638 19.2106 43.6846 19.2191 43.6761C19.2362 43.6761 19.2277 43.8792 19.1935 44.1162Z" stroke="#E8E8E8" stroke-width="6" mask="url(#path-2-inside-2_1_742)"/>
</g>
<defs>
<filter id="filter0_d_1_742" x="0.158966" y="0" width="40.5387" height="57.8535" filterUnits="userSpaceOnUse" color-interpolation-filters="sRGB">
<feFlood flood-opacity="0" result="BackgroundImageFix"/>
<feColorMatrix in="SourceAlpha" type="matrix" values="0 0 0 0 0 0 0 0 0 0 0 0 0 0 0 0 0 0 127 0" result="hardAlpha"/>
<feOffset dy="4"/>
<feGaussianBlur stdDeviation="2"/>
<feComposite in2="hardAlpha" operator="out"/>
<feColorMatrix type="matrix" values="0 0 0 0 0 0 0 0 0 0 0 0 0 0 0 0 0 0 0.25 0"/>
<feBlend mode="normal" in2="BackgroundImageFix" result="effect1_dropShadow_1_742"/>
<feBlend mode="normal" in="SourceGraphic" in2="effect1_dropShadow_1_742" result="shape"/>
</filter>
</defs>
</svg>
