<svg width="81" height="58" viewBox="0 0 81 58" fill="none" xmlns="http://www.w3.org/2000/svg">
<g filter="url(#filter0_d_1_704)">
<path d="M36.4056 0.0242195C34.7218 0.225235 33.9564 0.378948 32.8731 0.733677C29.3759 1.90428 26.915 4.05629 25.8199 6.91777C25.3018 8.27756 25.1723 9.08161 25.184 10.7725C25.1958 13.1492 25.7846 15.3958 27.0563 17.9616L27.2107 18.2684C27.4394 18.7224 27.4389 19.258 27.2093 19.7116C26.8325 20.4802 26.4675 21.7809 26.3262 22.9515C26.3135 23.0476 26.1736 23.0449 26.1644 22.9485L26.1378 22.6677C25.7375 18.6002 22.7466 15.2775 18.4605 14.1542C13.1264 12.7471 7.29782 14.8637 5.31962 18.9194C4.61312 20.362 4.44827 21.1542 4.46005 22.9515C4.47182 25.2454 5.02525 27.1373 6.45002 29.8687C9.41732 35.497 15.976 42.3669 24.5129 48.7875C25.3253 49.3906 26.0436 49.9345 26.126 49.9936C26.3615 50.1828 31.5425 46.1389 34.5687 43.4193C36.8648 41.3619 39.9263 38.2639 41.6808 36.2183L41.7771 36.1035C41.9332 35.9174 42.2091 35.8897 42.3991 36.041C42.5757 36.1947 43.6119 37.0342 44.6834 37.9328C45.755 38.8197 47.5683 40.2386 48.6987 41.0899L49.6961 41.8354C50.335 42.3129 51.2106 42.3175 51.8544 41.8467C56.3525 38.595 61.3097 34.291 65.3132 30.2116C71.4833 23.9093 75.0865 18.2809 76.158 13.2556C76.4524 11.8367 76.4288 9.28262 76.0991 8.0529C75.3808 5.34514 73.6028 3.15765 71.0005 1.78603C64.6656 -1.57206 56.2112 0.213406 52.608 5.67622C51.666 7.10696 50.9006 9.47181 50.8889 10.938C50.8889 11.813 50.7711 11.6238 50.6416 10.5478C50.2059 6.57486 47.9804 3.34684 44.4715 1.5732C43.3529 1.01746 41.7986 0.473545 40.6799 0.260708C39.7262 0.0833435 37.1474 -0.058548 36.4056 0.0242195ZM41.1745 6.33838C45.908 6.87047 49.3581 9.42451 50.4296 13.1728C50.5474 13.6103 50.6534 14.1069 50.6534 14.2843C50.6534 14.84 50.8535 14.7454 50.9242 14.1542C51.1126 12.6052 52.0193 10.8671 53.3263 9.56641C57.7301 5.19143 66.9146 5.29784 70.9299 9.76742C72.8845 11.9313 73.2613 14.911 72.0014 18.34C70.8828 21.3789 68.7751 24.3231 64.9011 28.2251C62.1928 30.9447 60.7092 32.269 57.895 34.4683C55.3045 36.4903 51.3599 39.3163 50.8535 39.5173C50.618 39.6001 43.9652 34.894 43.4706 34.3028C43.3529 34.1609 43.4353 33.9954 43.9181 33.3332C45.8609 30.6727 47.3799 27.492 47.8745 25.068C48.1453 23.7319 48.1335 21.7691 47.8391 20.6339C46.9796 17.264 44.2595 14.9464 40.1501 14.0596C38.8313 13.7758 36.2408 13.7758 34.8984 14.0596C32.8849 14.4853 30.8831 15.4194 29.6821 16.4954C29.0345 17.063 29.0462 17.0748 28.8696 15.6086C28.6577 13.9296 29.0462 12.0259 29.8469 10.7488C31.8134 7.6154 36.4645 5.80629 41.1745 6.33838ZM19.9324 19.4988C21.8753 20.0545 23.2058 20.8468 24.4187 22.1711C25.3842 23.2116 26.1378 24.8788 26.1731 26.0849C26.1849 26.4042 26.2438 26.2859 26.4086 25.5646C26.7383 24.193 27.3271 23.0579 28.1867 22.1238C28.5674 21.7172 29.2267 21.7676 29.5412 22.2274L29.5997 22.313C31.9076 25.7065 35.7344 29.9633 40.103 33.9835L40.6127 34.456C40.8456 34.6719 40.8796 35.0282 40.6917 35.2842C40.1265 36.0291 37.3712 38.8078 35.8169 40.2031C34.4392 41.4446 33.9093 41.8821 31.8722 43.4902C30.9067 44.247 28.5046 45.9852 27.1858 46.8838C26.6244 47.262 25.8889 47.2589 25.3307 46.8759L24.8426 46.5409C22.9821 45.2757 20.6624 43.5494 18.8491 42.0477C11.4426 35.9464 7.55687 30.519 7.55687 26.2268C7.55687 24.3231 8.07497 23.0697 9.44087 21.7099C10.1474 21.0005 10.5477 20.7049 11.4426 20.2674C12.4317 19.7708 13.7387 19.3569 14.7985 19.1914C14.9987 19.1559 15.9995 19.1441 17.0357 19.1677C18.6254 19.1914 19.0728 19.2505 19.9324 19.4988ZM38.4662 19.4042C42.717 20.291 45.2251 23.1052 44.966 26.7234C44.8483 28.4025 43.9887 30.6373 42.7406 32.5291C42.458 32.9548 42.1989 33.2859 42.1518 33.2623C41.8928 33.1677 38.7488 30.3417 37.0768 28.6863C35.0162 26.6643 33.4383 24.867 32.2019 23.1288C31.413 22.041 30.5181 20.5985 30.5181 20.4329C30.5181 20.3028 31.8958 19.7589 32.8496 19.5224C34.5805 19.0731 36.6764 19.0376 38.4662 19.4042Z" fill="#E8E8E8"/>
</g>
<defs>
<filter id="filter0_d_1_704" x="0.459473" y="0" width="79.9041" height="58" filterUnits="userSpaceOnUse" color-interpolation-filters="sRGB">
<feFlood flood-opacity="0" result="BackgroundImageFix"/>
<feColorMatrix in="SourceAlpha" type="matrix" values="0 0 0 0 0 0 0 0 0 0 0 0 0 0 0 0 0 0 127 0" result="hardAlpha"/>
<feOffset dy="4"/>
<feGaussianBlur stdDeviation="2"/>
<feComposite in2="hardAlpha" operator="out"/>
<feColorMatrix type="matrix" values="0 0 0 0 0 0 0 0 0 0 0 0 0 0 0 0 0 0 0.25 0"/>
<feBlend mode="normal" in2="BackgroundImageFix" result="effect1_dropShadow_1_704"/>
<feBlend mode="normal" in="SourceGraphic" in2="effect1_dropShadow_1_704" result="shape"/>
</filter>
</defs>
</svg>
