<svg width="42" height="38" viewBox="0 0 42 38" fill="none" xmlns="http://www.w3.org/2000/svg">
<path d="M0 36.3636C0 35.4599 0.732625 34.7273 1.63636 34.7273H15.2231C15.5282 34.7273 15.8292 34.6575 16.1031 34.5233L20.3295 32.4525C20.9091 32.1685 21.5901 32.1817 22.1583 32.4879L25.869 34.4878C26.1606 34.645 26.4867 34.7273 26.8179 34.7273H40.3636C41.2674 34.7273 42 35.4599 42 36.3636C42 37.2674 41.2674 38 40.3636 38H26.8529C26.4995 38 26.1523 37.9063 25.8468 37.7285L22.2129 35.6133C21.6159 35.2658 20.8819 35.2509 20.2713 35.574L16.1256 37.7678C15.8374 37.9203 15.5163 38 15.1902 38H1.63636C0.732625 38 0 37.2674 0 36.3636Z" fill="url(#paint0_linear_1_613)"/>
<path d="M22.15 30C20.05 30 18.0813 29.6 16.2438 28.8C14.4063 28 12.8063 26.9188 11.4438 25.5563C10.0813 24.1938 9 22.5938 8.2 20.7563C7.4 18.9188 7 16.95 7 14.85C7 11.2 8.1625 7.98125 10.4875 5.19375C12.1793 3.16536 14.2087 1.69627 16.5757 0.786464C17.8857 0.282944 19.1075 1.49238 19.1168 2.89576C19.1265 4.35375 19.3501 5.79644 19.7875 7.22381C20.5125 9.58969 21.7625 11.6614 23.5375 13.4389C25.3125 15.2164 27.3813 16.4682 29.7438 17.1943C31.1851 17.6372 32.6473 17.8612 34.1305 17.8661C35.5267 17.8708 36.7318 19.0801 36.239 20.3863C35.3408 22.7671 33.8694 24.8075 31.825 26.5075C29.025 28.8358 25.8 30 22.15 30ZM22.15 27.75C24.65 27.75 26.925 27.0375 28.975 25.6125C30.1699 24.7819 31.2289 23.8197 32.152 22.7258C33.0908 21.6132 32.2736 20.0159 30.8543 19.6918C29.6902 19.426 28.5512 19.0683 27.4375 18.6188C25.3625 17.7812 23.5312 16.575 21.9438 15C20.3563 13.425 19.15 11.6063 18.325 9.54375C17.8784 8.42713 17.5233 7.28669 17.2598 6.12244C16.942 4.71798 15.3739 3.89839 14.2657 4.81787C13.1642 5.73184 12.1985 6.79463 11.3688 8.00625C9.95625 10.0688 9.25 12.35 9.25 14.85C9.25 18.4333 10.5042 21.4792 13.0125 23.9875C15.5208 26.4958 18.5667 27.75 22.15 27.75Z" fill="url(#paint1_linear_1_613)"/>
<path d="M22.15 30C20.05 30 18.0813 29.6 16.2438 28.8C14.4063 28 12.8063 26.9188 11.4438 25.5563C10.0813 24.1938 9 22.5938 8.2 20.7563C7.4 18.9188 7 16.95 7 14.85C7 11.2 8.1625 7.98125 10.4875 5.19375C12.1793 3.16536 14.2087 1.69627 16.5757 0.786464C17.8857 0.282944 19.1075 1.49238 19.1168 2.89576C19.1265 4.35375 19.3501 5.79644 19.7875 7.22381C20.5125 9.58969 21.7625 11.6614 23.5375 13.4389C25.3125 15.2164 27.3813 16.4682 29.7438 17.1943C31.1851 17.6372 32.6473 17.8612 34.1305 17.8661C35.5267 17.8708 36.7318 19.0801 36.239 20.3863C35.3408 22.7671 33.8694 24.8075 31.825 26.5075C29.025 28.8358 25.8 30 22.15 30ZM22.15 27.75C24.65 27.75 26.925 27.0375 28.975 25.6125C30.1699 24.7819 31.2289 23.8197 32.152 22.7258C33.0908 21.6132 32.2736 20.0159 30.8543 19.6918C29.6902 19.426 28.5512 19.0683 27.4375 18.6188C25.3625 17.7812 23.5312 16.575 21.9438 15C20.3563 13.425 19.15 11.6063 18.325 9.54375C17.8784 8.42713 17.5233 7.28669 17.2598 6.12244C16.942 4.71798 15.3739 3.89839 14.2657 4.81787C13.1642 5.73184 12.1985 6.79463 11.3688 8.00625C9.95625 10.0688 9.25 12.35 9.25 14.85C9.25 18.4333 10.5042 21.4792 13.0125 23.9875C15.5208 26.4958 18.5667 27.75 22.15 27.75Z" stroke="black"/>
<defs>
<linearGradient id="paint0_linear_1_613" x1="-6.51217" y1="27.7148" x2="49.3729" y2="30.7471" gradientUnits="userSpaceOnUse">
<stop stop-color="#A77149"/>
<stop offset="0.46875" stop-color="#DD9F70"/>
<stop offset="1" stop-color="#A77149"/>
</linearGradient>
<linearGradient id="paint1_linear_1_613" x1="2.34845" y1="-21.4259" x2="42.3814" y2="-21.1156" gradientUnits="userSpaceOnUse">
<stop stop-color="#A77149"/>
<stop offset="0.46875" stop-color="#DD9F70"/>
<stop offset="1" stop-color="#A77149"/>
</linearGradient>
</defs>
</svg>
