<svg width="42" height="38" viewBox="0 0 42 38" fill="none" xmlns="http://www.w3.org/2000/svg">
<path d="M0 33.6364C0 34.5401 0.732625 35.2727 1.63636 35.2727H15.2231C15.5282 35.2727 15.8292 35.3425 16.1031 35.4767L20.3295 37.5475C20.9091 37.8315 21.5901 37.8183 22.1583 37.5121L25.869 35.5122C26.1606 35.355 26.4867 35.2727 26.8179 35.2727H40.3636C41.2674 35.2727 42 34.5401 42 33.6364C42 32.7326 41.2674 32 40.3636 32H26.8529C26.4995 32 26.1523 32.0937 25.8468 32.2715L22.2129 34.3867C21.6159 34.7342 20.8819 34.7491 20.2713 34.426L16.1256 32.2322C15.8374 32.0797 15.5163 32 15.1902 32H1.63636C0.732625 32 0 32.7326 0 33.6364Z" fill="url(#paint0_linear_1_616)"/>
<path d="M23.15 30C21.05 30 19.0813 29.6 17.2438 28.8C15.4063 28 13.8063 26.9188 12.4438 25.5563C11.0813 24.1938 10 22.5938 9.2 20.7563C8.4 18.9188 8 16.95 8 14.85C8 11.2 9.1625 7.98125 11.4875 5.19375C13.1793 3.16536 15.2087 1.69627 17.5757 0.786464C18.8857 0.282944 20.1075 1.49238 20.1168 2.89576C20.1265 4.35375 20.3501 5.79644 20.7875 7.22381C21.5125 9.58969 22.7625 11.6614 24.5375 13.4389C26.3125 15.2164 28.3813 16.4682 30.7438 17.1943C32.1851 17.6372 33.6473 17.8612 35.1305 17.8661C36.5267 17.8708 37.7318 19.0801 37.239 20.3863C36.3408 22.7671 34.8694 24.8075 32.825 26.5075C30.025 28.8358 26.8 30 23.15 30ZM23.15 27.75C25.65 27.75 27.925 27.0375 29.975 25.6125C31.1699 24.7819 32.2289 23.8197 33.152 22.7258C34.0908 21.6132 33.2736 20.0159 31.8543 19.6918C30.6902 19.426 29.5512 19.0683 28.4375 18.6188C26.3625 17.7812 24.5312 16.575 22.9438 15C21.3563 13.425 20.15 11.6063 19.325 9.54375C18.8784 8.42713 18.5233 7.28669 18.2598 6.12244C17.942 4.71798 16.3739 3.89839 15.2657 4.81787C14.1642 5.73184 13.1985 6.79463 12.3688 8.00625C10.9562 10.0688 10.25 12.35 10.25 14.85C10.25 18.4333 11.5042 21.4792 14.0125 23.9875C16.5208 26.4958 19.5667 27.75 23.15 27.75Z" fill="url(#paint1_linear_1_616)"/>
<path d="M23.15 30C21.05 30 19.0813 29.6 17.2438 28.8C15.4063 28 13.8063 26.9188 12.4438 25.5563C11.0813 24.1938 10 22.5938 9.2 20.7563C8.4 18.9188 8 16.95 8 14.85C8 11.2 9.1625 7.98125 11.4875 5.19375C13.1793 3.16536 15.2087 1.69627 17.5757 0.786464C18.8857 0.282944 20.1075 1.49238 20.1168 2.89576C20.1265 4.35375 20.3501 5.79644 20.7875 7.22381C21.5125 9.58969 22.7625 11.6614 24.5375 13.4389C26.3125 15.2164 28.3813 16.4682 30.7438 17.1943C32.1851 17.6372 33.6473 17.8612 35.1305 17.8661C36.5267 17.8708 37.7318 19.0801 37.239 20.3863C36.3408 22.7671 34.8694 24.8075 32.825 26.5075C30.025 28.8358 26.8 30 23.15 30ZM23.15 27.75C25.65 27.75 27.925 27.0375 29.975 25.6125C31.1699 24.7819 32.2289 23.8197 33.152 22.7258C34.0908 21.6132 33.2736 20.0159 31.8543 19.6918C30.6902 19.426 29.5512 19.0683 28.4375 18.6188C26.3625 17.7812 24.5312 16.575 22.9438 15C21.3563 13.425 20.15 11.6063 19.325 9.54375C18.8784 8.42713 18.5233 7.28669 18.2598 6.12244C17.942 4.71798 16.3739 3.89839 15.2657 4.81787C14.1642 5.73184 13.1985 6.79463 12.3688 8.00625C10.9562 10.0688 10.25 12.35 10.25 14.85C10.25 18.4333 11.5042 21.4792 14.0125 23.9875C16.5208 26.4958 19.5667 27.75 23.15 27.75Z" stroke="black"/>
<defs>
<linearGradient id="paint0_linear_1_616" x1="-6.51217" y1="42.2852" x2="49.3729" y2="39.2529" gradientUnits="userSpaceOnUse">
<stop stop-color="#A77149"/>
<stop offset="0.46875" stop-color="#DD9F70"/>
<stop offset="1" stop-color="#A77149"/>
</linearGradient>
<linearGradient id="paint1_linear_1_616" x1="3.34845" y1="-21.4259" x2="43.3814" y2="-21.1156" gradientUnits="userSpaceOnUse">
<stop stop-color="#A77149"/>
<stop offset="0.46875" stop-color="#DD9F70"/>
<stop offset="1" stop-color="#A77149"/>
</linearGradient>
</defs>
</svg>
