<svg width="59" height="57" viewBox="0 0 59 57" fill="none" xmlns="http://www.w3.org/2000/svg">
<g filter="url(#filter0_d_1_737)">
<mask id="path-1-inside-1_1_737" fill="white">
<path d="M26.8726 0.0533942C22.1571 0.529279 17.5474 2.40427 13.8424 5.36428C12.6876 6.27798 10.5415 8.46705 9.67541 9.60918C7.25991 12.7881 5.74903 16.2811 5.01764 20.3261C4.72894 21.9251 4.65195 25.5038 4.87329 27.3026C5.82601 34.9834 10.3106 41.6648 17.1529 45.5766C18.8755 46.5665 21.5027 47.6229 21.9742 47.5278C22.5324 47.404 22.7441 46.6426 22.3303 46.2714C22.2052 46.1667 21.724 45.9383 21.2428 45.767C19.347 45.0817 17.2395 43.9396 15.4687 42.6356C14.2466 41.7315 11.8214 39.333 10.9168 38.1338C7.80845 34.0126 6.27832 29.4822 6.27832 24.4187C6.27832 19.2506 7.76996 14.7583 10.8591 10.6466C11.8214 9.36172 14.2177 6.99181 15.5169 6.04003C18.8658 3.57495 22.6286 2.0997 26.8052 1.60478C28.0659 1.4525 30.9722 1.48105 32.3098 1.65237C35.7839 2.0997 39.2484 3.37508 42.0681 5.24055C42.963 5.83065 43.3191 5.90679 43.6559 5.57367C43.9831 5.25006 43.9928 4.76466 43.6944 4.48865C43.3287 4.15553 41.8948 3.27038 40.8266 2.71835C38.2572 1.37636 35.3797 0.491208 32.358 0.120016C31.3571 -0.00371198 27.8349 -0.0417827 26.8726 0.0533942Z"/>
<path d="M31.8577 3.31719C31.771 3.3743 31.5497 3.62176 31.3572 3.88825L31.0108 4.36414H30.0677C29.4229 4.36414 29.0668 4.40221 28.9417 4.49739C28.8359 4.56401 28.576 4.97327 28.3643 5.40157C28.1622 5.82035 27.9601 6.17251 27.9313 6.17251C27.9024 6.17251 27.7003 5.82035 27.4982 5.40157C27.0844 4.56401 26.8823 4.36414 26.4589 4.36414C26.1221 4.36414 25.7179 4.74485 25.7179 5.07797C25.7179 5.21122 26.0836 6.04878 26.5359 6.93392C27.2384 8.31399 27.3924 8.55194 27.6426 8.63759C27.8447 8.70422 28.0179 8.70422 28.22 8.63759C28.4606 8.55194 28.6049 8.33303 29.1823 7.20994L29.8656 5.88698H30.9049L31.1551 6.66743C31.6171 8.12364 31.5689 8.57097 30.9434 8.40917C30.2602 8.24737 30.0966 8.24737 29.8271 8.45676C29.5288 8.6947 29.471 9.14203 29.7116 9.46564C30.0677 9.97959 31.261 10.1509 31.9635 9.78924C33.0895 9.22769 33.2723 8.22833 32.6372 6.21058L32.3292 5.23025L32.6756 4.72581C32.8777 4.44028 33.0317 4.10716 33.0317 3.95488C33.0317 3.42189 32.3388 3.04118 31.8577 3.31719Z"/>
<path d="M19.9436 5.26875C19.3373 5.61138 18.7792 5.96354 18.7214 6.0492C18.529 6.29666 18.5675 6.81062 18.7984 7.03904C18.9716 7.21036 19.0871 7.23891 19.4817 7.20084C19.7993 7.16277 19.9436 7.18181 19.9147 7.25795C19.8859 7.31505 19.8185 7.6101 19.7511 7.90515C19.6357 8.41911 19.6068 8.45718 19.347 8.45718C19.1737 8.45718 18.9716 8.55236 18.8177 8.70464C18.6156 8.90451 18.5867 9.00921 18.6252 9.29474C18.6637 9.50413 18.7792 9.72304 18.9235 9.83725L19.1737 10.0276L18.885 11.0746C18.7118 11.7027 18.6156 12.2262 18.6541 12.3785C18.7695 12.921 19.5394 13.1209 19.9147 12.7116C20.0399 12.5879 20.2323 12.0739 20.3959 11.4553C20.675 10.4178 20.675 10.4178 21.0022 10.3512C21.3968 10.2655 21.6758 9.96098 21.6758 9.60882C21.6758 9.30426 21.4353 8.93307 21.2332 8.93307C21.1562 8.93307 21.0984 8.90451 21.0984 8.87596C21.0984 8.81885 21.3486 7.88612 21.4449 7.61962C21.4641 7.53396 21.5604 7.58155 21.7143 7.75287C21.9838 8.07647 22.5227 8.11454 22.8307 7.83853C23.1771 7.52445 23.0905 7.08663 22.4361 5.98257C21.7528 4.8119 21.7143 4.76431 21.339 4.69768C21.1081 4.6501 20.8386 4.76431 19.9436 5.26875Z"/>
<path d="M36.6309 5.03134C36.3807 5.12652 36.1112 5.48819 36.1112 5.71662C36.1112 5.95456 37.0158 7.72486 37.2179 7.88666C37.343 7.99135 37.6029 8.01991 38.1707 8.00087L38.9598 7.97232L39.2389 8.5529C39.6431 9.39997 39.7393 9.45708 40.615 9.42853C42.2799 9.38094 42.6552 9.22865 42.6552 8.61C42.6552 8.42917 42.5782 8.19122 42.482 8.06749C42.3184 7.86762 42.2318 7.8581 41.4715 7.87714L40.6439 7.89617L40.3071 7.22993C40.1146 6.86826 39.9125 6.53514 39.8548 6.49707C39.7874 6.459 39.3736 6.43996 38.9405 6.44948L38.1418 6.46852L37.805 5.80228C37.6125 5.4406 37.4296 5.12652 37.3912 5.09797C37.1987 4.99327 36.8137 4.96472 36.6309 5.03134Z"/>
<path d="M45.4653 6.52521C45.2632 6.60135 45.0419 7.12482 45.1092 7.3818C45.1381 7.51505 45.6096 8.0766 46.1582 8.64766C49.3436 11.9408 51.4318 16.0905 52.2402 20.7352C52.4519 21.9629 52.5289 25.3703 52.3749 26.7599C51.9226 30.9381 50.4021 34.7262 47.8327 38.1335C46.9377 39.3232 44.5126 41.7217 43.3096 42.6069C39.9607 45.0815 36.4096 46.5091 32.2137 47.0611C30.2409 47.3181 26.661 47.2039 24.9384 46.8232C24.2166 46.6614 23.7932 46.9279 23.7932 47.5466C23.7932 48.1652 24.1396 48.308 26.3145 48.5745C27.8543 48.7648 30.8953 48.7648 32.4543 48.5745C35.8226 48.1652 39.3063 46.9755 42.1259 45.2718C45.4268 43.2826 48.5159 40.2274 50.5272 36.9629C52.2498 34.1742 53.4528 30.7288 53.8666 27.3976C54.0591 25.8462 54.0591 22.8576 53.8666 21.3062C53.2026 16.0144 50.6331 10.7701 46.9569 7.23904C46.1486 6.45859 45.908 6.34437 45.4653 6.52521Z"/>
<path d="M35.1874 7.50593C34.9371 7.60111 34.6677 7.96278 34.6677 8.19121C34.6677 8.42915 35.5723 10.1994 35.7744 10.3612C35.8995 10.4659 36.1593 10.4945 36.7271 10.4755L37.5162 10.4469L37.7953 11.0275C38.1995 11.8746 38.2957 11.9317 39.1715 11.9031C40.8363 11.8555 41.2117 11.7032 41.2117 11.0846C41.2117 10.9038 41.1347 10.6658 41.0384 10.5421C40.8748 10.3422 40.7882 10.3327 40.028 10.3517L39.2003 10.3708L38.8539 9.69501C38.6518 9.28575 38.4305 8.9907 38.3054 8.94311C38.1899 8.90504 37.7857 8.886 37.4008 8.91455L36.7079 8.96214L36.3614 8.28638C36.1689 7.91519 35.9861 7.60111 35.9476 7.57256C35.7551 7.46786 35.3702 7.43931 35.1874 7.50593Z"/>
<path d="M13.2841 10.8748C13.0435 11.0461 12.9377 11.4078 13.0243 11.7124C13.0628 11.8551 13.6113 12.5594 14.2465 13.2828C14.872 14.0061 15.4398 14.6914 15.5071 14.8151C15.6323 15.0436 15.5649 15.4052 15.4013 15.4052C15.3435 15.4052 14.795 15.1292 14.1791 14.7866C12.726 13.9871 11.9657 13.8443 11.2343 14.2441C10.6665 14.5391 10.1372 15.4624 9.92552 16.5188C9.81967 17.0233 9.82929 17.128 9.95439 17.3278C10.1469 17.6134 13.7942 19.6882 14.1021 19.6882C14.5063 19.6882 14.8431 19.3456 14.8431 18.9363C14.8431 18.4699 14.7373 18.3843 13.0147 17.404C12.2448 16.9757 11.6 16.6045 11.5904 16.5854C11.5038 16.5283 11.6962 15.9668 11.8695 15.7479C12.0427 15.5385 12.0908 15.5195 12.3699 15.6146C12.5335 15.6717 13.1301 15.9763 13.6883 16.2904C14.5159 16.7663 14.795 16.8805 15.2377 16.909C15.921 16.9566 16.4695 16.6997 16.8352 16.1476C17.0661 15.805 17.1046 15.6527 17.1046 15.0816C17.095 14.6438 17.0469 14.3012 16.941 14.1204C16.7293 13.7301 14.3138 10.9605 14.0829 10.8367C13.8327 10.7035 13.4862 10.7225 13.2841 10.8748Z"/>
<path d="M27.1036 11.5603C24.5727 11.9791 21.9262 13.3401 20.0881 15.1675C18.7312 16.5 17.5186 18.4321 16.922 20.2119C16.5178 21.3921 16.4986 21.7157 16.7969 22.0108C17.0952 22.3058 17.5187 22.3344 17.8074 22.0869C17.9228 22.0012 18.1538 21.4778 18.3463 20.8877C19.7128 16.8046 23.0714 13.8636 27.2961 13.0736C28.1718 12.9023 30.2794 12.8738 31.107 13.0165C34.2443 13.5495 36.8426 15.1199 38.7096 17.5945C41.2983 21.0495 41.664 25.7607 39.643 29.6344C38.8732 31.1002 37.6221 32.5373 36.2075 33.5843C32.1945 36.5253 26.5551 36.5253 22.5421 33.5843C19.7417 31.5189 18.0864 28.5399 17.8266 25.085C17.7592 24.1998 17.7207 24.019 17.5283 23.8191C17.2588 23.5336 16.7873 23.5146 16.4986 23.781C16.3061 23.9619 16.2868 24.0761 16.2868 24.8566C16.2868 26.998 17.1337 29.6249 18.4329 31.538C20.4538 34.5075 23.6873 36.5919 27.1614 37.1534C28.3354 37.3343 30.4141 37.3343 31.5882 37.1534C35.6204 36.5062 39.2389 33.8508 41.1058 30.177C42.0297 28.3591 42.4627 26.5031 42.4627 24.3521C42.4627 22.2011 42.0297 20.3452 41.1058 18.5273C39.2389 14.8534 35.6204 12.198 31.5882 11.5508C30.4622 11.3795 28.1911 11.3795 27.1036 11.5603Z"/>
<path d="M45.7155 11.5216C45.6289 11.5882 45.446 11.8928 45.292 12.1878C45.1477 12.4924 44.9456 12.816 44.8397 12.9017C44.6569 13.0635 44.6473 13.0635 44.5414 12.8921C44.4837 12.797 44.3297 12.5876 44.2142 12.4448C43.9159 12.0831 43.4251 12.0641 43.0883 12.4067C42.7996 12.6827 42.7899 12.9112 43.0402 13.4156C43.1556 13.625 43.2134 13.8344 43.1845 13.882C43.1556 13.9391 42.7226 13.9772 42.2222 13.9772C41.3657 13.9772 41.3079 13.9867 41.1251 14.2246C40.8556 14.5577 40.8749 14.8623 41.1539 15.1859C41.3849 15.4429 41.4138 15.4524 42.3858 15.4524C42.9247 15.4524 43.5502 15.4143 43.7619 15.3763L44.1469 15.3001L44.4163 15.7855L44.6954 16.2709L44.2431 16.7468C43.7812 17.2417 43.2326 18.2506 43.2326 18.6218C43.2326 18.9549 43.3866 19.1738 43.7138 19.3071C44.195 19.5069 44.5222 19.2976 44.8686 18.6028C45.0226 18.2792 45.2343 17.9365 45.3305 17.8413C45.5134 17.6891 45.523 17.6986 45.7155 18.0127C45.9849 18.4695 46.3314 18.6694 46.6971 18.5932C47.2649 18.4695 47.4477 17.8413 47.0724 17.2417C46.9569 17.0609 46.8992 16.8896 46.9377 16.8515C46.9762 16.8134 47.4092 16.7849 47.9 16.7849C48.9682 16.7849 49.1992 16.6516 49.1992 16.0615C49.1992 15.5856 48.8912 15.3477 48.1598 15.2525C47.669 15.1954 46.6008 15.3001 46.2063 15.4524C46.1197 15.481 45.9657 15.3287 45.7636 15.0051L45.4653 14.5101L45.9272 14.0057C46.7933 13.073 47.1301 12.026 46.6971 11.5977C46.4757 11.3788 45.9464 11.3407 45.7155 11.5216Z"/>
<path d="M28.7974 14.4731C28.6145 14.6635 28.6049 14.7967 28.6049 16.3291V17.9757L28.3451 18.0233C27.9794 18.0994 27.1421 18.3278 26.9689 18.3944C26.863 18.4325 26.6417 18.1279 26.1028 17.1952C25.1404 15.5391 25.1116 15.5011 24.6496 15.5011C24.3994 15.5011 24.207 15.5677 24.0819 15.6914C23.7354 16.034 23.8316 16.4052 24.6593 17.8234C25.0827 18.5467 25.4291 19.1463 25.4291 19.1654C25.4291 19.2034 24.1685 20.4503 24.13 20.4503C24.1107 20.4503 23.5044 20.1076 22.7731 19.6889C21.3392 18.8703 20.9638 18.7751 20.6174 19.1178C20.4923 19.2415 20.4249 19.4319 20.4249 19.6793C20.4249 20.1362 20.4538 20.1647 22.1475 21.1165C23.081 21.6495 23.389 21.8684 23.3505 21.9731C23.312 22.0492 23.1965 22.449 23.0906 22.8487L22.8982 23.5911H21.2429C19.7224 23.5911 19.5781 23.6101 19.3856 23.7815C19.068 24.0765 19.0969 24.6571 19.4241 24.9141C19.6647 25.0949 19.809 25.1139 21.291 25.1139H22.8982L23.0906 25.8468C23.1965 26.2561 23.312 26.6558 23.3505 26.732C23.389 26.8367 23.081 27.0556 22.1379 27.5886C20.4634 28.5403 20.4249 28.5689 20.4249 29.0257C20.4249 29.2732 20.4923 29.4635 20.6174 29.5873C20.9638 29.9299 21.3392 29.8347 22.7731 29.0162C23.5044 28.5974 24.1107 28.2548 24.13 28.2548C24.1685 28.2548 25.4291 29.5016 25.4291 29.5397C25.4291 29.5587 25.0827 30.1583 24.6593 30.8817C23.8316 32.2998 23.7354 32.671 24.0819 33.0136C24.207 33.1374 24.3994 33.204 24.6496 33.204C25.1116 33.204 25.1404 33.1659 26.1028 31.5098C26.6417 30.5771 26.863 30.2725 26.9689 30.3106C27.1421 30.3772 27.9794 30.6057 28.3451 30.6818L28.6049 30.7294V32.376C28.6049 33.9749 28.6145 34.032 28.8262 34.2319C29.1534 34.5365 29.6827 34.5174 29.9426 34.1938C30.1254 33.9559 30.1446 33.8131 30.1446 32.3379V30.7294L30.4141 30.6818C30.7702 30.6057 31.6074 30.3772 31.7806 30.3106C31.8865 30.2725 32.1078 30.5771 32.6468 31.5098C33.6091 33.1659 33.638 33.204 34.0999 33.204C34.3501 33.204 34.5426 33.1374 34.6677 33.0136C35.0141 32.671 34.9179 32.2998 34.0903 30.8817C33.6668 30.1583 33.3204 29.5587 33.3204 29.5397C33.3204 29.5016 34.5811 28.2548 34.6196 28.2548C34.6388 28.2548 35.2451 28.5974 35.9765 29.0162C37.4104 29.8347 37.7857 29.9299 38.1321 29.5873C38.2572 29.4635 38.3246 29.2732 38.3246 29.0257C38.3246 28.5689 38.2861 28.5403 36.6116 27.5886C35.6685 27.0556 35.3606 26.8367 35.3991 26.732C35.4664 26.5606 35.6974 25.7326 35.7744 25.3709L35.8225 25.1139H37.4489C38.9405 25.1139 39.0849 25.0949 39.3255 24.9141C39.6623 24.6571 39.6719 24.0956 39.3543 23.8005C39.1426 23.6006 39.0464 23.5911 37.4777 23.5911H35.8225L35.7744 23.3246C35.6974 22.9725 35.4664 22.1444 35.3991 21.9731C35.3606 21.8684 35.6685 21.64 36.602 21.1165C38.2957 20.1647 38.3246 20.1362 38.3246 19.6793C38.3246 19.4319 38.2572 19.2415 38.1321 19.1178C37.7664 18.7561 37.4296 18.8608 35.63 19.8887C34.7062 20.4122 33.8786 20.9071 33.7823 20.9928C33.4936 21.2498 33.4936 21.5638 33.7919 22.2396C34.1865 23.1438 34.2827 23.5435 34.2827 24.362C34.2827 27.008 32.0597 29.2066 29.3748 29.2066C26.6802 29.2066 24.4668 27.0175 24.4668 24.3525C24.4668 21.6971 26.6898 19.4985 29.3651 19.4985C30.1928 19.4985 30.597 19.5937 31.5112 19.9839C32.1944 20.2789 32.512 20.2789 32.7719 19.9934C32.8585 19.8982 33.3589 19.0797 33.8882 18.166C34.9275 16.3862 35.0334 16.0531 34.6677 15.6914C34.5426 15.5677 34.3501 15.5011 34.0999 15.5011C33.638 15.5011 33.6091 15.5296 32.6468 17.2047C32.1175 18.1279 31.8865 18.4325 31.7806 18.3944C31.6074 18.3278 30.7702 18.0994 30.4141 18.0233L30.1446 17.9757V16.3291C30.1446 14.7301 30.135 14.673 29.9233 14.4731C29.625 14.1876 29.0668 14.1876 28.7974 14.4731Z"/>
<path d="M12.7454 20.7354C12.5337 20.9353 12.5337 20.9638 12.5337 24.257V27.5786L12.7839 27.769C13.1111 28.026 13.3998 28.026 13.727 27.769L13.9772 27.5786V24.257C13.9772 20.9638 13.9772 20.9353 13.7655 20.7354C13.65 20.6307 13.4287 20.5451 13.2555 20.5451C13.0822 20.5451 12.8609 20.6307 12.7454 20.7354Z"/>
<path d="M9.85838 20.9255C9.68516 21.0873 9.64666 21.2301 9.64666 21.6774C9.64666 22.239 9.64666 22.239 9.23285 22.4769C9.00189 22.6102 8.68431 22.9052 8.53034 23.1241C8.2705 23.4953 8.25126 23.5905 8.25126 24.3519C8.25126 25.1133 8.2705 25.2085 8.53034 25.5797C8.68431 25.7986 9.00189 26.0936 9.23285 26.2269C9.64666 26.4648 9.64666 26.4648 9.64666 27.0169C9.64666 27.5023 9.67553 27.5974 9.89687 27.7688C10.0412 27.883 10.2529 27.9686 10.3684 27.9686C10.4839 27.9686 10.6956 27.883 10.84 27.7688C11.0806 27.5784 11.0902 27.5499 11.0902 26.5029C11.0902 25.5035 11.0709 25.4179 10.8688 25.2275C10.7437 25.1133 10.532 25.0181 10.3877 25.0181C9.81989 25.0181 9.53118 24.2758 9.93537 23.876C10.0412 23.7713 10.2337 23.6857 10.3588 23.6857C10.4839 23.6857 10.6956 23.6 10.84 23.4858C11.0806 23.2954 11.0902 23.2669 11.0902 22.2199C11.0902 21.2206 11.0709 21.1349 10.8688 20.9446C10.5898 20.6781 10.1375 20.6781 9.85838 20.9255Z"/>
<path d="M47.8134 20.9345C47.4573 21.2105 47.4573 21.7816 47.8134 22.0576C47.9578 22.1718 48.1695 22.2575 48.2946 22.2575C48.6122 22.2575 48.9105 22.5811 48.9105 22.9237C48.9105 23.0855 48.8239 23.2949 48.718 23.3996C48.5448 23.5709 48.4004 23.59 46.9473 23.59C45.5038 23.59 45.3594 23.609 45.1188 23.7898C44.9264 23.9421 44.8686 24.0658 44.8686 24.3514C44.8686 24.6369 44.9264 24.7606 45.1188 24.9129C45.3594 25.0938 45.5038 25.1128 46.9473 25.1128C48.4004 25.1128 48.5448 25.1318 48.718 25.3031C49.1126 25.6934 48.8335 26.4453 48.2946 26.4453C48.1695 26.4453 47.9578 26.5309 47.8134 26.6451C47.6209 26.7974 47.5632 26.9212 47.5632 27.2067C47.5632 28.4154 49.613 28.0823 50.2578 26.7784C50.5465 26.1978 50.5465 25.3698 50.2578 24.7797L50.0461 24.3514L50.2578 23.9231C50.5465 23.333 50.5465 22.5049 50.2578 21.9244C49.7958 20.9726 48.4582 20.4301 47.8134 20.9345Z"/>
<path d="M13.5922 29.2059C13.4863 29.3106 13.1976 29.8246 12.957 30.3481L12.5143 31.2903L9.97374 31.1761L9.76202 31.4426C9.49257 31.7852 9.49257 32.0803 9.78127 32.4134C10.0026 32.6609 10.07 32.6799 10.8976 32.718C11.6675 32.7465 11.7733 32.7656 11.706 32.9083C11.5135 33.3652 11.3691 34.2598 11.4076 34.7452C11.475 35.5067 11.7926 36.0872 12.5336 36.8391C13.0244 37.3436 13.2265 37.4863 13.4382 37.4863C13.621 37.4863 14.3428 37.1342 15.411 36.5251C17.6629 35.2402 17.7303 35.1831 17.7303 34.7357C17.7303 34.3074 17.4127 33.9648 17.0181 33.9648C16.8545 33.9648 16.1328 34.3169 15.1704 34.869L13.5922 35.7636L13.3612 35.4591C12.8415 34.7738 12.803 34.4407 13.1399 33.5365L13.3516 32.9654H14.6123C16.0847 32.9654 16.2867 32.8798 16.2867 32.2421C16.2867 31.8138 15.9403 31.4902 15.4784 31.4902C15.3148 31.4902 14.9587 31.4616 14.6796 31.4331L14.1792 31.3665L14.516 30.7193C14.9202 29.9102 14.9395 29.4915 14.593 29.2155C14.2658 28.9585 13.8424 28.9585 13.5922 29.2059Z"/>
<path d="M43.3481 30.329C42.2799 30.7097 41.5966 31.6996 41.5966 32.8703C41.5966 34.4407 42.7322 35.5352 44.3393 35.5162L45.0226 35.5067L45.1958 35.9254C45.4364 36.4965 46.2351 37.2008 46.6393 37.2008C47.0435 37.2008 47.3418 36.9819 47.4188 36.6393C47.4958 36.2871 47.3996 36.1063 46.8799 35.6018C46.495 35.2211 46.4853 35.1831 46.5238 34.7262C46.6105 33.8791 47.2841 33.4508 48.0828 33.7268C48.641 33.9267 48.8816 33.9077 49.1511 33.6317C49.4109 33.3842 49.459 33.0321 49.2858 32.7085C49.1126 32.3848 48.3716 32.1279 47.592 32.1279H46.8895L46.7933 31.8233C46.7356 31.652 46.5335 31.3379 46.3506 31.119C45.6289 30.2909 44.3874 29.9673 43.3481 30.329ZM44.782 31.8233C45.1284 32.0041 45.446 32.4895 45.446 32.8512C45.446 33.6412 44.5895 34.2313 43.8774 33.9267C43.1268 33.6222 42.8862 32.7465 43.3962 32.1564C43.8004 31.671 44.2623 31.5663 44.782 31.8233Z"/>
<path d="M19.6839 35.3924C19.4241 35.4971 19.2701 35.7731 19.2701 36.1253C19.2701 36.506 19.4433 36.6963 19.8956 36.8486C20.6366 37.1056 20.4538 37.3911 19.0391 38.1906C18.3944 38.5618 17.8651 39.0567 17.5571 39.5707C17.3358 39.9514 17.2973 40.1132 17.2973 40.7699C17.2973 41.3695 17.3454 41.617 17.509 41.9216C17.8554 42.5593 18.1826 42.8829 18.8082 43.1874C19.2797 43.4254 19.5203 43.4825 20.0207 43.4825C20.3672 43.4825 20.8099 43.4349 21.0216 43.3683C21.5797 43.2065 22.2438 42.5783 22.5421 41.9311C22.7249 41.5313 22.8789 41.341 23.1195 41.2173C23.8028 40.8746 23.7162 40.1513 22.927 39.7325C22.0802 39.2757 21.7337 39.466 21.3873 40.5986C21.0889 41.5599 20.7232 41.9596 20.1362 41.9596C19.0103 41.9596 18.3944 40.7414 19.1546 40.0371C19.299 39.8943 19.7801 39.5612 20.2324 39.2947C21.2333 38.6856 21.4258 38.5237 21.6856 37.9908C21.9743 37.4102 21.9166 36.5917 21.5509 36.1253C21.1467 35.6018 20.1458 35.2116 19.6839 35.3924Z"/>
<path d="M39.0751 36.1156C38.9211 36.1917 38.8056 36.2869 38.8056 36.3345C38.8056 36.5153 37.9491 37.3529 37.4198 37.6955C36.8232 38.0762 35.8031 38.4379 35.3316 38.4379C34.6387 38.4379 34.2248 39.009 34.5136 39.561C34.6868 39.8941 34.8311 39.9607 35.3797 39.9607H35.7839L37.0542 42.1308L36.8713 42.3973C36.6307 42.7685 36.6307 43.33 36.8809 43.5775C37.1696 43.863 37.7085 43.8344 37.9684 43.5204C38.6228 42.7399 38.9981 42.3687 39.4312 42.1022C40.0374 41.7215 40.8169 41.4265 41.5002 41.3408C42.3182 41.2361 42.6839 40.7412 42.3663 40.1511C42.2508 39.9322 41.6927 39.7418 41.3751 39.818C41.1538 39.8751 41.096 39.7989 40.4897 38.7615L39.845 37.6479L40.0471 37.2958C40.3646 36.7247 40.3069 36.3345 39.8546 36.1061C39.5178 35.9347 39.4023 35.9347 39.0751 36.1156ZM39.4793 40.1987C39.4697 40.2843 38.2186 41.0457 38.1801 40.9886C38.1705 40.9696 37.978 40.6365 37.7567 40.2463C37.4391 39.6942 37.3717 39.5134 37.4776 39.4563C37.545 39.4182 37.8433 39.2469 38.132 39.0756L38.6613 38.7615L39.0655 39.4373C39.2964 39.7989 39.4793 40.1416 39.4793 40.1987Z"/>
<path d="M28.3065 39.0472C26.7763 39.485 25.9776 40.5225 26.2952 41.6836C26.5261 42.5402 27.142 43.0066 28.0178 43.0066C28.422 43.0066 28.5278 42.9685 28.6914 42.7591C28.8069 42.6164 28.8935 42.407 28.8935 42.2928C28.8935 41.9692 28.5471 41.6075 28.1814 41.5409C27.5943 41.4267 27.6328 41.0269 28.2584 40.6938C28.5856 40.5225 28.8069 40.4844 29.6153 40.4844C30.4333 40.4844 30.6354 40.513 30.9818 40.6938C31.4822 40.9603 31.7806 40.9698 32.1077 40.7128C32.3002 40.5605 32.358 40.4368 32.358 40.1608C32.358 39.7135 32.0981 39.4565 31.386 39.1805C30.7316 38.933 28.9801 38.8569 28.3065 39.0472Z"/>
<path d="M30.0579 41.8271C29.9424 41.9698 29.8558 42.1792 29.8558 42.2934C29.8558 42.6171 30.2023 42.9787 30.568 43.0453C31.1358 43.15 31.1069 43.5308 30.5006 43.8734C30.1445 44.0733 29.9713 44.1018 29.1341 44.1018C28.3161 44.1018 28.114 44.0733 27.7675 43.8829C27.2671 43.6259 26.9688 43.6164 26.6416 43.8734C26.3048 44.1399 26.2951 44.6919 26.6223 44.9965C27.0169 45.3582 27.806 45.5961 28.8069 45.6532C29.9039 45.7008 30.5295 45.5866 31.3378 45.1678C33.1952 44.197 32.7525 41.5796 30.7316 41.5796C30.3274 41.5796 30.2215 41.6177 30.0579 41.8271Z"/>
</mask>
<path d="M26.8726 0.0533942C22.1571 0.529279 17.5474 2.40427 13.8424 5.36428C12.6876 6.27798 10.5415 8.46705 9.67541 9.60918C7.25991 12.7881 5.74903 16.2811 5.01764 20.3261C4.72894 21.9251 4.65195 25.5038 4.87329 27.3026C5.82601 34.9834 10.3106 41.6648 17.1529 45.5766C18.8755 46.5665 21.5027 47.6229 21.9742 47.5278C22.5324 47.404 22.7441 46.6426 22.3303 46.2714C22.2052 46.1667 21.724 45.9383 21.2428 45.767C19.347 45.0817 17.2395 43.9396 15.4687 42.6356C14.2466 41.7315 11.8214 39.333 10.9168 38.1338C7.80845 34.0126 6.27832 29.4822 6.27832 24.4187C6.27832 19.2506 7.76996 14.7583 10.8591 10.6466C11.8214 9.36172 14.2177 6.99181 15.5169 6.04003C18.8658 3.57495 22.6286 2.0997 26.8052 1.60478C28.0659 1.4525 30.9722 1.48105 32.3098 1.65237C35.7839 2.0997 39.2484 3.37508 42.0681 5.24055C42.963 5.83065 43.3191 5.90679 43.6559 5.57367C43.9831 5.25006 43.9928 4.76466 43.6944 4.48865C43.3287 4.15553 41.8948 3.27038 40.8266 2.71835C38.2572 1.37636 35.3797 0.491208 32.358 0.120016C31.3571 -0.00371198 27.8349 -0.0417827 26.8726 0.0533942Z" stroke="#E8E8E8" stroke-width="6" mask="url(#path-1-inside-1_1_737)"/>
<path d="M31.8577 3.31719C31.771 3.3743 31.5497 3.62176 31.3572 3.88825L31.0108 4.36414H30.0677C29.4229 4.36414 29.0668 4.40221 28.9417 4.49739C28.8359 4.56401 28.576 4.97327 28.3643 5.40157C28.1622 5.82035 27.9601 6.17251 27.9313 6.17251C27.9024 6.17251 27.7003 5.82035 27.4982 5.40157C27.0844 4.56401 26.8823 4.36414 26.4589 4.36414C26.1221 4.36414 25.7179 4.74485 25.7179 5.07797C25.7179 5.21122 26.0836 6.04878 26.5359 6.93392C27.2384 8.31399 27.3924 8.55194 27.6426 8.63759C27.8447 8.70422 28.0179 8.70422 28.22 8.63759C28.4606 8.55194 28.6049 8.33303 29.1823 7.20994L29.8656 5.88698H30.9049L31.1551 6.66743C31.6171 8.12364 31.5689 8.57097 30.9434 8.40917C30.2602 8.24737 30.0966 8.24737 29.8271 8.45676C29.5288 8.6947 29.471 9.14203 29.7116 9.46564C30.0677 9.97959 31.261 10.1509 31.9635 9.78924C33.0895 9.22769 33.2723 8.22833 32.6372 6.21058L32.3292 5.23025L32.6756 4.72581C32.8777 4.44028 33.0317 4.10716 33.0317 3.95488C33.0317 3.42189 32.3388 3.04118 31.8577 3.31719Z" stroke="#E8E8E8" stroke-width="6" mask="url(#path-1-inside-1_1_737)"/>
<path d="M19.9436 5.26875C19.3373 5.61138 18.7792 5.96354 18.7214 6.0492C18.529 6.29666 18.5675 6.81062 18.7984 7.03904C18.9716 7.21036 19.0871 7.23891 19.4817 7.20084C19.7993 7.16277 19.9436 7.18181 19.9147 7.25795C19.8859 7.31505 19.8185 7.6101 19.7511 7.90515C19.6357 8.41911 19.6068 8.45718 19.347 8.45718C19.1737 8.45718 18.9716 8.55236 18.8177 8.70464C18.6156 8.90451 18.5867 9.00921 18.6252 9.29474C18.6637 9.50413 18.7792 9.72304 18.9235 9.83725L19.1737 10.0276L18.885 11.0746C18.7118 11.7027 18.6156 12.2262 18.6541 12.3785C18.7695 12.921 19.5394 13.1209 19.9147 12.7116C20.0399 12.5879 20.2323 12.0739 20.3959 11.4553C20.675 10.4178 20.675 10.4178 21.0022 10.3512C21.3968 10.2655 21.6758 9.96098 21.6758 9.60882C21.6758 9.30426 21.4353 8.93307 21.2332 8.93307C21.1562 8.93307 21.0984 8.90451 21.0984 8.87596C21.0984 8.81885 21.3486 7.88612 21.4449 7.61962C21.4641 7.53396 21.5604 7.58155 21.7143 7.75287C21.9838 8.07647 22.5227 8.11454 22.8307 7.83853C23.1771 7.52445 23.0905 7.08663 22.4361 5.98257C21.7528 4.8119 21.7143 4.76431 21.339 4.69768C21.1081 4.6501 20.8386 4.76431 19.9436 5.26875Z" stroke="#E8E8E8" stroke-width="6" mask="url(#path-1-inside-1_1_737)"/>
<path d="M36.6309 5.03134C36.3807 5.12652 36.1112 5.48819 36.1112 5.71662C36.1112 5.95456 37.0158 7.72486 37.2179 7.88666C37.343 7.99135 37.6029 8.01991 38.1707 8.00087L38.9598 7.97232L39.2389 8.5529C39.6431 9.39997 39.7393 9.45708 40.615 9.42853C42.2799 9.38094 42.6552 9.22865 42.6552 8.61C42.6552 8.42917 42.5782 8.19122 42.482 8.06749C42.3184 7.86762 42.2318 7.8581 41.4715 7.87714L40.6439 7.89617L40.3071 7.22993C40.1146 6.86826 39.9125 6.53514 39.8548 6.49707C39.7874 6.459 39.3736 6.43996 38.9405 6.44948L38.1418 6.46852L37.805 5.80228C37.6125 5.4406 37.4296 5.12652 37.3912 5.09797C37.1987 4.99327 36.8137 4.96472 36.6309 5.03134Z" stroke="#E8E8E8" stroke-width="6" mask="url(#path-1-inside-1_1_737)"/>
<path d="M45.4653 6.52521C45.2632 6.60135 45.0419 7.12482 45.1092 7.3818C45.1381 7.51505 45.6096 8.0766 46.1582 8.64766C49.3436 11.9408 51.4318 16.0905 52.2402 20.7352C52.4519 21.9629 52.5289 25.3703 52.3749 26.7599C51.9226 30.9381 50.4021 34.7262 47.8327 38.1335C46.9377 39.3232 44.5126 41.7217 43.3096 42.6069C39.9607 45.0815 36.4096 46.5091 32.2137 47.0611C30.2409 47.3181 26.661 47.2039 24.9384 46.8232C24.2166 46.6614 23.7932 46.9279 23.7932 47.5466C23.7932 48.1652 24.1396 48.308 26.3145 48.5745C27.8543 48.7648 30.8953 48.7648 32.4543 48.5745C35.8226 48.1652 39.3063 46.9755 42.1259 45.2718C45.4268 43.2826 48.5159 40.2274 50.5272 36.9629C52.2498 34.1742 53.4528 30.7288 53.8666 27.3976C54.0591 25.8462 54.0591 22.8576 53.8666 21.3062C53.2026 16.0144 50.6331 10.7701 46.9569 7.23904C46.1486 6.45859 45.908 6.34437 45.4653 6.52521Z" stroke="#E8E8E8" stroke-width="6" mask="url(#path-1-inside-1_1_737)"/>
<path d="M35.1874 7.50593C34.9371 7.60111 34.6677 7.96278 34.6677 8.19121C34.6677 8.42915 35.5723 10.1994 35.7744 10.3612C35.8995 10.4659 36.1593 10.4945 36.7271 10.4755L37.5162 10.4469L37.7953 11.0275C38.1995 11.8746 38.2957 11.9317 39.1715 11.9031C40.8363 11.8555 41.2117 11.7032 41.2117 11.0846C41.2117 10.9038 41.1347 10.6658 41.0384 10.5421C40.8748 10.3422 40.7882 10.3327 40.028 10.3517L39.2003 10.3708L38.8539 9.69501C38.6518 9.28575 38.4305 8.9907 38.3054 8.94311C38.1899 8.90504 37.7857 8.886 37.4008 8.91455L36.7079 8.96214L36.3614 8.28638C36.1689 7.91519 35.9861 7.60111 35.9476 7.57256C35.7551 7.46786 35.3702 7.43931 35.1874 7.50593Z" stroke="#E8E8E8" stroke-width="6" mask="url(#path-1-inside-1_1_737)"/>
<path d="M13.2841 10.8748C13.0435 11.0461 12.9377 11.4078 13.0243 11.7124C13.0628 11.8551 13.6113 12.5594 14.2465 13.2828C14.872 14.0061 15.4398 14.6914 15.5071 14.8151C15.6323 15.0436 15.5649 15.4052 15.4013 15.4052C15.3435 15.4052 14.795 15.1292 14.1791 14.7866C12.726 13.9871 11.9657 13.8443 11.2343 14.2441C10.6665 14.5391 10.1372 15.4624 9.92552 16.5188C9.81967 17.0233 9.82929 17.128 9.95439 17.3278C10.1469 17.6134 13.7942 19.6882 14.1021 19.6882C14.5063 19.6882 14.8431 19.3456 14.8431 18.9363C14.8431 18.4699 14.7373 18.3843 13.0147 17.404C12.2448 16.9757 11.6 16.6045 11.5904 16.5854C11.5038 16.5283 11.6962 15.9668 11.8695 15.7479C12.0427 15.5385 12.0908 15.5195 12.3699 15.6146C12.5335 15.6717 13.1301 15.9763 13.6883 16.2904C14.5159 16.7663 14.795 16.8805 15.2377 16.909C15.921 16.9566 16.4695 16.6997 16.8352 16.1476C17.0661 15.805 17.1046 15.6527 17.1046 15.0816C17.095 14.6438 17.0469 14.3012 16.941 14.1204C16.7293 13.7301 14.3138 10.9605 14.0829 10.8367C13.8327 10.7035 13.4862 10.7225 13.2841 10.8748Z" stroke="#E8E8E8" stroke-width="6" mask="url(#path-1-inside-1_1_737)"/>
<path d="M27.1036 11.5603C24.5727 11.9791 21.9262 13.3401 20.0881 15.1675C18.7312 16.5 17.5186 18.4321 16.922 20.2119C16.5178 21.3921 16.4986 21.7157 16.7969 22.0108C17.0952 22.3058 17.5187 22.3344 17.8074 22.0869C17.9228 22.0012 18.1538 21.4778 18.3463 20.8877C19.7128 16.8046 23.0714 13.8636 27.2961 13.0736C28.1718 12.9023 30.2794 12.8738 31.107 13.0165C34.2443 13.5495 36.8426 15.1199 38.7096 17.5945C41.2983 21.0495 41.664 25.7607 39.643 29.6344C38.8732 31.1002 37.6221 32.5373 36.2075 33.5843C32.1945 36.5253 26.5551 36.5253 22.5421 33.5843C19.7417 31.5189 18.0864 28.5399 17.8266 25.085C17.7592 24.1998 17.7207 24.019 17.5283 23.8191C17.2588 23.5336 16.7873 23.5146 16.4986 23.781C16.3061 23.9619 16.2868 24.0761 16.2868 24.8566C16.2868 26.998 17.1337 29.6249 18.4329 31.538C20.4538 34.5075 23.6873 36.5919 27.1614 37.1534C28.3354 37.3343 30.4141 37.3343 31.5882 37.1534C35.6204 36.5062 39.2389 33.8508 41.1058 30.177C42.0297 28.3591 42.4627 26.5031 42.4627 24.3521C42.4627 22.2011 42.0297 20.3452 41.1058 18.5273C39.2389 14.8534 35.6204 12.198 31.5882 11.5508C30.4622 11.3795 28.1911 11.3795 27.1036 11.5603Z" stroke="#E8E8E8" stroke-width="6" mask="url(#path-1-inside-1_1_737)"/>
<path d="M45.7155 11.5216C45.6289 11.5882 45.446 11.8928 45.292 12.1878C45.1477 12.4924 44.9456 12.816 44.8397 12.9017C44.6569 13.0635 44.6473 13.0635 44.5414 12.8921C44.4837 12.797 44.3297 12.5876 44.2142 12.4448C43.9159 12.0831 43.4251 12.0641 43.0883 12.4067C42.7996 12.6827 42.7899 12.9112 43.0402 13.4156C43.1556 13.625 43.2134 13.8344 43.1845 13.882C43.1556 13.9391 42.7226 13.9772 42.2222 13.9772C41.3657 13.9772 41.3079 13.9867 41.1251 14.2246C40.8556 14.5577 40.8749 14.8623 41.1539 15.1859C41.3849 15.4429 41.4138 15.4524 42.3858 15.4524C42.9247 15.4524 43.5502 15.4143 43.7619 15.3763L44.1469 15.3001L44.4163 15.7855L44.6954 16.2709L44.2431 16.7468C43.7812 17.2417 43.2326 18.2506 43.2326 18.6218C43.2326 18.9549 43.3866 19.1738 43.7138 19.3071C44.195 19.5069 44.5222 19.2976 44.8686 18.6028C45.0226 18.2792 45.2343 17.9365 45.3305 17.8413C45.5134 17.6891 45.523 17.6986 45.7155 18.0127C45.9849 18.4695 46.3314 18.6694 46.6971 18.5932C47.2649 18.4695 47.4477 17.8413 47.0724 17.2417C46.9569 17.0609 46.8992 16.8896 46.9377 16.8515C46.9762 16.8134 47.4092 16.7849 47.9 16.7849C48.9682 16.7849 49.1992 16.6516 49.1992 16.0615C49.1992 15.5856 48.8912 15.3477 48.1598 15.2525C47.669 15.1954 46.6008 15.3001 46.2063 15.4524C46.1197 15.481 45.9657 15.3287 45.7636 15.0051L45.4653 14.5101L45.9272 14.0057C46.7933 13.073 47.1301 12.026 46.6971 11.5977C46.4757 11.3788 45.9464 11.3407 45.7155 11.5216Z" stroke="#E8E8E8" stroke-width="6" mask="url(#path-1-inside-1_1_737)"/>
<path d="M28.7974 14.4731C28.6145 14.6635 28.6049 14.7967 28.6049 16.3291V17.9757L28.3451 18.0233C27.9794 18.0994 27.1421 18.3278 26.9689 18.3944C26.863 18.4325 26.6417 18.1279 26.1028 17.1952C25.1404 15.5391 25.1116 15.5011 24.6496 15.5011C24.3994 15.5011 24.207 15.5677 24.0819 15.6914C23.7354 16.034 23.8316 16.4052 24.6593 17.8234C25.0827 18.5467 25.4291 19.1463 25.4291 19.1654C25.4291 19.2034 24.1685 20.4503 24.13 20.4503C24.1107 20.4503 23.5044 20.1076 22.7731 19.6889C21.3392 18.8703 20.9638 18.7751 20.6174 19.1178C20.4923 19.2415 20.4249 19.4319 20.4249 19.6793C20.4249 20.1362 20.4538 20.1647 22.1475 21.1165C23.081 21.6495 23.389 21.8684 23.3505 21.9731C23.312 22.0492 23.1965 22.449 23.0906 22.8487L22.8982 23.5911H21.2429C19.7224 23.5911 19.5781 23.6101 19.3856 23.7815C19.068 24.0765 19.0969 24.6571 19.4241 24.9141C19.6647 25.0949 19.809 25.1139 21.291 25.1139H22.8982L23.0906 25.8468C23.1965 26.2561 23.312 26.6558 23.3505 26.732C23.389 26.8367 23.081 27.0556 22.1379 27.5886C20.4634 28.5403 20.4249 28.5689 20.4249 29.0257C20.4249 29.2732 20.4923 29.4635 20.6174 29.5873C20.9638 29.9299 21.3392 29.8347 22.7731 29.0162C23.5044 28.5974 24.1107 28.2548 24.13 28.2548C24.1685 28.2548 25.4291 29.5016 25.4291 29.5397C25.4291 29.5587 25.0827 30.1583 24.6593 30.8817C23.8316 32.2998 23.7354 32.671 24.0819 33.0136C24.207 33.1374 24.3994 33.204 24.6496 33.204C25.1116 33.204 25.1404 33.1659 26.1028 31.5098C26.6417 30.5771 26.863 30.2725 26.9689 30.3106C27.1421 30.3772 27.9794 30.6057 28.3451 30.6818L28.6049 30.7294V32.376C28.6049 33.9749 28.6145 34.032 28.8262 34.2319C29.1534 34.5365 29.6827 34.5174 29.9426 34.1938C30.1254 33.9559 30.1446 33.8131 30.1446 32.3379V30.7294L30.4141 30.6818C30.7702 30.6057 31.6074 30.3772 31.7806 30.3106C31.8865 30.2725 32.1078 30.5771 32.6468 31.5098C33.6091 33.1659 33.638 33.204 34.0999 33.204C34.3501 33.204 34.5426 33.1374 34.6677 33.0136C35.0141 32.671 34.9179 32.2998 34.0903 30.8817C33.6668 30.1583 33.3204 29.5587 33.3204 29.5397C33.3204 29.5016 34.5811 28.2548 34.6196 28.2548C34.6388 28.2548 35.2451 28.5974 35.9765 29.0162C37.4104 29.8347 37.7857 29.9299 38.1321 29.5873C38.2572 29.4635 38.3246 29.2732 38.3246 29.0257C38.3246 28.5689 38.2861 28.5403 36.6116 27.5886C35.6685 27.0556 35.3606 26.8367 35.3991 26.732C35.4664 26.5606 35.6974 25.7326 35.7744 25.3709L35.8225 25.1139H37.4489C38.9405 25.1139 39.0849 25.0949 39.3255 24.9141C39.6623 24.6571 39.6719 24.0956 39.3543 23.8005C39.1426 23.6006 39.0464 23.5911 37.4777 23.5911H35.8225L35.7744 23.3246C35.6974 22.9725 35.4664 22.1444 35.3991 21.9731C35.3606 21.8684 35.6685 21.64 36.602 21.1165C38.2957 20.1647 38.3246 20.1362 38.3246 19.6793C38.3246 19.4319 38.2572 19.2415 38.1321 19.1178C37.7664 18.7561 37.4296 18.8608 35.63 19.8887C34.7062 20.4122 33.8786 20.9071 33.7823 20.9928C33.4936 21.2498 33.4936 21.5638 33.7919 22.2396C34.1865 23.1438 34.2827 23.5435 34.2827 24.362C34.2827 27.008 32.0597 29.2066 29.3748 29.2066C26.6802 29.2066 24.4668 27.0175 24.4668 24.3525C24.4668 21.6971 26.6898 19.4985 29.3651 19.4985C30.1928 19.4985 30.597 19.5937 31.5112 19.9839C32.1944 20.2789 32.512 20.2789 32.7719 19.9934C32.8585 19.8982 33.3589 19.0797 33.8882 18.166C34.9275 16.3862 35.0334 16.0531 34.6677 15.6914C34.5426 15.5677 34.3501 15.5011 34.0999 15.5011C33.638 15.5011 33.6091 15.5296 32.6468 17.2047C32.1175 18.1279 31.8865 18.4325 31.7806 18.3944C31.6074 18.3278 30.7702 18.0994 30.4141 18.0233L30.1446 17.9757V16.3291C30.1446 14.7301 30.135 14.673 29.9233 14.4731C29.625 14.1876 29.0668 14.1876 28.7974 14.4731Z" stroke="#E8E8E8" stroke-width="6" mask="url(#path-1-inside-1_1_737)"/>
<path d="M12.7454 20.7354C12.5337 20.9353 12.5337 20.9638 12.5337 24.257V27.5786L12.7839 27.769C13.1111 28.026 13.3998 28.026 13.727 27.769L13.9772 27.5786V24.257C13.9772 20.9638 13.9772 20.9353 13.7655 20.7354C13.65 20.6307 13.4287 20.5451 13.2555 20.5451C13.0822 20.5451 12.8609 20.6307 12.7454 20.7354Z" stroke="#E8E8E8" stroke-width="6" mask="url(#path-1-inside-1_1_737)"/>
<path d="M9.85838 20.9255C9.68516 21.0873 9.64666 21.2301 9.64666 21.6774C9.64666 22.239 9.64666 22.239 9.23285 22.4769C9.00189 22.6102 8.68431 22.9052 8.53034 23.1241C8.2705 23.4953 8.25126 23.5905 8.25126 24.3519C8.25126 25.1133 8.2705 25.2085 8.53034 25.5797C8.68431 25.7986 9.00189 26.0936 9.23285 26.2269C9.64666 26.4648 9.64666 26.4648 9.64666 27.0169C9.64666 27.5023 9.67553 27.5974 9.89687 27.7688C10.0412 27.883 10.2529 27.9686 10.3684 27.9686C10.4839 27.9686 10.6956 27.883 10.84 27.7688C11.0806 27.5784 11.0902 27.5499 11.0902 26.5029C11.0902 25.5035 11.0709 25.4179 10.8688 25.2275C10.7437 25.1133 10.532 25.0181 10.3877 25.0181C9.81989 25.0181 9.53118 24.2758 9.93537 23.876C10.0412 23.7713 10.2337 23.6857 10.3588 23.6857C10.4839 23.6857 10.6956 23.6 10.84 23.4858C11.0806 23.2954 11.0902 23.2669 11.0902 22.2199C11.0902 21.2206 11.0709 21.1349 10.8688 20.9446C10.5898 20.6781 10.1375 20.6781 9.85838 20.9255Z" stroke="#E8E8E8" stroke-width="6" mask="url(#path-1-inside-1_1_737)"/>
<path d="M47.8134 20.9345C47.4573 21.2105 47.4573 21.7816 47.8134 22.0576C47.9578 22.1718 48.1695 22.2575 48.2946 22.2575C48.6122 22.2575 48.9105 22.5811 48.9105 22.9237C48.9105 23.0855 48.8239 23.2949 48.718 23.3996C48.5448 23.5709 48.4004 23.59 46.9473 23.59C45.5038 23.59 45.3594 23.609 45.1188 23.7898C44.9264 23.9421 44.8686 24.0658 44.8686 24.3514C44.8686 24.6369 44.9264 24.7606 45.1188 24.9129C45.3594 25.0938 45.5038 25.1128 46.9473 25.1128C48.4004 25.1128 48.5448 25.1318 48.718 25.3031C49.1126 25.6934 48.8335 26.4453 48.2946 26.4453C48.1695 26.4453 47.9578 26.5309 47.8134 26.6451C47.6209 26.7974 47.5632 26.9212 47.5632 27.2067C47.5632 28.4154 49.613 28.0823 50.2578 26.7784C50.5465 26.1978 50.5465 25.3698 50.2578 24.7797L50.0461 24.3514L50.2578 23.9231C50.5465 23.333 50.5465 22.5049 50.2578 21.9244C49.7958 20.9726 48.4582 20.4301 47.8134 20.9345Z" stroke="#E8E8E8" stroke-width="6" mask="url(#path-1-inside-1_1_737)"/>
<path d="M13.5922 29.2059C13.4863 29.3106 13.1976 29.8246 12.957 30.3481L12.5143 31.2903L9.97374 31.1761L9.76202 31.4426C9.49257 31.7852 9.49257 32.0803 9.78127 32.4134C10.0026 32.6609 10.07 32.6799 10.8976 32.718C11.6675 32.7465 11.7733 32.7656 11.706 32.9083C11.5135 33.3652 11.3691 34.2598 11.4076 34.7452C11.475 35.5067 11.7926 36.0872 12.5336 36.8391C13.0244 37.3436 13.2265 37.4863 13.4382 37.4863C13.621 37.4863 14.3428 37.1342 15.411 36.5251C17.6629 35.2402 17.7303 35.1831 17.7303 34.7357C17.7303 34.3074 17.4127 33.9648 17.0181 33.9648C16.8545 33.9648 16.1328 34.3169 15.1704 34.869L13.5922 35.7636L13.3612 35.4591C12.8415 34.7738 12.803 34.4407 13.1399 33.5365L13.3516 32.9654H14.6123C16.0847 32.9654 16.2867 32.8798 16.2867 32.2421C16.2867 31.8138 15.9403 31.4902 15.4784 31.4902C15.3148 31.4902 14.9587 31.4616 14.6796 31.4331L14.1792 31.3665L14.516 30.7193C14.9202 29.9102 14.9395 29.4915 14.593 29.2155C14.2658 28.9585 13.8424 28.9585 13.5922 29.2059Z" stroke="#E8E8E8" stroke-width="6" mask="url(#path-1-inside-1_1_737)"/>
<path d="M43.3481 30.329C42.2799 30.7097 41.5966 31.6996 41.5966 32.8703C41.5966 34.4407 42.7322 35.5352 44.3393 35.5162L45.0226 35.5067L45.1958 35.9254C45.4364 36.4965 46.2351 37.2008 46.6393 37.2008C47.0435 37.2008 47.3418 36.9819 47.4188 36.6393C47.4958 36.2871 47.3996 36.1063 46.8799 35.6018C46.495 35.2211 46.4853 35.1831 46.5238 34.7262C46.6105 33.8791 47.2841 33.4508 48.0828 33.7268C48.641 33.9267 48.8816 33.9077 49.1511 33.6317C49.4109 33.3842 49.459 33.0321 49.2858 32.7085C49.1126 32.3848 48.3716 32.1279 47.592 32.1279H46.8895L46.7933 31.8233C46.7356 31.652 46.5335 31.3379 46.3506 31.119C45.6289 30.2909 44.3874 29.9673 43.3481 30.329ZM44.782 31.8233C45.1284 32.0041 45.446 32.4895 45.446 32.8512C45.446 33.6412 44.5895 34.2313 43.8774 33.9267C43.1268 33.6222 42.8862 32.7465 43.3962 32.1564C43.8004 31.671 44.2623 31.5663 44.782 31.8233Z" stroke="#E8E8E8" stroke-width="6" mask="url(#path-1-inside-1_1_737)"/>
<path d="M19.6839 35.3924C19.4241 35.4971 19.2701 35.7731 19.2701 36.1253C19.2701 36.506 19.4433 36.6963 19.8956 36.8486C20.6366 37.1056 20.4538 37.3911 19.0391 38.1906C18.3944 38.5618 17.8651 39.0567 17.5571 39.5707C17.3358 39.9514 17.2973 40.1132 17.2973 40.7699C17.2973 41.3695 17.3454 41.617 17.509 41.9216C17.8554 42.5593 18.1826 42.8829 18.8082 43.1874C19.2797 43.4254 19.5203 43.4825 20.0207 43.4825C20.3672 43.4825 20.8099 43.4349 21.0216 43.3683C21.5797 43.2065 22.2438 42.5783 22.5421 41.9311C22.7249 41.5313 22.8789 41.341 23.1195 41.2173C23.8028 40.8746 23.7162 40.1513 22.927 39.7325C22.0802 39.2757 21.7337 39.466 21.3873 40.5986C21.0889 41.5599 20.7232 41.9596 20.1362 41.9596C19.0103 41.9596 18.3944 40.7414 19.1546 40.0371C19.299 39.8943 19.7801 39.5612 20.2324 39.2947C21.2333 38.6856 21.4258 38.5237 21.6856 37.9908C21.9743 37.4102 21.9166 36.5917 21.5509 36.1253C21.1467 35.6018 20.1458 35.2116 19.6839 35.3924Z" stroke="#E8E8E8" stroke-width="6" mask="url(#path-1-inside-1_1_737)"/>
<path d="M39.0751 36.1156C38.9211 36.1917 38.8056 36.2869 38.8056 36.3345C38.8056 36.5153 37.9491 37.3529 37.4198 37.6955C36.8232 38.0762 35.8031 38.4379 35.3316 38.4379C34.6387 38.4379 34.2248 39.009 34.5136 39.561C34.6868 39.8941 34.8311 39.9607 35.3797 39.9607H35.7839L37.0542 42.1308L36.8713 42.3973C36.6307 42.7685 36.6307 43.33 36.8809 43.5775C37.1696 43.863 37.7085 43.8344 37.9684 43.5204C38.6228 42.7399 38.9981 42.3687 39.4312 42.1022C40.0374 41.7215 40.8169 41.4265 41.5002 41.3408C42.3182 41.2361 42.6839 40.7412 42.3663 40.1511C42.2508 39.9322 41.6927 39.7418 41.3751 39.818C41.1538 39.8751 41.096 39.7989 40.4897 38.7615L39.845 37.6479L40.0471 37.2958C40.3646 36.7247 40.3069 36.3345 39.8546 36.1061C39.5178 35.9347 39.4023 35.9347 39.0751 36.1156ZM39.4793 40.1987C39.4697 40.2843 38.2186 41.0457 38.1801 40.9886C38.1705 40.9696 37.978 40.6365 37.7567 40.2463C37.4391 39.6942 37.3717 39.5134 37.4776 39.4563C37.545 39.4182 37.8433 39.2469 38.132 39.0756L38.6613 38.7615L39.0655 39.4373C39.2964 39.7989 39.4793 40.1416 39.4793 40.1987Z" stroke="#E8E8E8" stroke-width="6" mask="url(#path-1-inside-1_1_737)"/>
<path d="M28.3065 39.0472C26.7763 39.485 25.9776 40.5225 26.2952 41.6836C26.5261 42.5402 27.142 43.0066 28.0178 43.0066C28.422 43.0066 28.5278 42.9685 28.6914 42.7591C28.8069 42.6164 28.8935 42.407 28.8935 42.2928C28.8935 41.9692 28.5471 41.6075 28.1814 41.5409C27.5943 41.4267 27.6328 41.0269 28.2584 40.6938C28.5856 40.5225 28.8069 40.4844 29.6153 40.4844C30.4333 40.4844 30.6354 40.513 30.9818 40.6938C31.4822 40.9603 31.7806 40.9698 32.1077 40.7128C32.3002 40.5605 32.358 40.4368 32.358 40.1608C32.358 39.7135 32.0981 39.4565 31.386 39.1805C30.7316 38.933 28.9801 38.8569 28.3065 39.0472Z" stroke="#E8E8E8" stroke-width="6" mask="url(#path-1-inside-1_1_737)"/>
<path d="M30.0579 41.8271C29.9424 41.9698 29.8558 42.1792 29.8558 42.2934C29.8558 42.6171 30.2023 42.9787 30.568 43.0453C31.1358 43.15 31.1069 43.5308 30.5006 43.8734C30.1445 44.0733 29.9713 44.1018 29.1341 44.1018C28.3161 44.1018 28.114 44.0733 27.7675 43.8829C27.2671 43.6259 26.9688 43.6164 26.6416 43.8734C26.3048 44.1399 26.2951 44.6919 26.6223 44.9965C27.0169 45.3582 27.806 45.5961 28.8069 45.6532C29.9039 45.7008 30.5295 45.5866 31.3378 45.1678C33.1952 44.197 32.7525 41.5796 30.7316 41.5796C30.3274 41.5796 30.2215 41.6177 30.0579 41.8271Z" stroke="#E8E8E8" stroke-width="6" mask="url(#path-1-inside-1_1_737)"/>
</g>
<defs>
<filter id="filter0_d_1_737" x="0.7453" y="0" width="57.2657" height="56.7173" filterUnits="userSpaceOnUse" color-interpolation-filters="sRGB">
<feFlood flood-opacity="0" result="BackgroundImageFix"/>
<feColorMatrix in="SourceAlpha" type="matrix" values="0 0 0 0 0 0 0 0 0 0 0 0 0 0 0 0 0 0 127 0" result="hardAlpha"/>
<feOffset dy="4"/>
<feGaussianBlur stdDeviation="2"/>
<feComposite in2="hardAlpha" operator="out"/>
<feColorMatrix type="matrix" values="0 0 0 0 0 0 0 0 0 0 0 0 0 0 0 0 0 0 0.25 0"/>
<feBlend mode="normal" in2="BackgroundImageFix" result="effect1_dropShadow_1_737"/>
<feBlend mode="normal" in="SourceGraphic" in2="effect1_dropShadow_1_737" result="shape"/>
</filter>
</defs>
</svg>
