<svg width="78" height="75" viewBox="0 0 78 75" fill="none" xmlns="http://www.w3.org/2000/svg">
<g filter="url(#filter0_d_1_701)">
<path fill-rule="evenodd" clip-rule="evenodd" d="M30.4242 7.07353C29.2573 7.01253 28.016 6.87835 27.6684 6.78075C27.3208 6.68316 26.8367 6.46357 26.5884 6.30498L26.4283 6.1957C26.3218 6.12305 26.1805 6.21478 26.2036 6.34158C26.3029 6.78075 25.9553 7.95188 25.5333 8.67163C25.3595 8.97661 24.8629 9.72076 24.4533 10.3307C23.1498 12.246 22.9761 13.3927 23.845 14.3931C24.0933 14.6614 24.3788 14.8932 24.5029 14.8932C24.6146 14.8932 25.4091 14.637 26.2657 14.3321C28.0532 13.6977 28.947 13.6001 29.6421 14.0149C29.8573 14.133 30.1264 14.019 30.191 13.7821L30.2008 13.7465C30.4863 12.6974 31.0573 12.1484 33.2297 10.8553C34.3717 10.1721 34.3841 10.1599 34.4214 9.64757C34.4959 8.61063 33.9 7.70789 32.9069 7.32972C32.7083 7.25652 31.5911 7.14673 30.4242 7.07353ZM53.6872 9.64757C53.1286 8.87902 52.5576 8.03727 52.4086 7.75669C52.2721 7.48831 52.0859 6.98814 52.0238 6.65876C51.9571 6.35496 51.6102 6.20826 51.3458 6.37207L51.3162 6.39037C50.5218 6.86614 49.6652 7.07353 47.8777 7.19552C45.9908 7.34191 44.9108 7.65909 44.3895 8.25685C43.9798 8.70822 43.6943 9.52557 43.806 9.94034C43.8557 10.0989 44.4143 10.5259 45.395 11.1115C46.9467 12.0508 47.7287 12.795 47.7287 13.3439C47.7287 13.8563 47.8901 13.9417 48.4239 13.7221C49.1687 13.4171 50.0252 13.4659 51.3783 13.9051C52.0362 14.1247 52.8431 14.4053 53.141 14.5394L53.1944 14.5612C53.8607 14.8325 53.8618 14.833 54.37 14.3931C54.9782 13.8563 55.2017 13.3927 55.1893 12.6242C55.1893 11.819 54.9907 11.4408 53.6872 9.64757ZM42.8254 10.2941C40.8516 9.123 40.0075 8.51304 39.6102 7.96407C39.424 7.69569 39.2254 7.31752 39.1758 7.13453C39.0765 6.78075 39.0765 6.78075 38.7909 7.42731C38.3689 8.36665 37.5124 9.062 35.2655 10.2575C31.6159 12.1972 30.9207 12.9414 30.9952 14.8322C31.0201 15.4544 31.1069 15.9058 31.2187 16.0643C31.3278 16.2216 31.5307 16.2833 31.7089 16.2132L32.3359 15.9668C36.4572 14.3443 41.2985 14.3321 45.5067 15.9302L45.5888 15.961C46.2455 16.208 46.5321 16.3158 46.7007 16.2201C46.8314 16.1459 46.8912 15.9497 46.9974 15.6014L47.0087 15.5642C47.2446 14.759 47.2073 13.7953 46.9094 13.2463C46.6363 12.7096 45.3205 11.758 42.8254 10.2941ZM30.449 15.3324C29.9401 14.82 29.6297 14.6248 29.1208 14.4784C28.7484 14.3687 28.2394 14.2833 28.0036 14.2833C27.4077 14.2833 25.4339 14.9542 23.4478 15.8082C21.474 16.6743 20.5802 16.8573 19.5375 16.5889C19.1278 16.4791 18.8175 16.4303 18.8423 16.4669C19.6244 17.8454 19.6865 19.5899 19.0285 22.2737C18.8299 23.0423 18.7554 23.7742 18.743 24.7136C18.743 25.9701 18.7679 26.0921 19.103 26.6899C19.3016 27.0436 19.6616 27.4584 19.9099 27.6292C20.4561 27.9952 21.3747 28.2758 21.5237 28.1172C21.5733 28.0562 21.7719 27.5072 21.9706 26.9094C23.1995 22.9081 26.4643 18.98 30.2628 16.9183C30.8463 16.6011 31.0945 16.3815 31.0945 16.2229C31.0945 16.0887 30.7966 15.6862 30.449 15.3324ZM53.2155 15.2104C52.7562 14.9908 51.9618 14.6858 51.4404 14.5394C49.2928 13.9539 47.9522 14.3809 47.1577 15.8936C46.9915 16.2134 47.1084 16.6075 47.4222 16.7849L47.766 16.9793C50.0749 18.2968 52.21 20.2243 53.6376 22.2859C54.7796 23.9206 55.7851 26.0189 56.1824 27.6048C56.2941 28.0928 56.3686 28.1904 56.6044 28.1904C57.5975 28.1904 58.8885 27.0558 59.2361 25.8847C59.4099 25.2991 59.4099 25.0308 59.2858 23.8962C59.2113 23.1765 59.0002 21.9078 58.8389 21.0904C58.4168 19.0044 58.4292 17.943 58.8885 17.0403C59.2361 16.3693 59.2361 16.3327 58.9754 16.4059C57.5975 16.7963 55.5865 16.3815 53.2155 15.2104ZM40.4047 19.6143C40.4047 19.5533 40.144 19.2117 39.8337 18.8458C39.5109 18.4798 39.2254 18.187 39.1758 18.187C39.1261 18.187 38.7909 18.492 38.4185 18.858C38.0444 19.2257 38.047 19.8295 38.4243 20.1939L38.4558 20.2243L38.548 20.3165C38.8887 20.6572 39.4404 20.6596 39.784 20.3219C40.1192 19.9925 40.4047 19.6753 40.4047 19.6143ZM43.0488 22.3591C43.2722 22.1152 43.2722 22.0908 42.6392 21.127C42.2792 20.5781 41.9812 20.1389 41.9564 20.1389C41.944 20.1389 41.795 20.3341 41.6337 20.5659C41.224 21.1514 40.293 21.6028 39.4613 21.6028C38.6296 21.6028 37.8972 21.3466 37.1027 20.7488C36.3579 20.1877 36.3331 20.3463 37.0406 21.3588C37.5744 22.1274 38.5303 22.8959 39.1634 23.0667C39.3992 23.1277 40.0447 23.1887 40.5909 23.1887C41.6585 23.1887 42.5895 22.8715 43.0488 22.3591ZM18.7306 21.9078C18.743 21.7492 18.532 21.554 18.0603 21.2734C16.8065 20.5293 15.9003 20.7854 14.4603 22.2859C12.0149 24.8234 11.6797 25.1162 10.9349 25.3235L10.6303 25.4113C10.4734 25.4565 10.4466 25.6675 10.5873 25.7505C11.3445 26.2019 11.9032 27.19 12.4618 29.0199C13.2438 31.5939 14.0259 32.5821 15.2921 32.5821C16.2479 32.5821 16.3472 32.4967 16.8065 31.106C17.4148 29.2517 17.7624 28.5929 18.3458 28.1782C18.6189 27.983 18.9541 27.8244 19.0782 27.8244C19.3016 27.8244 19.2892 27.7756 18.9416 27.3242C18.321 26.4947 18.2341 25.7993 18.4948 23.8352C18.6189 22.9081 18.7182 22.042 18.7306 21.9078ZM37.8475 24.5916C37.8475 23.2375 37.2765 22.2737 36.122 21.6882C35.7993 21.5296 35.3027 21.4198 34.6945 21.3832C33.8379 21.3344 33.7014 21.371 33.0435 21.7126C32.2118 22.1396 30.8463 23.1521 30.8463 23.3229C30.8463 23.3961 31.1566 23.9328 31.5414 24.5184L31.7422 24.8195C32.0024 25.2099 32.557 25.2592 32.8821 24.921C33.6517 24.1158 34.2848 23.8108 35.1662 23.7986C36.4696 23.7986 37.1275 24.4208 36.7551 25.3113C36.5193 25.8725 35.9731 26.1165 34.9427 26.1165C34.5331 26.1165 34.1979 26.1409 34.1979 26.1653C34.1979 26.2995 34.6821 28.227 34.7317 28.2636C34.7565 28.288 35.0296 28.2636 35.3276 28.2148C36.6434 27.9708 37.6737 28.7759 37.6737 30.0446C37.6737 31.5817 35.9234 32.3625 33.8752 31.7525C32.2738 31.2646 30.8959 30.2276 29.9401 28.8003L29.819 28.6157C29.7684 28.5386 29.6486 28.588 29.667 28.6783C29.8035 29.3249 30.3001 30.4716 30.7345 31.1304C31.7897 32.7529 33.9 34.0338 35.5138 34.046C36.6931 34.046 38.2944 32.9968 38.7289 31.9477C38.9523 31.3988 39.0392 29.5811 38.8654 29.0687C38.7785 28.8247 38.8034 28.8125 39.1013 28.9223C40.3302 29.3859 41.7826 28.4709 42.8254 26.6045C43.384 25.6163 43.8433 25.2625 44.6129 25.2625C45.6681 25.2625 46.7605 26.0311 47.2322 27.1168C47.4556 27.6414 47.5053 27.9098 47.4556 28.6173C47.3563 30.13 46.5867 31.3012 45.2708 31.9355C44.6502 32.2405 44.4267 32.2771 43.384 32.2771C42.3412 32.2771 42.1178 32.2405 41.4847 31.9355C41.0502 31.7159 40.653 31.4109 40.4544 31.1426L40.4398 31.1222C40.3609 31.0119 40.187 31.0815 40.2061 31.2158C40.3675 32.3381 41.1495 33.3628 42.1302 33.7654C42.7509 34.0216 44.3398 33.985 45.1219 33.6922C46.7605 33.0822 47.7411 31.8501 48.1632 29.886C48.9577 26.1653 47.2198 23.3107 44.1412 23.3107C42.5274 23.3107 41.6709 23.945 40.9633 25.6163C40.3799 27.0192 40.0323 27.5072 39.3868 27.8122C38.6668 28.1538 38.493 28.1416 37.9468 27.7146C37.6986 27.5194 37.2765 27.2998 37.0034 27.2144C36.803 27.1538 36.7505 26.8905 36.9165 26.7631C37.5496 26.2751 37.8475 25.5797 37.8475 24.5916ZM64.8098 23.7986C63.5064 22.4689 62.6871 21.7858 62.1036 21.554C61.4954 21.2978 60.8002 21.3222 60.254 21.6028C59.5092 21.9932 59.4968 22.0176 59.7078 23.5547C60.0182 25.8847 59.9313 26.7021 59.2858 27.2632C58.9506 27.5682 58.9506 27.6536 59.3478 27.7512C59.5216 27.8 59.894 28.0684 60.1795 28.349C60.7257 28.8857 61.2099 29.9104 61.7809 31.7647C62.054 32.6553 62.0912 32.7163 62.5009 32.8261C63.8167 33.192 64.8346 32.7041 65.4181 31.4231C65.567 31.0816 65.9022 30.0812 66.1505 29.1907C66.6594 27.3364 66.9449 26.7265 67.5656 26.0799L67.7679 25.8755C67.8586 25.784 67.7937 25.6285 67.6649 25.6285C67.0194 25.6285 65.9022 24.921 64.8098 23.7986ZM21.3499 29.3249C21.4864 28.5319 21.474 28.4343 21.3002 28.3855C19.7858 27.9464 18.2092 28.6173 17.4644 30.008C17.0796 30.6912 16.4217 32.7163 16.012 34.412C15.8879 34.9121 15.6645 35.6075 15.5031 35.9613C15.2052 36.6444 14.3362 37.6447 13.9514 37.7667C13.5914 37.8765 13.6659 38.0717 14.0755 38.0717C14.5224 38.0717 15.23 38.3645 15.8879 38.8037C16.4713 39.2062 18.0851 40.8043 18.7803 41.6827C19.8478 43.0246 21.5733 44.1713 22.5292 44.1713C23.1623 44.1713 24.0312 43.8541 24.4905 43.4638C24.715 43.2777 24.7591 42.9505 24.5919 42.7116L24.205 42.1585C23.3857 41.0117 22.4299 39.1208 21.983 37.8033C21.0768 35.0829 20.8533 32.1185 21.3499 29.3249ZM61.4457 32.8871C60.8002 30.3496 60.0926 29.0931 59.0127 28.5441C58.5037 28.3001 57.2127 28.227 56.7161 28.4343C56.4555 28.5319 56.4555 28.5563 56.6168 29.4957C56.8527 30.7644 56.8403 33.8386 56.6168 35.1195C56.1327 37.7423 55.2513 39.9016 53.7617 42.0975C53.0914 43.0734 53.0666 43.1222 53.2776 43.354C53.8362 43.9639 55.3134 44.2323 56.4182 43.9273C57.1134 43.7444 58.2306 42.7562 59.9437 40.8287C61.8554 38.6817 62.476 38.2181 63.7671 37.9985C63.9404 37.9716 63.9942 37.7482 63.8521 37.6454L63.7671 37.5837C62.8236 36.9128 62.116 35.4733 61.4457 32.8871ZM28.1153 37.535C28.1153 37.108 27.7677 36.2052 27.5318 36.0222C27.2463 35.8149 26.7622 35.8393 26.6753 36.0588C26.5512 36.3638 26.725 36.6078 27.0477 36.6078C27.2339 36.6078 27.4201 36.7054 27.4946 36.8396C27.7305 37.2788 27.6187 37.3398 27.1718 37.0348C26.6132 36.6688 26.067 36.6322 25.8808 36.9616C25.7195 37.2666 25.7195 37.291 25.9553 37.5106C26.1291 37.6813 26.1663 37.6813 26.4394 37.5106C26.725 37.3276 26.7746 37.3276 27.147 37.5716C27.2651 37.6454 27.2128 37.8277 27.0735 37.8277H26.6008C25.7567 37.8277 25.6326 37.8521 25.6326 38.0473C25.6326 38.4499 25.9057 38.5597 26.8367 38.5597C27.8794 38.5597 27.9911 38.7061 27.2091 39.0477C26.5139 39.3526 26.216 39.6942 26.2284 40.1578C26.2408 40.7433 27.0849 41.4875 27.7429 41.4875C28.0408 41.4875 28.078 41.7925 27.7801 41.9633C27.6063 42.0609 27.5939 42.1097 27.7305 42.2682C27.9291 42.5 28.2891 42.5244 28.4629 42.3048C28.5373 42.2194 28.5994 41.8779 28.5994 41.5363C28.587 41.2069 28.5994 40.8287 28.6118 40.7067C28.6118 40.5726 28.5498 40.3896 28.4504 40.292C28.2022 40.0602 27.7429 40.2066 27.7429 40.5238C27.7429 40.8287 27.4698 40.9385 27.1346 40.7555C26.6008 40.475 26.8491 40.048 27.7925 39.5966C28.2394 39.3892 28.3015 39.3038 28.3015 38.9501C28.3015 38.5841 28.3263 38.5597 28.7608 38.5597C29.0213 38.5597 29.2325 38.7709 29.2325 39.0314V39.8772C29.2325 41.2923 29.3815 41.7315 29.8656 41.7315C30.1139 41.7315 30.1139 41.6705 30.0766 40.1456L30.0698 39.8511C30.0532 39.1422 30.634 38.5642 31.3428 38.5841C32.5842 38.6207 32.6462 38.6329 32.6835 38.8891C32.7207 39.1574 32.6835 39.1696 31.9138 39.1696C31.0573 39.1696 30.598 39.4136 30.598 39.8528C30.598 40.4262 31.5414 41.2191 32.0131 41.0483C32.2366 40.9629 32.2738 40.4994 32.0752 40.3042C31.9635 40.1944 31.8766 40.1944 31.7028 40.3042C31.529 40.414 31.4421 40.414 31.3304 40.3042C31.0821 40.0602 31.3428 39.9016 32.038 39.9016C32.4082 39.9016 32.7083 40.2017 32.7083 40.5719V40.6701C32.7083 41.4753 32.8448 41.7315 33.2421 41.7315C33.4531 41.7315 33.4655 41.6339 33.4283 40.1456L33.4183 39.7211C33.4034 39.0841 33.9156 38.5597 34.5528 38.5597H34.98C35.3708 38.5597 35.6876 38.8765 35.6876 39.2672C35.6876 40.048 35.4269 40.4506 34.98 40.3652C34.6448 40.3042 34.6821 39.7552 35.042 39.5966C35.3524 39.4624 35.3896 39.2916 35.1662 39.0721C34.769 38.6817 34.0738 39.0843 34.0738 39.7064C34.0738 40.4872 34.8062 41.1215 35.5013 40.9507C35.762 40.8897 35.8117 40.9141 35.8117 41.1581C35.8117 41.4997 36.0227 41.7315 36.3331 41.7315C36.5317 41.7315 36.5565 41.6217 36.5565 40.8165C36.5565 39.9992 36.5813 39.8894 36.8544 39.7186C37.4751 39.316 37.8227 39.926 37.2144 40.3652C36.8048 40.6579 36.8917 40.9995 37.4006 40.9995C38.1206 40.9995 38.3813 40.3042 37.922 39.5722C37.6737 39.1574 37.2517 38.9867 36.7427 39.0721C36.482 39.1208 36.4324 39.0842 36.4324 38.8525C36.4324 38.5719 36.4572 38.5597 37.5496 38.5597C38.5923 38.5597 38.6668 38.5475 38.6668 38.3157C38.6668 38.1571 38.5427 38.0229 38.3441 37.9497C38.1703 37.8765 36.271 37.8277 33.8752 37.8277H30.0096C29.8547 37.8277 29.729 37.7021 29.729 37.5472C29.729 37.3886 29.7911 37.2056 29.878 37.1202C30.2256 36.7786 32.1249 37.047 32.9193 37.5472C33.1924 37.7301 33.4159 37.5837 33.2669 37.3398C33.1552 37.169 32.2862 36.742 31.4794 36.4736C29.9028 35.9369 28.7732 36.4248 29.0587 37.5228C29.1332 37.8155 29.1084 37.8277 28.6242 37.8277C28.1773 37.8277 28.1153 37.7911 28.1153 37.535ZM42.5274 37.4008C42.8626 37.4008 42.9867 37.0592 42.7633 36.7908C42.5523 36.5468 42.155 36.559 42.0557 36.803C41.944 37.0958 42.1799 37.4008 42.5274 37.4008ZM47.9646 37.4618C48.3246 37.4618 48.5232 37.1568 48.3494 36.864C48.2004 36.5712 47.6294 36.5102 47.5301 36.7786C47.4308 37.0348 47.7039 37.4618 47.9646 37.4618ZM52.1976 38.5597C52.7686 38.5597 52.8679 38.3279 52.4211 38.0229C52.1728 37.8521 51.3535 37.8277 45.9039 37.8277C41.9688 37.8277 39.6475 37.8765 39.5978 37.9497C39.4737 38.1449 39.7716 38.5597 40.0323 38.5597C40.2433 38.5597 40.2806 38.6451 40.2806 39.133C40.293 39.4624 40.3551 39.8406 40.4544 39.9992C40.6778 40.4018 41.2737 40.7555 41.7454 40.7555C42.093 40.7555 42.1426 40.7921 42.1426 41.0971C42.1426 41.4875 42.3412 41.7315 42.6764 41.7315C42.8874 41.7315 42.8998 41.6339 42.8626 40.1456C42.8423 39.2754 43.5532 38.5647 44.4234 38.5852L45.3422 38.6068C45.6741 38.6147 45.9449 38.8749 45.966 39.2062C46.0156 39.9992 45.7674 40.3896 45.1964 40.3896C44.5633 40.3896 44.4888 39.9138 45.097 39.7308C45.4074 39.6332 45.4694 39.2306 45.1715 39.1208C45.0598 39.0843 44.5881 39.0477 44.1164 39.0477C43.4957 39.0477 43.2598 39.0965 43.2598 39.2062C43.2598 39.4502 43.5329 39.6576 43.8433 39.6576C44.0543 39.6576 44.1288 39.7308 44.1288 39.9382C44.1288 40.5482 44.9729 41.1947 45.5936 41.0605C45.8915 40.9995 45.9536 41.0483 46.0777 41.3655C46.177 41.6217 46.3012 41.7315 46.4874 41.7315C46.748 41.7315 46.7605 41.7071 46.7108 40.1456L46.6846 39.0305C46.6786 38.7723 46.8862 38.5597 47.1445 38.5597C47.3986 38.5597 47.6046 38.7657 47.6046 39.0197V39.9504C47.6046 41.4143 47.7163 41.7315 48.2004 41.7315C48.4239 41.7315 48.4363 41.4509 48.3122 39.133C48.2986 38.8205 48.5484 38.5597 48.8612 38.5597H48.8708C49.4915 38.5597 49.7149 38.7549 49.7149 39.2672C49.7149 39.4502 49.6528 39.4868 49.417 39.4502C49.0694 39.377 48.9204 39.5722 49.0197 39.9504C49.119 40.3286 49.7149 40.5848 50.0749 40.4018C50.5218 40.1578 50.5466 39.7308 50.1494 38.7671C50.0749 38.5963 50.137 38.5597 50.5714 38.5597C50.8525 38.5597 51.0804 38.7876 51.0804 39.0686V39.8772C51.0804 41.2801 51.2293 41.7315 51.7011 41.7315C51.9121 41.7315 51.9245 41.6095 51.9369 40.3896C51.9493 39.6454 51.8997 38.9257 51.8252 38.8037C51.7011 38.5841 51.7383 38.5597 52.1976 38.5597ZM22.6905 44.7813C21.7347 44.7691 21.1388 44.4153 19.5747 42.8904C19.1262 42.4496 18.7184 42.0529 18.4523 41.7948C18.2756 41.6234 17.9509 41.5554 17.7177 41.6339L17.7159 41.6345C17.6381 41.6606 17.5531 41.6892 17.4644 41.7193C15.7886 42.2926 15.5279 43.3052 16.1982 46.7332C16.5086 48.319 16.4962 49.5756 16.1486 50.1001C15.9251 50.4173 15.9251 50.4173 16.2231 50.3075C16.372 50.2587 16.9555 50.2099 17.5017 50.2221C18.3334 50.2343 18.681 50.3075 19.674 50.6857C22.6161 51.8202 23.7581 51.8812 24.6643 50.9297C25.3098 50.2343 25.3098 50.0391 24.6271 49.0388C23.1623 46.9039 22.8892 46.1476 23.1871 45.1107C23.2235 44.9725 23.2447 44.8923 23.2139 44.8457C23.1713 44.7813 23.0292 44.7813 22.6905 44.7813ZM61.7809 42.7562C61.4705 42.1585 61.1602 41.8779 60.5519 41.6583C60.1601 41.5299 59.7797 41.5969 59.4752 41.8749C59.211 42.1161 58.8652 42.4497 58.5037 42.8172C57.0513 44.2567 56.6044 44.5373 55.7727 44.5373C55.4814 44.5373 55.2485 44.7796 55.2601 45.0707L55.2762 45.4766C55.3258 46.3672 55.301 46.477 54.8789 47.2455C54.6307 47.6969 54.1217 48.5386 53.7369 49.0998L53.3369 49.6894C53.1554 49.9569 53.1374 50.3031 53.29 50.5881C53.8114 51.5762 54.73 52.0764 55.7727 51.93C56.0831 51.8934 57.1879 51.503 58.2306 51.0639C60.3161 50.1855 61.1478 49.9781 61.8802 50.1367L61.9053 50.1419C62.0755 50.1771 62.2059 49.9927 62.1161 49.844C61.8057 49.3438 61.6692 48.1361 61.7809 47.0381C61.8305 46.5624 61.905 45.5254 61.9547 44.7081C62.0292 43.3906 62.0043 43.1954 61.7809 42.7562ZM37.5372 49.7586C33.3166 49.5024 29.0587 47.5017 25.9677 44.3177C25.4464 43.7687 24.9871 43.3174 24.9622 43.3174C24.9374 43.3174 24.714 43.537 24.4657 43.8053C23.8698 44.4641 23.6216 45.0619 23.5967 45.9524C23.5843 46.599 23.6464 46.8185 24.1057 47.7213C24.4036 48.2825 25.2477 49.5878 25.9926 50.6125C27.5194 52.7108 27.7801 53.2963 27.718 54.4674L27.7074 54.6902C27.6974 54.9003 27.944 55.02 28.1029 54.8822C29.0091 54.0893 30.7345 53.6867 33.1428 53.6867C34.6945 53.6867 36.3703 53.4549 37.1772 53.1255C38.1827 52.7108 38.8282 51.7226 38.8406 50.5759C38.8476 50.1661 38.5315 49.8231 38.1225 49.7965L37.5372 49.7586ZM54.4941 45.8792C54.4817 45.0009 54.2955 44.5495 53.6748 43.9395L53.6484 43.9136C53.3965 43.6659 53.2405 43.5124 53.0683 43.492C52.7878 43.4589 52.4647 43.7792 51.615 44.6216L51.5769 44.6593C48.548 47.6603 44.5881 49.4658 40.3426 49.7586C39.4586 49.8194 39.2041 49.8369 39.1174 49.9653C39.0824 50.0172 39.0748 50.0872 39.064 50.1855C38.9647 51.0273 39.7716 52.3814 40.7026 52.9548C41.3109 53.3207 42.7509 53.5525 44.8488 53.6379C45.8543 53.6745 47.0336 53.7599 47.4804 53.8209C48.4487 53.9673 49.4666 54.4309 49.8763 54.9066C49.9846 55.0352 50.1944 54.9667 50.2059 54.799L50.2363 54.3577C50.2859 53.6257 50.3852 53.2841 50.8073 52.4546C51.0928 51.8934 51.6266 51.0395 52.0114 50.5759C53.8858 48.2215 54.4941 47.0747 54.4941 45.8792ZM43.1854 53.6745C41.0502 53.5037 40.7026 53.4061 40.0447 52.7596C39.9847 52.7006 39.9268 52.6436 39.8723 52.5903C39.6216 52.3448 39.3672 52.364 39.1329 52.6253C39.091 52.672 39.0471 52.7211 39.002 52.7718C38.6792 53.1377 38.3316 53.3695 37.9468 53.4915C37.202 53.7355 35.1786 54.0527 34.409 54.0527C33.8379 54.0527 33.8007 54.0771 33.6269 54.5041C32.8697 56.2729 33.4655 57.2001 36.2462 58.5908C38.2075 59.5789 38.8282 60.0059 39.2627 60.689L39.3104 60.7611C39.4387 60.9547 39.731 60.9275 39.8213 60.7134C40.1316 59.9815 40.864 59.3227 42.515 58.3224C44.6377 57.0171 45.3701 56.2241 45.3701 55.1994C45.3701 54.7846 45.0722 53.9917 44.8736 53.8697C44.8239 53.8331 44.0543 53.7477 43.1854 53.6745ZM41.3728 40.1215C41.1121 40.0849 41.0749 40.0117 41.0252 39.3163L41.0048 39.0672C40.9824 38.7941 41.198 38.56 41.4721 38.56C42.0431 38.56 42.1425 38.682 42.1425 39.3407C42.1425 39.8165 41.7825 40.1825 41.3728 40.1215Z" fill="#E8E8E8"/>
</g>
<defs>
<filter id="filter0_d_1_701" x="0.495667" y="0.169922" width="77.3145" height="74.7214" filterUnits="userSpaceOnUse" color-interpolation-filters="sRGB">
<feFlood flood-opacity="0" result="BackgroundImageFix"/>
<feColorMatrix in="SourceAlpha" type="matrix" values="0 0 0 0 0 0 0 0 0 0 0 0 0 0 0 0 0 0 127 0" result="hardAlpha"/>
<feOffset dy="4"/>
<feGaussianBlur stdDeviation="5"/>
<feComposite in2="hardAlpha" operator="out"/>
<feColorMatrix type="matrix" values="0 0 0 0 0 0 0 0 0 0 0 0 0 0 0 0 0 0 0.35 0"/>
<feBlend mode="normal" in2="BackgroundImageFix" result="effect1_dropShadow_1_701"/>
<feBlend mode="normal" in="SourceGraphic" in2="effect1_dropShadow_1_701" result="shape"/>
</filter>
</defs>
</svg>
