<svg width="63" height="47" viewBox="0 0 63 47" fill="none" xmlns="http://www.w3.org/2000/svg">
<rect x="6" y="33" width="52" height="2" rx="1" fill="url(#paint0_linear_1_636)"/>
<rect x="6" y="33" width="52" height="2" rx="1" stroke="black"/>
<rect y="28" width="63" height="2" rx="1" fill="url(#paint1_linear_1_636)"/>
<rect y="28" width="63" height="2" rx="1" stroke="black"/>
<rect x="13" y="37" width="38" height="2" rx="1" fill="url(#paint2_linear_1_636)"/>
<rect x="13" y="37" width="38" height="2" rx="1" stroke="black"/>
<rect x="19" y="41" width="26" height="2" rx="1" fill="url(#paint3_linear_1_636)"/>
<rect x="19" y="41" width="26" height="2" rx="1" stroke="black"/>
<rect x="32" y="6" width="6" height="2" rx="1" transform="rotate(-90 32 6)" fill="url(#paint4_linear_1_636)"/>
<rect x="32" y="6" width="6" height="2" rx="1" transform="rotate(-90 32 6)" stroke="black"/>
<rect x="50.9297" y="15.7578" width="6" height="2" rx="1" transform="rotate(-32.2857 50.9297 15.7578)" fill="url(#paint5_linear_1_636)"/>
<rect x="50.9297" y="15.7578" width="6" height="2" rx="1" transform="rotate(-32.2857 50.9297 15.7578)" stroke="black"/>
<rect x="44" y="7.8125" width="6" height="2" rx="1" transform="rotate(-53.3104 44 7.8125)" fill="url(#paint6_linear_1_636)"/>
<rect x="44" y="7.8125" width="6" height="2" rx="1" transform="rotate(-53.3104 44 7.8125)" stroke="black"/>
<rect width="6" height="2" rx="1" transform="matrix(-0.59748 -0.801884 -0.801884 0.59748 22.1886 7.8125)" fill="url(#paint7_linear_1_636)"/>
<rect width="6" height="2" rx="1" transform="matrix(-0.59748 -0.801884 -0.801884 0.59748 22.1886 7.8125)" stroke="black"/>
<rect width="6" height="2" rx="1" transform="matrix(-0.845395 -0.534142 -0.534142 0.845395 13.1406 15.7578)" fill="url(#paint8_linear_1_636)"/>
<rect width="6" height="2" rx="1" transform="matrix(-0.845395 -0.534142 -0.534142 0.845395 13.1406 15.7578)" stroke="black"/>
<path d="M25.3683 15.3202C23.2672 16.1467 21.3802 17.3964 19.7073 19.0693C17.3277 21.449 15.796 24.223 15.1121 27.3914C14.8638 28.5422 15.7984 29.5583 16.9758 29.5576L17.5517 29.5573L46.0372 29.5415L46.5713 29.5412C47.7465 29.5405 48.6795 28.5268 48.4326 27.3778C47.7536 24.2182 46.2244 21.4487 43.845 19.0693C42.1721 17.3964 40.2851 16.1467 38.184 15.3202C36.0829 14.4937 33.9469 14.0805 31.7761 14.0805C29.6053 14.0805 27.4694 14.4937 25.3683 15.3202ZM21.4997 20.8617C19.5081 22.8533 18.2634 25.2332 17.7655 28.0015L45.8166 28.0015C45.2988 25.2332 44.0441 22.8533 42.0526 20.8617C39.198 18.0072 35.7725 16.5799 31.7761 16.5799C27.7797 16.5799 24.3543 18.0072 21.4997 20.8617Z" fill="url(#paint9_linear_1_636)"/>
<path d="M25.3683 15.3202C23.2672 16.1467 21.3802 17.3964 19.7073 19.0693C17.3277 21.449 15.796 24.223 15.1121 27.3914C14.8638 28.5422 15.7984 29.5583 16.9758 29.5576L17.5517 29.5573L46.0372 29.5415L46.5713 29.5412C47.7465 29.5405 48.6795 28.5268 48.4326 27.3778C47.7536 24.2182 46.2244 21.4487 43.845 19.0693C42.1721 17.3964 40.2851 16.1467 38.184 15.3202C36.0829 14.4937 33.9469 14.0805 31.7761 14.0805C29.6053 14.0805 27.4694 14.4937 25.3683 15.3202ZM21.4997 20.8617C19.5081 22.8533 18.2634 25.2332 17.7655 28.0015L45.8166 28.0015C45.2988 25.2332 44.0441 22.8533 42.0526 20.8617C39.198 18.0072 35.7725 16.5799 31.7761 16.5799C27.7797 16.5799 24.3543 18.0072 21.4997 20.8617Z" stroke="black"/>
<defs>
<linearGradient id="paint0_linear_1_636" x1="-2.06269" y1="31.5716" x2="64.6235" y2="45.0111" gradientUnits="userSpaceOnUse">
<stop stop-color="#A77149"/>
<stop offset="0.46875" stop-color="#DD9F70"/>
<stop offset="1" stop-color="#A77149"/>
</linearGradient>
<linearGradient id="paint1_linear_1_636" x1="-9.76826" y1="26.5716" x2="69.5758" y2="45.9447" gradientUnits="userSpaceOnUse">
<stop stop-color="#A77149"/>
<stop offset="0.46875" stop-color="#DD9F70"/>
<stop offset="1" stop-color="#A77149"/>
</linearGradient>
<linearGradient id="paint2_linear_1_636" x1="7.10803" y1="35.5716" x2="56.743" y2="42.8816" gradientUnits="userSpaceOnUse">
<stop stop-color="#A77149"/>
<stop offset="0.46875" stop-color="#DD9F70"/>
<stop offset="1" stop-color="#A77149"/>
</linearGradient>
<linearGradient id="paint3_linear_1_636" x1="14.9687" y1="39.5716" x2="49.3172" y2="43.0328" gradientUnits="userSpaceOnUse">
<stop stop-color="#A77149"/>
<stop offset="0.46875" stop-color="#DD9F70"/>
<stop offset="1" stop-color="#A77149"/>
</linearGradient>
<linearGradient id="paint4_linear_1_636" x1="31.0697" y1="4.5716" x2="39.0724" y2="4.7577" gradientUnits="userSpaceOnUse">
<stop stop-color="#A77149"/>
<stop offset="0.46875" stop-color="#DD9F70"/>
<stop offset="1" stop-color="#A77149"/>
</linearGradient>
<linearGradient id="paint5_linear_1_636" x1="49.9994" y1="14.3294" x2="58.0021" y2="14.5155" gradientUnits="userSpaceOnUse">
<stop stop-color="#A77149"/>
<stop offset="0.46875" stop-color="#DD9F70"/>
<stop offset="1" stop-color="#A77149"/>
</linearGradient>
<linearGradient id="paint6_linear_1_636" x1="43.0697" y1="6.3841" x2="51.0724" y2="6.5702" gradientUnits="userSpaceOnUse">
<stop stop-color="#A77149"/>
<stop offset="0.46875" stop-color="#DD9F70"/>
<stop offset="1" stop-color="#A77149"/>
</linearGradient>
<linearGradient id="paint7_linear_1_636" x1="-0.93031" y1="-1.4284" x2="7.07244" y2="-1.2423" gradientUnits="userSpaceOnUse">
<stop stop-color="#A77149"/>
<stop offset="0.46875" stop-color="#DD9F70"/>
<stop offset="1" stop-color="#A77149"/>
</linearGradient>
<linearGradient id="paint8_linear_1_636" x1="-0.93031" y1="-1.4284" x2="7.07244" y2="-1.2423" gradientUnits="userSpaceOnUse">
<stop stop-color="#A77149"/>
<stop offset="0.46875" stop-color="#DD9F70"/>
<stop offset="1" stop-color="#A77149"/>
</linearGradient>
<linearGradient id="paint9_linear_1_636" x1="76.4488" y1="44.2613" x2="44.3104" y2="75.9053" gradientUnits="userSpaceOnUse">
<stop stop-color="#A77149"/>
<stop offset="0.46875" stop-color="#DD9F70"/>
<stop offset="1" stop-color="#A77149"/>
</linearGradient>
</defs>
</svg>
