<svg width="63" height="40" viewBox="0 0 63 40" fill="none" xmlns="http://www.w3.org/2000/svg">
<rect x="5" y="27.8794" width="15" height="2" rx="1" fill="url(#paint0_linear_1_619)"/>
<rect x="5" y="27.8794" width="15" height="2" rx="1" stroke="black"/>
<rect x="22" y="27.8794" width="8" height="2" rx="1" fill="url(#paint1_linear_1_619)"/>
<rect x="22" y="27.8794" width="8" height="2" rx="1" stroke="black"/>
<rect x="32" y="27.8794" width="19" height="2" rx="1" fill="url(#paint2_linear_1_619)"/>
<rect x="32" y="27.8794" width="19" height="2" rx="1" stroke="black"/>
<rect x="53" y="27.8794" width="6" height="2" rx="1" fill="url(#paint3_linear_1_619)"/>
<rect x="53" y="27.8794" width="6" height="2" rx="1" stroke="black"/>
<rect y="22.8794" width="63" height="2" rx="1" fill="url(#paint4_linear_1_619)"/>
<rect y="22.8794" width="63" height="2" rx="1" stroke="black"/>
<rect x="11" y="31.8794" width="19" height="2" rx="1" fill="url(#paint5_linear_1_619)"/>
<rect x="11" y="31.8794" width="19" height="2" rx="1" stroke="black"/>
<rect x="33" y="31.8794" width="7" height="2" rx="1" fill="url(#paint6_linear_1_619)"/>
<rect x="33" y="31.8794" width="7" height="2" rx="1" stroke="black"/>
<rect x="43" y="31.8794" width="10" height="2" rx="1" fill="url(#paint7_linear_1_619)"/>
<rect x="43" y="31.8794" width="10" height="2" rx="1" stroke="black"/>
<rect x="28" y="35.8794" width="7" height="2" rx="1" fill="url(#paint8_linear_1_619)"/>
<rect x="28" y="35.8794" width="7" height="2" rx="1" stroke="black"/>
<rect x="19" y="35.8794" width="7" height="2" rx="1" fill="url(#paint9_linear_1_619)"/>
<rect x="19" y="35.8794" width="7" height="2" rx="1" stroke="black"/>
<rect x="37" y="35.8794" width="7" height="2" rx="1" fill="url(#paint10_linear_1_619)"/>
<rect x="37" y="35.8794" width="7" height="2" rx="1" stroke="black"/>
<path d="M18.6275 3.16519C18.7316 2.76853 18.5713 2.35249 18.2219 2.14261C16.1867 0.919989 14.7001 0.487432 12.2193 0.685527C11.7957 0.719356 11.4431 1.0266 11.3359 1.43506C11.1415 2.17511 11.8164 2.83354 12.5788 2.71985C14.4515 2.44059 15.6784 2.75546 16.9261 3.69175C17.5212 4.13835 18.437 3.89053 18.6275 3.16519Z" fill="url(#paint11_linear_1_619)"/>
<path d="M18.6275 3.16519C18.7316 2.76853 18.5713 2.35249 18.2219 2.14261C16.1867 0.919989 14.7001 0.487432 12.2193 0.685527C11.7957 0.719356 11.4431 1.0266 11.3359 1.43506C11.1415 2.17511 11.8164 2.83354 12.5788 2.71985C14.4515 2.44059 15.6784 2.75546 16.9261 3.69175C17.5212 4.13835 18.437 3.89053 18.6275 3.16519Z" stroke="black"/>
<path d="M13.7226 4.22378C13.8267 3.82712 13.6664 3.41109 13.317 3.2012C11.2818 1.97858 9.79518 1.54603 7.31442 1.74412C6.89077 1.77795 6.5382 2.08519 6.43095 2.49365C6.23662 3.2337 6.91148 3.89214 7.67392 3.77844C9.54662 3.49919 10.7735 3.81405 12.0212 4.75035C12.6163 5.19694 13.5321 4.94912 13.7226 4.22378Z" fill="url(#paint12_linear_1_619)"/>
<path d="M13.7226 4.22378C13.8267 3.82712 13.6664 3.41109 13.317 3.2012C11.2818 1.97858 9.79518 1.54603 7.31442 1.74412C6.89077 1.77795 6.5382 2.08519 6.43095 2.49365C6.23662 3.2337 6.91148 3.89214 7.67392 3.77844C9.54662 3.49919 10.7735 3.81405 12.0212 4.75035C12.6163 5.19694 13.5321 4.94912 13.7226 4.22378Z" stroke="black"/>
<path d="M25.8661 12.2626C24.0012 12.9963 22.3262 14.1055 20.8413 15.5905C18.7895 17.6422 17.4479 20.0243 16.8164 22.7368C16.5495 23.8835 17.4858 24.9007 18.6632 24.9001L18.9279 24.8999L44.2125 24.8858L44.4407 24.8857C45.616 24.8851 46.5507 23.8701 46.2851 22.7253C45.6577 20.0203 44.3182 17.642 42.2666 15.5905C40.7817 14.1055 39.1067 12.9963 37.2417 12.2626C35.3767 11.529 33.4808 11.1622 31.5539 11.1622C29.6271 11.1622 27.7311 11.529 25.8661 12.2626ZM22.4323 17.1814C20.6645 18.9492 19.5596 21.0617 19.1177 23.5189L44.0167 23.5189C43.5571 21.0617 42.4434 18.9492 40.6756 17.1814C38.1418 14.6477 35.1013 13.3808 31.5539 13.3807C28.0066 13.3807 24.9661 14.6477 22.4323 17.1814Z" fill="url(#paint13_linear_1_619)"/>
<path d="M25.8661 12.2626C24.0012 12.9963 22.3262 14.1055 20.8413 15.5905C18.7895 17.6422 17.4479 20.0243 16.8164 22.7368C16.5495 23.8835 17.4858 24.9007 18.6632 24.9001L18.9279 24.8999L44.2125 24.8858L44.4407 24.8857C45.616 24.8851 46.5507 23.8701 46.2851 22.7253C45.6577 20.0203 44.3182 17.642 42.2666 15.5905C40.7817 14.1055 39.1067 12.9963 37.2417 12.2626C35.3767 11.529 33.4808 11.1622 31.5539 11.1622C29.6271 11.1622 27.7311 11.529 25.8661 12.2626ZM22.4323 17.1814C20.6645 18.9492 19.5596 21.0617 19.1177 23.5189L44.0167 23.5189C43.5571 21.0617 42.4434 18.9492 40.6756 17.1814C38.1418 14.6477 35.1013 13.3808 31.5539 13.3807C28.0066 13.3807 24.9661 14.6477 22.4323 17.1814Z" stroke="black"/>
<defs>
<linearGradient id="paint0_linear_1_619" x1="2.67422" y1="26.451" x2="22.6245" y2="27.6108" gradientUnits="userSpaceOnUse">
<stop stop-color="#A77149"/>
<stop offset="0.46875" stop-color="#DD9F70"/>
<stop offset="1" stop-color="#A77149"/>
</linearGradient>
<linearGradient id="paint1_linear_1_619" x1="20.7596" y1="26.451" x2="31.4254" y2="26.7817" gradientUnits="userSpaceOnUse">
<stop stop-color="#A77149"/>
<stop offset="0.46875" stop-color="#DD9F70"/>
<stop offset="1" stop-color="#A77149"/>
</linearGradient>
<linearGradient id="paint2_linear_1_619" x1="29.054" y1="26.451" x2="54.273" y2="28.3081" gradientUnits="userSpaceOnUse">
<stop stop-color="#A77149"/>
<stop offset="0.46875" stop-color="#DD9F70"/>
<stop offset="1" stop-color="#A77149"/>
</linearGradient>
<linearGradient id="paint3_linear_1_619" x1="52.0697" y1="26.451" x2="60.0724" y2="26.6371" gradientUnits="userSpaceOnUse">
<stop stop-color="#A77149"/>
<stop offset="0.46875" stop-color="#DD9F70"/>
<stop offset="1" stop-color="#A77149"/>
</linearGradient>
<linearGradient id="paint4_linear_1_619" x1="-9.76826" y1="21.451" x2="69.5758" y2="40.8241" gradientUnits="userSpaceOnUse">
<stop stop-color="#A77149"/>
<stop offset="0.46875" stop-color="#DD9F70"/>
<stop offset="1" stop-color="#A77149"/>
</linearGradient>
<linearGradient id="paint5_linear_1_619" x1="8.05402" y1="30.451" x2="33.273" y2="32.3081" gradientUnits="userSpaceOnUse">
<stop stop-color="#A77149"/>
<stop offset="0.46875" stop-color="#DD9F70"/>
<stop offset="1" stop-color="#A77149"/>
</linearGradient>
<linearGradient id="paint6_linear_1_619" x1="31.9146" y1="30.451" x2="41.2494" y2="30.7042" gradientUnits="userSpaceOnUse">
<stop stop-color="#A77149"/>
<stop offset="0.46875" stop-color="#DD9F70"/>
<stop offset="1" stop-color="#A77149"/>
</linearGradient>
<linearGradient id="paint7_linear_1_619" x1="41.4495" y1="30.451" x2="54.7746" y2="30.9674" gradientUnits="userSpaceOnUse">
<stop stop-color="#A77149"/>
<stop offset="0.46875" stop-color="#DD9F70"/>
<stop offset="1" stop-color="#A77149"/>
</linearGradient>
<linearGradient id="paint8_linear_1_619" x1="26.9146" y1="34.451" x2="36.2494" y2="34.7042" gradientUnits="userSpaceOnUse">
<stop stop-color="#A77149"/>
<stop offset="0.46875" stop-color="#DD9F70"/>
<stop offset="1" stop-color="#A77149"/>
</linearGradient>
<linearGradient id="paint9_linear_1_619" x1="17.9146" y1="34.451" x2="27.2494" y2="34.7042" gradientUnits="userSpaceOnUse">
<stop stop-color="#A77149"/>
<stop offset="0.46875" stop-color="#DD9F70"/>
<stop offset="1" stop-color="#A77149"/>
</linearGradient>
<linearGradient id="paint10_linear_1_619" x1="35.9146" y1="34.451" x2="45.2494" y2="34.7042" gradientUnits="userSpaceOnUse">
<stop stop-color="#A77149"/>
<stop offset="0.46875" stop-color="#DD9F70"/>
<stop offset="1" stop-color="#A77149"/>
</linearGradient>
<linearGradient id="paint11_linear_1_619" x1="20.3669" y1="1.12633" x2="10.6357" y2="-1.17866" gradientUnits="userSpaceOnUse">
<stop stop-color="#A77149"/>
<stop offset="0.46875" stop-color="#DD9F70"/>
<stop offset="1" stop-color="#A77149"/>
</linearGradient>
<linearGradient id="paint12_linear_1_619" x1="15.462" y1="2.18492" x2="5.73084" y2="-0.120063" gradientUnits="userSpaceOnUse">
<stop stop-color="#A77149"/>
<stop offset="0.46875" stop-color="#DD9F70"/>
<stop offset="1" stop-color="#A77149"/>
</linearGradient>
<linearGradient id="paint13_linear_1_619" x1="71.2068" y1="37.9516" x2="42.6798" y2="66.0398" gradientUnits="userSpaceOnUse">
<stop stop-color="#A77149"/>
<stop offset="0.46875" stop-color="#DD9F70"/>
<stop offset="1" stop-color="#A77149"/>
</linearGradient>
</defs>
</svg>
