<svg width="53" height="57" viewBox="0 0 53 57" fill="none" xmlns="http://www.w3.org/2000/svg">
<g filter="url(#filter0_d_1_707)">
<path d="M5.21442 16.6427C5.21442 16.5246 7.60258 14.1045 10.5326 11.2318C15.8307 6.03742 15.8508 6.01775 15.8508 5.19136C15.8508 4.69947 15.7504 4.3453 15.63 4.3453C15.4695 4.3453 15.4695 4.2666 15.63 4.06984C15.7705 3.91243 15.8508 3.47957 15.7906 3.1254L15.7103 2.4761L15.6902 3.22378C15.6702 3.67632 15.5297 4.01081 15.3491 4.06984C15.1885 4.14854 14.0245 3.95179 12.7803 3.63697L10.5326 3.08605L11.6163 2.6335C12.2184 2.37772 12.8204 2.20064 12.981 2.25966C13.1415 2.31869 13.2218 2.29901 13.1616 2.20064C13.1014 2.10226 13.6031 1.80712 14.3055 1.53166C14.9878 1.23652 15.6702 1.02009 15.8106 1.00041C15.9913 1.00041 16.0515 1.64971 16.0515 3.6173V6.2145L18.56 8.67398L21.0686 11.1335L23.6775 8.57561C26.2062 6.11613 26.2865 5.99807 26.2865 5.19136C26.2865 4.2666 26.3266 4.30595 23.7377 3.73535C22.9952 3.55827 22.7343 3.44021 22.9149 3.32216C23.0956 3.2041 23.0353 3.18442 22.7343 3.26313C22.3129 3.38118 21.169 3.2041 21.3295 3.02702C21.47 2.90897 26.146 1.00041 26.3266 1.00041C26.4269 1.00041 26.4871 2.18096 26.4871 3.59762V6.2145L29.0359 8.71334C30.4407 10.1103 31.6849 11.2318 31.8053 11.2318C31.9057 11.2318 33.1499 10.1103 34.5547 8.73301C37.1235 6.2145 37.1235 6.2145 37.1235 5.28974C37.1235 4.2666 37.2038 4.30595 34.5748 3.73535C33.8724 3.57794 33.5914 3.44021 33.752 3.32216C33.9125 3.22378 33.7721 3.2041 33.4108 3.28281C33.0897 3.34184 32.588 3.30248 32.3271 3.22378C31.8856 3.0467 31.9057 3.02702 32.7887 2.69253C33.2904 2.49577 33.8122 2.41707 33.9326 2.49577C34.0731 2.57447 34.1132 2.5548 34.053 2.43675C33.9527 2.27934 36.7221 1.00041 37.1837 1.00041C37.264 1.00041 37.3242 2.12193 37.3242 3.51891V6.01775L42.6424 11.2318C45.5724 14.1045 47.9606 16.5443 47.9606 16.6427M5.21442 16.6427C5.21442 16.7607 6.33826 17.9413 7.723 19.2989L10.2316 21.7584L7.58252 24.3556L4.91339 26.9725M5.21442 16.6427L10.5928 16.5443C14.5062 16.5443 15.6902 16.4853 15.7504 16.2885C15.8106 16.1508 15.8307 13.9078 15.8106 11.2712L15.7504 6.50964L10.6329 11.527L5.21442 16.6427ZM5.21442 16.6427C5.21442 16.7804 10.2717 21.4633 10.4122 21.4633C10.4724 21.4633 11.6163 20.4008 12.9408 19.1022L15.3491 16.7411H10.4724C7.80327 16.7411 5.21442 16.6033 5.21442 16.6427ZM4.91339 26.9725L7.62265 29.6287L10.3319 32.285L7.66279 34.9019L5.31476 37.5975M4.91339 26.9725H10.4323H15.5498L13.0412 24.513C11.6564 23.1554 10.4925 22.0535 10.4323 22.0535C10.3721 22.0535 9.20807 23.1554 7.82334 24.513L4.91339 26.9725ZM4.91339 26.9725C4.91339 27.0512 6.6995 28.5269 8.02403 29.8255L10.4323 32.1866L13.001 29.6681L15.5498 27.1693H10.5727C7.84341 27.1693 4.91339 26.8741 4.91339 26.9725ZM5.31476 37.5975L10.4323 42.8115M5.31476 37.5975H10.5326H15.7504L12.1381 34.129C9.64958 31.6302 10.8136 32.6195 14.2453 35.7873L15.7504 37.1843L15.8106 34.7248C15.8307 33.3868 15.8307 31.1831 15.8106 29.8255L15.7504 27.366L10.4323 32.5051L5.31476 37.5975ZM5.31476 37.5975L10.7333 42.7132C13.4827 45.4088 15.8307 48.124 15.8508 48.124M5.31476 37.5975L10.7935 37.7942H15.8508M10.4323 42.8115L15.8508 48.124M10.4323 42.8115L15.8508 37.7942M15.8508 48.124L18.5199 45.5071L21.169 42.9099L23.7779 45.4678C25.2228 46.8648 26.4269 48.0256 26.4871 48.0256M15.8508 48.124C15.8909 48.124 15.8508 45.4088 15.8508 42.7132V37.7942M15.8508 48.124L18.56 45.271L21.0686 42.8115L18.6203 40.4111C17.2556 39.0731 16.1317 37.991 16.1117 37.991C16.0715 37.991 16.0515 40.175 16.0515 42.8509L15.8508 48.124ZM26.4871 48.0256C26.6678 48.006 31.7652 43.1067 31.6648 43.0083C31.6247 42.969 30.5009 43.9921 29.1964 45.271C27.8719 46.5696 26.5674 48.0256 26.4871 48.0256ZM26.4871 48.0256C26.3868 48.0256 26.4871 45.3891 26.4871 42.6738V37.7155M26.4871 48.0256L26.2463 42.7132L26.1861 37.8926M26.4871 48.0256L23.8381 45.1333L21.3697 42.7132L23.7779 40.3127L26.1861 37.8926M26.4871 37.7155L31.7652 42.8509L37.0232 48.006M26.4871 37.7155L15.7103 26.7167M37.0232 48.006L40.8362 44.425C42.9434 42.4574 45.4118 40.116 46.3551 39.2305L48.0609 37.6171M37.0232 48.006C36.682 48.2618 37.3242 47.0222 37.3242 42.5361V37.7942M37.0232 48.006L37.1235 42.8509C37.1235 40.175 37.1034 37.991 37.0633 37.991C37.0432 37.991 35.9194 39.0731 34.5547 40.4111L32.1064 42.8115L34.6149 45.271L37.0232 48.006ZM37.0232 48.006C37.2996 47.7987 38.7615 46.2096 42.0708 43.0083M48.0609 37.6171L45.4118 35.0002L42.7427 32.3834L45.3918 29.7665L48.0609 27.1693M48.0609 37.6171C48.0609 37.7155 45.2714 37.5975 42.5019 37.5975H37.4245L40.0335 35.0396L42.6424 32.4817L45.0907 34.8822C46.4554 36.2201 48.0609 37.5384 48.0609 37.6171ZM48.0609 37.6171L42.4618 37.7942H37.3242M48.0609 37.6171L44.7094 40.4898C43.7228 41.4198 42.8461 42.2583 42.0708 43.0083M48.0609 27.1693L45.3918 24.5524L42.7427 21.9552L45.3516 19.3973C46.7765 18.0003 47.9606 16.7607 47.9606 16.6427M48.0609 27.1693L45.151 24.513C43.7662 23.1554 42.6424 22.0535 42.6424 22.0535C42.6424 22.0535 41.5185 23.1554 40.1338 24.513L37.6252 26.9725H42.6424L48.0609 27.1693ZM48.0609 27.1693C48.0609 27.307 46.7163 28.2908 43.8866 30.9077L42.522 32.1669L39.9733 29.7074C38.5885 28.3695 37.5048 27.3463 37.5851 27.4644C37.6654 27.5628 38.7892 28.704 40.0937 29.9632L42.4417 32.285L39.893 34.7838L37.3242 37.3023V32.3637C37.3242 29.6484 37.3844 27.366 37.4647 27.307C37.6453 27.1102 48.0609 26.9725 48.0609 27.1693ZM47.9606 16.6427L42.542 11.527M47.9606 16.6427L42.4818 16.5443H37.3242M47.9606 16.6427L42.542 16.7411H37.4245M47.9606 16.6427L45.0907 19.2399L42.542 21.7584L39.9933 19.2399L37.4245 16.7411M42.542 11.527C39.7324 8.77236 37.4045 6.50964 37.3844 6.50964C37.3443 6.50964 37.3242 8.77236 37.3242 11.527V16.5443M42.542 11.527L37.3242 16.5443M16.0515 16.7411L16.0916 21.7978L16.1518 26.8741L21.2292 26.9332L26.2865 26.9725V22.0142V17.0362L21.2693 21.9552C18.5199 24.6508 16.2522 26.7757 16.2522 26.6774C16.2522 26.5593 18.4597 24.3556 21.169 21.7387C23.8782 19.1219 26.0858 16.9378 26.0858 16.8591C26.0858 16.8001 23.818 16.7411 21.0686 16.7411H16.0515ZM16.0515 16.7411L26.6276 27.307M26.748 16.8788C26.5474 16.9378 26.4871 18.1577 26.4871 21.9748V26.9725L31.7652 26.9332L37.0232 26.8741L37.0834 21.7978L37.1235 16.7411L32.0662 16.7608C29.2767 16.7608 26.8684 16.8198 26.748 16.8788ZM26.748 16.8788L37.3242 26.8741M37.4245 16.7411L15.8508 37.7942M15.7103 26.7167C15.7906 26.7757 15.8508 24.6114 15.8508 21.8961C15.8508 19.1612 15.7906 16.9378 15.6902 16.9378C15.61 16.9378 14.446 18.02 13.0813 19.358L10.6329 21.7584L13.1014 24.1785C14.446 25.4968 15.61 26.638 15.7103 26.7167ZM37.3242 26.8741L39.8729 24.3753L42.4417 21.8568L41.5386 21.0501C41.0369 20.6172 39.893 19.535 38.9899 18.6496L37.3242 17.0362V21.9552V26.8741ZM31.9057 32.1866C29.0961 34.9412 26.728 37.2039 26.6477 37.2039C26.447 37.2039 26.4269 27.4841 26.6276 27.307M31.9057 32.1866L37.0232 27.1693H31.8856C29.0559 27.1693 26.6878 27.2283 26.6276 27.307M31.9057 32.1866L37.1235 37.5975M31.9057 32.1866L26.6276 27.307M37.1235 37.5975V32.5801C37.1235 29.8255 37.0834 27.5628 37.0432 27.5628C36.8827 27.5628 26.8885 37.263 26.8885 37.4204C26.8885 37.5188 29.1161 37.5975 32.006 37.5975H37.1235ZM26.1861 37.8926L23.7177 40.2537L21.2693 42.6148L18.8009 40.1947L16.3525 37.7942L21.2693 37.8336L26.1861 37.8926ZM37.3242 37.7942L42.0708 43.0083M18.4998 13.6323L16.0515 16.0524V11.2318V6.41126L18.4998 8.83139L20.9683 11.2318L18.4998 13.6323ZM26.2865 11.3696V16.2492L23.7377 13.7897L21.169 11.3302L23.7779 13.9471L26.3868 16.5443H21.169H15.9511L21.0686 11.527C23.8782 8.77236 26.2062 6.50964 26.2263 6.50964C26.2664 6.50964 26.2865 8.69366 26.2865 11.3696ZM37.0834 13.8684L37.0232 16.3082L34.4544 13.9274L31.8856 11.5467L34.4544 9.02815L37.0232 6.50964L37.0834 8.96912C37.1034 10.3268 37.1034 12.5304 37.0834 13.8684ZM31.8053 11.6254L36.8225 16.5443H31.8053H26.7882L29.2968 14.0258L31.8053 11.527L29.2968 13.9274C27.912 15.2654 26.7079 16.3476 26.6276 16.3476C26.5474 16.3476 26.4871 14.1832 26.4871 11.527C26.4871 8.87074 26.5474 6.7064 26.6477 6.7064C26.728 6.7064 29.0559 8.91009 31.8053 11.6254ZM26.2865 32.3834L26.2664 37.5975H21.1489H16.0515V32.6982C16.0515 30.0026 16.1117 27.6612 16.1719 27.4841C16.2722 27.2086 16.9144 27.1693 21.2894 27.1693H26.3065L26.2865 32.3834ZM34.354 40.1947L31.9057 42.6148L29.4573 40.1947L26.9889 37.7942H31.9057H36.8225L34.354 40.1947Z" stroke="#E8E8E8" shape-rendering="crispEdges"/>
</g>
<defs>
<filter id="filter0_d_1_707" x="0.413391" y="0.500488" width="52.1475" height="56.1235" filterUnits="userSpaceOnUse" color-interpolation-filters="sRGB">
<feFlood flood-opacity="0" result="BackgroundImageFix"/>
<feColorMatrix in="SourceAlpha" type="matrix" values="0 0 0 0 0 0 0 0 0 0 0 0 0 0 0 0 0 0 127 0" result="hardAlpha"/>
<feOffset dy="4"/>
<feGaussianBlur stdDeviation="2"/>
<feComposite in2="hardAlpha" operator="out"/>
<feColorMatrix type="matrix" values="0 0 0 0 0 0 0 0 0 0 0 0 0 0 0 0 0 0 0.25 0"/>
<feBlend mode="normal" in2="BackgroundImageFix" result="effect1_dropShadow_1_707"/>
<feBlend mode="normal" in="SourceGraphic" in2="effect1_dropShadow_1_707" result="shape"/>
</filter>
</defs>
</svg>
